<?xml version="1.0" encoding="UTF-8"?>
<svg id="Body" xmlns="http://www.w3.org/2000/svg" viewBox="0 0 475.2 101.79">
  <defs>
    <style>
      .cls-1 {
        fill: #80deff;
      }

      .cls-1, .cls-2 {
        font-family: Pacifico-Regular, Pacifico;
        font-size: 50px;
      }

      .cls-2 {
        fill: #57d38c;
      }

      .cls-3 {
        letter-spacing: 0em;
      }

      .cls-4 {
        fill: #036;
      }

      .cls-5 {
        letter-spacing: 0em;
      }
    </style>
  </defs>
  <text class="cls-2" transform="translate(28.48 62.97)"><tspan x="0" y="0">Cho</tspan><tspan class="cls-5" x="81.95" y="0">o</tspan><tspan class="cls-3" x="104.35" y="0">se Your Blend</tspan></text>
  <g>
    <g>
      <path class="cls-4" d="M56.13,70.22c-4.26,0-8.04-.8-11.24-2.38-3.28-1.62-5.83-3.96-7.59-6.96-1.74-2.96-2.62-6.43-2.62-10.31,0-5.19,1-9.87,2.98-13.93,2-4.11,4.77-7.35,8.22-9.62,3.49-2.29,7.41-3.45,11.65-3.45s7.36,1.13,9.61,3.35c2.25,2.23,3.39,5.17,3.39,8.75,0,2.38-.45,4.37-1.35,5.9-1.08,1.86-2.75,2.85-4.8,2.85-1.4,0-2.57-.37-3.46-1.1-.7-.57-1.54-1.63-1.54-3.45,0-.29.03-.77.23-1.98.23-1.14.27-1.75.27-2.07,0-1.65-.45-2.55-2.85-2.55-1.79,0-3.47.58-5.14,1.78-1.7,1.22-3.11,3.07-4.19,5.51-1.11,2.51-1.68,5.58-1.68,9.12s.9,6.04,2.75,7.84c1.84,1.8,4.7,2.71,8.5,2.71,1.99,0,4.04-.26,6.09-.77,2.11-.52,4.49-1.34,7.08-2.43.78-.31,1.43-.46,2.02-.46,1.21,0,2.22.53,2.86,1.49.49.74.74,1.63.74,2.66,0,1.99-.78,4.7-4.5,6.33-2.5,1.09-5.13,1.9-7.81,2.41-2.66.5-5.24.76-7.65.76Z"/>
      <path class="cls-4" d="M88.13,70.22c-2.29,0-4.09-.72-5.35-2.15-1.19-1.35-1.8-3.23-1.8-5.6,0-.72.11-1.76.33-3.13-.73,1.69-1.33,3.49-1.79,5.36-.84,3.56-3.2,5.52-6.64,5.52-1.78,0-3.17-.83-3.81-2.27-.44-.99-.65-2.48-.65-4.68,0-1.08.02-1.98.05-2.65l.05-3.92c0-5.21.54-10.74,1.61-16.4,1.08-5.75,2.72-10.66,4.86-14.61,2.42-4.46,5.49-6.72,9.13-6.72,2.17,0,4.02.97,5.35,2.8,1.2,1.66,1.8,3.78,1.8,6.3,0,3.69-1.07,7.53-3.19,11.43-.59,1.09-1.29,2.23-2.1,3.42.65-.17,1.28-.25,1.89-.25,3.29,0,5.25,1.96,5.25,5.25,0,1.45-.38,3.9-1.15,7.47-.65,2.96-.84,4.35-.89,5,.13-.1.29-.23.48-.39.84-.75,2.01-2.02,3.47-3.76,1.01-1.17,2.12-1.42,2.88-1.42,1.12,0,2.11.56,2.72,1.54.45.72.68,1.63.68,2.71,0,1.82-.48,3.3-1.43,4.41-1.64,1.89-3.35,3.46-5.09,4.68-1.95,1.37-4.2,2.06-6.67,2.06ZM82.3,30.91c-.39,1.15-.79,2.5-1.17,4.04.59-1.44.98-2.79,1.17-4.04Z"/>
      <path class="cls-4" d="M103.98,70.22c-2.4,0-4.5-.61-6.25-1.8-1.71-1.17-3.03-2.74-3.92-4.67-.85-1.85-1.28-3.88-1.28-6.03,0-2.83.56-5.4,1.65-7.65,1.12-2.3,2.7-4.13,4.7-5.45,2.02-1.33,4.29-2,6.75-2,3.12,0,5.68,1.11,7.62,3.3,1.4,1.59,2.37,3.46,2.88,5.6,1.04-.16,2.19-.41,3.44-.74.46-.11.84-.17,1.21-.17,1.17,0,2.18.62,2.76,1.7.39.73.59,1.6.59,2.6,0,3.37-1.79,4.43-2.86,4.76-1.7.6-3.6,1-5.64,1.19-.81,2.54-2.14,4.66-3.97,6.31-2.24,2.02-4.82,3.04-7.69,3.04ZM103.65,53.13c-.58.94-.88,2.33-.88,4.14,0,1.37.24,2.41.68,3.01.48.64.79.64.92.64.35,0,.78-.08,1.29-.64.35-.39.63-.93.84-1.63-.8-.75-1.46-1.64-1.95-2.66-.44-.91-.75-1.87-.9-2.86Z"/>
      <path class="cls-4" d="M126.28,70.22c-2.38,0-4.46-.62-6.18-1.85-1.67-1.19-2.95-2.77-3.8-4.7-.81-1.85-1.22-3.85-1.22-5.95,0-2.82.55-5.39,1.62-7.64,1.1-2.29,2.63-4.12,4.55-5.44,1.96-1.34,4.19-2.02,6.63-2.02s4.46.62,6.2,1.84c1.7,1.19,2.99,2.78,3.83,4.71.81,1.85,1.22,3.85,1.22,5.95,0,2.83-.56,5.4-1.65,7.65-1.12,2.29-2.67,4.12-4.6,5.43-1.98,1.34-4.2,2.02-6.6,2.02ZM127.48,52.02c-.23,0-.71,0-1.29.91-.39.61-.86,1.85-.86,4.34,0,1.91.38,2.7.61,3.01.37.5.66.54.89.54.16,0,.6,0,1.19-.92.39-.62.86-1.88.86-4.33,0-1.74-.34-2.59-.63-2.99-.4-.56-.66-.56-.77-.56Z"/>
      <path class="cls-4" d="M149.53,71.32c-2.22,0-4-.57-5.29-1.69-1.36-1.18-1.86-2.46-2.01-3.48-1.16,1.09-2.35,1.33-3.15,1.33-1.12,0-2.09-.44-2.81-1.26-.65-.75-.99-1.69-.99-2.74,0-1.14.39-2.19,1.15-3.12l.64-.79c1.77-2.19,3.13-4.01,4.02-5.41.5-.85,1.14-2.1,1.88-3.66.75-1.58,1.49-3.24,2.21-4.95.55-1.29,2.04-3.42,5.79-3.42,1.26,0,2.12.13,2.77.43,1.08.5,1.73,1.48,1.73,2.62,0,.41-.09.89-.29,1.54-.17.55-.41,1.11-.7,1.66-.57,1.14-.66,1.81-.66,2.1,0,.02,0,.22.25.64.3.51.79,1.18,1.45,2,1.17,1.54,2.02,2.79,2.62,3.86.34.62.61,1.26.79,1.94.68-.65,1.47-1.5,2.38-2.64,1.03-1.2,2.15-1.45,2.91-1.45,1.12,0,2.11.56,2.72,1.54.45.72.68,1.63.68,2.71,0,1.72-.46,3.18-1.38,4.34-1.88,2.33-3.66,3.89-5.46,4.78-1.61.8-3.55,1.27-5.78,1.4-1.58,1.15-3.42,1.73-5.48,1.73ZM147.63,59.56c-.15.24-.29.47-.44.69.24-.02.48-.03.73-.03.04,0,.07,0,.11,0-.12-.22-.26-.44-.4-.66Z"/>
      <path class="cls-4" d="M170.93,70.22c-3.77,0-6.77-1.18-8.92-3.52-2.11-2.29-3.18-5.36-3.18-9.13,0-2.6.56-5.05,1.65-7.3,1.12-2.29,2.7-4.14,4.7-5.5,2.04-1.39,4.38-2.1,6.95-2.1s4.5.77,6.05,2.3c1.56,1.54,2.35,3.59,2.35,6.1,0,1.94-.48,3.7-1.43,5.27.13-.01.26-.02.38-.02,1.12,0,2.11.56,2.72,1.54.45.72.68,1.63.68,2.71,0,1.59-.4,3-1.17,4.19-1.12,1.71-2.6,3.07-4.42,4.03-1.8.95-3.94,1.43-6.36,1.43ZM171.22,51.57c-.22,0-.72.1-1.35,1.17-.23.39-.42.82-.58,1.28.36-.2.68-.41.96-.64.87-.72.97-1.32.97-1.71,0-.04,0-.07,0-.1Z"/>
      <path class="cls-4" d="M213.73,86.32c-3.26,0-5.87-.85-7.75-2.53-1.95-1.74-2.95-3.98-2.95-6.67,0-4.09,1.81-7.74,5.38-10.86.67-.58,1.41-1.15,2.21-1.71-3.13-.14-5.6-1.25-7.36-3.31-1.81-2.11-2.73-4.83-2.73-8.08,0-1.35.15-2.84.43-4.43.27-1.51.7-3.57,1.27-6.11.49-2.26.86-4.08,1.11-5.42.23-1.24.34-2.35.34-3.29,0-.16,0-.29-.02-.38-.38.06-1.04.27-2.08,1.03-1.15.83-2.4,2.15-3.74,3.95-1.07,1.45-2.3,1.75-3.15,1.75-1.08,0-2.08-.51-2.8-1.45-.62-.79-.95-1.75-.95-2.75,0-1.48.58-3,1.78-4.67,3.79-5.2,8.35-7.83,13.57-7.83,2.6,0,4.7.84,6.24,2.49,1.5,1.61,2.26,3.9,2.26,6.81,0,1.84-.17,3.75-.5,5.67-.33,1.85-.81,4.21-1.45,7.02-.39,1.63-.69,2.96-.89,3.97-.17.88-.26,1.6-.26,2.14,0,1.75.37,2.29.45,2.38.14.17.64.37,1.6.37,1.22,0,2.59-.79,4.08-2.35,1.69-1.78,3.26-4.59,4.68-8.35,1.45-3.86,2.51-8.68,3.16-14.32.22-1.93.78-3.34,1.7-4.29.99-1.02,2.35-1.53,4.03-1.53,3.44,0,5.5,2.06,5.5,5.5,0,.49-.02.89-.07,1.22-.7,4.98-1.35,9.47-1.95,13.47-.33,2.39-.69,4.86-1.07,7.4-.24,1.56-.47,3.13-.7,4.72,1.56-.38,3.17-.73,4.82-1.06.38-.11.83-.16,1.38-.16,1.71,0,3.7,1.1,3.7,4.2,0,1.19-.28,2.23-.84,3.1-.65,1.02-1.67,1.69-2.96,1.92-2.52.47-5.04,1-7.5,1.56-1,6.87-3.03,12.07-6.03,15.47-3.17,3.58-7.18,5.4-11.92,5.4ZM220.68,68.9c-3.93,1.71-7.55,4.09-7.55,7.07,0,.53.17.78.33.95.07.07.28.3,1.02.3,2.95,0,5.03-2.79,6.2-8.32Z"/>
      <path class="cls-4" d="M246.63,70.22c-2.4,0-4.5-.61-6.25-1.8-1.71-1.17-3.03-2.74-3.92-4.67-.85-1.85-1.28-3.88-1.28-6.03,0-2.83.56-5.4,1.65-7.65,1.12-2.3,2.7-4.13,4.7-5.45,2.02-1.33,4.29-2,6.75-2,3.12,0,5.68,1.11,7.62,3.3,1.4,1.59,2.37,3.46,2.88,5.6,1.04-.16,2.19-.41,3.44-.74.46-.11.84-.17,1.21-.17,1.17,0,2.18.62,2.76,1.7.39.73.59,1.6.59,2.6,0,3.37-1.79,4.43-2.86,4.76-1.7.6-3.6,1-5.64,1.19-.81,2.54-2.14,4.66-3.97,6.31-2.24,2.02-4.82,3.04-7.69,3.04ZM246.3,53.13c-.58.94-.88,2.33-.88,4.14,0,1.37.24,2.41.68,3.01.48.64.79.64.92.64.35,0,.78-.08,1.29-.64.35-.39.63-.93.84-1.63-.8-.75-1.46-1.64-1.95-2.66-.44-.91-.75-1.87-.9-2.86Z"/>
      <path class="cls-4" d="M276.42,70.22c-2.31,0-4.12-.97-5.23-2.81-.03-.04-.05-.09-.08-.13-.14.17-.28.33-.42.49-1.52,1.63-3.24,2.46-5.11,2.46-2.16,0-4-1.02-5.32-2.94-1.18-1.71-1.78-3.84-1.78-6.31,0-2.6.18-5.02.53-7.19.35-2.17.93-4.5,1.72-6.93.47-1.41,1.19-2.47,2.13-3.15.96-.69,2.27-1.03,4.02-1.03,1.22,0,2.13.26,2.79.8.75.62,1.16,1.54,1.16,2.6,0,.33-.05.83-.6,3.17-.34,1.24-.59,2.33-.78,3.28-.37,1.95-.61,3.36-.75,4.39.4-.74.83-1.64,1.27-2.7.81-1.94,1.62-4.38,2.39-7.25.38-1.42,1.02-2.5,1.92-3.2.91-.72,2.16-1.08,3.71-1.08,1.17,0,2.01.18,2.64.57.53.32,1.41,1.11,1.41,2.73,0,.68-.15,2.13-1.3,7.29-1,4.58-1.27,6.41-1.33,7.13.13-.1.29-.22.48-.39.84-.75,2.01-2.02,3.47-3.76,1.01-1.17,2.12-1.42,2.88-1.42,1.12,0,2.11.56,2.72,1.54.45.72.68,1.63.68,2.71,0,1.82-.48,3.3-1.44,4.41-1.51,1.86-3.21,3.46-5.01,4.69-1.98,1.36-4.25,2.05-6.76,2.05Z"/>
      <path class="cls-4" d="M287.13,70.22c-2.11,0-3.72-1.16-4.54-3.28-.61-1.58-.91-3.91-.91-7.12,0-4.52.65-8.88,1.94-12.95.44-1.41,1.21-2.48,2.28-3.19,1.02-.68,2.32-1,3.97-1,1.07,0,1.86.18,2.46.55.5.31,1.34,1.07,1.34,2.64,0,.1,0,.21-.01.34.88-.89,1.76-1.59,2.65-2.11,1.61-.95,3.14-1.43,4.57-1.43,1.91,0,3.06.79,3.68,1.46.87.93,1.32,2.21,1.32,3.79,0,.33-.03.88-.21,1.99.51.23.98.55,1.4.97.89.89,1.36,2.04,1.36,3.34,0,.69-.15,1.41-.44,2.14-.67,1.56-1.61,2.84-2.8,3.87-1.34,1.15-2.85,1.74-4.51,1.74-1.47,0-2.78-.55-3.81-1.6-.81-.84-1.31-1.88-1.48-3.11-.31.59-.62,1.25-.93,1.96-.75,1.72-1.37,3.56-1.84,5.48-.45,1.94-.98,3.24-1.69,4.04-.86.98-2.14,1.48-3.8,1.48Z"/>
      <path class="cls-4" d="M327.82,72.47c-1.81,0-3.15-.51-4-1.51-.8-.95-1.15-2.21-1.04-3.77.3-4.71.9-9.72,1.77-14.88.87-5.15,2-10.21,3.35-15.03.17-.62.44-1.17.79-1.65-1.06.46-2.04.96-2.94,1.5-1.4.83-2.62,1.23-3.73,1.23-1.22,0-2.28-.5-2.97-1.42-.58-.76-.88-1.7-.88-2.78,0-1.19.27-2.25.8-3.16.54-.93,1.58-1.81,3.25-2.77,2.96-1.69,6.45-3.02,10.38-3.96,3.9-.93,7.94-1.41,12.01-1.41,6.51,0,11.29,1.11,14.63,3.4,3.53,2.42,5.32,5.68,5.32,9.7,0,3.36-1.2,6.29-3.57,8.72-1.33,1.37-3.02,2.51-5.04,3.42.4.34.77.71,1.09,1.1,1.37,1.65,2.06,3.57,2.06,5.71,0,3.11-.99,5.85-2.95,8.15-1.88,2.21-4.61,3.91-8.12,5.07-3.35,1.11-7.42,1.68-12.08,1.68-.95,0-1.79-.02-2.53-.05-.37.69-.92,1.27-1.63,1.71-1.08.66-2.43.99-3.99.99ZM334.47,60.32c.65.03,1.22.05,1.7.05,4.27,0,7.37-.58,9.22-1.73,2.08-1.29,2.33-2.6,2.33-3.47s-.35-1.52-1.12-2.14c-.62-.5-2-1.11-5.09-1.21-1.25-.06-2.19-.45-2.83-1.17-.6-.67-.9-1.61-.9-2.78,0-1.37.32-2.53.94-3.46.53-.8,1.63-1.77,3.8-1.84,2.17-.06,4.14-.38,5.86-.95,1.59-.53,2.84-1.25,3.71-2.16.75-.78,1.1-1.62,1.1-2.64,0-.82-.21-1.88-1.86-2.85-1.58-.93-4.18-1.4-7.74-1.4-3,0-5.94.35-8.77,1.03,3.9.31,4.22,2.85,4.22,3.67,0,.68-.14,1.44-.4,2.24-.83,2.5-1.68,5.97-2.53,10.32-.71,3.62-1.25,7.14-1.62,10.49Z"/>
      <path class="cls-4" d="M371.92,70.22c-3.67,0-6.53-1.75-8.29-5.06-1.56-2.95-2.36-6.74-2.36-11.29,0-4.18.54-8.99,1.62-14.29,1.08-5.38,2.72-10.07,4.86-13.97,2.42-4.4,5.47-6.64,9.08-6.64,2.3,0,4.19,1.1,5.48,3.17,1.13,1.82,1.67,4.25,1.67,7.43,0,4.21-1.16,9.12-3.46,14.58-2.15,5.11-5.06,10.23-8.65,15.23.2.75.41,1.04.48,1.12.1.11.24.22.62.22.93,0,1.71-.25,2.39-.77.91-.69,2.13-1.94,3.63-3.72,1-1.17,2.12-1.41,2.88-1.41,1.12,0,2.11.56,2.72,1.54.45.72.68,1.63.68,2.71,0,1.82-.48,3.3-1.44,4.41-1.51,1.87-3.23,3.46-5.07,4.7-2.01,1.35-4.31,2.04-6.84,2.04ZM375.01,30.73c-.93,2.65-1.76,6.01-2.47,9.99-.07.38-.13.76-.19,1.13.28-.7.54-1.39.79-2.08,1.21-3.38,1.87-6.51,1.97-9.32-.03.09-.07.18-.1.28Z"/>
      <path class="cls-4" d="M389.52,70.22c-4.03,0-7.24-1.15-9.55-3.42-2.32-2.28-3.5-5.38-3.5-9.23,0-2.6.56-5.05,1.65-7.3,1.12-2.29,2.7-4.14,4.7-5.5,2.05-1.39,4.38-2.1,6.95-2.1s4.5.77,6.05,2.3c1.56,1.53,2.35,3.59,2.35,6.1,0,2.84-1.03,5.31-3.06,7.34-1.04,1.04-2.41,1.95-4.13,2.73.96-.17,2.05-.58,3.26-1.25,1.68-.92,3.16-2.15,4.39-3.64,1.01-1.19,2.13-1.43,2.89-1.43,1.12,0,2.11.56,2.72,1.54.45.72.68,1.63.68,2.71,0,1.82-.48,3.3-1.44,4.41-1.35,1.65-3.3,3.2-5.76,4.59-2.54,1.43-5.3,2.16-8.21,2.16ZM388.87,51.57c-.22,0-.72.1-1.35,1.17-.23.39-.42.82-.57,1.28.36-.2.68-.41.96-.64.87-.72.97-1.32.97-1.71,0-.04,0-.07,0-.1Z"/>
      <path class="cls-4" d="M416.52,70.22c-2.29,0-4.09-.72-5.35-2.15-1.19-1.35-1.8-3.24-1.8-5.6,0-.71.1-1.71.32-3.05-.73,1.66-1.32,3.43-1.78,5.27-.45,1.91-.99,3.2-1.71,4.02-.88,1-2.15,1.51-3.78,1.51-2.11,0-3.72-1.16-4.54-3.28-.61-1.58-.91-3.91-.91-7.12,0-4.52.65-8.88,1.94-12.95.44-1.41,1.21-2.48,2.28-3.19,1.03-.68,2.33-1,3.97-1,1.07,0,1.85.18,2.46.55.5.32,1.34,1.08,1.34,2.65,0,.1,0,.21-.01.35.89-.89,1.77-1.59,2.68-2.12,1.62-.94,3.18-1.42,4.63-1.42,3.29,0,5.25,1.96,5.25,5.25,0,1.45-.37,3.9-1.14,7.47-.65,2.96-.84,4.35-.89,5,.13-.1.29-.23.48-.39.84-.75,2.01-2.02,3.47-3.76,1-1.17,2.12-1.42,2.88-1.42,1.12,0,2.11.56,2.72,1.54.45.72.68,1.63.68,2.71,0,1.82-.48,3.3-1.44,4.41-1.51,1.86-3.21,3.46-5.01,4.69-1.98,1.36-4.25,2.05-6.76,2.05Z"/>
      <path class="cls-4" d="M440.92,70.52c-1.59,0-2.87-.49-3.81-1.46-.3-.31-.58-.68-.84-1.14-.61.54-1.21.96-1.79,1.26-1.3.68-2.8,1.03-4.46,1.03-2.63,0-4.83-1-6.54-2.96-1.63-1.88-2.46-4.32-2.46-7.24s.64-5.76,1.91-8.29c1.27-2.54,3.04-4.66,5.25-6.29,1.8-1.33,3.8-2.24,5.96-2.73.69-5.83,1.89-11.02,3.58-15.45,2.1-5.5,5.12-8.29,8.99-8.29,2.07,0,3.87.96,5.19,2.77,1.22,1.67,1.81,3.98,1.81,7.08,0,3.88-.95,8.44-2.82,13.54-1.76,4.79-4.1,9.79-6.95,14.86.35,2.42.84,4.84,1.46,7.2.17.55.27,1.2.27,1.86,0,2.05-1.25,4.25-4.75,4.25ZM431.57,61.15s.08.02.2.02c.07,0,.29,0,.67-.3.22-.18.7-.66,1.55-1.85-.23-1.89-.37-3.84-.41-5.83-.29.33-.56.69-.82,1.1-1,1.59-1.49,3.3-1.49,5.23,0,1.32.29,1.63.29,1.63h0Z"/>
    </g>
    <g>
      <path class="cls-4" d="M55.13,69.22c-4.26,0-8.04-.8-11.24-2.38-3.28-1.62-5.83-3.96-7.59-6.96-1.74-2.96-2.62-6.43-2.62-10.31,0-5.19,1-9.87,2.98-13.93,2-4.11,4.77-7.35,8.22-9.62,3.49-2.29,7.41-3.45,11.65-3.45s7.36,1.13,9.61,3.35c2.25,2.23,3.39,5.17,3.39,8.75,0,2.38-.45,4.37-1.35,5.9-1.08,1.86-2.75,2.85-4.8,2.85-1.4,0-2.57-.37-3.46-1.1-.7-.57-1.54-1.63-1.54-3.45,0-.29.03-.77.23-1.98.23-1.14.27-1.75.27-2.07,0-1.65-.45-2.55-2.85-2.55-1.79,0-3.47.58-5.14,1.78-1.7,1.22-3.11,3.07-4.19,5.51-1.11,2.51-1.68,5.58-1.68,9.12s.9,6.04,2.75,7.84c1.84,1.8,4.7,2.71,8.5,2.71,1.99,0,4.04-.26,6.09-.77,2.11-.52,4.49-1.34,7.08-2.43.78-.31,1.43-.46,2.02-.46,1.21,0,2.22.53,2.86,1.49.49.74.74,1.63.74,2.66,0,1.99-.78,4.7-4.5,6.33-2.5,1.09-5.13,1.9-7.81,2.41-2.66.5-5.24.76-7.65.76Z"/>
      <path class="cls-4" d="M87.13,69.22c-2.29,0-4.09-.72-5.35-2.15-1.19-1.35-1.8-3.23-1.8-5.6,0-.72.11-1.76.33-3.13-.73,1.69-1.33,3.49-1.79,5.36-.84,3.56-3.2,5.52-6.64,5.52-1.78,0-3.17-.83-3.81-2.27-.44-.99-.65-2.48-.65-4.68,0-1.08.02-1.98.05-2.65l.05-3.92c0-5.21.54-10.74,1.61-16.4,1.08-5.75,2.72-10.66,4.86-14.61,2.42-4.46,5.49-6.72,9.13-6.72,2.17,0,4.02.97,5.35,2.8,1.2,1.66,1.8,3.78,1.8,6.3,0,3.69-1.07,7.53-3.19,11.43-.59,1.09-1.29,2.23-2.1,3.42.65-.17,1.28-.25,1.89-.25,3.29,0,5.25,1.96,5.25,5.25,0,1.45-.38,3.9-1.15,7.47-.65,2.96-.84,4.35-.89,5,.13-.1.29-.23.48-.39.84-.75,2.01-2.02,3.47-3.76,1.01-1.17,2.12-1.42,2.88-1.42,1.12,0,2.11.56,2.72,1.54.45.72.68,1.63.68,2.71,0,1.82-.48,3.3-1.43,4.41-1.64,1.89-3.35,3.46-5.09,4.68-1.95,1.37-4.2,2.06-6.67,2.06ZM81.3,29.91c-.39,1.15-.79,2.5-1.17,4.04.59-1.44.98-2.79,1.17-4.04Z"/>
      <path class="cls-4" d="M102.98,69.22c-2.4,0-4.5-.61-6.25-1.8-1.71-1.17-3.03-2.74-3.92-4.67-.85-1.85-1.28-3.88-1.28-6.03,0-2.83.56-5.4,1.65-7.65,1.12-2.3,2.7-4.13,4.7-5.45,2.02-1.33,4.29-2,6.75-2,3.12,0,5.68,1.11,7.62,3.3,1.4,1.59,2.37,3.46,2.88,5.6,1.04-.16,2.19-.41,3.44-.74.46-.11.84-.17,1.21-.17,1.17,0,2.18.62,2.76,1.7.39.73.59,1.6.59,2.6,0,3.37-1.79,4.43-2.86,4.76-1.7.6-3.6,1-5.64,1.19-.81,2.54-2.14,4.66-3.97,6.31-2.24,2.02-4.82,3.04-7.69,3.04ZM102.65,52.13c-.58.94-.88,2.33-.88,4.14,0,1.37.24,2.41.68,3.01.48.64.79.64.92.64.35,0,.78-.08,1.29-.64.35-.39.63-.93.84-1.63-.8-.75-1.46-1.64-1.95-2.66-.44-.91-.75-1.87-.9-2.86Z"/>
      <path class="cls-4" d="M125.28,69.22c-2.38,0-4.46-.62-6.18-1.85-1.67-1.19-2.95-2.77-3.8-4.7-.81-1.85-1.22-3.85-1.22-5.95,0-2.82.55-5.39,1.62-7.64,1.1-2.29,2.63-4.12,4.55-5.44,1.96-1.34,4.19-2.02,6.63-2.02s4.46.62,6.2,1.84c1.7,1.19,2.99,2.78,3.83,4.71.81,1.85,1.22,3.85,1.22,5.95,0,2.83-.56,5.4-1.65,7.65-1.12,2.29-2.67,4.12-4.6,5.43-1.98,1.34-4.2,2.02-6.6,2.02ZM126.48,51.02c-.23,0-.71,0-1.29.91-.39.61-.86,1.85-.86,4.34,0,1.91.38,2.7.61,3.01.37.5.66.54.89.54.16,0,.6,0,1.19-.92.39-.62.86-1.88.86-4.33,0-1.74-.34-2.59-.63-2.99-.4-.56-.66-.56-.77-.56Z"/>
      <path class="cls-4" d="M148.53,70.32c-2.22,0-4-.57-5.29-1.69-1.36-1.18-1.86-2.46-2.01-3.48-1.16,1.09-2.35,1.33-3.15,1.33-1.12,0-2.09-.44-2.81-1.26-.65-.75-.99-1.69-.99-2.74,0-1.14.39-2.19,1.15-3.12l.64-.79c1.77-2.19,3.13-4.01,4.02-5.41.5-.85,1.14-2.1,1.88-3.66.75-1.58,1.49-3.24,2.21-4.95.55-1.29,2.04-3.42,5.79-3.42,1.26,0,2.12.13,2.77.43,1.08.5,1.73,1.48,1.73,2.62,0,.41-.09.89-.29,1.54-.17.55-.41,1.11-.7,1.66-.57,1.14-.66,1.81-.66,2.1,0,.02,0,.22.25.64.3.51.79,1.18,1.45,2,1.17,1.54,2.02,2.79,2.62,3.86.34.62.61,1.26.79,1.94.68-.65,1.47-1.5,2.38-2.64,1.03-1.2,2.15-1.45,2.91-1.45,1.12,0,2.11.56,2.72,1.54.45.72.68,1.63.68,2.71,0,1.72-.46,3.18-1.38,4.34-1.88,2.33-3.66,3.89-5.46,4.78-1.61.8-3.55,1.27-5.78,1.4-1.58,1.15-3.42,1.73-5.48,1.73ZM146.63,58.56c-.15.24-.29.47-.44.69.24-.02.48-.03.73-.03.04,0,.07,0,.11,0-.12-.22-.26-.44-.4-.66Z"/>
      <path class="cls-4" d="M169.93,69.22c-3.77,0-6.77-1.18-8.92-3.52-2.11-2.29-3.18-5.36-3.18-9.13,0-2.6.56-5.05,1.65-7.3,1.12-2.29,2.7-4.14,4.7-5.5,2.04-1.39,4.38-2.1,6.95-2.1s4.5.77,6.05,2.3c1.56,1.54,2.35,3.59,2.35,6.1,0,1.94-.48,3.7-1.43,5.27.13-.01.26-.02.38-.02,1.12,0,2.11.56,2.72,1.54.45.72.68,1.63.68,2.71,0,1.59-.4,3-1.17,4.19-1.12,1.71-2.6,3.07-4.42,4.03-1.8.95-3.94,1.43-6.36,1.43ZM170.22,50.57c-.22,0-.72.1-1.35,1.17-.23.39-.42.82-.58,1.28.36-.2.68-.41.96-.64.87-.72.97-1.32.97-1.71,0-.04,0-.07,0-.1Z"/>
      <path class="cls-4" d="M212.73,85.32c-3.26,0-5.87-.85-7.75-2.53-1.95-1.74-2.95-3.98-2.95-6.67,0-4.09,1.81-7.74,5.38-10.86.67-.58,1.41-1.15,2.21-1.71-3.13-.14-5.6-1.25-7.36-3.31-1.81-2.11-2.73-4.83-2.73-8.08,0-1.35.15-2.84.43-4.43.27-1.51.7-3.57,1.27-6.11.49-2.26.86-4.08,1.11-5.42.23-1.24.34-2.35.34-3.29,0-.16,0-.29-.02-.38-.38.06-1.04.27-2.08,1.03-1.15.83-2.4,2.15-3.74,3.95-1.07,1.45-2.3,1.75-3.15,1.75-1.08,0-2.08-.51-2.8-1.45-.62-.79-.95-1.75-.95-2.75,0-1.48.58-3,1.78-4.67,3.79-5.2,8.35-7.83,13.57-7.83,2.6,0,4.7.84,6.24,2.49,1.5,1.61,2.26,3.9,2.26,6.81,0,1.84-.17,3.75-.5,5.67-.33,1.85-.81,4.21-1.45,7.02-.39,1.63-.69,2.96-.89,3.97-.17.88-.26,1.6-.26,2.14,0,1.75.37,2.29.45,2.38.14.17.64.37,1.6.37,1.22,0,2.59-.79,4.08-2.35,1.69-1.78,3.26-4.59,4.68-8.35,1.45-3.86,2.51-8.68,3.16-14.32.22-1.93.78-3.34,1.7-4.29.99-1.02,2.35-1.53,4.03-1.53,3.44,0,5.5,2.06,5.5,5.5,0,.49-.02.89-.07,1.22-.7,4.98-1.35,9.47-1.95,13.47-.33,2.39-.69,4.86-1.07,7.4-.24,1.56-.47,3.13-.7,4.72,1.56-.38,3.17-.73,4.82-1.06.38-.11.83-.16,1.38-.16,1.71,0,3.7,1.1,3.7,4.2,0,1.19-.28,2.23-.84,3.1-.65,1.02-1.67,1.69-2.96,1.92-2.52.47-5.04,1-7.5,1.56-1,6.87-3.03,12.07-6.03,15.47-3.17,3.58-7.18,5.4-11.92,5.4ZM219.68,67.9c-3.93,1.71-7.55,4.09-7.55,7.07,0,.53.17.78.33.95.07.07.28.3,1.02.3,2.95,0,5.03-2.79,6.2-8.32Z"/>
      <path class="cls-4" d="M245.63,69.22c-2.4,0-4.5-.61-6.25-1.8-1.71-1.17-3.03-2.74-3.92-4.67-.85-1.85-1.28-3.88-1.28-6.03,0-2.83.56-5.4,1.65-7.65,1.12-2.3,2.7-4.13,4.7-5.45,2.02-1.33,4.29-2,6.75-2,3.12,0,5.68,1.11,7.62,3.3,1.4,1.59,2.37,3.46,2.88,5.6,1.04-.16,2.19-.41,3.44-.74.46-.11.84-.17,1.21-.17,1.17,0,2.18.62,2.76,1.7.39.73.59,1.6.59,2.6,0,3.37-1.79,4.43-2.86,4.76-1.7.6-3.6,1-5.64,1.19-.81,2.54-2.14,4.66-3.97,6.31-2.24,2.02-4.82,3.04-7.69,3.04ZM245.3,52.13c-.58.94-.88,2.33-.88,4.14,0,1.37.24,2.41.68,3.01.48.64.79.64.92.64.35,0,.78-.08,1.29-.64.35-.39.63-.93.84-1.63-.8-.75-1.46-1.64-1.95-2.66-.44-.91-.75-1.87-.9-2.86Z"/>
      <path class="cls-4" d="M275.42,69.22c-2.31,0-4.12-.97-5.23-2.81-.03-.04-.05-.09-.08-.13-.14.17-.28.33-.42.49-1.52,1.63-3.24,2.46-5.11,2.46-2.16,0-4-1.02-5.32-2.94-1.18-1.71-1.78-3.84-1.78-6.31,0-2.6.18-5.02.53-7.19.35-2.17.93-4.5,1.72-6.93.47-1.41,1.19-2.47,2.13-3.15.96-.69,2.27-1.03,4.02-1.03,1.22,0,2.13.26,2.79.8.75.62,1.16,1.54,1.16,2.6,0,.33-.05.83-.6,3.17-.34,1.24-.59,2.33-.78,3.28-.37,1.95-.61,3.36-.75,4.39.4-.74.83-1.64,1.27-2.7.81-1.94,1.62-4.38,2.39-7.25.38-1.42,1.02-2.5,1.92-3.2.91-.72,2.16-1.08,3.71-1.08,1.17,0,2.01.18,2.64.57.53.32,1.41,1.11,1.41,2.73,0,.68-.15,2.13-1.3,7.29-1,4.58-1.27,6.41-1.33,7.13.13-.1.29-.22.48-.39.84-.75,2.01-2.02,3.47-3.76,1.01-1.17,2.12-1.42,2.88-1.42,1.12,0,2.11.56,2.72,1.54.45.72.68,1.63.68,2.71,0,1.82-.48,3.3-1.44,4.41-1.51,1.86-3.21,3.46-5.01,4.69-1.98,1.36-4.25,2.05-6.76,2.05Z"/>
      <path class="cls-4" d="M286.13,69.22c-2.11,0-3.72-1.16-4.54-3.28-.61-1.58-.91-3.91-.91-7.12,0-4.52.65-8.88,1.94-12.95.44-1.41,1.21-2.48,2.28-3.19,1.02-.68,2.32-1,3.97-1,1.07,0,1.86.18,2.46.55.5.31,1.34,1.07,1.34,2.64,0,.1,0,.21-.01.34.88-.89,1.76-1.59,2.65-2.11,1.61-.95,3.14-1.43,4.57-1.43,1.91,0,3.06.79,3.68,1.46.87.93,1.32,2.21,1.32,3.79,0,.33-.03.88-.21,1.99.51.23.98.55,1.4.97.89.89,1.36,2.04,1.36,3.34,0,.69-.15,1.41-.44,2.14-.67,1.56-1.61,2.84-2.8,3.87-1.34,1.15-2.85,1.74-4.51,1.74-1.47,0-2.78-.55-3.81-1.6-.81-.84-1.31-1.88-1.48-3.11-.31.59-.62,1.25-.93,1.96-.75,1.72-1.37,3.56-1.84,5.48-.45,1.94-.98,3.24-1.69,4.04-.86.98-2.14,1.48-3.8,1.48Z"/>
      <path class="cls-4" d="M326.82,71.47c-1.81,0-3.15-.51-4-1.51-.8-.95-1.15-2.21-1.04-3.77.3-4.71.9-9.72,1.77-14.88.87-5.15,2-10.21,3.35-15.03.17-.62.44-1.17.79-1.65-1.06.46-2.04.96-2.94,1.5-1.4.83-2.62,1.23-3.73,1.23-1.22,0-2.28-.5-2.97-1.42-.58-.76-.88-1.7-.88-2.78,0-1.19.27-2.25.8-3.16.54-.93,1.58-1.81,3.25-2.77,2.96-1.69,6.45-3.02,10.38-3.96,3.9-.93,7.94-1.41,12.01-1.41,6.51,0,11.29,1.11,14.63,3.4,3.53,2.42,5.32,5.68,5.32,9.7,0,3.36-1.2,6.29-3.57,8.72-1.33,1.37-3.02,2.51-5.04,3.42.4.34.77.71,1.09,1.1,1.37,1.65,2.06,3.57,2.06,5.71,0,3.11-.99,5.85-2.95,8.15-1.88,2.21-4.61,3.91-8.12,5.07-3.35,1.11-7.42,1.68-12.08,1.68-.95,0-1.79-.02-2.53-.05-.37.69-.92,1.27-1.63,1.71-1.08.66-2.43.99-3.99.99ZM333.47,59.32c.65.03,1.22.05,1.7.05,4.27,0,7.37-.58,9.22-1.73,2.08-1.29,2.33-2.6,2.33-3.47s-.35-1.52-1.12-2.14c-.62-.5-2-1.11-5.09-1.21-1.25-.06-2.19-.45-2.83-1.17-.6-.67-.9-1.61-.9-2.78,0-1.37.32-2.53.94-3.46.53-.8,1.63-1.77,3.8-1.84,2.17-.06,4.14-.38,5.86-.95,1.59-.53,2.84-1.25,3.71-2.16.75-.78,1.1-1.62,1.1-2.64,0-.82-.21-1.88-1.86-2.85-1.58-.93-4.18-1.4-7.74-1.4-3,0-5.94.35-8.77,1.03,3.9.31,4.22,2.85,4.22,3.67,0,.68-.14,1.44-.4,2.24-.83,2.5-1.68,5.97-2.53,10.32-.71,3.62-1.25,7.14-1.62,10.49Z"/>
      <path class="cls-4" d="M370.92,69.22c-3.67,0-6.53-1.75-8.29-5.06-1.56-2.95-2.36-6.74-2.36-11.29,0-4.18.54-8.99,1.62-14.29,1.08-5.38,2.72-10.07,4.86-13.97,2.42-4.4,5.47-6.64,9.08-6.64,2.3,0,4.19,1.1,5.48,3.17,1.13,1.82,1.67,4.25,1.67,7.43,0,4.21-1.16,9.12-3.46,14.58-2.15,5.11-5.06,10.23-8.65,15.23.2.75.41,1.04.48,1.12.1.11.24.22.62.22.93,0,1.71-.25,2.39-.77.91-.69,2.13-1.94,3.63-3.72,1-1.17,2.12-1.41,2.88-1.41,1.12,0,2.11.56,2.72,1.54.45.72.68,1.63.68,2.71,0,1.82-.48,3.3-1.44,4.41-1.51,1.87-3.23,3.46-5.07,4.7-2.01,1.35-4.31,2.04-6.84,2.04ZM374.01,29.73c-.93,2.65-1.76,6.01-2.47,9.99-.07.38-.13.76-.19,1.13.28-.7.54-1.39.79-2.08,1.21-3.38,1.87-6.51,1.97-9.32-.03.09-.07.18-.1.28Z"/>
      <path class="cls-4" d="M388.52,69.22c-4.03,0-7.24-1.15-9.55-3.42-2.32-2.28-3.5-5.38-3.5-9.23,0-2.6.56-5.05,1.65-7.3,1.12-2.29,2.7-4.14,4.7-5.5,2.05-1.39,4.38-2.1,6.95-2.1s4.5.77,6.05,2.3c1.56,1.53,2.35,3.59,2.35,6.1,0,2.84-1.03,5.31-3.06,7.34-1.04,1.04-2.41,1.95-4.13,2.73.96-.17,2.05-.58,3.26-1.25,1.68-.92,3.16-2.15,4.39-3.64,1.01-1.19,2.13-1.43,2.89-1.43,1.12,0,2.11.56,2.72,1.54.45.72.68,1.63.68,2.71,0,1.82-.48,3.3-1.44,4.41-1.35,1.65-3.3,3.2-5.76,4.59-2.54,1.43-5.3,2.16-8.21,2.16ZM387.87,50.57c-.22,0-.72.1-1.35,1.17-.23.39-.42.82-.57,1.28.36-.2.68-.41.96-.64.87-.72.97-1.32.97-1.71,0-.04,0-.07,0-.1Z"/>
      <path class="cls-4" d="M415.52,69.22c-2.29,0-4.09-.72-5.35-2.15-1.19-1.35-1.8-3.24-1.8-5.6,0-.71.1-1.71.32-3.05-.73,1.66-1.32,3.43-1.78,5.27-.45,1.91-.99,3.2-1.71,4.02-.88,1-2.15,1.51-3.78,1.51-2.11,0-3.72-1.16-4.54-3.28-.61-1.58-.91-3.91-.91-7.12,0-4.52.65-8.88,1.94-12.95.44-1.41,1.21-2.48,2.28-3.19,1.03-.68,2.33-1,3.97-1,1.07,0,1.85.18,2.46.55.5.32,1.34,1.08,1.34,2.65,0,.1,0,.21-.01.35.89-.89,1.77-1.59,2.68-2.12,1.62-.94,3.18-1.42,4.63-1.42,3.29,0,5.25,1.96,5.25,5.25,0,1.45-.37,3.9-1.14,7.47-.65,2.96-.84,4.35-.89,5,.13-.1.29-.23.48-.39.84-.75,2.01-2.02,3.47-3.76,1-1.17,2.12-1.42,2.88-1.42,1.12,0,2.11.56,2.72,1.54.45.72.68,1.63.68,2.71,0,1.82-.48,3.3-1.44,4.41-1.51,1.86-3.21,3.46-5.01,4.69-1.98,1.36-4.25,2.05-6.76,2.05Z"/>
      <path class="cls-4" d="M439.92,69.52c-1.59,0-2.87-.49-3.81-1.46-.3-.31-.58-.68-.84-1.14-.61.54-1.21.96-1.79,1.26-1.3.68-2.8,1.03-4.46,1.03-2.63,0-4.83-1-6.54-2.96-1.63-1.88-2.46-4.32-2.46-7.24s.64-5.76,1.91-8.29c1.27-2.54,3.04-4.66,5.25-6.29,1.8-1.33,3.8-2.24,5.96-2.73.69-5.83,1.89-11.02,3.58-15.45,2.1-5.5,5.12-8.29,8.99-8.29,2.07,0,3.87.96,5.19,2.77,1.22,1.67,1.81,3.98,1.81,7.08,0,3.88-.95,8.44-2.82,13.54-1.76,4.79-4.1,9.79-6.95,14.86.35,2.42.84,4.84,1.46,7.2.17.55.27,1.2.27,1.86,0,2.05-1.25,4.25-4.75,4.25ZM430.57,60.15s.08.02.2.02c.07,0,.29,0,.67-.3.22-.18.7-.66,1.55-1.85-.23-1.89-.37-3.84-.41-5.83-.29.33-.56.69-.82,1.1-1,1.59-1.49,3.3-1.49,5.23,0,1.32.29,1.63.29,1.63h0Z"/>
    </g>
    <g>
      <path class="cls-4" d="M54.13,68.22c-4.26,0-8.04-.8-11.24-2.38-3.28-1.62-5.83-3.96-7.59-6.96-1.74-2.96-2.62-6.43-2.62-10.31,0-5.19,1-9.87,2.98-13.93,2-4.11,4.77-7.35,8.22-9.62,3.49-2.29,7.41-3.45,11.65-3.45s7.36,1.13,9.61,3.35c2.25,2.23,3.39,5.17,3.39,8.75,0,2.38-.45,4.37-1.35,5.9-1.08,1.86-2.75,2.85-4.8,2.85-1.4,0-2.57-.37-3.46-1.1-.7-.57-1.54-1.63-1.54-3.45,0-.29.03-.77.23-1.98.23-1.14.27-1.75.27-2.07,0-1.65-.45-2.55-2.85-2.55-1.79,0-3.47.58-5.14,1.78-1.7,1.22-3.11,3.07-4.19,5.51-1.11,2.51-1.68,5.58-1.68,9.12s.9,6.04,2.75,7.84c1.84,1.8,4.7,2.71,8.5,2.71,1.99,0,4.04-.26,6.09-.77,2.11-.52,4.49-1.34,7.08-2.43.78-.31,1.43-.46,2.02-.46,1.21,0,2.22.53,2.86,1.49.49.74.74,1.63.74,2.66,0,1.99-.78,4.7-4.5,6.33-2.5,1.09-5.13,1.9-7.81,2.41-2.66.5-5.24.76-7.65.76Z"/>
      <path class="cls-4" d="M86.13,68.22c-2.29,0-4.09-.72-5.35-2.15-1.19-1.35-1.8-3.23-1.8-5.6,0-.72.11-1.76.33-3.13-.73,1.69-1.33,3.49-1.79,5.36-.84,3.56-3.2,5.52-6.64,5.52-1.78,0-3.17-.83-3.81-2.27-.44-.99-.65-2.48-.65-4.68,0-1.08.02-1.98.05-2.65l.05-3.92c0-5.21.54-10.74,1.61-16.4,1.08-5.75,2.72-10.66,4.86-14.61,2.42-4.46,5.49-6.72,9.13-6.72,2.17,0,4.02.97,5.35,2.8,1.2,1.66,1.8,3.78,1.8,6.3,0,3.69-1.07,7.53-3.19,11.43-.59,1.09-1.29,2.23-2.1,3.42.65-.17,1.28-.25,1.89-.25,3.29,0,5.25,1.96,5.25,5.25,0,1.45-.38,3.9-1.15,7.47-.65,2.96-.84,4.35-.89,5,.13-.1.29-.23.48-.39.84-.75,2.01-2.02,3.47-3.76,1.01-1.17,2.12-1.42,2.88-1.42,1.12,0,2.11.56,2.72,1.54.45.72.68,1.63.68,2.71,0,1.82-.48,3.3-1.43,4.41-1.64,1.89-3.35,3.46-5.09,4.68-1.95,1.37-4.2,2.06-6.67,2.06ZM80.3,28.91c-.39,1.15-.79,2.5-1.17,4.04.59-1.44.98-2.79,1.17-4.04Z"/>
      <path class="cls-4" d="M101.98,68.22c-2.4,0-4.5-.61-6.25-1.8-1.71-1.17-3.03-2.74-3.92-4.67-.85-1.85-1.28-3.88-1.28-6.03,0-2.83.56-5.4,1.65-7.65,1.12-2.3,2.7-4.13,4.7-5.45,2.02-1.33,4.29-2,6.75-2,3.12,0,5.68,1.11,7.62,3.3,1.4,1.59,2.37,3.46,2.88,5.6,1.04-.16,2.19-.41,3.44-.74.46-.11.84-.17,1.21-.17,1.17,0,2.18.62,2.76,1.7.39.73.59,1.6.59,2.6,0,3.37-1.79,4.43-2.86,4.76-1.7.6-3.6,1-5.64,1.19-.81,2.54-2.14,4.66-3.97,6.31-2.24,2.02-4.82,3.04-7.69,3.04ZM101.65,51.13c-.58.94-.88,2.33-.88,4.14,0,1.37.24,2.41.68,3.01.48.64.79.64.92.64.35,0,.78-.08,1.29-.64.35-.39.63-.93.84-1.63-.8-.75-1.46-1.64-1.95-2.66-.44-.91-.75-1.87-.9-2.86Z"/>
      <path class="cls-4" d="M124.28,68.22c-2.38,0-4.46-.62-6.18-1.85-1.67-1.19-2.95-2.77-3.8-4.7-.81-1.85-1.22-3.85-1.22-5.95,0-2.82.55-5.39,1.62-7.64,1.1-2.29,2.63-4.12,4.55-5.44,1.96-1.34,4.19-2.02,6.63-2.02s4.46.62,6.2,1.84c1.7,1.19,2.99,2.78,3.83,4.71.81,1.85,1.22,3.85,1.22,5.95,0,2.83-.56,5.4-1.65,7.65-1.12,2.29-2.67,4.12-4.6,5.43-1.98,1.34-4.2,2.02-6.6,2.02ZM125.48,50.02c-.23,0-.71,0-1.29.91-.39.61-.86,1.85-.86,4.34,0,1.91.38,2.7.61,3.01.37.5.66.54.89.54.16,0,.6,0,1.19-.92.39-.62.86-1.88.86-4.33,0-1.74-.34-2.59-.63-2.99-.4-.56-.66-.56-.77-.56Z"/>
      <path class="cls-4" d="M147.53,69.32c-2.22,0-4-.57-5.29-1.69-1.36-1.18-1.86-2.46-2.01-3.48-1.16,1.09-2.35,1.33-3.15,1.33-1.12,0-2.09-.44-2.81-1.26-.65-.75-.99-1.69-.99-2.74,0-1.14.39-2.19,1.15-3.12l.64-.79c1.77-2.19,3.13-4.01,4.02-5.41.5-.85,1.14-2.1,1.88-3.66.75-1.58,1.49-3.24,2.21-4.95.55-1.29,2.04-3.42,5.79-3.42,1.26,0,2.12.13,2.77.43,1.08.5,1.73,1.48,1.73,2.62,0,.41-.09.89-.29,1.54-.17.55-.41,1.11-.7,1.66-.57,1.14-.66,1.81-.66,2.1,0,.02,0,.22.25.64.3.51.79,1.18,1.45,2,1.17,1.54,2.02,2.79,2.62,3.86.34.62.61,1.26.79,1.94.68-.65,1.47-1.5,2.38-2.64,1.03-1.2,2.15-1.45,2.91-1.45,1.12,0,2.11.56,2.72,1.54.45.72.68,1.63.68,2.71,0,1.72-.46,3.18-1.38,4.34-1.88,2.33-3.66,3.89-5.46,4.78-1.61.8-3.55,1.27-5.78,1.4-1.58,1.15-3.42,1.73-5.48,1.73ZM145.63,57.56c-.15.24-.29.47-.44.69.24-.02.48-.03.73-.03.04,0,.07,0,.11,0-.12-.22-.26-.44-.4-.66Z"/>
      <path class="cls-4" d="M168.93,68.22c-3.77,0-6.77-1.18-8.92-3.52-2.11-2.29-3.18-5.36-3.18-9.13,0-2.6.56-5.05,1.65-7.3,1.12-2.29,2.7-4.14,4.7-5.5,2.04-1.39,4.38-2.1,6.95-2.1s4.5.77,6.05,2.3c1.56,1.54,2.35,3.59,2.35,6.1,0,1.94-.48,3.7-1.43,5.27.13-.01.26-.02.38-.02,1.12,0,2.11.56,2.72,1.54.45.72.68,1.63.68,2.71,0,1.59-.4,3-1.17,4.19-1.12,1.71-2.6,3.07-4.42,4.03-1.8.95-3.94,1.43-6.36,1.43ZM169.22,49.57c-.22,0-.72.1-1.35,1.17-.23.39-.42.82-.58,1.28.36-.2.68-.41.96-.64.87-.72.97-1.32.97-1.71,0-.04,0-.07,0-.1Z"/>
      <path class="cls-4" d="M211.73,84.32c-3.26,0-5.87-.85-7.75-2.53-1.95-1.74-2.95-3.98-2.95-6.67,0-4.09,1.81-7.74,5.38-10.86.67-.58,1.41-1.15,2.21-1.71-3.13-.14-5.6-1.25-7.36-3.31-1.81-2.11-2.73-4.83-2.73-8.08,0-1.35.15-2.84.43-4.43.27-1.51.7-3.57,1.27-6.11.49-2.26.86-4.08,1.11-5.42.23-1.24.34-2.35.34-3.29,0-.16,0-.29-.02-.38-.38.06-1.04.27-2.08,1.03-1.15.83-2.4,2.15-3.74,3.95-1.07,1.45-2.3,1.75-3.15,1.75-1.08,0-2.08-.51-2.8-1.45-.62-.79-.95-1.75-.95-2.75,0-1.48.58-3,1.78-4.67,3.79-5.2,8.35-7.83,13.57-7.83,2.6,0,4.7.84,6.24,2.49,1.5,1.61,2.26,3.9,2.26,6.81,0,1.84-.17,3.75-.5,5.67-.33,1.85-.81,4.21-1.45,7.02-.39,1.63-.69,2.96-.89,3.97-.17.88-.26,1.6-.26,2.14,0,1.75.37,2.29.45,2.38.14.17.64.37,1.6.37,1.22,0,2.59-.79,4.08-2.35,1.69-1.78,3.26-4.59,4.68-8.35,1.45-3.86,2.51-8.68,3.16-14.32.22-1.93.78-3.34,1.7-4.29.99-1.02,2.35-1.53,4.03-1.53,3.44,0,5.5,2.06,5.5,5.5,0,.49-.02.89-.07,1.22-.7,4.98-1.35,9.47-1.95,13.47-.33,2.39-.69,4.86-1.07,7.4-.24,1.56-.47,3.13-.7,4.72,1.56-.38,3.17-.73,4.82-1.06.38-.11.83-.16,1.38-.16,1.71,0,3.7,1.1,3.7,4.2,0,1.19-.28,2.23-.84,3.1-.65,1.02-1.67,1.69-2.96,1.92-2.52.47-5.04,1-7.5,1.56-1,6.87-3.03,12.07-6.03,15.47-3.17,3.58-7.18,5.4-11.92,5.4ZM218.68,66.9c-3.93,1.71-7.55,4.09-7.55,7.07,0,.53.17.78.33.95.07.07.28.3,1.02.3,2.95,0,5.03-2.79,6.2-8.32Z"/>
      <path class="cls-4" d="M244.63,68.22c-2.4,0-4.5-.61-6.25-1.8-1.71-1.17-3.03-2.74-3.92-4.67-.85-1.85-1.28-3.88-1.28-6.03,0-2.83.56-5.4,1.65-7.65,1.12-2.3,2.7-4.13,4.7-5.45,2.02-1.33,4.29-2,6.75-2,3.12,0,5.68,1.11,7.62,3.3,1.4,1.59,2.37,3.46,2.88,5.6,1.04-.16,2.19-.41,3.44-.74.46-.11.84-.17,1.21-.17,1.17,0,2.18.62,2.76,1.7.39.73.59,1.6.59,2.6,0,3.37-1.79,4.43-2.86,4.76-1.7.6-3.6,1-5.64,1.19-.81,2.54-2.14,4.66-3.97,6.31-2.24,2.02-4.82,3.04-7.69,3.04ZM244.3,51.13c-.58.94-.88,2.33-.88,4.14,0,1.37.24,2.41.68,3.01.48.64.79.64.92.64.35,0,.78-.08,1.29-.64.35-.39.63-.93.84-1.63-.8-.75-1.46-1.64-1.95-2.66-.44-.91-.75-1.87-.9-2.86Z"/>
      <path class="cls-4" d="M274.42,68.22c-2.31,0-4.12-.97-5.23-2.81-.03-.04-.05-.09-.08-.13-.14.17-.28.33-.42.49-1.52,1.63-3.24,2.46-5.11,2.46-2.16,0-4-1.02-5.32-2.94-1.18-1.71-1.78-3.84-1.78-6.31,0-2.6.18-5.02.53-7.19.35-2.17.93-4.5,1.72-6.93.47-1.41,1.19-2.47,2.13-3.15.96-.69,2.27-1.03,4.02-1.03,1.22,0,2.13.26,2.79.8.75.62,1.16,1.54,1.16,2.6,0,.33-.05.83-.6,3.17-.34,1.24-.59,2.33-.78,3.28-.37,1.95-.61,3.36-.75,4.39.4-.74.83-1.64,1.27-2.7.81-1.94,1.62-4.38,2.39-7.25.38-1.42,1.02-2.5,1.92-3.2.91-.72,2.16-1.08,3.71-1.08,1.17,0,2.01.18,2.64.57.53.32,1.41,1.11,1.41,2.73,0,.68-.15,2.13-1.3,7.29-1,4.58-1.27,6.41-1.33,7.13.13-.1.29-.22.48-.39.84-.75,2.01-2.02,3.47-3.76,1.01-1.17,2.12-1.42,2.88-1.42,1.12,0,2.11.56,2.72,1.54.45.72.68,1.63.68,2.71,0,1.82-.48,3.3-1.44,4.41-1.51,1.86-3.21,3.46-5.01,4.69-1.98,1.36-4.25,2.05-6.76,2.05Z"/>
      <path class="cls-4" d="M285.13,68.22c-2.11,0-3.72-1.16-4.54-3.28-.61-1.58-.91-3.91-.91-7.12,0-4.52.65-8.88,1.94-12.95.44-1.41,1.21-2.48,2.28-3.19,1.02-.68,2.32-1,3.97-1,1.07,0,1.86.18,2.46.55.5.31,1.34,1.07,1.34,2.64,0,.1,0,.21-.01.34.88-.89,1.76-1.59,2.65-2.11,1.61-.95,3.14-1.43,4.57-1.43,1.91,0,3.06.79,3.68,1.46.87.93,1.32,2.21,1.32,3.79,0,.33-.03.88-.21,1.99.51.23.98.55,1.4.97.89.89,1.36,2.04,1.36,3.34,0,.69-.15,1.41-.44,2.14-.67,1.56-1.61,2.84-2.8,3.87-1.34,1.15-2.85,1.74-4.51,1.74-1.47,0-2.78-.55-3.81-1.6-.81-.84-1.31-1.88-1.48-3.11-.31.59-.62,1.25-.93,1.96-.75,1.72-1.37,3.56-1.84,5.48-.45,1.94-.98,3.24-1.69,4.04-.86.98-2.14,1.48-3.8,1.48Z"/>
      <path class="cls-4" d="M325.82,70.47c-1.81,0-3.15-.51-4-1.51-.8-.95-1.15-2.21-1.04-3.77.3-4.71.9-9.72,1.77-14.88.87-5.15,2-10.21,3.35-15.03.17-.62.44-1.17.79-1.65-1.06.46-2.04.96-2.94,1.5-1.4.83-2.62,1.23-3.73,1.23-1.22,0-2.28-.5-2.97-1.42-.58-.76-.88-1.7-.88-2.78,0-1.19.27-2.25.8-3.16.54-.93,1.58-1.81,3.25-2.77,2.96-1.69,6.45-3.02,10.38-3.96,3.9-.93,7.94-1.41,12.01-1.41,6.51,0,11.29,1.11,14.63,3.4,3.53,2.42,5.32,5.68,5.32,9.7,0,3.36-1.2,6.29-3.57,8.72-1.33,1.37-3.02,2.51-5.04,3.42.4.34.77.71,1.09,1.1,1.37,1.65,2.06,3.57,2.06,5.71,0,3.11-.99,5.85-2.95,8.15-1.88,2.21-4.61,3.91-8.12,5.07-3.35,1.11-7.42,1.68-12.08,1.68-.95,0-1.79-.02-2.53-.05-.37.69-.92,1.27-1.63,1.71-1.08.66-2.43.99-3.99.99ZM332.47,58.32c.65.03,1.22.05,1.7.05,4.27,0,7.37-.58,9.22-1.73,2.08-1.29,2.33-2.6,2.33-3.47s-.35-1.52-1.12-2.14c-.62-.5-2-1.11-5.09-1.21-1.25-.06-2.19-.45-2.83-1.17-.6-.67-.9-1.61-.9-2.78,0-1.37.32-2.53.94-3.46.53-.8,1.63-1.77,3.8-1.84,2.17-.06,4.14-.38,5.86-.95,1.59-.53,2.84-1.25,3.71-2.16.75-.78,1.1-1.62,1.1-2.64,0-.82-.21-1.88-1.86-2.85-1.58-.93-4.18-1.4-7.74-1.4-3,0-5.94.35-8.77,1.03,3.9.31,4.22,2.85,4.22,3.67,0,.68-.14,1.44-.4,2.24-.83,2.5-1.68,5.97-2.53,10.32-.71,3.62-1.25,7.14-1.62,10.49Z"/>
      <path class="cls-4" d="M369.92,68.22c-3.67,0-6.53-1.75-8.29-5.06-1.56-2.95-2.36-6.74-2.36-11.29,0-4.18.54-8.99,1.62-14.29,1.08-5.38,2.72-10.07,4.86-13.97,2.42-4.4,5.47-6.64,9.08-6.64,2.3,0,4.19,1.1,5.48,3.17,1.13,1.82,1.67,4.25,1.67,7.43,0,4.21-1.16,9.12-3.46,14.58-2.15,5.11-5.06,10.23-8.65,15.23.2.75.41,1.04.48,1.12.1.11.24.22.62.22.93,0,1.71-.25,2.39-.77.91-.69,2.13-1.94,3.63-3.72,1-1.17,2.12-1.41,2.88-1.41,1.12,0,2.11.56,2.72,1.54.45.72.68,1.63.68,2.71,0,1.82-.48,3.3-1.44,4.41-1.51,1.87-3.23,3.46-5.07,4.7-2.01,1.35-4.31,2.04-6.84,2.04ZM373.01,28.73c-.93,2.65-1.76,6.01-2.47,9.99-.07.38-.13.76-.19,1.13.28-.7.54-1.39.79-2.08,1.21-3.38,1.87-6.51,1.97-9.32-.03.09-.07.18-.1.28Z"/>
      <path class="cls-4" d="M387.52,68.22c-4.03,0-7.24-1.15-9.55-3.42-2.32-2.28-3.5-5.38-3.5-9.23,0-2.6.56-5.05,1.65-7.3,1.12-2.29,2.7-4.14,4.7-5.5,2.05-1.39,4.38-2.1,6.95-2.1s4.5.77,6.05,2.3c1.56,1.53,2.35,3.59,2.35,6.1,0,2.84-1.03,5.31-3.06,7.34-1.04,1.04-2.41,1.95-4.13,2.73.96-.17,2.05-.58,3.26-1.25,1.68-.92,3.16-2.15,4.39-3.64,1.01-1.19,2.13-1.43,2.89-1.43,1.12,0,2.11.56,2.72,1.54.45.72.68,1.63.68,2.71,0,1.82-.48,3.3-1.44,4.41-1.35,1.65-3.3,3.2-5.76,4.59-2.54,1.43-5.3,2.16-8.21,2.16ZM386.87,49.57c-.22,0-.72.1-1.35,1.17-.23.39-.42.82-.57,1.28.36-.2.68-.41.96-.64.87-.72.97-1.32.97-1.71,0-.04,0-.07,0-.1Z"/>
      <path class="cls-4" d="M414.52,68.22c-2.29,0-4.09-.72-5.35-2.15-1.19-1.35-1.8-3.24-1.8-5.6,0-.71.1-1.71.32-3.05-.73,1.66-1.32,3.43-1.78,5.27-.45,1.91-.99,3.2-1.71,4.02-.88,1-2.15,1.51-3.78,1.51-2.11,0-3.72-1.16-4.54-3.28-.61-1.58-.91-3.91-.91-7.12,0-4.52.65-8.88,1.94-12.95.44-1.41,1.21-2.48,2.28-3.19,1.03-.68,2.33-1,3.97-1,1.07,0,1.85.18,2.46.55.5.32,1.34,1.08,1.34,2.65,0,.1,0,.21-.01.35.89-.89,1.77-1.59,2.68-2.12,1.62-.94,3.18-1.42,4.63-1.42,3.29,0,5.25,1.96,5.25,5.25,0,1.45-.37,3.9-1.14,7.47-.65,2.96-.84,4.35-.89,5,.13-.1.29-.23.48-.39.84-.75,2.01-2.02,3.47-3.76,1-1.17,2.12-1.42,2.88-1.42,1.12,0,2.11.56,2.72,1.54.45.72.68,1.63.68,2.71,0,1.82-.48,3.3-1.44,4.41-1.51,1.86-3.21,3.46-5.01,4.69-1.98,1.36-4.25,2.05-6.76,2.05Z"/>
      <path class="cls-4" d="M438.92,68.52c-1.59,0-2.87-.49-3.81-1.46-.3-.31-.58-.68-.84-1.14-.61.54-1.21.96-1.79,1.26-1.3.68-2.8,1.03-4.46,1.03-2.63,0-4.83-1-6.54-2.96-1.63-1.88-2.46-4.32-2.46-7.24s.64-5.76,1.91-8.29c1.27-2.54,3.04-4.66,5.25-6.29,1.8-1.33,3.8-2.24,5.96-2.73.69-5.83,1.89-11.02,3.58-15.45,2.1-5.5,5.12-8.29,8.99-8.29,2.07,0,3.87.96,5.19,2.77,1.22,1.67,1.81,3.98,1.81,7.08,0,3.88-.95,8.44-2.82,13.54-1.76,4.79-4.1,9.79-6.95,14.86.35,2.42.84,4.84,1.46,7.2.17.55.27,1.2.27,1.86,0,2.05-1.25,4.25-4.75,4.25ZM429.57,59.15s.08.02.2.02c.07,0,.29,0,.67-.3.22-.18.7-.66,1.55-1.85-.23-1.89-.37-3.84-.41-5.83-.29.33-.56.69-.82,1.1-1,1.59-1.49,3.3-1.49,5.23,0,1.32.29,1.63.29,1.63h0Z"/>
    </g>
    <g>
      <path class="cls-4" d="M53.13,67.22c-4.26,0-8.04-.8-11.24-2.38-3.28-1.62-5.83-3.96-7.59-6.96-1.74-2.96-2.62-6.43-2.62-10.31,0-5.19,1-9.87,2.98-13.93,2-4.11,4.77-7.35,8.22-9.62,3.49-2.29,7.41-3.45,11.65-3.45s7.36,1.13,9.61,3.35c2.25,2.23,3.39,5.17,3.39,8.75,0,2.38-.45,4.37-1.35,5.9-1.08,1.86-2.75,2.85-4.8,2.85-1.4,0-2.57-.37-3.46-1.1-.7-.57-1.54-1.63-1.54-3.45,0-.29.03-.77.23-1.98.23-1.14.27-1.75.27-2.07,0-1.65-.45-2.55-2.85-2.55-1.79,0-3.47.58-5.14,1.78-1.7,1.22-3.11,3.07-4.19,5.51-1.11,2.51-1.68,5.58-1.68,9.12s.9,6.04,2.75,7.84c1.84,1.8,4.7,2.71,8.5,2.71,1.99,0,4.04-.26,6.09-.77,2.11-.52,4.49-1.34,7.08-2.43.78-.31,1.43-.46,2.02-.46,1.21,0,2.22.53,2.86,1.49.49.74.74,1.63.74,2.66,0,1.99-.78,4.7-4.5,6.33-2.5,1.09-5.13,1.9-7.81,2.41-2.66.5-5.24.76-7.65.76Z"/>
      <path class="cls-4" d="M85.13,67.22c-2.29,0-4.09-.72-5.35-2.15-1.19-1.35-1.8-3.23-1.8-5.6,0-.72.11-1.76.33-3.13-.73,1.69-1.33,3.49-1.79,5.36-.84,3.56-3.2,5.52-6.64,5.52-1.78,0-3.17-.83-3.81-2.27-.44-.99-.65-2.48-.65-4.68,0-1.08.02-1.98.05-2.65l.05-3.92c0-5.21.54-10.74,1.61-16.4,1.08-5.75,2.72-10.66,4.86-14.61,2.42-4.46,5.49-6.72,9.13-6.72,2.17,0,4.02.97,5.35,2.8,1.2,1.66,1.8,3.78,1.8,6.3,0,3.69-1.07,7.53-3.19,11.43-.59,1.09-1.29,2.23-2.1,3.42.65-.17,1.28-.25,1.89-.25,3.29,0,5.25,1.96,5.25,5.25,0,1.45-.38,3.9-1.15,7.47-.65,2.96-.84,4.35-.89,5,.13-.1.29-.23.48-.39.84-.75,2.01-2.02,3.47-3.76,1.01-1.17,2.12-1.42,2.88-1.42,1.12,0,2.11.56,2.72,1.54.45.72.68,1.63.68,2.71,0,1.82-.48,3.3-1.43,4.41-1.64,1.89-3.35,3.46-5.09,4.68-1.95,1.37-4.2,2.06-6.67,2.06ZM79.3,27.91c-.39,1.15-.79,2.5-1.17,4.04.59-1.44.98-2.79,1.17-4.04Z"/>
      <path class="cls-4" d="M100.98,67.22c-2.4,0-4.5-.61-6.25-1.8-1.71-1.17-3.03-2.74-3.92-4.67-.85-1.85-1.28-3.88-1.28-6.03,0-2.83.56-5.4,1.65-7.65,1.12-2.3,2.7-4.13,4.7-5.45,2.02-1.33,4.29-2,6.75-2,3.12,0,5.68,1.11,7.62,3.3,1.4,1.59,2.37,3.46,2.88,5.6,1.04-.16,2.19-.41,3.44-.74.46-.11.84-.17,1.21-.17,1.17,0,2.18.62,2.76,1.7.39.73.59,1.6.59,2.6,0,3.37-1.79,4.43-2.86,4.76-1.7.6-3.6,1-5.64,1.19-.81,2.54-2.14,4.66-3.97,6.31-2.24,2.02-4.82,3.04-7.69,3.04ZM100.65,50.13c-.58.94-.88,2.33-.88,4.14,0,1.37.24,2.41.68,3.01.48.64.79.64.92.64.35,0,.78-.08,1.29-.64.35-.39.63-.93.84-1.63-.8-.75-1.46-1.64-1.95-2.66-.44-.91-.75-1.87-.9-2.86Z"/>
      <path class="cls-4" d="M123.28,67.22c-2.38,0-4.46-.62-6.18-1.85-1.67-1.19-2.95-2.77-3.8-4.7-.81-1.85-1.22-3.85-1.22-5.95,0-2.82.55-5.39,1.62-7.64,1.1-2.29,2.63-4.12,4.55-5.44,1.96-1.34,4.19-2.02,6.63-2.02s4.46.62,6.2,1.84c1.7,1.19,2.99,2.78,3.83,4.71.81,1.85,1.22,3.85,1.22,5.95,0,2.83-.56,5.4-1.65,7.65-1.12,2.29-2.67,4.12-4.6,5.43-1.98,1.34-4.2,2.02-6.6,2.02ZM124.48,49.02c-.23,0-.71,0-1.29.91-.39.61-.86,1.85-.86,4.34,0,1.91.38,2.7.61,3.01.37.5.66.54.89.54.16,0,.6,0,1.19-.92.39-.62.86-1.88.86-4.33,0-1.74-.34-2.59-.63-2.99-.4-.56-.66-.56-.77-.56Z"/>
      <path class="cls-4" d="M146.53,68.32c-2.22,0-4-.57-5.29-1.69-1.36-1.18-1.86-2.46-2.01-3.48-1.16,1.09-2.35,1.33-3.15,1.33-1.12,0-2.09-.44-2.81-1.26-.65-.75-.99-1.69-.99-2.74,0-1.14.39-2.19,1.15-3.12l.64-.79c1.77-2.19,3.13-4.01,4.02-5.41.5-.85,1.14-2.1,1.88-3.66.75-1.58,1.49-3.24,2.21-4.95.55-1.29,2.04-3.42,5.79-3.42,1.26,0,2.12.13,2.77.43,1.08.5,1.73,1.48,1.73,2.62,0,.41-.09.89-.29,1.54-.17.55-.41,1.11-.7,1.66-.57,1.14-.66,1.81-.66,2.1,0,.02,0,.22.25.64.3.51.79,1.18,1.45,2,1.17,1.54,2.02,2.79,2.62,3.86.34.62.61,1.26.79,1.94.68-.65,1.47-1.5,2.38-2.64,1.03-1.2,2.15-1.45,2.91-1.45,1.12,0,2.11.56,2.72,1.54.45.72.68,1.63.68,2.71,0,1.72-.46,3.18-1.38,4.34-1.88,2.33-3.66,3.89-5.46,4.78-1.61.8-3.55,1.27-5.78,1.4-1.58,1.15-3.42,1.73-5.48,1.73ZM144.63,56.56c-.15.24-.29.47-.44.69.24-.02.48-.03.73-.03.04,0,.07,0,.11,0-.12-.22-.26-.44-.4-.66Z"/>
      <path class="cls-4" d="M167.93,67.22c-3.77,0-6.77-1.18-8.92-3.52-2.11-2.29-3.18-5.36-3.18-9.13,0-2.6.56-5.05,1.65-7.3,1.12-2.29,2.7-4.14,4.7-5.5,2.04-1.39,4.38-2.1,6.95-2.1s4.5.77,6.05,2.3c1.56,1.54,2.35,3.59,2.35,6.1,0,1.94-.48,3.7-1.43,5.27.13-.01.26-.02.38-.02,1.12,0,2.11.56,2.72,1.54.45.72.68,1.63.68,2.71,0,1.59-.4,3-1.17,4.19-1.12,1.71-2.6,3.07-4.42,4.03-1.8.95-3.94,1.43-6.36,1.43ZM168.22,48.57c-.22,0-.72.1-1.35,1.17-.23.39-.42.82-.58,1.28.36-.2.68-.41.96-.64.87-.72.97-1.32.97-1.71,0-.04,0-.07,0-.1Z"/>
      <path class="cls-4" d="M210.73,83.32c-3.26,0-5.87-.85-7.75-2.53-1.95-1.74-2.95-3.98-2.95-6.67,0-4.09,1.81-7.74,5.38-10.86.67-.58,1.41-1.15,2.21-1.71-3.13-.14-5.6-1.25-7.36-3.31-1.81-2.11-2.73-4.83-2.73-8.08,0-1.35.15-2.84.43-4.43.27-1.51.7-3.57,1.27-6.11.49-2.26.86-4.08,1.11-5.42.23-1.24.34-2.35.34-3.29,0-.16,0-.29-.02-.38-.38.06-1.04.27-2.08,1.03-1.15.83-2.4,2.15-3.74,3.95-1.07,1.45-2.3,1.75-3.15,1.75-1.08,0-2.08-.51-2.8-1.45-.62-.79-.95-1.75-.95-2.75,0-1.48.58-3,1.78-4.67,3.79-5.2,8.35-7.83,13.57-7.83,2.6,0,4.7.84,6.24,2.49,1.5,1.61,2.26,3.9,2.26,6.81,0,1.84-.17,3.75-.5,5.67-.33,1.85-.81,4.21-1.45,7.02-.39,1.63-.69,2.96-.89,3.97-.17.88-.26,1.6-.26,2.14,0,1.75.37,2.29.45,2.38.14.17.64.37,1.6.37,1.22,0,2.59-.79,4.08-2.35,1.69-1.78,3.26-4.59,4.68-8.35,1.45-3.86,2.51-8.68,3.16-14.32.22-1.93.78-3.34,1.7-4.29.99-1.02,2.35-1.53,4.03-1.53,3.44,0,5.5,2.06,5.5,5.5,0,.49-.02.89-.07,1.22-.7,4.98-1.35,9.47-1.95,13.47-.33,2.39-.69,4.86-1.07,7.4-.24,1.56-.47,3.13-.7,4.72,1.56-.38,3.17-.73,4.82-1.06.38-.11.83-.16,1.38-.16,1.71,0,3.7,1.1,3.7,4.2,0,1.19-.28,2.23-.84,3.1-.65,1.02-1.67,1.69-2.96,1.92-2.52.47-5.04,1-7.5,1.56-1,6.87-3.03,12.07-6.03,15.47-3.17,3.58-7.18,5.4-11.92,5.4ZM217.68,65.9c-3.93,1.71-7.55,4.09-7.55,7.07,0,.53.17.78.33.95.07.07.28.3,1.02.3,2.95,0,5.03-2.79,6.2-8.32Z"/>
      <path class="cls-4" d="M243.63,67.22c-2.4,0-4.5-.61-6.25-1.8-1.71-1.17-3.03-2.74-3.92-4.67-.85-1.85-1.28-3.88-1.28-6.03,0-2.83.56-5.4,1.65-7.65,1.12-2.3,2.7-4.13,4.7-5.45,2.02-1.33,4.29-2,6.75-2,3.12,0,5.68,1.11,7.62,3.3,1.4,1.59,2.37,3.46,2.88,5.6,1.04-.16,2.19-.41,3.44-.74.46-.11.84-.17,1.21-.17,1.17,0,2.18.62,2.76,1.7.39.73.59,1.6.59,2.6,0,3.37-1.79,4.43-2.86,4.76-1.7.6-3.6,1-5.64,1.19-.81,2.54-2.14,4.66-3.97,6.31-2.24,2.02-4.82,3.04-7.69,3.04ZM243.3,50.13c-.58.94-.88,2.33-.88,4.14,0,1.37.24,2.41.68,3.01.48.64.79.64.92.64.35,0,.78-.08,1.29-.64.35-.39.63-.93.84-1.63-.8-.75-1.46-1.64-1.95-2.66-.44-.91-.75-1.87-.9-2.86Z"/>
      <path class="cls-4" d="M273.42,67.22c-2.31,0-4.12-.97-5.23-2.81-.03-.04-.05-.09-.08-.13-.14.17-.28.33-.42.49-1.52,1.63-3.24,2.46-5.11,2.46-2.16,0-4-1.02-5.32-2.94-1.18-1.71-1.78-3.84-1.78-6.31,0-2.6.18-5.02.53-7.19.35-2.17.93-4.5,1.72-6.93.47-1.41,1.19-2.47,2.13-3.15.96-.69,2.27-1.03,4.02-1.03,1.22,0,2.13.26,2.79.8.75.62,1.16,1.54,1.16,2.6,0,.33-.05.83-.6,3.17-.34,1.24-.59,2.33-.78,3.28-.37,1.95-.61,3.36-.75,4.39.4-.74.83-1.64,1.27-2.7.81-1.94,1.62-4.38,2.39-7.25.38-1.42,1.02-2.5,1.92-3.2.91-.72,2.16-1.08,3.71-1.08,1.17,0,2.01.18,2.64.57.53.32,1.41,1.11,1.41,2.73,0,.68-.15,2.13-1.3,7.29-1,4.58-1.27,6.41-1.33,7.13.13-.1.29-.22.48-.39.84-.75,2.01-2.02,3.47-3.76,1.01-1.17,2.12-1.42,2.88-1.42,1.12,0,2.11.56,2.72,1.54.45.72.68,1.63.68,2.71,0,1.82-.48,3.3-1.44,4.41-1.51,1.86-3.21,3.46-5.01,4.69-1.98,1.36-4.25,2.05-6.76,2.05Z"/>
      <path class="cls-4" d="M284.13,67.22c-2.11,0-3.72-1.16-4.54-3.28-.61-1.58-.91-3.91-.91-7.12,0-4.52.65-8.88,1.94-12.95.44-1.41,1.21-2.48,2.28-3.19,1.02-.68,2.32-1,3.97-1,1.07,0,1.86.18,2.46.55.5.31,1.34,1.07,1.34,2.64,0,.1,0,.21-.01.34.88-.89,1.76-1.59,2.65-2.11,1.61-.95,3.14-1.43,4.57-1.43,1.91,0,3.06.79,3.68,1.46.87.93,1.32,2.21,1.32,3.79,0,.33-.03.88-.21,1.99.51.23.98.55,1.4.97.89.89,1.36,2.04,1.36,3.34,0,.69-.15,1.41-.44,2.14-.67,1.56-1.61,2.84-2.8,3.87-1.34,1.15-2.85,1.74-4.51,1.74-1.47,0-2.78-.55-3.81-1.6-.81-.84-1.31-1.88-1.48-3.11-.31.59-.62,1.25-.93,1.96-.75,1.72-1.37,3.56-1.84,5.48-.45,1.94-.98,3.24-1.69,4.04-.86.98-2.14,1.48-3.8,1.48Z"/>
      <path class="cls-4" d="M324.82,69.47c-1.81,0-3.15-.51-4-1.51-.8-.95-1.15-2.21-1.04-3.77.3-4.71.9-9.72,1.77-14.88.87-5.15,2-10.21,3.35-15.03.17-.62.44-1.17.79-1.65-1.06.46-2.04.96-2.94,1.5-1.4.83-2.62,1.23-3.73,1.23-1.22,0-2.28-.5-2.97-1.42-.58-.76-.88-1.7-.88-2.78,0-1.19.27-2.25.8-3.16.54-.93,1.58-1.81,3.25-2.77,2.96-1.69,6.45-3.02,10.38-3.96,3.9-.93,7.94-1.41,12.01-1.41,6.51,0,11.29,1.11,14.63,3.4,3.53,2.42,5.32,5.68,5.32,9.7,0,3.36-1.2,6.29-3.57,8.72-1.33,1.37-3.02,2.51-5.04,3.42.4.34.77.71,1.09,1.1,1.37,1.65,2.06,3.57,2.06,5.71,0,3.11-.99,5.85-2.95,8.15-1.88,2.21-4.61,3.91-8.12,5.07-3.35,1.11-7.42,1.68-12.08,1.68-.95,0-1.79-.02-2.53-.05-.37.69-.92,1.27-1.63,1.71-1.08.66-2.43.99-3.99.99ZM331.47,57.32c.65.03,1.22.05,1.7.05,4.27,0,7.37-.58,9.22-1.73,2.08-1.29,2.33-2.6,2.33-3.47s-.35-1.52-1.12-2.14c-.62-.5-2-1.11-5.09-1.21-1.25-.06-2.19-.45-2.83-1.17-.6-.67-.9-1.61-.9-2.78,0-1.37.32-2.53.94-3.46.53-.8,1.63-1.77,3.8-1.84,2.17-.06,4.14-.38,5.86-.95,1.59-.53,2.84-1.25,3.71-2.16.75-.78,1.1-1.62,1.1-2.64,0-.82-.21-1.88-1.86-2.85-1.58-.93-4.18-1.4-7.74-1.4-3,0-5.94.35-8.77,1.03,3.9.31,4.22,2.85,4.22,3.67,0,.68-.14,1.44-.4,2.24-.83,2.5-1.68,5.97-2.53,10.32-.71,3.62-1.25,7.14-1.62,10.49Z"/>
      <path class="cls-4" d="M368.92,67.22c-3.67,0-6.53-1.75-8.29-5.06-1.56-2.95-2.36-6.74-2.36-11.29,0-4.18.54-8.99,1.62-14.29,1.08-5.38,2.72-10.07,4.86-13.97,2.42-4.4,5.47-6.64,9.08-6.64,2.3,0,4.19,1.1,5.48,3.17,1.13,1.82,1.67,4.25,1.67,7.43,0,4.21-1.16,9.12-3.46,14.58-2.15,5.11-5.06,10.23-8.65,15.23.2.75.41,1.04.48,1.12.1.11.24.22.62.22.93,0,1.71-.25,2.39-.77.91-.69,2.13-1.94,3.63-3.72,1-1.17,2.12-1.41,2.88-1.41,1.12,0,2.11.56,2.72,1.54.45.72.68,1.63.68,2.71,0,1.82-.48,3.3-1.44,4.41-1.51,1.87-3.23,3.46-5.07,4.7-2.01,1.35-4.31,2.04-6.84,2.04ZM372.01,27.73c-.93,2.65-1.76,6.01-2.47,9.99-.07.38-.13.76-.19,1.13.28-.7.54-1.39.79-2.08,1.21-3.38,1.87-6.51,1.97-9.32-.03.09-.07.18-.1.28Z"/>
      <path class="cls-4" d="M386.52,67.22c-4.03,0-7.24-1.15-9.55-3.42-2.32-2.28-3.5-5.38-3.5-9.23,0-2.6.56-5.05,1.65-7.3,1.12-2.29,2.7-4.14,4.7-5.5,2.05-1.39,4.38-2.1,6.95-2.1s4.5.77,6.05,2.3c1.56,1.53,2.35,3.59,2.35,6.1,0,2.84-1.03,5.31-3.06,7.34-1.04,1.04-2.41,1.95-4.13,2.73.96-.17,2.05-.58,3.26-1.25,1.68-.92,3.16-2.15,4.39-3.64,1.01-1.19,2.13-1.43,2.89-1.43,1.12,0,2.11.56,2.72,1.54.45.72.68,1.63.68,2.71,0,1.82-.48,3.3-1.44,4.41-1.35,1.65-3.3,3.2-5.76,4.59-2.54,1.43-5.3,2.16-8.21,2.16ZM385.87,48.57c-.22,0-.72.1-1.35,1.17-.23.39-.42.82-.57,1.28.36-.2.68-.41.96-.64.87-.72.97-1.32.97-1.71,0-.04,0-.07,0-.1Z"/>
      <path class="cls-4" d="M413.52,67.22c-2.29,0-4.09-.72-5.35-2.15-1.19-1.35-1.8-3.24-1.8-5.6,0-.71.1-1.71.32-3.05-.73,1.66-1.32,3.43-1.78,5.27-.45,1.91-.99,3.2-1.71,4.02-.88,1-2.15,1.51-3.78,1.51-2.11,0-3.72-1.16-4.54-3.28-.61-1.58-.91-3.91-.91-7.12,0-4.52.65-8.88,1.94-12.95.44-1.41,1.21-2.48,2.28-3.19,1.03-.68,2.33-1,3.97-1,1.07,0,1.85.18,2.46.55.5.32,1.34,1.08,1.34,2.65,0,.1,0,.21-.01.35.89-.89,1.77-1.59,2.68-2.12,1.62-.94,3.18-1.42,4.63-1.42,3.29,0,5.25,1.96,5.25,5.25,0,1.45-.37,3.9-1.14,7.47-.65,2.96-.84,4.35-.89,5,.13-.1.29-.23.48-.39.84-.75,2.01-2.02,3.47-3.76,1-1.17,2.12-1.42,2.88-1.42,1.12,0,2.11.56,2.72,1.54.45.72.68,1.63.68,2.71,0,1.82-.48,3.3-1.44,4.41-1.51,1.86-3.21,3.46-5.01,4.69-1.98,1.36-4.25,2.05-6.76,2.05Z"/>
      <path class="cls-4" d="M437.92,67.52c-1.59,0-2.87-.49-3.81-1.46-.3-.31-.58-.68-.84-1.14-.61.54-1.21.96-1.79,1.26-1.3.68-2.8,1.03-4.46,1.03-2.63,0-4.83-1-6.54-2.96-1.63-1.88-2.46-4.32-2.46-7.24s.64-5.76,1.91-8.29c1.27-2.54,3.04-4.66,5.25-6.29,1.8-1.33,3.8-2.24,5.96-2.73.69-5.83,1.89-11.02,3.58-15.45,2.1-5.5,5.12-8.29,8.99-8.29,2.07,0,3.87.96,5.19,2.77,1.22,1.67,1.81,3.98,1.81,7.08,0,3.88-.95,8.44-2.82,13.54-1.76,4.79-4.1,9.79-6.95,14.86.35,2.42.84,4.84,1.46,7.2.17.55.27,1.2.27,1.86,0,2.05-1.25,4.25-4.75,4.25ZM428.57,58.15s.08.02.2.02c.07,0,.29,0,.67-.3.22-.18.7-.66,1.55-1.85-.23-1.89-.37-3.84-.41-5.83-.29.33-.56.69-.82,1.1-1,1.59-1.49,3.3-1.49,5.23,0,1.32.29,1.63.29,1.63h0Z"/>
    </g>
    <g>
      <path class="cls-4" d="M52.13,66.22c-4.26,0-8.04-.8-11.24-2.38-3.28-1.62-5.83-3.96-7.59-6.96-1.74-2.96-2.62-6.43-2.62-10.31,0-5.19,1-9.87,2.98-13.93,2-4.11,4.77-7.35,8.22-9.62,3.49-2.29,7.41-3.45,11.65-3.45s7.36,1.13,9.61,3.35c2.25,2.23,3.39,5.17,3.39,8.75,0,2.38-.45,4.37-1.35,5.9-1.08,1.86-2.75,2.85-4.8,2.85-1.4,0-2.57-.37-3.46-1.1-.7-.57-1.54-1.63-1.54-3.45,0-.29.03-.77.23-1.98.23-1.14.27-1.75.27-2.07,0-1.65-.45-2.55-2.85-2.55-1.79,0-3.47.58-5.14,1.78-1.7,1.22-3.11,3.07-4.19,5.51-1.11,2.51-1.68,5.58-1.68,9.12s.9,6.04,2.75,7.84c1.84,1.8,4.7,2.71,8.5,2.71,1.99,0,4.04-.26,6.09-.77,2.11-.52,4.49-1.34,7.08-2.43.78-.31,1.43-.46,2.02-.46,1.21,0,2.22.53,2.86,1.49.49.74.74,1.63.74,2.66,0,1.99-.78,4.7-4.5,6.33-2.5,1.09-5.13,1.9-7.81,2.41-2.66.5-5.24.76-7.65.76Z"/>
      <path class="cls-4" d="M84.13,66.22c-2.29,0-4.09-.72-5.35-2.15-1.19-1.35-1.8-3.23-1.8-5.6,0-.72.11-1.76.33-3.13-.73,1.69-1.33,3.49-1.79,5.36-.84,3.56-3.2,5.52-6.64,5.52-1.78,0-3.17-.83-3.81-2.27-.44-.99-.65-2.48-.65-4.68,0-1.08.02-1.98.05-2.65l.05-3.92c0-5.21.54-10.74,1.61-16.4,1.08-5.75,2.72-10.66,4.86-14.61,2.42-4.46,5.49-6.72,9.13-6.72,2.17,0,4.02.97,5.35,2.8,1.2,1.66,1.8,3.78,1.8,6.3,0,3.69-1.07,7.53-3.19,11.43-.59,1.09-1.29,2.23-2.1,3.42.65-.17,1.28-.25,1.89-.25,3.29,0,5.25,1.96,5.25,5.25,0,1.45-.38,3.9-1.15,7.47-.65,2.96-.84,4.35-.89,5,.13-.1.29-.23.48-.39.84-.75,2.01-2.02,3.47-3.76,1.01-1.17,2.12-1.42,2.88-1.42,1.12,0,2.11.56,2.72,1.54.45.72.68,1.63.68,2.71,0,1.82-.48,3.3-1.43,4.41-1.64,1.89-3.35,3.46-5.09,4.68-1.95,1.37-4.2,2.06-6.67,2.06ZM78.3,26.91c-.39,1.15-.79,2.5-1.17,4.04.59-1.44.98-2.79,1.17-4.04Z"/>
      <path class="cls-4" d="M99.98,66.22c-2.4,0-4.5-.61-6.25-1.8-1.71-1.17-3.03-2.74-3.92-4.67-.85-1.85-1.28-3.88-1.28-6.03,0-2.83.56-5.4,1.65-7.65,1.12-2.3,2.7-4.13,4.7-5.45,2.02-1.33,4.29-2,6.75-2,3.12,0,5.68,1.11,7.62,3.3,1.4,1.59,2.37,3.46,2.88,5.6,1.04-.16,2.19-.41,3.44-.74.46-.11.84-.17,1.21-.17,1.17,0,2.18.62,2.76,1.7.39.73.59,1.6.59,2.6,0,3.37-1.79,4.43-2.86,4.76-1.7.6-3.6,1-5.64,1.19-.81,2.54-2.14,4.66-3.97,6.31-2.24,2.02-4.82,3.04-7.69,3.04ZM99.65,49.13c-.58.94-.88,2.33-.88,4.14,0,1.37.24,2.41.68,3.01.48.64.79.64.92.64.35,0,.78-.08,1.29-.64.35-.39.63-.93.84-1.63-.8-.75-1.46-1.64-1.95-2.66-.44-.91-.75-1.87-.9-2.86Z"/>
      <path class="cls-4" d="M122.28,66.22c-2.38,0-4.46-.62-6.18-1.85-1.67-1.19-2.95-2.77-3.8-4.7-.81-1.85-1.22-3.85-1.22-5.95,0-2.82.55-5.39,1.62-7.64,1.1-2.29,2.63-4.12,4.55-5.44,1.96-1.34,4.19-2.02,6.63-2.02s4.46.62,6.2,1.84c1.7,1.19,2.99,2.78,3.83,4.71.81,1.85,1.22,3.85,1.22,5.95,0,2.83-.56,5.4-1.65,7.65-1.12,2.29-2.67,4.12-4.6,5.43-1.98,1.34-4.2,2.02-6.6,2.02ZM123.48,48.02c-.23,0-.71,0-1.29.91-.39.61-.86,1.85-.86,4.34,0,1.91.38,2.7.61,3.01.37.5.66.54.89.54.16,0,.6,0,1.19-.92.39-.62.86-1.88.86-4.33,0-1.74-.34-2.59-.63-2.99-.4-.56-.66-.56-.77-.56Z"/>
      <path class="cls-4" d="M145.53,67.32c-2.22,0-4-.57-5.29-1.69-1.36-1.18-1.86-2.46-2.01-3.48-1.16,1.09-2.35,1.33-3.15,1.33-1.12,0-2.09-.44-2.81-1.26-.65-.75-.99-1.69-.99-2.74,0-1.14.39-2.19,1.15-3.12l.64-.79c1.77-2.19,3.13-4.01,4.02-5.41.5-.85,1.14-2.1,1.88-3.66.75-1.58,1.49-3.24,2.21-4.95.55-1.29,2.04-3.42,5.79-3.42,1.26,0,2.12.13,2.77.43,1.08.5,1.73,1.48,1.73,2.62,0,.41-.09.89-.29,1.54-.17.55-.41,1.11-.7,1.66-.57,1.14-.66,1.81-.66,2.1,0,.02,0,.22.25.64.3.51.79,1.18,1.45,2,1.17,1.54,2.02,2.79,2.62,3.86.34.62.61,1.26.79,1.94.68-.65,1.47-1.5,2.38-2.64,1.03-1.2,2.15-1.45,2.91-1.45,1.12,0,2.11.56,2.72,1.54.45.72.68,1.63.68,2.71,0,1.72-.46,3.18-1.38,4.34-1.88,2.33-3.66,3.89-5.46,4.78-1.61.8-3.55,1.27-5.78,1.4-1.58,1.15-3.42,1.73-5.48,1.73ZM143.63,55.56c-.15.24-.29.47-.44.69.24-.02.48-.03.73-.03.04,0,.07,0,.11,0-.12-.22-.26-.44-.4-.66Z"/>
      <path class="cls-4" d="M166.93,66.22c-3.77,0-6.77-1.18-8.92-3.52-2.11-2.29-3.18-5.36-3.18-9.13,0-2.6.56-5.05,1.65-7.3,1.12-2.29,2.7-4.14,4.7-5.5,2.04-1.39,4.38-2.1,6.95-2.1s4.5.77,6.05,2.3c1.56,1.54,2.35,3.59,2.35,6.1,0,1.94-.48,3.7-1.43,5.27.13-.01.26-.02.38-.02,1.12,0,2.11.56,2.72,1.54.45.72.68,1.63.68,2.71,0,1.59-.4,3-1.17,4.19-1.12,1.71-2.6,3.07-4.42,4.03-1.8.95-3.94,1.43-6.36,1.43ZM167.22,47.57c-.22,0-.72.1-1.35,1.17-.23.39-.42.82-.58,1.28.36-.2.68-.41.96-.64.87-.72.97-1.32.97-1.71,0-.04,0-.07,0-.1Z"/>
      <path class="cls-4" d="M209.73,82.32c-3.26,0-5.87-.85-7.75-2.53-1.95-1.74-2.95-3.98-2.95-6.67,0-4.09,1.81-7.74,5.38-10.86.67-.58,1.41-1.15,2.21-1.71-3.13-.14-5.6-1.25-7.36-3.31-1.81-2.11-2.73-4.83-2.73-8.08,0-1.35.15-2.84.43-4.43.27-1.51.7-3.57,1.27-6.11.49-2.26.86-4.08,1.11-5.42.23-1.24.34-2.35.34-3.29,0-.16,0-.29-.02-.38-.38.06-1.04.27-2.08,1.03-1.15.83-2.4,2.15-3.74,3.95-1.07,1.45-2.3,1.75-3.15,1.75-1.08,0-2.08-.51-2.8-1.45-.62-.79-.95-1.75-.95-2.75,0-1.48.58-3,1.78-4.67,3.79-5.2,8.35-7.83,13.57-7.83,2.6,0,4.7.84,6.24,2.49,1.5,1.61,2.26,3.9,2.26,6.81,0,1.84-.17,3.75-.5,5.67-.33,1.85-.81,4.21-1.45,7.02-.39,1.63-.69,2.96-.89,3.97-.17.88-.26,1.6-.26,2.14,0,1.75.37,2.29.45,2.38.14.17.64.37,1.6.37,1.22,0,2.59-.79,4.08-2.35,1.69-1.78,3.26-4.59,4.68-8.35,1.45-3.86,2.51-8.68,3.16-14.32.22-1.93.78-3.34,1.7-4.29.99-1.02,2.35-1.53,4.03-1.53,3.44,0,5.5,2.06,5.5,5.5,0,.49-.02.89-.07,1.22-.7,4.98-1.35,9.47-1.95,13.47-.33,2.39-.69,4.86-1.07,7.4-.24,1.56-.47,3.13-.7,4.72,1.56-.38,3.17-.73,4.82-1.06.38-.11.83-.16,1.38-.16,1.71,0,3.7,1.1,3.7,4.2,0,1.19-.28,2.23-.84,3.1-.65,1.02-1.67,1.69-2.96,1.92-2.52.47-5.04,1-7.5,1.56-1,6.87-3.03,12.07-6.03,15.47-3.17,3.58-7.18,5.4-11.92,5.4ZM216.68,64.9c-3.93,1.71-7.55,4.09-7.55,7.07,0,.53.17.78.33.95.07.07.28.3,1.02.3,2.95,0,5.03-2.79,6.2-8.32Z"/>
      <path class="cls-4" d="M242.63,66.22c-2.4,0-4.5-.61-6.25-1.8-1.71-1.17-3.03-2.74-3.92-4.67-.85-1.85-1.28-3.88-1.28-6.03,0-2.83.56-5.4,1.65-7.65,1.12-2.3,2.7-4.13,4.7-5.45,2.02-1.33,4.29-2,6.75-2,3.12,0,5.68,1.11,7.62,3.3,1.4,1.59,2.37,3.46,2.88,5.6,1.04-.16,2.19-.41,3.44-.74.46-.11.84-.17,1.21-.17,1.17,0,2.18.62,2.76,1.7.39.73.59,1.6.59,2.6,0,3.37-1.79,4.43-2.86,4.76-1.7.6-3.6,1-5.64,1.19-.81,2.54-2.14,4.66-3.97,6.31-2.24,2.02-4.82,3.04-7.69,3.04ZM242.3,49.13c-.58.94-.88,2.33-.88,4.14,0,1.37.24,2.41.68,3.01.48.64.79.64.92.64.35,0,.78-.08,1.29-.64.35-.39.63-.93.84-1.63-.8-.75-1.46-1.64-1.95-2.66-.44-.91-.75-1.87-.9-2.86Z"/>
      <path class="cls-4" d="M272.42,66.22c-2.31,0-4.12-.97-5.23-2.81-.03-.04-.05-.09-.08-.13-.14.17-.28.33-.42.49-1.52,1.63-3.24,2.46-5.11,2.46-2.16,0-4-1.02-5.32-2.94-1.18-1.71-1.78-3.84-1.78-6.31,0-2.6.18-5.02.53-7.19.35-2.17.93-4.5,1.72-6.93.47-1.41,1.19-2.47,2.13-3.15.96-.69,2.27-1.03,4.02-1.03,1.22,0,2.13.26,2.79.8.75.62,1.16,1.54,1.16,2.6,0,.33-.05.83-.6,3.17-.34,1.24-.59,2.33-.78,3.28-.37,1.95-.61,3.36-.75,4.39.4-.74.83-1.64,1.27-2.7.81-1.94,1.62-4.38,2.39-7.25.38-1.42,1.02-2.5,1.92-3.2.91-.72,2.16-1.08,3.71-1.08,1.17,0,2.01.18,2.64.57.53.32,1.41,1.11,1.41,2.73,0,.68-.15,2.13-1.3,7.29-1,4.58-1.27,6.41-1.33,7.13.13-.1.29-.22.48-.39.84-.75,2.01-2.02,3.47-3.76,1.01-1.17,2.12-1.42,2.88-1.42,1.12,0,2.11.56,2.72,1.54.45.72.68,1.63.68,2.71,0,1.82-.48,3.3-1.44,4.41-1.51,1.86-3.21,3.46-5.01,4.69-1.98,1.36-4.25,2.05-6.76,2.05Z"/>
      <path class="cls-4" d="M283.13,66.22c-2.11,0-3.72-1.16-4.54-3.28-.61-1.58-.91-3.91-.91-7.12,0-4.52.65-8.88,1.94-12.95.44-1.41,1.21-2.48,2.28-3.19,1.02-.68,2.32-1,3.97-1,1.07,0,1.86.18,2.46.55.5.31,1.34,1.07,1.34,2.64,0,.1,0,.21-.01.34.88-.89,1.76-1.59,2.65-2.11,1.61-.95,3.14-1.43,4.57-1.43,1.91,0,3.06.79,3.68,1.46.87.93,1.32,2.21,1.32,3.79,0,.33-.03.88-.21,1.99.51.23.98.55,1.4.97.89.89,1.36,2.04,1.36,3.34,0,.69-.15,1.41-.44,2.14-.67,1.56-1.61,2.84-2.8,3.87-1.34,1.15-2.85,1.74-4.51,1.74-1.47,0-2.78-.55-3.81-1.6-.81-.84-1.31-1.88-1.48-3.11-.31.59-.62,1.25-.93,1.96-.75,1.72-1.37,3.56-1.84,5.48-.45,1.94-.98,3.24-1.69,4.04-.86.98-2.14,1.48-3.8,1.48Z"/>
      <path class="cls-4" d="M323.82,68.47c-1.81,0-3.15-.51-4-1.51-.8-.95-1.15-2.21-1.04-3.77.3-4.71.9-9.72,1.77-14.88.87-5.15,2-10.21,3.35-15.03.17-.62.44-1.17.79-1.65-1.06.46-2.04.96-2.94,1.5-1.4.83-2.62,1.23-3.73,1.23-1.22,0-2.28-.5-2.97-1.42-.58-.76-.88-1.7-.88-2.78,0-1.19.27-2.25.8-3.16.54-.93,1.58-1.81,3.25-2.77,2.96-1.69,6.45-3.02,10.38-3.96,3.9-.93,7.94-1.41,12.01-1.41,6.51,0,11.29,1.11,14.63,3.4,3.53,2.42,5.32,5.68,5.32,9.7,0,3.36-1.2,6.29-3.57,8.72-1.33,1.37-3.02,2.51-5.04,3.42.4.34.77.71,1.09,1.1,1.37,1.65,2.06,3.57,2.06,5.71,0,3.11-.99,5.85-2.95,8.15-1.88,2.21-4.61,3.91-8.12,5.07-3.35,1.11-7.42,1.68-12.08,1.68-.95,0-1.79-.02-2.53-.05-.37.69-.92,1.27-1.63,1.71-1.08.66-2.43.99-3.99.99ZM330.47,56.32c.65.03,1.22.05,1.7.05,4.27,0,7.37-.58,9.22-1.73,2.08-1.29,2.33-2.6,2.33-3.47s-.35-1.52-1.12-2.14c-.62-.5-2-1.11-5.09-1.21-1.25-.06-2.19-.45-2.83-1.17-.6-.67-.9-1.61-.9-2.78,0-1.37.32-2.53.94-3.46.53-.8,1.63-1.77,3.8-1.84,2.17-.06,4.14-.38,5.86-.95,1.59-.53,2.84-1.25,3.71-2.16.75-.78,1.1-1.62,1.1-2.64,0-.82-.21-1.88-1.86-2.85-1.58-.93-4.18-1.4-7.74-1.4-3,0-5.94.35-8.77,1.03,3.9.31,4.22,2.85,4.22,3.67,0,.68-.14,1.44-.4,2.24-.83,2.5-1.68,5.97-2.53,10.32-.71,3.62-1.25,7.14-1.62,10.49Z"/>
      <path class="cls-4" d="M367.92,66.22c-3.67,0-6.53-1.75-8.29-5.06-1.56-2.95-2.36-6.74-2.36-11.29,0-4.18.54-8.99,1.62-14.29,1.08-5.38,2.72-10.07,4.86-13.97,2.42-4.4,5.47-6.64,9.08-6.64,2.3,0,4.19,1.1,5.48,3.17,1.13,1.82,1.67,4.25,1.67,7.43,0,4.21-1.16,9.12-3.46,14.58-2.15,5.11-5.06,10.23-8.65,15.23.2.75.41,1.04.48,1.12.1.11.24.22.62.22.93,0,1.71-.25,2.39-.77.91-.69,2.13-1.94,3.63-3.72,1-1.17,2.12-1.41,2.88-1.41,1.12,0,2.11.56,2.72,1.54.45.72.68,1.63.68,2.71,0,1.82-.48,3.3-1.44,4.41-1.51,1.87-3.23,3.46-5.07,4.7-2.01,1.35-4.31,2.04-6.84,2.04ZM371.01,26.73c-.93,2.65-1.76,6.01-2.47,9.99-.07.38-.13.76-.19,1.13.28-.7.54-1.39.79-2.08,1.21-3.38,1.87-6.51,1.97-9.32-.03.09-.07.18-.1.28Z"/>
      <path class="cls-4" d="M385.52,66.22c-4.03,0-7.24-1.15-9.55-3.42-2.32-2.28-3.5-5.38-3.5-9.23,0-2.6.56-5.05,1.65-7.3,1.12-2.29,2.7-4.14,4.7-5.5,2.05-1.39,4.38-2.1,6.95-2.1s4.5.77,6.05,2.3c1.56,1.53,2.35,3.59,2.35,6.1,0,2.84-1.03,5.31-3.06,7.34-1.04,1.04-2.41,1.95-4.13,2.73.96-.17,2.05-.58,3.26-1.25,1.68-.92,3.16-2.15,4.39-3.64,1.01-1.19,2.13-1.43,2.89-1.43,1.12,0,2.11.56,2.72,1.54.45.72.68,1.63.68,2.71,0,1.82-.48,3.3-1.44,4.41-1.35,1.65-3.3,3.2-5.76,4.59-2.54,1.43-5.3,2.16-8.21,2.16ZM384.87,47.57c-.22,0-.72.1-1.35,1.17-.23.39-.42.82-.57,1.28.36-.2.68-.41.96-.64.87-.72.97-1.32.97-1.71,0-.04,0-.07,0-.1Z"/>
      <path class="cls-4" d="M412.52,66.22c-2.29,0-4.09-.72-5.35-2.15-1.19-1.35-1.8-3.24-1.8-5.6,0-.71.1-1.71.32-3.05-.73,1.66-1.32,3.43-1.78,5.27-.45,1.91-.99,3.2-1.71,4.02-.88,1-2.15,1.51-3.78,1.51-2.11,0-3.72-1.16-4.54-3.28-.61-1.58-.91-3.91-.91-7.12,0-4.52.65-8.88,1.94-12.95.44-1.41,1.21-2.48,2.28-3.19,1.03-.68,2.33-1,3.97-1,1.07,0,1.85.18,2.46.55.5.32,1.34,1.08,1.34,2.65,0,.1,0,.21-.01.35.89-.89,1.77-1.59,2.68-2.12,1.62-.94,3.18-1.42,4.63-1.42,3.29,0,5.25,1.96,5.25,5.25,0,1.45-.37,3.9-1.14,7.47-.65,2.96-.84,4.35-.89,5,.13-.1.29-.23.48-.39.84-.75,2.01-2.02,3.47-3.76,1-1.17,2.12-1.42,2.88-1.42,1.12,0,2.11.56,2.72,1.54.45.72.68,1.63.68,2.71,0,1.82-.48,3.3-1.44,4.41-1.51,1.86-3.21,3.46-5.01,4.69-1.98,1.36-4.25,2.05-6.76,2.05Z"/>
      <path class="cls-4" d="M436.92,66.52c-1.59,0-2.87-.49-3.81-1.46-.3-.31-.58-.68-.84-1.14-.61.54-1.21.96-1.79,1.26-1.3.68-2.8,1.03-4.46,1.03-2.63,0-4.83-1-6.54-2.96-1.63-1.88-2.46-4.32-2.46-7.24s.64-5.76,1.91-8.29c1.27-2.54,3.04-4.66,5.25-6.29,1.8-1.33,3.8-2.24,5.96-2.73.69-5.83,1.89-11.02,3.58-15.45,2.1-5.5,5.12-8.29,8.99-8.29,2.07,0,3.87.96,5.19,2.77,1.22,1.67,1.81,3.98,1.81,7.08,0,3.88-.95,8.44-2.82,13.54-1.76,4.79-4.1,9.79-6.95,14.86.35,2.42.84,4.84,1.46,7.2.17.55.27,1.2.27,1.86,0,2.05-1.25,4.25-4.75,4.25ZM427.57,57.15s.08.02.2.02c.07,0,.29,0,.67-.3.22-.18.7-.66,1.55-1.85-.23-1.89-.37-3.84-.41-5.83-.29.33-.56.69-.82,1.1-1,1.59-1.49,3.3-1.49,5.23,0,1.32.29,1.63.29,1.63h0Z"/>
    </g>
    <g>
      <path class="cls-4" d="M51.13,65.22c-4.26,0-8.04-.8-11.24-2.38-3.28-1.62-5.83-3.96-7.59-6.96-1.74-2.96-2.62-6.43-2.62-10.31,0-5.19,1-9.87,2.98-13.93,2-4.11,4.77-7.35,8.22-9.62,3.49-2.29,7.41-3.45,11.65-3.45s7.36,1.13,9.61,3.35c2.25,2.23,3.39,5.17,3.39,8.75,0,2.38-.45,4.37-1.35,5.9-1.08,1.86-2.75,2.85-4.8,2.85-1.4,0-2.57-.37-3.46-1.1-.7-.57-1.54-1.63-1.54-3.45,0-.29.03-.77.23-1.98.23-1.14.27-1.75.27-2.07,0-1.65-.45-2.55-2.85-2.55-1.79,0-3.47.58-5.14,1.78-1.7,1.22-3.11,3.07-4.19,5.51-1.11,2.51-1.68,5.58-1.68,9.12s.9,6.04,2.75,7.84c1.84,1.8,4.7,2.71,8.5,2.71,1.99,0,4.04-.26,6.09-.77,2.11-.52,4.49-1.34,7.08-2.43.78-.31,1.43-.46,2.02-.46,1.21,0,2.22.53,2.86,1.49.49.74.74,1.63.74,2.66,0,1.99-.78,4.7-4.5,6.33-2.5,1.09-5.13,1.9-7.81,2.41-2.66.5-5.24.76-7.65.76Z"/>
      <path class="cls-4" d="M83.13,65.22c-2.29,0-4.09-.72-5.35-2.15-1.19-1.35-1.8-3.23-1.8-5.6,0-.72.11-1.76.33-3.13-.73,1.69-1.33,3.49-1.79,5.36-.84,3.56-3.2,5.52-6.64,5.52-1.78,0-3.17-.83-3.81-2.27-.44-.99-.65-2.48-.65-4.68,0-1.08.02-1.98.05-2.65l.05-3.92c0-5.21.54-10.74,1.61-16.4,1.08-5.75,2.72-10.66,4.86-14.61,2.42-4.46,5.49-6.72,9.13-6.72,2.17,0,4.02.97,5.35,2.8,1.2,1.66,1.8,3.78,1.8,6.3,0,3.69-1.07,7.53-3.19,11.43-.59,1.09-1.29,2.23-2.1,3.42.65-.17,1.28-.25,1.89-.25,3.29,0,5.25,1.96,5.25,5.25,0,1.45-.38,3.9-1.15,7.47-.65,2.96-.84,4.35-.89,5,.13-.1.29-.23.48-.39.84-.75,2.01-2.02,3.47-3.76,1.01-1.17,2.12-1.42,2.88-1.42,1.12,0,2.11.56,2.72,1.54.45.72.68,1.63.68,2.71,0,1.82-.48,3.3-1.43,4.41-1.64,1.89-3.35,3.46-5.09,4.68-1.95,1.37-4.2,2.06-6.67,2.06ZM77.3,25.91c-.39,1.15-.79,2.5-1.17,4.04.59-1.44.98-2.79,1.17-4.04Z"/>
      <path class="cls-4" d="M98.98,65.22c-2.4,0-4.5-.61-6.25-1.8-1.71-1.17-3.03-2.74-3.92-4.67-.85-1.85-1.28-3.88-1.28-6.03,0-2.83.56-5.4,1.65-7.65,1.12-2.3,2.7-4.13,4.7-5.45,2.02-1.33,4.29-2,6.75-2,3.12,0,5.68,1.11,7.62,3.3,1.4,1.59,2.37,3.46,2.88,5.6,1.04-.16,2.19-.41,3.44-.74.46-.11.84-.17,1.21-.17,1.17,0,2.18.62,2.76,1.7.39.73.59,1.6.59,2.6,0,3.37-1.79,4.43-2.86,4.76-1.7.6-3.6,1-5.64,1.19-.81,2.54-2.14,4.66-3.97,6.31-2.24,2.02-4.82,3.04-7.69,3.04ZM98.65,48.13c-.58.94-.88,2.33-.88,4.14,0,1.37.24,2.41.68,3.01.48.64.79.64.92.64.35,0,.78-.08,1.29-.64.35-.39.63-.93.84-1.63-.8-.75-1.46-1.64-1.95-2.66-.44-.91-.75-1.87-.9-2.86Z"/>
      <path class="cls-4" d="M121.28,65.22c-2.38,0-4.46-.62-6.18-1.85-1.67-1.19-2.95-2.77-3.8-4.7-.81-1.85-1.22-3.85-1.22-5.95,0-2.82.55-5.39,1.62-7.64,1.1-2.29,2.63-4.12,4.55-5.44,1.96-1.34,4.19-2.02,6.63-2.02s4.46.62,6.2,1.84c1.7,1.19,2.99,2.78,3.83,4.71.81,1.85,1.22,3.85,1.22,5.95,0,2.83-.56,5.4-1.65,7.65-1.12,2.29-2.67,4.12-4.6,5.43-1.98,1.34-4.2,2.02-6.6,2.02ZM122.48,47.02c-.23,0-.71,0-1.29.91-.39.61-.86,1.85-.86,4.34,0,1.91.38,2.7.61,3.01.37.5.66.54.89.54.16,0,.6,0,1.19-.92.39-.62.86-1.88.86-4.33,0-1.74-.34-2.59-.63-2.99-.4-.56-.66-.56-.77-.56Z"/>
      <path class="cls-4" d="M144.53,66.32c-2.22,0-4-.57-5.29-1.69-1.36-1.18-1.86-2.46-2.01-3.48-1.16,1.09-2.35,1.33-3.15,1.33-1.12,0-2.09-.44-2.81-1.26-.65-.75-.99-1.69-.99-2.74,0-1.14.39-2.19,1.15-3.12l.64-.79c1.77-2.19,3.13-4.01,4.02-5.41.5-.85,1.14-2.1,1.88-3.66.75-1.58,1.49-3.24,2.21-4.95.55-1.29,2.04-3.42,5.79-3.42,1.26,0,2.12.13,2.77.43,1.08.5,1.73,1.48,1.73,2.62,0,.41-.09.89-.29,1.54-.17.55-.41,1.11-.7,1.66-.57,1.14-.66,1.81-.66,2.1,0,.02,0,.22.25.64.3.51.79,1.18,1.45,2,1.17,1.54,2.02,2.79,2.62,3.86.34.62.61,1.26.79,1.94.68-.65,1.47-1.5,2.38-2.64,1.03-1.2,2.15-1.45,2.91-1.45,1.12,0,2.11.56,2.72,1.54.45.72.68,1.63.68,2.71,0,1.72-.46,3.18-1.38,4.34-1.88,2.33-3.66,3.89-5.46,4.78-1.61.8-3.55,1.27-5.78,1.4-1.58,1.15-3.42,1.73-5.48,1.73ZM142.63,54.56c-.15.24-.29.47-.44.69.24-.02.48-.03.73-.03.04,0,.07,0,.11,0-.12-.22-.26-.44-.4-.66Z"/>
      <path class="cls-4" d="M165.93,65.22c-3.77,0-6.77-1.18-8.92-3.52-2.11-2.29-3.18-5.36-3.18-9.13,0-2.6.56-5.05,1.65-7.3,1.12-2.29,2.7-4.14,4.7-5.5,2.04-1.39,4.38-2.1,6.95-2.1s4.5.77,6.05,2.3c1.56,1.54,2.35,3.59,2.35,6.1,0,1.94-.48,3.7-1.43,5.27.13-.01.26-.02.38-.02,1.12,0,2.11.56,2.72,1.54.45.72.68,1.63.68,2.71,0,1.59-.4,3-1.17,4.19-1.12,1.71-2.6,3.07-4.42,4.03-1.8.95-3.94,1.43-6.36,1.43ZM166.22,46.57c-.22,0-.72.1-1.35,1.17-.23.39-.42.82-.58,1.28.36-.2.68-.41.96-.64.87-.72.97-1.32.97-1.71,0-.04,0-.07,0-.1Z"/>
      <path class="cls-4" d="M208.73,81.32c-3.26,0-5.87-.85-7.75-2.53-1.95-1.74-2.95-3.98-2.95-6.67,0-4.09,1.81-7.74,5.38-10.86.67-.58,1.41-1.15,2.21-1.71-3.13-.14-5.6-1.25-7.36-3.31-1.81-2.11-2.73-4.83-2.73-8.08,0-1.35.15-2.84.43-4.43.27-1.51.7-3.57,1.27-6.11.49-2.26.86-4.08,1.11-5.42.23-1.24.34-2.35.34-3.29,0-.16,0-.29-.02-.38-.38.06-1.04.27-2.08,1.03-1.15.83-2.4,2.15-3.74,3.95-1.07,1.45-2.3,1.75-3.15,1.75-1.08,0-2.08-.51-2.8-1.45-.62-.79-.95-1.75-.95-2.75,0-1.48.58-3,1.78-4.67,3.79-5.2,8.35-7.83,13.57-7.83,2.6,0,4.7.84,6.24,2.49,1.5,1.61,2.26,3.9,2.26,6.81,0,1.84-.17,3.75-.5,5.67-.33,1.85-.81,4.21-1.45,7.02-.39,1.63-.69,2.96-.89,3.97-.17.88-.26,1.6-.26,2.14,0,1.75.37,2.29.45,2.38.14.17.64.37,1.6.37,1.22,0,2.59-.79,4.08-2.35,1.69-1.78,3.26-4.59,4.68-8.35,1.45-3.86,2.51-8.68,3.16-14.32.22-1.93.78-3.34,1.7-4.29.99-1.02,2.35-1.53,4.03-1.53,3.44,0,5.5,2.06,5.5,5.5,0,.49-.02.89-.07,1.22-.7,4.98-1.35,9.47-1.95,13.47-.33,2.39-.69,4.86-1.07,7.4-.24,1.56-.47,3.13-.7,4.72,1.56-.38,3.17-.73,4.82-1.06.38-.11.83-.16,1.38-.16,1.71,0,3.7,1.1,3.7,4.2,0,1.19-.28,2.23-.84,3.1-.65,1.02-1.67,1.69-2.96,1.92-2.52.47-5.04,1-7.5,1.56-1,6.87-3.03,12.07-6.03,15.47-3.17,3.58-7.18,5.4-11.92,5.4ZM215.68,63.9c-3.93,1.71-7.55,4.09-7.55,7.07,0,.53.17.78.33.95.07.07.28.3,1.02.3,2.95,0,5.03-2.79,6.2-8.32Z"/>
      <path class="cls-4" d="M241.63,65.22c-2.4,0-4.5-.61-6.25-1.8-1.71-1.17-3.03-2.74-3.92-4.67-.85-1.85-1.28-3.88-1.28-6.03,0-2.83.56-5.4,1.65-7.65,1.12-2.3,2.7-4.13,4.7-5.45,2.02-1.33,4.29-2,6.75-2,3.12,0,5.68,1.11,7.62,3.3,1.4,1.59,2.37,3.46,2.88,5.6,1.04-.16,2.19-.41,3.44-.74.46-.11.84-.17,1.21-.17,1.17,0,2.18.62,2.76,1.7.39.73.59,1.6.59,2.6,0,3.37-1.79,4.43-2.86,4.76-1.7.6-3.6,1-5.64,1.19-.81,2.54-2.14,4.66-3.97,6.31-2.24,2.02-4.82,3.04-7.69,3.04ZM241.3,48.13c-.58.94-.88,2.33-.88,4.14,0,1.37.24,2.41.68,3.01.48.64.79.64.92.64.35,0,.78-.08,1.29-.64.35-.39.63-.93.84-1.63-.8-.75-1.46-1.64-1.95-2.66-.44-.91-.75-1.87-.9-2.86Z"/>
      <path class="cls-4" d="M271.42,65.22c-2.31,0-4.12-.97-5.23-2.81-.03-.04-.05-.09-.08-.13-.14.17-.28.33-.42.49-1.52,1.63-3.24,2.46-5.11,2.46-2.16,0-4-1.02-5.32-2.94-1.18-1.71-1.78-3.84-1.78-6.31,0-2.6.18-5.02.53-7.19.35-2.17.93-4.5,1.72-6.93.47-1.41,1.19-2.47,2.13-3.15.96-.69,2.27-1.03,4.02-1.03,1.22,0,2.13.26,2.79.8.75.62,1.16,1.54,1.16,2.6,0,.33-.05.83-.6,3.17-.34,1.24-.59,2.33-.78,3.28-.37,1.95-.61,3.36-.75,4.39.4-.74.83-1.64,1.27-2.7.81-1.94,1.62-4.38,2.39-7.25.38-1.42,1.02-2.5,1.92-3.2.91-.72,2.16-1.08,3.71-1.08,1.17,0,2.01.18,2.64.57.53.32,1.41,1.11,1.41,2.73,0,.68-.15,2.13-1.3,7.29-1,4.58-1.27,6.41-1.33,7.13.13-.1.29-.22.48-.39.84-.75,2.01-2.02,3.47-3.76,1.01-1.17,2.12-1.42,2.88-1.42,1.12,0,2.11.56,2.72,1.54.45.72.68,1.63.68,2.71,0,1.82-.48,3.3-1.44,4.41-1.51,1.86-3.21,3.46-5.01,4.69-1.98,1.36-4.25,2.05-6.76,2.05Z"/>
      <path class="cls-4" d="M282.13,65.22c-2.11,0-3.72-1.16-4.54-3.28-.61-1.58-.91-3.91-.91-7.12,0-4.52.65-8.88,1.94-12.95.44-1.41,1.21-2.48,2.28-3.19,1.02-.68,2.32-1,3.97-1,1.07,0,1.86.18,2.46.55.5.31,1.34,1.07,1.34,2.64,0,.1,0,.21-.01.34.88-.89,1.76-1.59,2.65-2.11,1.61-.95,3.14-1.43,4.57-1.43,1.91,0,3.06.79,3.68,1.46.87.93,1.32,2.21,1.32,3.79,0,.33-.03.88-.21,1.99.51.23.98.55,1.4.97.89.89,1.36,2.04,1.36,3.34,0,.69-.15,1.41-.44,2.14-.67,1.56-1.61,2.84-2.8,3.87-1.34,1.15-2.85,1.74-4.51,1.74-1.47,0-2.78-.55-3.81-1.6-.81-.84-1.31-1.88-1.48-3.11-.31.59-.62,1.25-.93,1.96-.75,1.72-1.37,3.56-1.84,5.48-.45,1.94-.98,3.24-1.69,4.04-.86.98-2.14,1.48-3.8,1.48Z"/>
      <path class="cls-4" d="M322.82,67.47c-1.81,0-3.15-.51-4-1.51-.8-.95-1.15-2.21-1.04-3.77.3-4.71.9-9.72,1.77-14.88.87-5.15,2-10.21,3.35-15.03.17-.62.44-1.17.79-1.65-1.06.46-2.04.96-2.94,1.5-1.4.83-2.62,1.23-3.73,1.23-1.22,0-2.28-.5-2.97-1.42-.58-.76-.88-1.7-.88-2.78,0-1.19.27-2.25.8-3.16.54-.93,1.58-1.81,3.25-2.77,2.96-1.69,6.45-3.02,10.38-3.96,3.9-.93,7.94-1.41,12.01-1.41,6.51,0,11.29,1.11,14.63,3.4,3.53,2.42,5.32,5.68,5.32,9.7,0,3.36-1.2,6.29-3.57,8.72-1.33,1.37-3.02,2.51-5.04,3.42.4.34.77.71,1.09,1.1,1.37,1.65,2.06,3.57,2.06,5.71,0,3.11-.99,5.85-2.95,8.15-1.88,2.21-4.61,3.91-8.12,5.07-3.35,1.11-7.42,1.68-12.08,1.68-.95,0-1.79-.02-2.53-.05-.37.69-.92,1.27-1.63,1.71-1.08.66-2.43.99-3.99.99ZM329.47,55.32c.65.03,1.22.05,1.7.05,4.27,0,7.37-.58,9.22-1.73,2.08-1.29,2.33-2.6,2.33-3.47s-.35-1.52-1.12-2.14c-.62-.5-2-1.11-5.09-1.21-1.25-.06-2.19-.45-2.83-1.17-.6-.67-.9-1.61-.9-2.78,0-1.37.32-2.53.94-3.46.53-.8,1.63-1.77,3.8-1.84,2.17-.06,4.14-.38,5.86-.95,1.59-.53,2.84-1.25,3.71-2.16.75-.78,1.1-1.62,1.1-2.64,0-.82-.21-1.88-1.86-2.85-1.58-.93-4.18-1.4-7.74-1.4-3,0-5.94.35-8.77,1.03,3.9.31,4.22,2.85,4.22,3.67,0,.68-.14,1.44-.4,2.24-.83,2.5-1.68,5.97-2.53,10.32-.71,3.62-1.25,7.14-1.62,10.49Z"/>
      <path class="cls-4" d="M366.92,65.22c-3.67,0-6.53-1.75-8.29-5.06-1.56-2.95-2.36-6.74-2.36-11.29,0-4.18.54-8.99,1.62-14.29,1.08-5.38,2.72-10.07,4.86-13.97,2.42-4.4,5.47-6.64,9.08-6.64,2.3,0,4.19,1.1,5.48,3.17,1.13,1.82,1.67,4.25,1.67,7.43,0,4.21-1.16,9.12-3.46,14.58-2.15,5.11-5.06,10.23-8.65,15.23.2.75.41,1.04.48,1.12.1.11.24.22.62.22.93,0,1.71-.25,2.39-.77.91-.69,2.13-1.94,3.63-3.72,1-1.17,2.12-1.41,2.88-1.41,1.12,0,2.11.56,2.72,1.54.45.72.68,1.63.68,2.71,0,1.82-.48,3.3-1.44,4.41-1.51,1.87-3.23,3.46-5.07,4.7-2.01,1.35-4.31,2.04-6.84,2.04ZM370.01,25.73c-.93,2.65-1.76,6.01-2.47,9.99-.07.38-.13.76-.19,1.13.28-.7.54-1.39.79-2.08,1.21-3.38,1.87-6.51,1.97-9.32-.03.09-.07.18-.1.28Z"/>
      <path class="cls-4" d="M384.52,65.22c-4.03,0-7.24-1.15-9.55-3.42-2.32-2.28-3.5-5.38-3.5-9.23,0-2.6.56-5.05,1.65-7.3,1.12-2.29,2.7-4.14,4.7-5.5,2.05-1.39,4.38-2.1,6.95-2.1s4.5.77,6.05,2.3c1.56,1.53,2.35,3.59,2.35,6.1,0,2.84-1.03,5.31-3.06,7.34-1.04,1.04-2.41,1.95-4.13,2.73.96-.17,2.05-.58,3.26-1.25,1.68-.92,3.16-2.15,4.39-3.64,1.01-1.19,2.13-1.43,2.89-1.43,1.12,0,2.11.56,2.72,1.54.45.72.68,1.63.68,2.71,0,1.82-.48,3.3-1.44,4.41-1.35,1.65-3.3,3.2-5.76,4.59-2.54,1.43-5.3,2.16-8.21,2.16ZM383.87,46.57c-.22,0-.72.1-1.35,1.17-.23.39-.42.82-.57,1.28.36-.2.68-.41.96-.64.87-.72.97-1.32.97-1.71,0-.04,0-.07,0-.1Z"/>
      <path class="cls-4" d="M411.52,65.22c-2.29,0-4.09-.72-5.35-2.15-1.19-1.35-1.8-3.24-1.8-5.6,0-.71.1-1.71.32-3.05-.73,1.66-1.32,3.43-1.78,5.27-.45,1.91-.99,3.2-1.71,4.02-.88,1-2.15,1.51-3.78,1.51-2.11,0-3.72-1.16-4.54-3.28-.61-1.58-.91-3.91-.91-7.12,0-4.52.65-8.88,1.94-12.95.44-1.41,1.21-2.48,2.28-3.19,1.03-.68,2.33-1,3.97-1,1.07,0,1.85.18,2.46.55.5.32,1.34,1.08,1.34,2.65,0,.1,0,.21-.01.35.89-.89,1.77-1.59,2.68-2.12,1.62-.94,3.18-1.42,4.63-1.42,3.29,0,5.25,1.96,5.25,5.25,0,1.45-.37,3.9-1.14,7.47-.65,2.96-.84,4.35-.89,5,.13-.1.29-.23.48-.39.84-.75,2.01-2.02,3.47-3.76,1-1.17,2.12-1.42,2.88-1.42,1.12,0,2.11.56,2.72,1.54.45.72.68,1.63.68,2.71,0,1.82-.48,3.3-1.44,4.41-1.51,1.86-3.21,3.46-5.01,4.69-1.98,1.36-4.25,2.05-6.76,2.05Z"/>
      <path class="cls-4" d="M435.92,65.52c-1.59,0-2.87-.49-3.81-1.46-.3-.31-.58-.68-.84-1.14-.61.54-1.21.96-1.79,1.26-1.3.68-2.8,1.03-4.46,1.03-2.63,0-4.83-1-6.54-2.96-1.63-1.88-2.46-4.32-2.46-7.24s.64-5.76,1.91-8.29c1.27-2.54,3.04-4.66,5.25-6.29,1.8-1.33,3.8-2.24,5.96-2.73.69-5.83,1.89-11.02,3.58-15.45,2.1-5.5,5.12-8.29,8.99-8.29,2.07,0,3.87.96,5.19,2.77,1.22,1.67,1.81,3.98,1.81,7.08,0,3.88-.95,8.44-2.82,13.54-1.76,4.79-4.1,9.79-6.95,14.86.35,2.42.84,4.84,1.46,7.2.17.55.27,1.2.27,1.86,0,2.05-1.25,4.25-4.75,4.25ZM426.57,56.15s.08.02.2.02c.07,0,.29,0,.67-.3.22-.18.7-.66,1.55-1.85-.23-1.89-.37-3.84-.41-5.83-.29.33-.56.69-.82,1.1-1,1.59-1.49,3.3-1.49,5.23,0,1.32.29,1.63.29,1.63h0Z"/>
    </g>
  </g>
  <text class="cls-1" transform="translate(28.48 62.97)"><tspan x="0" y="0">Cho</tspan><tspan class="cls-5" x="81.95" y="0">o</tspan><tspan class="cls-3" x="104.35" y="0">se Your Blend</tspan></text>
</svg>