<?xml version="1.0" encoding="UTF-8"?>
<svg id="Body" xmlns="http://www.w3.org/2000/svg" viewBox="0 0 27.13 314.63">
  <defs>
    <style>
      .cls-1 {
        fill: #fff;
      }

      .cls-2 {
        fill: #4c2e04;
      }
    </style>
  </defs>
  <g>
    <g>
      <path class="cls-1" d="M21.37,5.18v304.27c-.09.14-.2.27-.33.39-.87.85-2.54,1.53-4.62,1.85-.26.05-.54.08-.82.11h-4.06c-.28-.03-.56-.06-.82-.11-2.07-.32-3.74-.99-4.62-1.84-.14-.13-.25-.26-.34-.4V5.18c.09-.14.2-.27.34-.41.87-.84,2.54-1.51,4.6-1.83.27-.05.54-.08.83-.11h4.06c.28.03.56.06.83.11,2.08.32,3.75,1,4.62,1.84.13.13.24.26.33.4Z"/>
      <path class="cls-2" d="M5.76,5.18c-.22.3-.33.62-.33.95v302.37c0,.33.11.65.33.95.09.14.2.27.34.4V4.77c-.14.14-.25.27-.34.41ZM21.37,5.18c-.09-.14-.2-.27-.33-.4v305.06c.13-.12.24-.25.33-.39.22-.3.33-.62.33-.95V6.13c0-.33-.11-.65-.33-.95ZM13.57,2.72h-.01c-.7,0-1.38.04-2.03.11-.29.03-.56.06-.83.11h5.72c-.27-.05-.55-.08-.83-.11-.65-.07-1.32-.11-2.02-.11ZM10.72,311.69c.26.05.54.08.82.11.65.07,1.33.11,2.03.11s1.38-.04,2.03-.11c.28-.03.56-.06.82-.11h-5.7Z"/>
    </g>
    <g>
      <path class="cls-2" d="M21.37,287.01v7.29c-.92,1.07-2.31,1.8-3.59,2.3-2.3.9-4.33,1.1-7.17,2.17-2.45.92-3.92,1.89-4.84,2.7v-7.28c.91-.81,2.4-1.78,4.84-2.7,2.84-1.07,4.86-1.27,7.17-2.17,1.28-.5,2.67-1.23,3.59-2.3Z"/>
      <path class="cls-2" d="M21.37,271.8v7.29c-.92,1.07-2.31,1.8-3.59,2.3-2.3.9-4.33,1.1-7.17,2.17-2.45.92-3.92,1.89-4.84,2.7v-7.28c.91-.81,2.4-1.78,4.84-2.7,2.84-1.07,4.86-1.27,7.17-2.17,1.28-.5,2.67-1.23,3.59-2.3Z"/>
      <path class="cls-2" d="M21.37,256.59v7.29c-.92,1.07-2.31,1.8-3.59,2.3-2.3.9-4.33,1.1-7.17,2.17-2.45.92-3.92,1.89-4.84,2.7v-7.28c.91-.81,2.4-1.78,4.84-2.7,2.84-1.07,4.86-1.27,7.17-2.17,1.28-.5,2.67-1.23,3.59-2.3Z"/>
      <path class="cls-2" d="M21.37,241.37v7.29c-.92,1.07-2.31,1.8-3.59,2.3-2.3.9-4.33,1.1-7.17,2.17-2.45.92-3.92,1.89-4.84,2.7v-7.28c.91-.81,2.4-1.78,4.84-2.7,2.84-1.07,4.86-1.27,7.17-2.17,1.28-.5,2.67-1.23,3.59-2.3Z"/>
      <path class="cls-2" d="M21.37,226.16v7.29c-.92,1.07-2.31,1.8-3.59,2.3-2.3.9-4.33,1.1-7.17,2.17-2.45.92-3.92,1.89-4.84,2.7v-7.28c.91-.81,2.4-1.78,4.84-2.7,2.84-1.07,4.86-1.27,7.17-2.17,1.28-.5,2.67-1.23,3.59-2.3Z"/>
      <path class="cls-2" d="M21.37,210.94v7.29c-.92,1.07-2.31,1.8-3.59,2.3-2.3.9-4.33,1.1-7.17,2.17-2.45.92-3.92,1.89-4.84,2.7v-7.28c.91-.81,2.4-1.78,4.84-2.7,2.84-1.07,4.86-1.27,7.17-2.17,1.28-.5,2.67-1.23,3.59-2.3Z"/>
      <path class="cls-2" d="M21.37,195.73v7.29c-.92,1.07-2.31,1.8-3.59,2.3-2.3.9-4.33,1.1-7.17,2.17-2.45.92-3.92,1.89-4.84,2.7v-7.28c.91-.81,2.4-1.78,4.84-2.7,2.84-1.07,4.86-1.27,7.17-2.17,1.28-.5,2.67-1.23,3.59-2.3Z"/>
      <path class="cls-2" d="M21.37,180.52v7.29c-.92,1.07-2.31,1.8-3.59,2.3-2.3.9-4.33,1.1-7.17,2.17-2.45.92-3.92,1.89-4.84,2.7v-7.28c.91-.81,2.4-1.78,4.84-2.7,2.84-1.07,4.86-1.27,7.17-2.17,1.28-.5,2.67-1.23,3.59-2.3Z"/>
      <path class="cls-2" d="M21.37,165.3v7.29c-.92,1.07-2.31,1.8-3.59,2.3-2.3.9-4.33,1.1-7.17,2.17-2.45.92-3.92,1.89-4.84,2.7v-7.28c.91-.81,2.4-1.78,4.84-2.7,2.84-1.07,4.86-1.27,7.17-2.17,1.28-.5,2.67-1.23,3.59-2.3Z"/>
      <path class="cls-2" d="M21.37,150.09v7.29c-.92,1.07-2.31,1.8-3.59,2.3-2.3.9-4.33,1.1-7.17,2.17-2.45.92-3.92,1.89-4.84,2.7v-7.28c.91-.81,2.4-1.78,4.84-2.7,2.84-1.07,4.86-1.27,7.17-2.17,1.28-.5,2.67-1.23,3.59-2.3Z"/>
      <path class="cls-2" d="M21.37,134.87v7.29c-.92,1.07-2.31,1.8-3.59,2.3-2.3.9-4.33,1.1-7.17,2.17-2.45.92-3.92,1.89-4.84,2.7v-7.28c.91-.81,2.4-1.78,4.84-2.7,2.84-1.07,4.86-1.27,7.17-2.17,1.28-.5,2.67-1.23,3.59-2.3Z"/>
      <path class="cls-2" d="M21.37,119.66v7.29c-.92,1.07-2.31,1.8-3.59,2.3-2.3.9-4.33,1.1-7.17,2.17-2.45.92-3.92,1.89-4.84,2.7v-7.28c.91-.81,2.4-1.78,4.84-2.7,2.84-1.07,4.86-1.27,7.17-2.17,1.28-.5,2.67-1.23,3.59-2.3Z"/>
      <path class="cls-2" d="M21.37,104.45v7.29c-.92,1.07-2.31,1.8-3.59,2.3-2.3.9-4.33,1.1-7.17,2.17-2.45.92-3.92,1.89-4.84,2.7v-7.28c.91-.81,2.4-1.78,4.84-2.7,2.84-1.07,4.86-1.27,7.17-2.17,1.28-.5,2.67-1.23,3.59-2.3Z"/>
      <path class="cls-2" d="M21.37,89.23v7.29c-.92,1.07-2.31,1.8-3.59,2.3-2.3.9-4.33,1.1-7.17,2.17-2.45.92-3.92,1.89-4.84,2.7v-7.28c.91-.81,2.4-1.78,4.84-2.7,2.84-1.07,4.86-1.27,7.17-2.17,1.28-.5,2.67-1.23,3.59-2.3Z"/>
      <path class="cls-2" d="M21.37,74.02v7.29c-.92,1.07-2.31,1.8-3.59,2.3-2.3.9-4.33,1.1-7.17,2.17-2.45.92-3.92,1.89-4.84,2.7v-7.28c.91-.81,2.4-1.78,4.84-2.7,2.84-1.07,4.86-1.27,7.17-2.17,1.28-.5,2.67-1.23,3.59-2.3Z"/>
      <path class="cls-2" d="M21.37,58.81v7.29c-.92,1.07-2.31,1.8-3.59,2.3-2.3.9-4.33,1.1-7.17,2.17-2.45.92-3.92,1.89-4.84,2.7v-7.28c.91-.81,2.4-1.78,4.84-2.7,2.84-1.07,4.86-1.27,7.17-2.17,1.28-.5,2.67-1.23,3.59-2.3Z"/>
      <path class="cls-2" d="M21.37,43.59v7.29c-.92,1.07-2.31,1.8-3.59,2.3-2.3.9-4.33,1.1-7.17,2.17-2.45.92-3.92,1.89-4.84,2.7v-7.28c.91-.81,2.4-1.78,4.84-2.7,2.84-1.07,4.86-1.27,7.17-2.17,1.28-.5,2.67-1.23,3.59-2.3Z"/>
      <path class="cls-2" d="M21.37,28.38v7.29c-.92,1.07-2.31,1.8-3.59,2.3-2.3.9-4.33,1.1-7.17,2.17-2.45.92-3.92,1.89-4.84,2.7v-7.28c.91-.81,2.4-1.78,4.84-2.7,2.84-1.07,4.86-1.27,7.17-2.17,1.28-.5,2.67-1.23,3.59-2.3Z"/>
      <path class="cls-2" d="M21.37,13.16v7.29c-.92,1.07-2.31,1.8-3.59,2.3-2.3.9-4.33,1.1-7.17,2.17-2.45.92-3.92,1.89-4.84,2.7v-7.28c.91-.81,2.4-1.78,4.84-2.7,2.84-1.07,4.86-1.27,7.17-2.17,1.28-.5,2.67-1.23,3.59-2.3Z"/>
    </g>
  </g>
  <path class="cls-2" d="M13.57,3.47c.64,0,1.28.03,1.94.11.26.03.52.05.79.11,1.87.29,3.45.9,4.2,1.63.1.1.17.19.26.31.12.17.18.33.18.51s-.06.35-.2.53c-.08.11-.15.2-.24.28-.94.92-3.45,1.85-6.95,1.85s-5.99-.93-6.95-1.86c-.09-.09-.16-.17-.25-.29-.12-.17-.18-.34-.18-.52s.06-.34.21-.54c.06-.09.13-.18.23-.28.76-.73,2.32-1.34,4.22-1.63.24-.05.5-.07.77-.1.65-.07,1.31-.11,1.95-.11h.01M13.57,2.72h-.01c-.7,0-1.38.04-2.03.11-.29.03-.56.06-.83.11-2.06.32-3.73.99-4.6,1.83-.14.14-.25.27-.34.41-.22.3-.33.62-.33.95s.11.66.33.96c.09.14.2.27.34.4,1.25,1.21,4.12,2.06,7.46,2.06h.01c3.35,0,6.23-.85,7.47-2.07.13-.12.24-.26.33-.39.22-.3.33-.63.33-.96s-.11-.65-.33-.95c-.09-.14-.2-.27-.33-.4-.87-.84-2.54-1.52-4.62-1.84-.27-.05-.55-.08-.83-.11-.65-.07-1.32-.11-2.02-.11h0Z"/>
  <path class="cls-2" d="M13.57,305.83c3.49,0,6.01.93,6.94,1.85.1.1.18.19.25.29.13.18.19.35.19.53s-.06.34-.21.54c-.05.09-.12.17-.22.26-.76.74-2.33,1.36-4.24,1.65-.23.04-.48.07-.76.1-.65.07-1.31.11-1.95.11s-1.3-.04-1.95-.11c-.27-.03-.53-.06-.78-.11-1.88-.29-3.45-.9-4.22-1.65-.09-.09-.16-.17-.25-.29-.12-.17-.18-.34-.18-.51s.06-.34.21-.55c.06-.09.15-.19.23-.27.95-.92,3.47-1.85,6.95-1.85M13.57,305.08c-3.34,0-6.22.85-7.47,2.06-.13.13-.25.26-.34.4-.22.31-.33.63-.33.96s.11.65.33.95c.09.14.2.27.34.4.88.85,2.55,1.52,4.62,1.84.26.05.54.08.82.11.65.07,1.33.11,2.03.11s1.38-.04,2.03-.11c.28-.03.56-.06.82-.11,2.08-.32,3.75-1,4.62-1.85.13-.12.24-.25.33-.39.22-.3.33-.62.33-.95s-.11-.65-.33-.96c-.09-.13-.2-.26-.33-.39-1.24-1.22-4.12-2.07-7.47-2.07h0Z"/>
</svg>