<?xml version="1.0" encoding="UTF-8"?>
<svg id="Header" xmlns="http://www.w3.org/2000/svg" viewBox="0 0 732.36 60.54">
  <defs>
    <style>
      .cls-1 {
        letter-spacing: -.03em;
      }

      .cls-2 {
        letter-spacing: -.04em;
      }

      .cls-3 {
        fill: #036;
      }

      .cls-4 {
        letter-spacing: 0em;
      }

      .cls-5 {
        fill: #fff;
      }

      .cls-5, .cls-6 {
        font-family: Story-of-Bela, 'Story of Bela';
        font-size: 30px;
      }

      .cls-6 {
        fill: #f93;
      }
    </style>
  </defs>
  <text class="cls-6" transform="translate(13.55 39)"><tspan class="cls-1" x="0" y="0">T</tspan><tspan x="15.96" y="0">hanks! We’ll g</tspan><tspan class="cls-4" x="222.57" y="0">e</tspan><tspan x="238.8" y="0">t back to you within </tspan><tspan class="cls-2" x="564.29" y="0">2</tspan><tspan x="580.79" y="0">4 hours.</tspan></text>
  <g>
    <path class="cls-3" d="M23.33,41.99c-3.69,0-5.85-2.58-6.4-7.66-.26-2.45-.25-4.92-.25-7.3,0-.78,0-1.57,0-2.35,0-.15,0-.29,0-.44-.14,0-.29.01-.43.01-.44,0-.86-.04-1.26-.11-.93-.17-1.8-.69-2.4-1.41-.02-.03-.04-.05-.06-.08-1.28-1.71-1.41-4.42-.3-6.3.48-.92,1.42-1.71,2.53-2.1.79-.29,1.6-.32,2.14-.32.28,0,.56.01.84.02,0,0,.25.01.29.01.45.04,3.21.12,4.49.12.15,0,.27,0,.34,0,.67,0,1.24-.04,1.82-.08.49-.03.97-.06,1.46-.08.17,0,.34-.02.52-.03.32-.02.65-.04.97-.04.61,0,1.53.06,2.43.57.75.46,1.28.96,1.66,1.54.28.39.48.85.61,1.39.42,1.43.31,2.98-.31,4.17-.54,1.08-1.62,2-2.88,2.42-.5.17-1.01.29-1.52.36-.03,2.55.17,4.99.6,7.27.08.39.18.8.28,1.22.15.62.3,1.25.41,1.87.15,1.04.26,2.09.05,3.16-.53,2.51-2.79,4.17-5.62,4.17Z"/>
    <path class="cls-3" d="M34.79,41.48c-2.28,0-4.28-1.36-5.1-3.46-.51-1.24-.66-2.57-.78-3.75-.57-4.81-.65-9.34-.25-13.49.56-4.99,3.28-6.04,5.47-6.04,2.93,0,5,1.3,5.69,3.58.3,1.14.37,2.26.36,3.27.46-.17.91-.29,1.35-.37.46-.07.87-.1,1.28-.1,1.35,0,2.64.31,3.73.91.8.46,1.51,1.07,2.09,1.78,2.55,3.44,2.19,7.73,1.92,10.86-.63,6.04-4.31,6.69-5.86,6.69-2.35,0-4.28-1.46-5-3.63-.24,1.1-.8,2.17-2.02,2.92-.86.54-1.86.84-2.88.84Z"/>
    <path class="cls-3" d="M55.5,41.42c-1.97,0-3.92-.79-5.2-2.11-.8-.88-1.38-1.9-1.76-3.09-.64-1.8-.86-3.97-.63-6.38.22-2.6,1.49-7.54,4.89-9.34,1.21-.72,2.82-1.12,4.59-1.12.38,0,.76.02,1.13.05.59.06,1.6.26,2.6.66.71-.59,1.58-.96,2.6-1.07.21-.02.38-.03.54-.03.91,0,1.83.2,2.67.58.42.17.99.44,1.47.96.69.72,1.14,1.74,1.25,2.88.1.84.06,1.79-.1,2.88-.1.68-.23,1.38-.36,2.08-.15.79-.29,1.54-.38,2.27-.17,1.49-.03,2.18,1.07,3.22.55.55.78,1.17.88,1.5.02.08.04.17.06.25.35,2.28-1.47,4.46-3.39,5.06-.48.14-1.14.3-1.86.3-1.67,0-3.25-.63-4.43-1.67-1.55,1.26-3.51,2.05-5.45,2.12h-.19ZM58.86,28.38c-.02.06-.04.13-.06.19-.2.74-.32,1.47-.33,2.16.22-.8.35-1.68.39-2.35Z"/>
    <path class="cls-3" d="M73.91,41.84c-1.79,0-3.31-.78-4.27-2.2-1.43-2.07-1.63-5.93-1.63-9.79.03-2.75.13-5.19.95-7.56.37-1.11,1.37-4.1,5.04-4.1,1.58,0,3.48.67,4.54,2.14.56-.18,1.14-.28,1.73-.28,2.34,0,4.63,1.4,6.12,3.74,1.24,1.96,2.43,7.37,1.2,13.27-.65,3.5-3.13,4.22-5.09,4.22-.21,0-.42,0-.65-.03-1.57-.11-2.62-.75-3.31-1.76-.94,1.4-2.7,2.33-4.64,2.33Z"/>
    <path class="cls-3" d="M92.14,41.81c-1,0-1.98-.26-2.81-.75-1.72-.98-2.83-3.1-3.25-6.29-.75-5.12-.7-9.92.14-14.24.82-4.97,4.16-5.73,6.07-5.73s3.65.8,4.62,2.15c.7.93.82,2.09.88,2.71.06.55.08,1.16.04,1.85,0,.1-.02.25-.04.43,1.02-.4,2.05-.68,2.9-.77.21-.02.41-.03.61-.03.98,0,1.86.27,2.54.78,1.6,1.17,2.68,3.87,1.7,6.01-.31.76-.99,1.5-1.93,2.09-.51.3-1.01.55-1.5.77.42.48,1.99,2.27,2.01,2.3.64.81,1.26,1.73,1.4,2.91.37,2.27-1.27,4.5-3.67,4.89-.03,0-.07.01-.1.01-.3.03-.59.05-.89.05-.49,0-.95-.05-1.38-.15-1.04-.28-2.09-1.03-3.05-1.91-.51,1.38-1.53,2.59-3.6,2.87-.25.03-.47.04-.7.04Z"/>
    <path class="cls-3" d="M110.87,41.75c-.76,0-4.64-.11-6.51-2.24-1.24-1.31-1.61-3.26-.9-4.9.45-1.04,1.27-1.8,2.28-2.18-1.55-1.15-2.56-2.73-2.84-4.54-.38-2.4.57-4.77,2.6-6.52,1.65-1.4,4.03-2.19,6.52-2.19,2.07,0,4,.5,5.61,1.45.71.42,2.47,1.59,3.02,3.38.6,1.98-.22,4.27-1.95,5.45-.24.15-.49.29-.76.39,1,.88,1.8,2.05,1.98,3.71.18,1.69-.32,3.44-1.35,4.81-1.6,2.14-4.41,3.37-7.68,3.37Z"/>
    <path class="cls-3" d="M123.59,41.42c-.94,0-1.77-.19-2.47-.57-2.18-1.11-3.06-3.91-1.93-6.21.27-.54.64-1.01,1.06-1.4-.61-.67-1.04-1.5-1.2-2.43-.28-1.66-.46-3.46-.57-5.7l-.02-.5c-.06-1.25-.12-2.54,0-3.86.08-.91.29-1.77.63-2.56.02-.04.04-.08.06-.12,1.52-2.99,3.88-3.37,5.77-3.37,3.77,0,4.75,2.36,4.9,4.33.12,1.11.05,2.35-.23,3.83-.04.32-.18,1.15-.32,1.98-.14.84-.28,1.67-.3,1.91-.06.34-.1.73-.15,1.18-.25,2.25-.48,3.93-1.17,4.89l-.04.05c.38.36.7.79.92,1.29.53,1.11.51,2.32.4,3.13-.36,2.42-2.55,4.1-5.34,4.1Z"/>
    <path class="cls-3" d="M157.46,41.33c-2.56,0-4.77-1.43-5.98-3.84-1.26,2.38-3.46,3.78-5.96,3.78-2.98,0-5.8-1.93-7.03-4.81-1.82-4.17-2.25-8.7-1.4-14.69.39-2.54.96-6.34,5.91-6.34.97,0,3.37.17,4.61,1.76.85,1.06.96,2.39.96,3.42.03,1.04-.15,2.05-.32,3.03-.03.19-.07.38-.1.57.38-.6.93-1.18,1.71-1.5.04-.02.09-.03.13-.05.52-.17,1.05-.21,1.4-.21.41,0,.8.05,1.16.14.04.01.08.02.12.04.98.31,1.67.82,2.16,1.59-.03-.18-.06-.37-.09-.55-.17-.98-.35-1.98-.32-3.09,0-2.32.97-5.13,5.57-5.13,4.95,0,5.53,3.82,5.91,6.35.85,5.97.42,10.5-1.4,14.69-1.25,2.89-4.08,4.83-7.02,4.83Z"/>
    <path class="cls-3" d="M174.14,41.72c-5.06,0-8.99-2.88-10.02-7.34-.74-3.15-.61-6.47.39-9.35,1.31-3.85,4.85-6.45,8.82-6.45,1.82,0,3.6.57,5.16,1.64,3.46,2.39,4.49,6.73,2.35,9.88-.1.15-.21.3-.32.44.94.38,1.75,1.14,2.18,2.05.98,1.95.67,4.39-.79,6.04-1.72,1.93-4.63,3.08-7.77,3.08Z"/>
    <path class="cls-3" d="M185.21,26.81c-.77,0-1.49-.33-1.97-.9-.45-.54-.66-1.23-.6-1.97-.93-.41-1.68-1.12-2.06-2.02-.87-2.06-.16-4.55,1.64-5.78.88-.61,1.97-.74,2.72-.74.7,0,1.72.12,2.58.7,1.6,1.07,2.4,2.99,2.14,5.15-.27,1.91-.81,3.08-2.08,4.51-.03.03-.05.06-.08.09-.62.62-1.45.97-2.28.97Z"/>
    <path class="cls-3" d="M193.73,41.48c-2.91,0-5.03-1.92-5.82-5.26-.64-2.52-.86-5.32-.68-8.55.1-2.19.32-4.25.69-6.3.34-1.74,1.02-5.3,4.46-5.93.36-.07.79-.11,1.25-.11,1.74,0,4.15.59,5.23,2.25.82,1.29.71,2.74.65,3.52-.1,1.11-.37,2.09-.62,3.04-.1.38-.2.75-.29,1.13-.64,2.66-.85,5.53-.61,8.54.02.25.1.62.18,1.02.33,1.62.89,4.33-1.42,5.82-.83.54-1.9.83-3.01.83Z"/>
    <path class="cls-3" d="M203.45,41.48c-2.91,0-5.03-1.92-5.82-5.26-.64-2.52-.86-5.32-.68-8.55.1-2.19.32-4.25.69-6.3.34-1.74,1.02-5.3,4.46-5.93.36-.07.79-.11,1.25-.11,1.74,0,4.15.59,5.23,2.25.82,1.29.71,2.74.65,3.52-.1,1.11-.37,2.09-.62,3.04-.1.38-.2.75-.29,1.13-.64,2.66-.85,5.53-.61,8.54.02.25.1.62.18,1.02.33,1.62.89,4.33-1.42,5.82-.83.54-1.9.83-3.01.83Z"/>
    <path class="cls-3" d="M225.38,46.91c-1.09,0-2.12-.25-3.06-.74-1.46-.77-2.39-2.33-2.41-4.07-.02-1.2.38-2.31,1.11-3.16-3.34-.96-5.63-4.06-5.8-8.17-.07-2.53.6-5.03,1.9-7.07,1.86-2.82,4.53-4.38,7.75-4.52.18-.01.39-.02.6-.02.96,0,1.95.12,2.94.37.06.02.12.04.17.05.74-.38,1.6-.59,2.46-.59,2.24,0,4.24,1.36,5.09,3.47.51,1.24.69,2.54.82,3.77l.03.28c.39,3.39.83,7.22-.22,10.82-.67,2.19-1.73,4.13-3.07,5.63-1.89,2.17-5.63,3.94-8.33,3.94Z"/>
    <path class="cls-3" d="M245.14,41.72c-5.06,0-8.99-2.88-10.02-7.34-.74-3.15-.61-6.47.39-9.35,1.31-3.85,4.85-6.45,8.82-6.45,1.82,0,3.6.57,5.16,1.64,3.46,2.39,4.49,6.73,2.35,9.88-.1.15-.21.3-.32.44.94.38,1.75,1.14,2.18,2.05.98,1.95.67,4.39-.79,6.04-1.72,1.93-4.63,3.08-7.77,3.08Z"/>
    <path class="cls-3" d="M262.87,41.99c-1.36,0-2.72-.36-4.04-1.08-3.39-1.79-5.08-5.69-5.02-11.61-.2-.03-.41-.07-.62-.13-1.08-.29-1.97-1-2.39-1.9-.92-1.84-.15-4.22,1.7-5.15.4-.2.96-.36,1.56-.48.04-.44.1-.89.21-1.35.17-.92.51-1.75,1.01-2.46.4-.61.98-1.14,1.76-1.61.03-.02.07-.04.1-.06,1.07-.56,2.27-.68,3.09-.68,2.74,0,4.69,1.27,5.36,3.49.24.79.29,1.59.27,2.29,1.07.07,2.57.38,3.61,1.68.95,1.21,1.16,2.69.58,4.07-.68,1.66-2.41,2.92-4.3,3.15-.25.04-.59.07-.96.07h-.02c-.02.39-.04.81-.05,1.24-.01.26-.01.5,0,.71.63-.21,1.35-.46,2.14-.46,1.36,0,2.48.71,3.15,2,.57,1.15.6,2.51.08,3.78-1.02,2.86-4.49,4.45-7.22,4.45Z"/>
    <path class="cls-3" d="M283.18,41.48c-2.28,0-4.28-1.36-5.1-3.46-.51-1.24-.66-2.57-.78-3.75-.57-4.81-.65-9.34-.25-13.49.56-4.99,3.28-6.04,5.47-6.04,2.93,0,5,1.3,5.69,3.58.3,1.14.37,2.26.36,3.27.46-.17.91-.29,1.35-.37.46-.07.87-.1,1.28-.1,1.35,0,2.64.31,3.73.91.8.46,1.51,1.07,2.09,1.78.02.03.05.06.07.09,1.2,1.63,1.88,3.72,1.92,5.89.07,2.44-.61,4.99-1.87,6.99-1.71,2.71-4.45,4.33-7.7,4.56-.22.01-.43.02-.64.02-.98,0-1.96-.13-2.93-.4-.08-.02-.16-.04-.24-.06-.77.38-1.62.59-2.45.59Z"/>
    <path class="cls-3" d="M303.62,41.42c-1.97,0-3.92-.79-5.2-2.11-.8-.88-1.38-1.9-1.76-3.09-.64-1.8-.86-3.97-.63-6.39.22-2.6,1.49-7.54,4.89-9.34,1.21-.72,2.82-1.12,4.59-1.12.38,0,.76.02,1.13.05.59.06,1.6.26,2.6.66.71-.59,1.58-.96,2.6-1.07.21-.02.38-.03.54-.03.91,0,1.83.2,2.67.58.42.17.99.44,1.47.96.69.72,1.14,1.74,1.25,2.88.1.84.06,1.79-.1,2.88-.1.68-.23,1.38-.36,2.08-.15.79-.29,1.54-.38,2.27-.17,1.49-.03,2.18,1.07,3.22.55.55.78,1.17.88,1.5.02.08.04.17.06.25.35,2.28-1.47,4.46-3.39,5.06-.48.14-1.14.3-1.86.3-1.67,0-3.25-.63-4.43-1.67-1.55,1.26-3.51,2.05-5.45,2.12h-.19ZM306.99,28.38c-.02.06-.04.13-.06.19-.2.74-.32,1.47-.33,2.16.22-.8.35-1.68.39-2.35Z"/>
    <path class="cls-3" d="M325.93,41.69c-5.42,0-9.64-3.74-10.03-8.9-.18-2.89.27-5.71,1.28-8.2,1.55-3.88,4.61-6.1,8.39-6.1,3.34,0,6.48,1.6,7.98,4.08.99,1.7.97,3.9-.02,5.39-.53.8-1.12,1.33-1.7,1.67,1.46.58,2.29,2.06,2.55,3.22.52,2.19-.12,4.73-1.61,6.3-1.71,1.87-4.66,2.55-6.85,2.55ZM326.25,29.11c-.1.42-.14,1.02-.09,1.49.37-.12.82-.31,1.13-.45.23-.1.45-.19.65-.27-.6-.21-1.16-.49-1.7-.78Z"/>
    <path class="cls-3" d="M338.53,41.81c-1,0-1.98-.26-2.81-.75-1.72-.98-2.83-3.1-3.25-6.29-.75-5.12-.7-9.92.14-14.24.82-4.97,4.16-5.73,6.07-5.73s3.65.8,4.62,2.15c.7.93.82,2.09.88,2.71.06.55.08,1.16.04,1.85,0,.1-.02.25-.04.43,1.02-.4,2.05-.68,2.9-.77.21-.02.41-.03.61-.03.98,0,1.86.27,2.54.78,1.6,1.17,2.68,3.87,1.7,6.01-.31.76-.99,1.5-1.93,2.09-.51.3-1.01.55-1.5.77.42.48,1.99,2.27,2.01,2.3.64.81,1.26,1.73,1.4,2.91.37,2.27-1.27,4.5-3.67,4.89-.03,0-.07.01-.1.01-.3.03-.59.05-.89.05-.49,0-.95-.05-1.38-.15-1.04-.28-2.09-1.03-3.05-1.91-.51,1.38-1.53,2.59-3.6,2.87-.25.03-.47.04-.7.04Z"/>
    <path class="cls-3" d="M370.21,41.99c-1.36,0-2.72-.36-4.04-1.08-3.39-1.79-5.08-5.69-5.02-11.61-.2-.03-.41-.07-.62-.13-1.08-.29-1.97-1-2.39-1.9-.92-1.84-.15-4.22,1.7-5.15.4-.2.96-.36,1.56-.48.04-.44.1-.89.21-1.35.17-.92.51-1.75,1.01-2.46.4-.61.98-1.14,1.76-1.61.03-.02.07-.04.1-.06,1.07-.56,2.27-.68,3.09-.68,2.74,0,4.69,1.27,5.36,3.49.24.79.29,1.59.27,2.29,1.07.07,2.57.38,3.61,1.68.95,1.21,1.16,2.69.58,4.07-.68,1.66-2.41,2.92-4.3,3.15-.25.04-.59.07-.96.07h-.02c-.02.39-.04.81-.05,1.24-.01.26-.01.5,0,.71.63-.21,1.35-.46,2.14-.46,1.36,0,2.48.71,3.15,2,.57,1.15.6,2.51.08,3.78-1.02,2.86-4.49,4.45-7.22,4.45Z"/>
    <path class="cls-3" d="M385.54,41.3c-1.12,0-2.24-.17-3.32-.51-2.83-.87-5.1-2.95-6.38-5.84-1.54-3.47-1.49-7.76.12-11.2,1.64-3.49,5.45-5.74,9.7-5.74,3.49,0,6.46,1.54,8.14,4.24,3.01,4.77,2.2,11.93-1.85,16.31-1.53,1.75-3.83,2.74-6.42,2.74ZM386.24,27c-.3.31-.66,1-.71,1.64.48-.51.76-1.32.71-1.64Z"/>
    <path class="cls-3" d="M411.85,47.16c-.29,0-.58-.01-.88-.05-1.89-.24-3.56-1.5-4.3-3.2-.67-1.55-.48-3.23.52-4.61.56-.8,1.33-1.27,1.96-1.65,0,0,.22-.13.28-.17-1.41-.13-2.66-.56-3.73-1.3-3.99-2.72-4.96-8.81-3.6-13.11.7-2.2,2.91-3.74,5.36-3.74,2.32,0,4.15,1.38,4.67,3.5.29,1.11.28,2.23.27,3.21,0,.78-.01,1.52.13,2.13.12-.23.28-.81.42-1.69l.03-.22c.18-1.34.39-2.85,1.19-4.27.85-1.52,2.42-2.37,4.41-2.37.54,0,1.1.07,1.68.2,1.57.42,2.65,1.22,3.26,2.38,1.13,2.12.28,4.64-.34,6.47l-.16.47c-.61,1.99-1.31,4.29-1.66,6.52-.08.59-.14,1.21-.2,1.84-.1,1.08-.21,2.19-.45,3.32-.69,2.94-2.9,5.19-5.77,5.89-.94.21-2,.42-3.12.42Z"/>
    <path class="cls-3" d="M431.74,41.3c-1.12,0-2.24-.17-3.32-.51-2.83-.87-5.1-2.95-6.38-5.84-1.54-3.47-1.49-7.76.12-11.2,1.64-3.49,5.45-5.74,9.7-5.74,3.49,0,6.46,1.54,8.14,4.24,3.01,4.77,2.2,11.93-1.85,16.31-1.53,1.75-3.83,2.74-6.42,2.74ZM432.44,27c-.3.31-.66,1-.71,1.64.48-.51.76-1.32.71-1.64Z"/>
    <path class="cls-3" d="M446.93,41.42c-1.97,0-3.92-.79-5.2-2.11-.8-.88-1.38-1.9-1.76-3.09-1.49-4.16-1.36-9.87.35-14.16.76-1.86,2.61-3,4.83-3s4.71,1.38,5.5,3.68c.39-1.03,1.04-2,2.11-2.82.62-.47,1.43-.79,2.34-.9.25-.02.41-.03.58-.03.92,0,1.85.2,2.69.58.42.17.99.44,1.47.96.69.72,1.14,1.74,1.25,2.88.1.84.06,1.79-.1,2.87-.1.68-.23,1.37-.36,2.07-.15.79-.29,1.54-.38,2.28-.17,1.5-.04,2.18,1.07,3.22.55.55.79,1.18.88,1.51.02.08.04.16.05.24.35,2.28-1.47,4.46-3.39,5.06-.48.14-1.14.3-1.86.3-1.67,0-3.25-.63-4.43-1.68-1.55,1.26-3.51,2.05-5.45,2.12h-.19Z"/>
    <path class="cls-3" d="M487.81,41.54c-2.22,0-4.17-1.03-5.59-2.85-1.29,1.76-3.37,2.79-5.63,2.79-6.22,0-7.09-6.31-7.56-9.71-.22-1.52-.41-3.21-.58-5.17l-.04-.3c-.26-2.03-.69-5.42,2.72-7.05.85-.42,1.75-.65,2.64-.65,2.79,0,5.01,2.12,5.4,5.16.02.18.05.36.07.54.9-2.26,2.8-2.64,3.98-2.64,1.38,0,2.51.62,3.12,1.67.07-.3.15-.61.24-.91.68-2.17,2.69-3.61,5-3.61s4.15,1.36,4.79,3.46c.28.94.32,1.87.36,2.69.03,2.17-.2,4.44-.72,7.2-.48,2.56-1.76,9.37-8.2,9.37Z"/>
    <path class="cls-3" d="M500.72,41.17c-1.39,0-2.85-.53-3.91-1.43-3.09-2.71-3.31-10.63-2.11-15.12.25-.89.58-2.06,1.48-3,.14-.16.29-.3.45-.43-.77-.99-1.12-2.33-.95-3.7.19-1.56,1.01-2.93,2.26-3.74.93-.62,2.05-.96,3.22-.96,1.29,0,2.59.44,3.66,1.24,1.12.88,1.67,2.05,1.61,3.39-.07,1.46-.75,2.81-1.79,3.8.13.11.26.22.38.35.84.83,1.32,2.02,1.44,3.56,0,.03,0,.07,0,.1.03,1.21-.2,2.29-.42,3.35-.05.25-.1.49-.15.74-.38,1.97-.61,3.63-.54,5.29l.02.37c.03.7.07,1.5-.03,2.34-.31,2.2-1.83,3.6-4.05,3.81-.16.02-.36.03-.57.03Z"/>
    <path class="cls-3" d="M515.71,41.99c-1.36,0-2.72-.36-4.04-1.08-3.39-1.79-5.08-5.69-5.02-11.61-.2-.03-.41-.07-.62-.13-1.08-.29-1.97-1-2.39-1.9-.92-1.84-.15-4.22,1.7-5.15.4-.2.96-.36,1.56-.48.04-.44.1-.89.21-1.35.17-.92.51-1.75,1.01-2.46.4-.61.98-1.14,1.76-1.61.03-.02.07-.04.1-.06,1.07-.56,2.27-.68,3.09-.68,2.74,0,4.69,1.27,5.36,3.49.24.79.29,1.59.27,2.29,1.07.07,2.57.38,3.61,1.68.95,1.21,1.16,2.69.58,4.07-.68,1.66-2.41,2.92-4.3,3.15-.25.04-.59.07-.96.07h-.02c-.02.39-.04.81-.05,1.24-.01.26-.01.5,0,.71.63-.21,1.35-.46,2.14-.46,1.36,0,2.48.71,3.15,2,.57,1.15.6,2.51.08,3.78-1.02,2.86-4.49,4.45-7.22,4.45Z"/>
    <path class="cls-3" d="M527.02,41.48c-2.28,0-4.28-1.36-5.1-3.46-.51-1.24-.66-2.57-.78-3.75-.57-4.81-.65-9.34-.25-13.49.56-4.99,3.28-6.04,5.47-6.04,2.93,0,5,1.3,5.69,3.58.3,1.14.37,2.26.36,3.27.46-.17.91-.29,1.35-.37.46-.07.87-.1,1.28-.1,1.35,0,2.64.31,3.73.91.8.46,1.51,1.07,2.09,1.78,2.55,3.44,2.19,7.73,1.92,10.86-.63,6.04-4.31,6.69-5.86,6.69-2.35,0-4.28-1.46-5-3.63-.24,1.1-.8,2.17-2.02,2.92-.86.54-1.86.84-2.88.84Z"/>
    <path class="cls-3" d="M546.89,41.17c-1.39,0-2.85-.53-3.91-1.43-3.09-2.71-3.31-10.63-2.11-15.12.25-.89.58-2.06,1.48-3,.14-.16.29-.3.45-.43-.77-.99-1.12-2.33-.95-3.7.19-1.56,1.01-2.93,2.26-3.74.93-.62,2.05-.96,3.22-.96,1.29,0,2.59.44,3.66,1.24,1.12.88,1.66,2.05,1.61,3.39-.07,1.46-.75,2.81-1.79,3.81.13.11.26.22.38.35.84.83,1.32,2.03,1.44,3.57.03,1.3-.2,2.39-.42,3.45-.05.25-.1.49-.15.74-.38,1.97-.61,3.63-.54,5.29l.02.37c.03.7.07,1.5-.03,2.34-.31,2.2-1.83,3.6-4.05,3.81-.16.02-.36.03-.57.03Z"/>
    <path class="cls-3" d="M556.03,41.84c-1.79,0-3.31-.78-4.27-2.2-1.43-2.07-1.63-5.93-1.63-9.79.03-2.75.13-5.19.95-7.56.37-1.11,1.37-4.1,5.04-4.1,1.58,0,3.48.67,4.54,2.14.56-.18,1.14-.28,1.73-.28,2.34,0,4.63,1.4,6.13,3.74,1.24,1.96,2.43,7.37,1.2,13.27-.65,3.5-3.13,4.22-5.09,4.22-.21,0-.42,0-.65-.03-1.57-.11-2.62-.75-3.31-1.76-.94,1.4-2.7,2.33-4.64,2.33Z"/>
    <path class="cls-3" d="M585.39,41.75c-.7,0-1.31-.02-1.77-.07-1.94-.16-4.35-.56-5.47-2.27-1.16-1.8-.85-5.1-.13-6.59.5-1.01,1.1-2,2.11-2.65-.62-.27-1.15-.67-1.57-1.19-2.4-2.93-2.32-7.95.18-11.18,1.99-2.59,6.09-3.53,8.36-3.53,3.06,0,5.58,1.23,7.09,3.46,1.22,1.82,1.79,4.26,1.6,6.71-.12,1.35-.49,2.63-1.07,3.72-.5,1-1.1,1.93-1.75,2.82.37.03.8.12,1.27.32.8.37,1.45,1.01,1.8,1.79,1.18,2.4.33,5.71-1.89,7.17-2.04,1.39-7.22,1.5-8.76,1.5Z"/>
    <path class="cls-3" d="M607.82,41.75c-.37,0-.72-.03-1.06-.08-2.58-.33-4.16-1.93-4.39-4.49,0-.04,0-.07,0-.11-.02-.59,0-1.16.04-1.7-.84.08-1.68.12-2.51.12-.75,0-1.5-.03-2.22-.1-2.5-.11-4.35-1.53-4.76-3.69-.25-1.11-.12-2.41.42-3.88,1.96-5.43,6.2-9.57,9.41-12.08,1-.76,2.21-1.27,3.52-1.48.43-.07.86-.11,1.27-.11.35,0,.7.03,1.02.08,1.68.3,3.03,1.38,3.71,2.99.59,1.4.55,2.87.52,4.05,0,.62-.04,1.26-.07,1.92-.05,1.12-.1,2.27-.06,3.61.51.04,1.02.1,1.37.19.74.18,1.43.7,1.82,1.39.84,1.38.56,4.32-.29,5.57-.57.82-1.37,1.35-2.28,1.54.05.38.1.76.13,1.14,0,.05,0,.11,0,.16,0,.55,0,1.29-.33,2.06-.85,2.14-3.36,2.91-5.26,2.91Z"/>
    <path class="cls-3" d="M629.05,41.48c-2.28,0-4.28-1.36-5.1-3.46-.51-1.24-.66-2.57-.78-3.75-.57-4.81-.65-9.34-.25-13.49.56-4.99,3.28-6.04,5.47-6.04,2.93,0,5,1.3,5.69,3.58.3,1.14.37,2.26.36,3.27.46-.17.91-.29,1.35-.37.46-.07.87-.1,1.28-.1,1.35,0,2.64.31,3.73.91.8.46,1.51,1.07,2.09,1.78,2.55,3.44,2.19,7.73,1.92,10.86-.63,6.04-4.31,6.69-5.86,6.69-2.35,0-4.28-1.46-5-3.63-.24,1.1-.8,2.17-2.02,2.92-.86.54-1.86.84-2.88.84Z"/>
    <path class="cls-3" d="M652.84,41.3c-1.12,0-2.24-.17-3.32-.51-2.83-.87-5.1-2.95-6.38-5.84-1.54-3.47-1.49-7.76.12-11.2,1.64-3.49,5.45-5.74,9.7-5.74,3.49,0,6.46,1.54,8.14,4.24,3.01,4.77,2.2,11.93-1.85,16.31-1.53,1.75-3.83,2.74-6.42,2.74ZM653.53,27c-.3.31-.66,1-.71,1.64.48-.51.76-1.32.71-1.64Z"/>
    <path class="cls-3" d="M668.03,41.42c-1.97,0-3.92-.79-5.2-2.11-.8-.88-1.38-1.9-1.76-3.09-1.49-4.16-1.36-9.87.35-14.16.76-1.86,2.61-3,4.83-3s4.71,1.38,5.5,3.68c.39-1.03,1.04-2,2.11-2.82.62-.47,1.43-.79,2.34-.9.25-.02.41-.03.58-.03.92,0,1.85.2,2.69.58.42.17.99.44,1.47.96.69.72,1.14,1.74,1.25,2.88.1.84.06,1.79-.1,2.88-.1.68-.23,1.37-.36,2.07-.15.79-.29,1.54-.38,2.28-.17,1.5-.04,2.18,1.07,3.22.55.55.79,1.18.88,1.51.02.08.04.16.05.24.35,2.28-1.47,4.46-3.39,5.06-.48.14-1.14.3-1.86.3-1.67,0-3.25-.63-4.43-1.68-1.55,1.26-3.51,2.05-5.45,2.12h-.19Z"/>
    <path class="cls-3" d="M686.29,41.84c-1.75,0-3.28-.81-4.2-2.23-1.36-2.08-1.55-6.1-1.55-9.75.03-2.74.13-5.17.91-7.53.42-1.24,1.4-4.13,4.96-4.13,1.88,0,3.42.77,4.35,2.04.81-.37,1.67-.57,2.46-.57,1.17,0,3.36.5,4.9,3.83.69,1.57.97,3.36.81,5.21-.23,2.75-1.96,5.7-5.2,5.7-.67,0-1.37-.17-1.99-.51.06,1.58,0,3.16-.27,4.27-.55,2.14-2.73,3.68-5.18,3.68Z"/>
    <path class="cls-3" d="M703.9,41.75c-.76,0-4.64-.11-6.51-2.24-1.24-1.31-1.61-3.26-.9-4.9.45-1.04,1.27-1.8,2.28-2.18-1.55-1.15-2.56-2.73-2.84-4.54-.38-2.4.57-4.77,2.6-6.52,1.65-1.4,4.03-2.19,6.52-2.19,2.07,0,4,.5,5.61,1.45.71.42,2.47,1.59,3.02,3.38.6,1.98-.22,4.27-1.95,5.45-.24.15-.49.29-.76.39,1,.88,1.8,2.05,1.98,3.71.18,1.69-.32,3.44-1.35,4.81-1.6,2.14-4.41,3.37-7.68,3.37Z"/>
    <path class="cls-3" d="M715.6,41.36c-.92,0-2.63-.18-3.79-1.4-1.41-1.6-1.12-4.18-.08-5.69.92-1.38,2.37-2.18,3.96-2.18s3.03.74,3.86,1.94c.61.83.87,1.95.74,3.39-.19,2.36-2.08,3.96-4.69,3.96Z"/>
  </g>
  <text class="cls-5" transform="translate(13.55 39)"><tspan class="cls-1" x="0" y="0">T</tspan><tspan x="15.96" y="0">hanks! We’ll g</tspan><tspan class="cls-4" x="222.57" y="0">e</tspan><tspan x="238.8" y="0">t back to you within </tspan><tspan class="cls-2" x="564.29" y="0">2</tspan><tspan x="580.79" y="0">4 hours.</tspan></text>
</svg>