<?xml version="1.0" encoding="UTF-8"?>
<svg id="Body" xmlns="http://www.w3.org/2000/svg" viewBox="0 0 517.79 79.77">
  <defs>
    <style>
      .cls-1 {
        fill: #80deff;
      }

      .cls-1, .cls-2 {
        font-family: Pacifico-Regular, Pacifico;
        font-size: 50px;
      }

      .cls-2 {
        fill: #57d38c;
      }

      .cls-3 {
        letter-spacing: 0em;
      }

      .cls-4 {
        letter-spacing: 0em;
      }

      .cls-5 {
        letter-spacing: -.03em;
      }

      .cls-6 {
        letter-spacing: 0em;
      }

      .cls-7 {
        fill: #036;
      }

      .cls-8 {
        letter-spacing: .03em;
      }

      .cls-9 {
        letter-spacing: 0em;
      }

      .cls-10 {
        letter-spacing: 0em;
      }
    </style>
  </defs>
  <text class="cls-2" transform="translate(18.25 51.96)"><tspan class="cls-9" x="0" y="0">D</tspan><tspan x="41.3" y="0">isc</tspan><tspan class="cls-4" x="93.35" y="0">o</tspan><tspan class="cls-10" x="116.4" y="0">ver </tspan><tspan class="cls-6" x="196.5" y="0">O</tspan><tspan x="236.8" y="0">ur F</tspan><tspan class="cls-9" x="333.5" y="0">l</tspan><tspan class="cls-3" x="349.29" y="0">a</tspan><tspan x="373.29" y="0">vo</tspan><tspan class="cls-5" x="418.29" y="0">r</tspan><tspan class="cls-8" x="441.79" y="0">s</tspan><tspan x="462.99" y="0">!</tspan></text>
  <g>
    <g>
      <path class="cls-7" d="M38.65,59.21c-2.01,0-4.31-.17-6.82-.52-1.8-.23-3.1-.77-3.94-1.66-.89-.95-1.29-2.32-1.19-4.08.24-3.38.8-7.56,1.68-12.46.87-4.89,1.95-9.66,3.19-14.2.21-.76.56-1.41,1.03-1.95-.97.47-1.89.99-2.76,1.55-.73.5-1.58.77-2.49.77-1.23,0-2.29-.56-3-1.59-.57-.82-.85-1.8-.85-2.91s.21-2.09.62-2.89c.42-.81,1.09-1.54,2-2.16,2.48-1.69,5.41-2.99,8.72-3.86,3.25-.86,6.44-1.29,9.46-1.29,4.35,0,8.19.78,11.41,2.32,3.32,1.59,5.92,3.95,7.71,7.02,1.78,3.03,2.67,6.7,2.67,10.91,0,5.34-1.09,10.09-3.24,14.12-2.18,4.08-5.4,7.3-9.57,9.54-4.11,2.22-9.04,3.34-14.65,3.34ZM38.15,49.54c.39.01.79.02,1.2.02,5.25,0,9.02-1.49,11.52-4.56,2.57-3.15,3.88-7.49,3.88-12.89,0-3.43-.91-5.96-2.78-7.75-1.9-1.81-4.59-2.7-8.22-2.7-2.17,0-4.34.3-6.48.91.13,0,.25,0,.38,0,4.69,0,5.05,2.83,5.05,3.7,0,.69-.13,1.42-.4,2.23-.83,2.56-1.69,6.09-2.53,10.47-.71,3.65-1.25,7.2-1.62,10.58Z"/>
      <path class="cls-7" d="M73.1,59.21c-3.59,0-5.47-1.75-6.41-3.22-1.19-1.85-1.79-4.27-1.79-7.18,0-1.6.2-3.65.6-6.1.39-2.42.91-4.71,1.53-6.82.41-1.47,1.03-2.52,1.87-3.2.48-.38,1.05-.66,1.73-.83-.63-.25-1.17-.59-1.64-1.02-.77-.71-1.69-2.02-1.69-4.19,0-1.75.72-3.29,2.08-4.45,1.29-1.1,2.88-1.65,4.72-1.65,1.68,0,3.11.45,4.23,1.32,1.26.98,1.92,2.41,1.92,4.13,0,1.89-.68,3.5-1.96,4.66-.86.78-1.9,1.29-3.11,1.53,1.38.69,1.92,1.95,1.92,3.16,0,.68-.11,1.99-.99,6.21-.96,4.39-1.16,6.25-1.16,7.04,0,.38.02.66.05.87.15-.11.35-.27.59-.49.83-.77,1.99-2.04,3.42-3.76,1.01-1.18,2.12-1.42,2.89-1.42,1.12,0,2.11.56,2.72,1.54.45.72.68,1.63.68,2.71,0,1.82-.48,3.3-1.44,4.41-3.7,4.52-7.23,6.74-10.76,6.74Z"/>
      <path class="cls-7" d="M88.55,60.31c-2.22,0-4-.57-5.29-1.69-1.36-1.18-1.86-2.46-2.01-3.48-1.16,1.09-2.35,1.33-3.15,1.33-1.12,0-2.09-.44-2.81-1.26-.65-.74-.99-1.69-.99-2.74,0-1.14.39-2.19,1.16-3.12l.64-.79c1.78-2.2,3.13-4.02,4.02-5.41.49-.84,1.14-2.1,1.88-3.66.75-1.58,1.49-3.24,2.21-4.95.55-1.29,2.04-3.42,5.79-3.42,1.27,0,2.12.13,2.78.43,1.08.49,1.72,1.47,1.72,2.62,0,.41-.09.89-.29,1.54-.17.56-.41,1.11-.7,1.66-.57,1.15-.66,1.81-.66,2.1,0,.02,0,.22.25.64.3.51.78,1.18,1.45,2,1.17,1.54,2.02,2.79,2.62,3.86.34.62.61,1.26.79,1.94.68-.65,1.47-1.5,2.38-2.64,1.03-1.2,2.15-1.45,2.91-1.45,1.12,0,2.11.56,2.72,1.54.45.72.68,1.63.68,2.71,0,1.72-.46,3.18-1.38,4.34-1.88,2.33-3.66,3.89-5.46,4.78-1.61.8-3.55,1.27-5.78,1.4-1.58,1.15-3.42,1.73-5.48,1.73ZM86.66,48.55c-.15.24-.29.47-.44.69.24-.02.48-.03.73-.03.04,0,.07,0,.11,0-.12-.22-.26-.44-.4-.66Z"/>
      <path class="cls-7" d="M110.15,59.21c-3.81,0-6.85-1.14-9.05-3.37-2.19-2.23-3.3-5.16-3.3-8.73,0-3.01.62-5.72,1.83-8.03,1.22-2.33,2.85-4.17,4.83-5.45,2.02-1.31,4.19-1.97,6.44-1.97,2.4,0,4.33.76,5.73,2.26,1.37,1.46,2.07,3.33,2.07,5.54,0,1.78-.42,3.34-1.24,4.62-1.25,1.96-2.93,2.38-4.11,2.38-1.09,0-2.02-.29-2.76-.88-.86-.67-1.34-1.68-1.34-2.82,0-.38.05-.79.15-1.23,0-.04.02-.08.03-.11-.3.42-.56.96-.78,1.59-.33.95-.49,2.03-.49,3.2,0,3.51,1.51,3.8,3.05,3.8,1,0,2.16-.37,3.42-1.11,1.37-.8,2.77-2.03,4.14-3.68,1.01-1.17,2.12-1.42,2.88-1.42,1.12,0,2.11.56,2.72,1.54.45.72.68,1.63.68,2.71,0,1.72-.46,3.18-1.38,4.34-1.76,2.17-3.88,3.86-6.33,5.04-2.45,1.18-4.86,1.77-7.19,1.77Z"/>
      <path class="cls-7" d="M127.7,59.21c-2.4,0-4.51-.6-6.25-1.8-1.71-1.17-3.03-2.74-3.92-4.67-.85-1.86-1.28-3.89-1.28-6.03,0-2.83.56-5.4,1.65-7.65,1.12-2.3,2.7-4.13,4.7-5.44,2.02-1.33,4.29-2,6.75-2,3.12,0,5.68,1.11,7.62,3.3,1.4,1.59,2.37,3.46,2.88,5.6,1.03-.16,2.19-.41,3.44-.74.45-.11.84-.17,1.21-.17,1.17,0,2.18.62,2.76,1.7.39.73.59,1.6.59,2.6,0,3.37-1.79,4.43-2.86,4.76-1.7.6-3.6,1-5.64,1.19-.81,2.54-2.14,4.66-3.97,6.31-2.24,2.02-4.82,3.04-7.69,3.04ZM127.37,42.12c-.58.94-.88,2.33-.88,4.14,0,1.37.24,2.41.68,3.01.48.64.79.64.92.64.35,0,.78-.08,1.29-.64.35-.39.63-.93.84-1.63-.8-.75-1.46-1.64-1.95-2.66-.44-.91-.75-1.87-.9-2.86Z"/>
      <path class="cls-7" d="M147.45,59.21c-2.01,0-3.68-.84-4.84-2.42-1.01-1.38-1.62-3.36-1.85-6.06-.4-4.71-.61-8.89-.61-12.42v-1.75c.05-1.78.62-3.07,1.68-3.89.94-.72,2.17-1.06,3.77-1.06,1.38,0,2.48.37,3.28,1.1.85.78,1.27,1.92,1.27,3.4,0,2.45.1,5.41.29,8.83.24-.39.47-.77.68-1.12-.34-1-.52-2.1-.52-3.31,0-1.42.32-2.82.94-4.15.63-1.35,1.52-2.48,2.64-3.34,1.22-.94,2.62-1.42,4.17-1.42s2.87.59,3.85,1.71c.93,1.06,1.4,2.5,1.4,4.29,0,.87-.11,1.8-.33,2.78.55-.1,1.15-.21,1.78-.34l1.31-.24c.27-.07.57-.1.95-.1,1.1,0,2.06.44,2.71,1.25.56.7.84,1.57.84,2.6,0,1.44-.32,2.64-.95,3.56-.65.95-1.6,1.63-2.82,2.04-1.74.57-3.6.85-5.53.85-1.11,0-2.19-.1-3.23-.31-.77,1.21-1.61,2.45-2.48,3.71-1.48,2.1-2.76,3.53-3.92,4.37-1.31.95-2.82,1.43-4.47,1.43Z"/>
      <path class="cls-7" d="M174.8,59.21c-4.03,0-7.24-1.15-9.55-3.42-2.32-2.28-3.5-5.38-3.5-9.23,0-2.6.56-5.05,1.65-7.3,1.12-2.29,2.7-4.14,4.7-5.5,2.04-1.39,4.38-2.1,6.95-2.1s4.5.77,6.05,2.3c1.56,1.54,2.35,3.59,2.35,6.1,0,2.84-1.03,5.31-3.06,7.34-1.04,1.04-2.41,1.95-4.14,2.73.96-.17,2.05-.58,3.26-1.25,1.68-.92,3.16-2.15,4.39-3.64,1.02-1.19,2.13-1.43,2.89-1.43,1.12,0,2.11.56,2.72,1.54.45.72.68,1.63.68,2.71,0,1.82-.48,3.3-1.44,4.41-1.35,1.65-3.3,3.2-5.76,4.59-2.54,1.43-5.3,2.16-8.21,2.16ZM174.14,40.56c-.22,0-.72.1-1.35,1.17-.23.39-.42.82-.57,1.28.36-.2.68-.41.96-.64.87-.72.97-1.32.97-1.71,0-.04,0-.07,0-.1Z"/>
      <path class="cls-7" d="M187.7,59.21c-2.11,0-3.72-1.16-4.54-3.28-.61-1.58-.91-3.91-.91-7.12,0-4.52.65-8.88,1.94-12.95.44-1.41,1.21-2.48,2.28-3.19,1.02-.68,2.32-1,3.97-1,1.07,0,1.85.18,2.46.55.51.32,1.34,1.08,1.34,2.65,0,.1,0,.21-.01.34.88-.89,1.76-1.59,2.65-2.11,1.61-.95,3.14-1.43,4.57-1.43,1.91,0,3.06.79,3.68,1.46.87.93,1.32,2.21,1.32,3.79,0,.33-.03.88-.21,1.99.51.23.98.55,1.4.97.89.89,1.36,2.05,1.36,3.34,0,.69-.15,1.41-.44,2.14-.67,1.56-1.61,2.84-2.8,3.87-1.33,1.15-2.85,1.73-4.51,1.73-1.47,0-2.78-.55-3.81-1.6-.81-.84-1.31-1.88-1.48-3.11-.31.59-.62,1.25-.93,1.96-.75,1.72-1.37,3.57-1.84,5.48-.45,1.94-.98,3.24-1.69,4.04-.86.98-2.14,1.48-3.8,1.48Z"/>
      <path class="cls-7" d="M238.75,59.21c-3.3,0-6.33-.76-9-2.25-2.71-1.51-4.88-3.76-6.46-6.67-1.55-2.87-2.34-6.31-2.34-10.23,0-5.34,1-10.14,2.97-14.26,2-4.18,4.78-7.46,8.25-9.76,3.5-2.31,7.43-3.48,11.68-3.48,3.3,0,6.33.76,9,2.25,2.71,1.52,4.88,3.76,6.46,6.67,1.55,2.87,2.34,6.31,2.34,10.23,0,5.34-1,10.14-2.97,14.26-2,4.18-4.78,7.46-8.25,9.76-3.5,2.31-7.43,3.48-11.68,3.48ZM243.35,22.46c-2.12,0-3.93.63-5.55,1.93-1.68,1.35-3.02,3.31-3.99,5.81-1.01,2.61-1.52,5.64-1.52,9.01s.69,6.09,2.05,7.76c1.28,1.57,2.88,2.34,4.9,2.34,2.15,0,3.99-.64,5.62-1.96,1.69-1.36,3.02-3.32,3.96-5.82.98-2.61,1.47-5.63,1.47-8.97s-.69-6.09-2.05-7.76c-1.28-1.57-2.88-2.34-4.9-2.34Z"/>
      <path class="cls-7" d="M278.4,59.21c-2.31,0-4.12-.97-5.23-2.81-.03-.04-.05-.09-.08-.14-.14.17-.28.33-.42.49-1.52,1.63-3.24,2.46-5.11,2.46-2.16,0-4-1.02-5.32-2.94-1.18-1.71-1.78-3.84-1.78-6.31,0-2.59.18-5.01.53-7.19.35-2.18.93-4.51,1.73-6.93.47-1.41,1.18-2.46,2.13-3.15.96-.69,2.27-1.03,4.02-1.03,1.22,0,2.13.26,2.79.8.75.62,1.16,1.54,1.16,2.6,0,.33-.05.83-.6,3.16-.33,1.24-.59,2.32-.79,3.28-.37,1.95-.61,3.36-.75,4.39.4-.74.83-1.64,1.27-2.7.81-1.94,1.61-4.38,2.39-7.25.38-1.41,1.02-2.49,1.92-3.2.91-.72,2.16-1.08,3.71-1.08,1.17,0,2.01.18,2.64.57.53.32,1.41,1.1,1.41,2.73,0,.68-.15,2.12-1.3,7.29-1,4.58-1.27,6.41-1.33,7.13.13-.1.29-.22.48-.39.84-.75,2.01-2.02,3.47-3.76,1.01-1.17,2.12-1.42,2.88-1.42,1.12,0,2.11.56,2.72,1.54.45.72.68,1.63.68,2.71,0,1.82-.48,3.3-1.44,4.41-1.51,1.86-3.21,3.46-5.01,4.69-1.98,1.36-4.25,2.05-6.76,2.05Z"/>
      <path class="cls-7" d="M289.1,59.21c-2.11,0-3.72-1.16-4.54-3.28-.61-1.58-.91-3.91-.91-7.12,0-4.52.65-8.88,1.94-12.95.44-1.41,1.21-2.48,2.28-3.19,1.02-.68,2.32-1,3.97-1,1.07,0,1.85.18,2.46.55.5.31,1.34,1.07,1.34,2.65,0,.1,0,.21-.01.34.88-.89,1.76-1.59,2.65-2.11,1.61-.95,3.14-1.43,4.57-1.43,1.91,0,3.06.79,3.68,1.45.88.93,1.32,2.21,1.32,3.8,0,.34-.03.88-.21,1.99.51.23.98.55,1.4.97.89.89,1.36,2.05,1.36,3.34,0,.68-.15,1.4-.44,2.14-.68,1.56-1.61,2.85-2.8,3.87-1.34,1.15-2.85,1.74-4.51,1.74-1.47,0-2.79-.56-3.81-1.6-.81-.83-1.31-1.88-1.48-3.11-.31.59-.62,1.25-.93,1.96-.75,1.72-1.37,3.56-1.84,5.48-.45,1.94-.98,3.23-1.69,4.04-.86.99-2.14,1.48-3.81,1.48Z"/>
      <path class="cls-7" d="M332.1,59.36c-2.58,0-4.99-.57-7.17-1.7-2.21-1.14-3.88-2.58-4.96-4.27-.57-.89-.87-1.94-.87-3.13s.3-2.25.89-3.18c.75-1.18,1.86-1.82,3.11-1.82.81,0,1.59.25,2.32.76.57.39,1.17,1.02,1.91,1.96,1.24,1.63,2.63,2.38,4.38,2.38,1.3,0,2.33-.51,3.24-1.6,1.02-1.24,1.71-3.35,2.03-6.27l.06-.53h-.17c-1.22,0-2.31-.36-3.21-1.08-.72-.57-1.59-1.63-1.59-3.42,0-1.57.46-2.84,1.37-3.77.92-.95,2.19-1.43,3.78-1.43.32,0,.63,0,.95,0,.28-2.65.58-5.7.89-9.12-2.48.37-3.75.84-4.4,1.21-.84.48-1.19,1.05-1.19,1.96,0,.75.22,1.46.68,2.17.41.61.62,1.28.62,1.98,0,.9-.33,2.18-1.88,3.23-1,.68-2.13,1.02-3.37,1.02-1.38,0-2.59-.43-3.59-1.27-.69-.57-1.24-1.5-1.75-2.91-.44-1.24-.67-2.63-.67-4.12,0-4.91,2.62-8.66,7.57-10.83,4.55-2,10.9-2.97,19.43-2.97,5.73,0,10.87.31,15.27.92,1.46.21,2.53.74,3.21,1.57.64.8.97,1.79.97,2.96,0,3.27-1.95,5.22-5.22,5.22-.2,0-.41,0-.62-.02l-1.79-.15c-1.93-.16-3.89-.3-5.81-.4-1.9-.1-3.93-.15-6.02-.15h-.41c-.28,3.33-.57,6.5-.87,9.46l6.34-.11c1.85,0,3.13.41,3.95,1.26.54.56,1.18,1.56,1.18,3.14,0,2.1-.87,3.39-1.6,4.11-1.05,1.02-2.48,1.54-4.25,1.54h-6.81l-.06.43c-.76,5.98-2.41,10.19-5.03,12.87-2.66,2.72-6.32,4.1-10.85,4.1Z"/>
      <path class="cls-7" d="M368.15,59.21c-3.67,0-6.53-1.75-8.29-5.06-1.56-2.95-2.36-6.74-2.36-11.29,0-4.18.54-8.99,1.62-14.3,1.08-5.38,2.72-10.07,4.86-13.97,2.42-4.4,5.47-6.64,9.08-6.64,2.3,0,4.19,1.1,5.48,3.17,1.13,1.82,1.67,4.25,1.67,7.43,0,4.22-1.16,9.12-3.46,14.58-2.15,5.11-5.06,10.23-8.65,15.23.2.75.41,1.04.48,1.12.1.11.24.23.62.23.93,0,1.71-.25,2.39-.77.91-.69,2.13-1.94,3.63-3.72,1-1.17,2.12-1.41,2.88-1.41,1.12,0,2.11.56,2.72,1.54.45.72.68,1.63.68,2.71,0,1.82-.48,3.3-1.44,4.41-1.51,1.86-3.23,3.46-5.07,4.7-2.01,1.35-4.31,2.04-6.84,2.04ZM371.23,19.72c-.93,2.65-1.76,6.01-2.47,9.99-.07.38-.13.76-.19,1.13.28-.7.54-1.39.79-2.08,1.21-3.39,1.87-6.52,1.97-9.32-.03.09-.07.18-.1.28Z"/>
      <path class="cls-7" d="M392.75,59.21c-1.57,0-3.01-.53-4.29-1.58-.39-.32-.75-.67-1.07-1.06-1.78,1.75-3.88,2.64-6.29,2.64-2.65,0-4.89-1.03-6.49-2.98-1.53-1.86-2.31-4.27-2.31-7.17s.7-5.84,2.07-8.49c1.38-2.66,3.24-4.83,5.55-6.46,2.39-1.69,4.97-2.54,7.68-2.54,1.35,0,2.32.36,2.97,1.1.17.2.33.42.47.68.28-.02.57-.03.86-.03,3.28,0,4.45,1.94,4.45,3.75,0,.58-.09,1.71-.79,5.37-.71,3.57-.99,5.63-1.08,6.8.08-.07.17-.15.27-.23.83-.75,1.99-2.02,3.46-3.78,1.01-1.17,2.12-1.42,2.88-1.42,1.12,0,2.11.56,2.72,1.54.45.72.68,1.63.68,2.71,0,1.82-.48,3.3-1.44,4.41-1.42,1.76-3,3.32-4.65,4.58-1.88,1.43-3.79,2.16-5.66,2.16ZM385.61,41.4c-.89.8-1.62,1.87-2.18,3.19-.59,1.41-.89,2.94-.89,4.52,0,.78.16,1.02.16,1.02,0,0,.05.03.19.03-.01,0,.19-.09.52-.52.48-.62.84-1.51,1.08-2.64l1.13-5.6Z"/>
      <path class="cls-7" d="M404.34,59.21c-2,0-3.68-.84-4.84-2.42-1.01-1.38-1.62-3.36-1.85-6.06-.4-4.7-.61-8.88-.61-12.42v-1.75c.05-1.79.62-3.07,1.69-3.89.94-.71,2.17-1.06,3.76-1.06,1.38,0,2.48.37,3.28,1.1.84.78,1.27,1.92,1.27,3.4,0,2.44.1,5.4.29,8.83.24-.39.47-.77.68-1.12-.34-1-.52-2.1-.52-3.31,0-1.42.32-2.82.94-4.15.63-1.35,1.52-2.48,2.64-3.34,1.22-.94,2.62-1.42,4.17-1.42s2.87.59,3.85,1.71c.93,1.06,1.4,2.5,1.4,4.29,0,.87-.11,1.8-.33,2.78.55-.1,1.15-.21,1.78-.34l1.31-.24c.27-.07.57-.1.95-.1,1.1,0,2.07.44,2.71,1.25.56.7.84,1.57.84,2.6,0,1.44-.32,2.64-.95,3.56-.65.95-1.6,1.64-2.82,2.04-1.74.57-3.59.85-5.53.85-1.11,0-2.19-.1-3.23-.31-.77,1.21-1.61,2.45-2.48,3.71-1.47,2.1-2.75,3.53-3.91,4.37-1.31.95-2.82,1.43-4.47,1.43Z"/>
      <path class="cls-7" d="M430.09,59.21c-2.4,0-4.5-.6-6.25-1.8-1.71-1.17-3.03-2.74-3.92-4.67-.85-1.86-1.28-3.89-1.28-6.03,0-2.83.56-5.4,1.65-7.65,1.12-2.3,2.7-4.13,4.7-5.44,2.02-1.33,4.29-2,6.75-2,3.12,0,5.68,1.11,7.62,3.3,1.4,1.59,2.37,3.46,2.88,5.6,1.04-.16,2.19-.41,3.44-.74.45-.11.84-.17,1.21-.17,1.17,0,2.18.62,2.76,1.7.39.73.59,1.6.59,2.6,0,3.37-1.79,4.43-2.86,4.76-1.7.6-3.6,1-5.64,1.19-.81,2.54-2.14,4.66-3.97,6.31-2.24,2.02-4.82,3.04-7.69,3.04ZM429.77,42.12c-.58.94-.88,2.33-.88,4.14,0,1.37.24,2.41.68,3.01.48.64.79.64.92.64.35,0,.78-.08,1.29-.64.35-.39.63-.93.84-1.63-.8-.75-1.46-1.64-1.95-2.66-.44-.91-.75-1.87-.9-2.86Z"/>
      <path class="cls-7" d="M447.49,59.21c-2.11,0-3.72-1.16-4.54-3.28-.61-1.58-.91-3.91-.91-7.12,0-4.52.65-8.88,1.94-12.95.44-1.41,1.21-2.48,2.28-3.19,1.02-.68,2.32-1,3.97-1,1.07,0,1.85.18,2.46.55.51.32,1.34,1.08,1.34,2.65,0,.1,0,.21-.01.34.88-.89,1.76-1.59,2.65-2.11,1.61-.95,3.14-1.43,4.57-1.43,1.91,0,3.06.79,3.68,1.46.87.93,1.32,2.21,1.32,3.79,0,.33-.03.88-.21,1.99.51.23.98.55,1.4.97.89.89,1.36,2.05,1.36,3.34,0,.69-.15,1.41-.44,2.14-.67,1.56-1.61,2.84-2.8,3.87-1.33,1.15-2.85,1.73-4.51,1.73-1.47,0-2.78-.55-3.81-1.6-.81-.84-1.31-1.88-1.48-3.11-.31.59-.62,1.25-.93,1.96-.75,1.72-1.37,3.57-1.84,5.48-.45,1.94-.98,3.24-1.69,4.04-.86.98-2.14,1.48-3.8,1.48Z"/>
      <path class="cls-7" d="M476.74,60.31c-2.22,0-4-.57-5.29-1.69-1.36-1.18-1.86-2.46-2.01-3.48-1.16,1.09-2.35,1.33-3.15,1.33-1.12,0-2.09-.44-2.81-1.26-.65-.74-.99-1.69-.99-2.74,0-1.14.39-2.19,1.16-3.12l.64-.79c1.78-2.2,3.13-4.02,4.02-5.41.54-.87,1.12-1.96,1.7-3.22.61-1.31,1.42-3.13,2.41-5.41.55-1.27,2.03-3.4,5.78-3.4,1.27,0,2.12.13,2.78.43,1.08.49,1.72,1.47,1.72,2.62,0,.41-.09.89-.29,1.54-.17.56-.41,1.11-.7,1.66-.57,1.15-.66,1.81-.66,2.1,0,.02,0,.22.25.64.3.51.78,1.18,1.45,2,1.17,1.54,2.02,2.79,2.62,3.86.72,1.28,1.08,2.7,1.08,4.2,0,1.72-.4,3.37-1.2,4.9-.81,1.55-1.95,2.82-3.4,3.77-1.5.98-3.21,1.48-5.1,1.48ZM474.85,48.55c-.15.24-.29.47-.44.69.24-.02.48-.03.73-.03.04,0,.07,0,.11,0-.12-.22-.26-.44-.4-.66Z"/>
      <path class="cls-7" d="M492.34,59.21c-2.04,0-3.64-.62-4.78-1.83-1.11-1.18-1.67-2.7-1.67-4.52,0-2.02.61-3.69,1.82-4.97.88-.93,1.98-1.53,3.29-1.81-.69-.67-1.06-1.6-1.06-2.67v-.12l.07-.52c.58-3.8,1.36-8.12,2.32-12.9.97-4.79,1.88-8.96,2.72-12.42.76-3.06,3-4.73,6.29-4.73,4.83,0,5.2,3.1,5.2,4.05,0,.48-.07.99-.22,1.53-.86,3.5-2.02,7.83-3.46,12.84-1.44,5.02-2.83,9.46-4.14,13.19-.4,1.15-1.18,2.01-2.24,2.49.35.21.67.45.96.73,1.16,1.11,1.74,2.66,1.74,4.62s-.62,3.75-1.85,5.05c-1.26,1.33-2.94,2-5,2Z"/>
    </g>
    <g>
      <path class="cls-7" d="M37.65,58.21c-2.01,0-4.31-.17-6.82-.52-1.8-.23-3.1-.77-3.94-1.66-.89-.95-1.29-2.32-1.19-4.08.24-3.38.8-7.56,1.68-12.46.87-4.89,1.95-9.66,3.19-14.2.21-.76.56-1.41,1.03-1.95-.97.47-1.89.99-2.76,1.55-.73.5-1.58.77-2.49.77-1.23,0-2.29-.56-3-1.59-.57-.82-.85-1.8-.85-2.91s.21-2.09.62-2.89c.42-.81,1.09-1.54,2-2.16,2.48-1.69,5.41-2.99,8.72-3.86,3.25-.86,6.44-1.29,9.46-1.29,4.35,0,8.19.78,11.41,2.32,3.32,1.59,5.92,3.95,7.71,7.02,1.78,3.03,2.67,6.7,2.67,10.91,0,5.34-1.09,10.09-3.24,14.12-2.18,4.08-5.4,7.3-9.57,9.54-4.11,2.22-9.04,3.34-14.65,3.34ZM37.15,48.54c.39.01.79.02,1.2.02,5.25,0,9.02-1.49,11.52-4.56,2.57-3.15,3.88-7.49,3.88-12.89,0-3.43-.91-5.96-2.78-7.75-1.9-1.81-4.59-2.7-8.22-2.7-2.17,0-4.34.3-6.48.91.13,0,.25,0,.38,0,4.69,0,5.05,2.83,5.05,3.7,0,.69-.13,1.42-.4,2.23-.83,2.56-1.69,6.09-2.53,10.47-.71,3.65-1.25,7.2-1.62,10.58Z"/>
      <path class="cls-7" d="M72.1,58.21c-3.59,0-5.47-1.75-6.41-3.22-1.19-1.85-1.79-4.27-1.79-7.18,0-1.6.2-3.65.6-6.1.39-2.42.91-4.71,1.53-6.82.41-1.47,1.03-2.52,1.87-3.2.48-.38,1.05-.66,1.73-.83-.63-.25-1.17-.59-1.64-1.02-.77-.71-1.69-2.02-1.69-4.19,0-1.75.72-3.29,2.08-4.45,1.29-1.1,2.88-1.65,4.72-1.65,1.68,0,3.11.45,4.23,1.32,1.26.98,1.92,2.41,1.92,4.13,0,1.89-.68,3.5-1.96,4.66-.86.78-1.9,1.29-3.11,1.53,1.38.69,1.92,1.95,1.92,3.16,0,.68-.11,1.99-.99,6.21-.96,4.39-1.16,6.25-1.16,7.04,0,.38.02.66.05.87.15-.11.35-.27.59-.49.83-.77,1.99-2.04,3.42-3.76,1.01-1.18,2.12-1.42,2.89-1.42,1.12,0,2.11.56,2.72,1.54.45.72.68,1.63.68,2.71,0,1.82-.48,3.3-1.44,4.41-3.7,4.52-7.23,6.74-10.76,6.74Z"/>
      <path class="cls-7" d="M87.55,59.31c-2.22,0-4-.57-5.29-1.69-1.36-1.18-1.86-2.46-2.01-3.48-1.16,1.09-2.35,1.33-3.15,1.33-1.12,0-2.09-.44-2.81-1.26-.65-.74-.99-1.69-.99-2.74,0-1.14.39-2.19,1.16-3.12l.64-.79c1.78-2.2,3.13-4.02,4.02-5.41.49-.84,1.14-2.1,1.88-3.66.75-1.58,1.49-3.24,2.21-4.95.55-1.29,2.04-3.42,5.79-3.42,1.27,0,2.12.13,2.78.43,1.08.49,1.72,1.47,1.72,2.62,0,.41-.09.89-.29,1.54-.17.56-.41,1.11-.7,1.66-.57,1.15-.66,1.81-.66,2.1,0,.02,0,.22.25.64.3.51.78,1.18,1.45,2,1.17,1.54,2.02,2.79,2.62,3.86.34.62.61,1.26.79,1.94.68-.65,1.47-1.5,2.38-2.64,1.03-1.2,2.15-1.45,2.91-1.45,1.12,0,2.11.56,2.72,1.54.45.72.68,1.63.68,2.71,0,1.72-.46,3.18-1.38,4.34-1.88,2.33-3.66,3.89-5.46,4.78-1.61.8-3.55,1.27-5.78,1.4-1.58,1.15-3.42,1.73-5.48,1.73ZM85.66,47.55c-.15.24-.29.47-.44.69.24-.02.48-.03.73-.03.04,0,.07,0,.11,0-.12-.22-.26-.44-.4-.66Z"/>
      <path class="cls-7" d="M109.15,58.21c-3.81,0-6.85-1.14-9.05-3.37-2.19-2.23-3.3-5.16-3.3-8.73,0-3.01.62-5.72,1.83-8.03,1.22-2.33,2.85-4.17,4.83-5.45,2.02-1.31,4.19-1.97,6.44-1.97,2.4,0,4.33.76,5.73,2.26,1.37,1.46,2.07,3.33,2.07,5.54,0,1.78-.42,3.34-1.24,4.62-1.25,1.96-2.93,2.38-4.11,2.38-1.09,0-2.02-.29-2.76-.88-.86-.67-1.34-1.68-1.34-2.82,0-.38.05-.79.15-1.23,0-.04.02-.08.03-.11-.3.42-.56.96-.78,1.59-.33.95-.49,2.03-.49,3.2,0,3.51,1.51,3.8,3.05,3.8,1,0,2.16-.37,3.42-1.11,1.37-.8,2.77-2.03,4.14-3.68,1.01-1.17,2.12-1.42,2.88-1.42,1.12,0,2.11.56,2.72,1.54.45.72.68,1.63.68,2.71,0,1.72-.46,3.18-1.38,4.34-1.76,2.17-3.88,3.86-6.33,5.04-2.45,1.18-4.86,1.77-7.19,1.77Z"/>
      <path class="cls-7" d="M126.7,58.21c-2.4,0-4.51-.6-6.25-1.8-1.71-1.17-3.03-2.74-3.92-4.67-.85-1.86-1.28-3.89-1.28-6.03,0-2.83.56-5.4,1.65-7.65,1.12-2.3,2.7-4.13,4.7-5.44,2.02-1.33,4.29-2,6.75-2,3.12,0,5.68,1.11,7.62,3.3,1.4,1.59,2.37,3.46,2.88,5.6,1.03-.16,2.19-.41,3.44-.74.45-.11.84-.17,1.21-.17,1.17,0,2.18.62,2.76,1.7.39.73.59,1.6.59,2.6,0,3.37-1.79,4.43-2.86,4.76-1.7.6-3.6,1-5.64,1.19-.81,2.54-2.14,4.66-3.97,6.31-2.24,2.02-4.82,3.04-7.69,3.04ZM126.37,41.12c-.58.94-.88,2.33-.88,4.14,0,1.37.24,2.41.68,3.01.48.64.79.64.92.64.35,0,.78-.08,1.29-.64.35-.39.63-.93.84-1.63-.8-.75-1.46-1.64-1.95-2.66-.44-.91-.75-1.87-.9-2.86Z"/>
      <path class="cls-7" d="M146.45,58.21c-2.01,0-3.68-.84-4.84-2.42-1.01-1.38-1.62-3.36-1.85-6.06-.4-4.71-.61-8.89-.61-12.42v-1.75c.05-1.78.62-3.07,1.68-3.89.94-.72,2.17-1.06,3.77-1.06,1.38,0,2.48.37,3.28,1.1.85.78,1.27,1.92,1.27,3.4,0,2.45.1,5.41.29,8.83.24-.39.47-.77.68-1.12-.34-1-.52-2.1-.52-3.31,0-1.42.32-2.82.94-4.15.63-1.35,1.52-2.48,2.64-3.34,1.22-.94,2.62-1.42,4.17-1.42s2.87.59,3.85,1.71c.93,1.06,1.4,2.5,1.4,4.29,0,.87-.11,1.8-.33,2.78.55-.1,1.15-.21,1.78-.34l1.31-.24c.27-.07.57-.1.95-.1,1.1,0,2.06.44,2.71,1.25.56.7.84,1.57.84,2.6,0,1.44-.32,2.64-.95,3.56-.65.95-1.6,1.63-2.82,2.04-1.74.57-3.6.85-5.53.85-1.11,0-2.19-.1-3.23-.31-.77,1.21-1.61,2.45-2.48,3.71-1.48,2.1-2.76,3.53-3.92,4.37-1.31.95-2.82,1.43-4.47,1.43Z"/>
      <path class="cls-7" d="M173.8,58.21c-4.03,0-7.24-1.15-9.55-3.42-2.32-2.28-3.5-5.38-3.5-9.23,0-2.6.56-5.05,1.65-7.3,1.12-2.29,2.7-4.14,4.7-5.5,2.04-1.39,4.38-2.1,6.95-2.1s4.5.77,6.05,2.3c1.56,1.54,2.35,3.59,2.35,6.1,0,2.84-1.03,5.31-3.06,7.34-1.04,1.04-2.41,1.95-4.14,2.73.96-.17,2.05-.58,3.26-1.25,1.68-.92,3.16-2.15,4.39-3.64,1.02-1.19,2.13-1.43,2.89-1.43,1.12,0,2.11.56,2.72,1.54.45.72.68,1.63.68,2.71,0,1.82-.48,3.3-1.44,4.41-1.35,1.65-3.3,3.2-5.76,4.59-2.54,1.43-5.3,2.16-8.21,2.16ZM173.14,39.56c-.22,0-.72.1-1.35,1.17-.23.39-.42.82-.57,1.28.36-.2.68-.41.96-.64.87-.72.97-1.32.97-1.71,0-.04,0-.07,0-.1Z"/>
      <path class="cls-7" d="M186.7,58.21c-2.11,0-3.72-1.16-4.54-3.28-.61-1.58-.91-3.91-.91-7.12,0-4.52.65-8.88,1.94-12.95.44-1.41,1.21-2.48,2.28-3.19,1.02-.68,2.32-1,3.97-1,1.07,0,1.85.18,2.46.55.51.32,1.34,1.08,1.34,2.65,0,.1,0,.21-.01.34.88-.89,1.76-1.59,2.65-2.11,1.61-.95,3.14-1.43,4.57-1.43,1.91,0,3.06.79,3.68,1.46.87.93,1.32,2.21,1.32,3.79,0,.33-.03.88-.21,1.99.51.23.98.55,1.4.97.89.89,1.36,2.05,1.36,3.34,0,.69-.15,1.41-.44,2.14-.67,1.56-1.61,2.84-2.8,3.87-1.33,1.15-2.85,1.73-4.51,1.73-1.47,0-2.78-.55-3.81-1.6-.81-.84-1.31-1.88-1.48-3.11-.31.59-.62,1.25-.93,1.96-.75,1.72-1.37,3.57-1.84,5.48-.45,1.94-.98,3.24-1.69,4.04-.86.98-2.14,1.48-3.8,1.48Z"/>
      <path class="cls-7" d="M237.75,58.21c-3.3,0-6.33-.76-9-2.25-2.71-1.51-4.88-3.76-6.46-6.67-1.55-2.87-2.34-6.31-2.34-10.23,0-5.34,1-10.14,2.97-14.26,2-4.18,4.78-7.46,8.25-9.76,3.5-2.31,7.43-3.48,11.68-3.48,3.3,0,6.33.76,9,2.25,2.71,1.52,4.88,3.76,6.46,6.67,1.55,2.87,2.34,6.31,2.34,10.23,0,5.34-1,10.14-2.97,14.26-2,4.18-4.78,7.46-8.25,9.76-3.5,2.31-7.43,3.48-11.68,3.48ZM242.35,21.46c-2.12,0-3.93.63-5.55,1.93-1.68,1.35-3.02,3.31-3.99,5.81-1.01,2.61-1.52,5.64-1.52,9.01s.69,6.09,2.05,7.76c1.28,1.57,2.88,2.34,4.9,2.34,2.15,0,3.99-.64,5.62-1.96,1.69-1.36,3.02-3.32,3.96-5.82.98-2.61,1.47-5.63,1.47-8.97s-.69-6.09-2.05-7.76c-1.28-1.57-2.88-2.34-4.9-2.34Z"/>
      <path class="cls-7" d="M277.4,58.21c-2.31,0-4.12-.97-5.23-2.81-.03-.04-.05-.09-.08-.14-.14.17-.28.33-.42.49-1.52,1.63-3.24,2.46-5.11,2.46-2.16,0-4-1.02-5.32-2.94-1.18-1.71-1.78-3.84-1.78-6.31,0-2.59.18-5.01.53-7.19.35-2.18.93-4.51,1.73-6.93.47-1.41,1.18-2.46,2.13-3.15.96-.69,2.27-1.03,4.02-1.03,1.22,0,2.13.26,2.79.8.75.62,1.16,1.54,1.16,2.6,0,.33-.05.83-.6,3.16-.33,1.24-.59,2.32-.79,3.28-.37,1.95-.61,3.36-.75,4.39.4-.74.83-1.64,1.27-2.7.81-1.94,1.61-4.38,2.39-7.25.38-1.41,1.02-2.49,1.92-3.2.91-.72,2.16-1.08,3.71-1.08,1.17,0,2.01.18,2.64.57.53.32,1.41,1.1,1.41,2.73,0,.68-.15,2.12-1.3,7.29-1,4.58-1.27,6.41-1.33,7.13.13-.1.29-.22.48-.39.84-.75,2.01-2.02,3.47-3.76,1.01-1.17,2.12-1.42,2.88-1.42,1.12,0,2.11.56,2.72,1.54.45.72.68,1.63.68,2.71,0,1.82-.48,3.3-1.44,4.41-1.51,1.86-3.21,3.46-5.01,4.69-1.98,1.36-4.25,2.05-6.76,2.05Z"/>
      <path class="cls-7" d="M288.1,58.21c-2.11,0-3.72-1.16-4.54-3.28-.61-1.58-.91-3.91-.91-7.12,0-4.52.65-8.88,1.94-12.95.44-1.41,1.21-2.48,2.28-3.19,1.02-.68,2.32-1,3.97-1,1.07,0,1.85.18,2.46.55.5.31,1.34,1.07,1.34,2.65,0,.1,0,.21-.01.34.88-.89,1.76-1.59,2.65-2.11,1.61-.95,3.14-1.43,4.57-1.43,1.91,0,3.06.79,3.68,1.45.88.93,1.32,2.21,1.32,3.8,0,.34-.03.88-.21,1.99.51.23.98.55,1.4.97.89.89,1.36,2.05,1.36,3.34,0,.68-.15,1.4-.44,2.14-.68,1.56-1.61,2.85-2.8,3.87-1.34,1.15-2.85,1.74-4.51,1.74-1.47,0-2.79-.56-3.81-1.6-.81-.83-1.31-1.88-1.48-3.11-.31.59-.62,1.25-.93,1.96-.75,1.72-1.37,3.56-1.84,5.48-.45,1.94-.98,3.23-1.69,4.04-.86.99-2.14,1.48-3.81,1.48Z"/>
      <path class="cls-7" d="M331.1,58.36c-2.58,0-4.99-.57-7.17-1.7-2.21-1.14-3.88-2.58-4.96-4.27-.57-.89-.87-1.94-.87-3.13s.3-2.25.89-3.18c.75-1.18,1.86-1.82,3.11-1.82.81,0,1.59.25,2.32.76.57.39,1.17,1.02,1.91,1.96,1.24,1.63,2.63,2.38,4.38,2.38,1.3,0,2.33-.51,3.24-1.6,1.02-1.24,1.71-3.35,2.03-6.27l.06-.53h-.17c-1.22,0-2.31-.36-3.21-1.08-.72-.57-1.59-1.63-1.59-3.42,0-1.57.46-2.84,1.37-3.77.92-.95,2.19-1.43,3.78-1.43.32,0,.63,0,.95,0,.28-2.65.58-5.7.89-9.12-2.48.37-3.75.84-4.4,1.21-.84.48-1.19,1.05-1.19,1.96,0,.75.22,1.46.68,2.17.41.61.62,1.28.62,1.98,0,.9-.33,2.18-1.88,3.23-1,.68-2.13,1.02-3.37,1.02-1.38,0-2.59-.43-3.59-1.27-.69-.57-1.24-1.5-1.75-2.91-.44-1.24-.67-2.63-.67-4.12,0-4.91,2.62-8.66,7.57-10.83,4.55-2,10.9-2.97,19.43-2.97,5.73,0,10.87.31,15.27.92,1.46.21,2.53.74,3.21,1.57.64.8.97,1.79.97,2.96,0,3.27-1.95,5.22-5.22,5.22-.2,0-.41,0-.62-.02l-1.79-.15c-1.93-.16-3.89-.3-5.81-.4-1.9-.1-3.93-.15-6.02-.15h-.41c-.28,3.33-.57,6.5-.87,9.46l6.34-.11c1.85,0,3.13.41,3.95,1.26.54.56,1.18,1.56,1.18,3.14,0,2.1-.87,3.39-1.6,4.11-1.05,1.02-2.48,1.54-4.25,1.54h-6.81l-.06.43c-.76,5.98-2.41,10.19-5.03,12.87-2.66,2.72-6.32,4.1-10.85,4.1Z"/>
      <path class="cls-7" d="M367.15,58.21c-3.67,0-6.53-1.75-8.29-5.06-1.56-2.95-2.36-6.74-2.36-11.29,0-4.18.54-8.99,1.62-14.3,1.08-5.38,2.72-10.07,4.86-13.97,2.42-4.4,5.47-6.64,9.08-6.64,2.3,0,4.19,1.1,5.48,3.17,1.13,1.82,1.67,4.25,1.67,7.43,0,4.22-1.16,9.12-3.46,14.58-2.15,5.11-5.06,10.23-8.65,15.23.2.75.41,1.04.48,1.12.1.11.24.23.62.23.93,0,1.71-.25,2.39-.77.91-.69,2.13-1.94,3.63-3.72,1-1.17,2.12-1.41,2.88-1.41,1.12,0,2.11.56,2.72,1.54.45.72.68,1.63.68,2.71,0,1.82-.48,3.3-1.44,4.41-1.51,1.86-3.23,3.46-5.07,4.7-2.01,1.35-4.31,2.04-6.84,2.04ZM370.23,18.72c-.93,2.65-1.76,6.01-2.47,9.99-.07.38-.13.76-.19,1.13.28-.7.54-1.39.79-2.08,1.21-3.39,1.87-6.52,1.97-9.32-.03.09-.07.18-.1.28Z"/>
      <path class="cls-7" d="M391.75,58.21c-1.57,0-3.01-.53-4.29-1.58-.39-.32-.75-.67-1.07-1.06-1.78,1.75-3.88,2.64-6.29,2.64-2.65,0-4.89-1.03-6.49-2.98-1.53-1.86-2.31-4.27-2.31-7.17s.7-5.84,2.07-8.49c1.38-2.66,3.24-4.83,5.55-6.46,2.39-1.69,4.97-2.54,7.68-2.54,1.35,0,2.32.36,2.97,1.1.17.2.33.42.47.68.28-.02.57-.03.86-.03,3.28,0,4.45,1.94,4.45,3.75,0,.58-.09,1.71-.79,5.37-.71,3.57-.99,5.63-1.08,6.8.08-.07.17-.15.27-.23.83-.75,1.99-2.02,3.46-3.78,1.01-1.17,2.12-1.42,2.88-1.42,1.12,0,2.11.56,2.72,1.54.45.72.68,1.63.68,2.71,0,1.82-.48,3.3-1.44,4.41-1.42,1.76-3,3.32-4.65,4.58-1.88,1.43-3.79,2.16-5.66,2.16ZM384.61,40.4c-.89.8-1.62,1.87-2.18,3.19-.59,1.41-.89,2.94-.89,4.52,0,.78.16,1.02.16,1.02,0,0,.05.03.19.03-.01,0,.19-.09.52-.52.48-.62.84-1.51,1.08-2.64l1.13-5.6Z"/>
      <path class="cls-7" d="M403.34,58.21c-2,0-3.68-.84-4.84-2.42-1.01-1.38-1.62-3.36-1.85-6.06-.4-4.7-.61-8.88-.61-12.42v-1.75c.05-1.79.62-3.07,1.69-3.89.94-.71,2.17-1.06,3.76-1.06,1.38,0,2.48.37,3.28,1.1.84.78,1.27,1.92,1.27,3.4,0,2.44.1,5.4.29,8.83.24-.39.47-.77.68-1.12-.34-1-.52-2.1-.52-3.31,0-1.42.32-2.82.94-4.15.63-1.35,1.52-2.48,2.64-3.34,1.22-.94,2.62-1.42,4.17-1.42s2.87.59,3.85,1.71c.93,1.06,1.4,2.5,1.4,4.29,0,.87-.11,1.8-.33,2.78.55-.1,1.15-.21,1.78-.34l1.31-.24c.27-.07.57-.1.95-.1,1.1,0,2.07.44,2.71,1.25.56.7.84,1.57.84,2.6,0,1.44-.32,2.64-.95,3.56-.65.95-1.6,1.64-2.82,2.04-1.74.57-3.59.85-5.53.85-1.11,0-2.19-.1-3.23-.31-.77,1.21-1.61,2.45-2.48,3.71-1.47,2.1-2.75,3.53-3.91,4.37-1.31.95-2.82,1.43-4.47,1.43Z"/>
      <path class="cls-7" d="M429.09,58.21c-2.4,0-4.5-.6-6.25-1.8-1.71-1.17-3.03-2.74-3.92-4.67-.85-1.86-1.28-3.89-1.28-6.03,0-2.83.56-5.4,1.65-7.65,1.12-2.3,2.7-4.13,4.7-5.44,2.02-1.33,4.29-2,6.75-2,3.12,0,5.68,1.11,7.62,3.3,1.4,1.59,2.37,3.46,2.88,5.6,1.04-.16,2.19-.41,3.44-.74.45-.11.84-.17,1.21-.17,1.17,0,2.18.62,2.76,1.7.39.73.59,1.6.59,2.6,0,3.37-1.79,4.43-2.86,4.76-1.7.6-3.6,1-5.64,1.19-.81,2.54-2.14,4.66-3.97,6.31-2.24,2.02-4.82,3.04-7.69,3.04ZM428.77,41.12c-.58.94-.88,2.33-.88,4.14,0,1.37.24,2.41.68,3.01.48.64.79.64.92.64.35,0,.78-.08,1.29-.64.35-.39.63-.93.84-1.63-.8-.75-1.46-1.64-1.95-2.66-.44-.91-.75-1.87-.9-2.86Z"/>
      <path class="cls-7" d="M446.49,58.21c-2.11,0-3.72-1.16-4.54-3.28-.61-1.58-.91-3.91-.91-7.12,0-4.52.65-8.88,1.94-12.95.44-1.41,1.21-2.48,2.28-3.19,1.02-.68,2.32-1,3.97-1,1.07,0,1.85.18,2.46.55.51.32,1.34,1.08,1.34,2.65,0,.1,0,.21-.01.34.88-.89,1.76-1.59,2.65-2.11,1.61-.95,3.14-1.43,4.57-1.43,1.91,0,3.06.79,3.68,1.46.87.93,1.32,2.21,1.32,3.79,0,.33-.03.88-.21,1.99.51.23.98.55,1.4.97.89.89,1.36,2.05,1.36,3.34,0,.69-.15,1.41-.44,2.14-.67,1.56-1.61,2.84-2.8,3.87-1.33,1.15-2.85,1.73-4.51,1.73-1.47,0-2.78-.55-3.81-1.6-.81-.84-1.31-1.88-1.48-3.11-.31.59-.62,1.25-.93,1.96-.75,1.72-1.37,3.57-1.84,5.48-.45,1.94-.98,3.24-1.69,4.04-.86.98-2.14,1.48-3.8,1.48Z"/>
      <path class="cls-7" d="M475.74,59.31c-2.22,0-4-.57-5.29-1.69-1.36-1.18-1.86-2.46-2.01-3.48-1.16,1.09-2.35,1.33-3.15,1.33-1.12,0-2.09-.44-2.81-1.26-.65-.74-.99-1.69-.99-2.74,0-1.14.39-2.19,1.16-3.12l.64-.79c1.78-2.2,3.13-4.02,4.02-5.41.54-.87,1.12-1.96,1.7-3.22.61-1.31,1.42-3.13,2.41-5.41.55-1.27,2.03-3.4,5.78-3.4,1.27,0,2.12.13,2.78.43,1.08.49,1.72,1.47,1.72,2.62,0,.41-.09.89-.29,1.54-.17.56-.41,1.11-.7,1.66-.57,1.15-.66,1.81-.66,2.1,0,.02,0,.22.25.64.3.51.78,1.18,1.45,2,1.17,1.54,2.02,2.79,2.62,3.86.72,1.28,1.08,2.7,1.08,4.2,0,1.72-.4,3.37-1.2,4.9-.81,1.55-1.95,2.82-3.4,3.77-1.5.98-3.21,1.48-5.1,1.48ZM473.85,47.55c-.15.24-.29.47-.44.69.24-.02.48-.03.73-.03.04,0,.07,0,.11,0-.12-.22-.26-.44-.4-.66Z"/>
      <path class="cls-7" d="M491.34,58.21c-2.04,0-3.64-.62-4.78-1.83-1.11-1.18-1.67-2.7-1.67-4.52,0-2.02.61-3.69,1.82-4.97.88-.93,1.98-1.53,3.29-1.81-.69-.67-1.06-1.6-1.06-2.67v-.12l.07-.52c.58-3.8,1.36-8.12,2.32-12.9.97-4.79,1.88-8.96,2.72-12.42.76-3.06,3-4.73,6.29-4.73,4.83,0,5.2,3.1,5.2,4.05,0,.48-.07.99-.22,1.53-.86,3.5-2.02,7.83-3.46,12.84-1.44,5.02-2.83,9.46-4.14,13.19-.4,1.15-1.18,2.01-2.24,2.49.35.21.67.45.96.73,1.16,1.11,1.74,2.66,1.74,4.62s-.62,3.75-1.85,5.05c-1.26,1.33-2.94,2-5,2Z"/>
    </g>
    <g>
      <path class="cls-7" d="M36.65,57.21c-2.01,0-4.31-.17-6.82-.52-1.8-.23-3.1-.77-3.94-1.66-.89-.95-1.29-2.32-1.19-4.08.24-3.38.8-7.56,1.68-12.46.87-4.89,1.95-9.66,3.19-14.2.21-.76.56-1.41,1.03-1.95-.97.47-1.89.99-2.76,1.55-.73.5-1.58.77-2.49.77-1.23,0-2.29-.56-3-1.59-.57-.82-.85-1.8-.85-2.91s.21-2.09.62-2.89c.42-.81,1.09-1.54,2-2.16,2.48-1.69,5.41-2.99,8.72-3.86,3.25-.86,6.44-1.29,9.46-1.29,4.35,0,8.19.78,11.41,2.32,3.32,1.59,5.92,3.95,7.71,7.02,1.78,3.03,2.67,6.7,2.67,10.91,0,5.34-1.09,10.09-3.24,14.12-2.18,4.08-5.4,7.3-9.57,9.54-4.11,2.22-9.04,3.34-14.65,3.34ZM36.15,47.54c.39.01.79.02,1.2.02,5.25,0,9.02-1.49,11.52-4.56,2.57-3.15,3.88-7.49,3.88-12.89,0-3.43-.91-5.96-2.78-7.75-1.9-1.81-4.59-2.7-8.22-2.7-2.17,0-4.34.3-6.48.91.13,0,.25,0,.38,0,4.69,0,5.05,2.83,5.05,3.7,0,.69-.13,1.42-.4,2.23-.83,2.56-1.69,6.09-2.53,10.47-.71,3.65-1.25,7.2-1.62,10.58Z"/>
      <path class="cls-7" d="M71.1,57.21c-3.59,0-5.47-1.75-6.41-3.22-1.19-1.85-1.79-4.27-1.79-7.18,0-1.6.2-3.65.6-6.1.39-2.42.91-4.71,1.53-6.82.41-1.47,1.03-2.52,1.87-3.2.48-.38,1.05-.66,1.73-.83-.63-.25-1.17-.59-1.64-1.02-.77-.71-1.69-2.02-1.69-4.19,0-1.75.72-3.29,2.08-4.45,1.29-1.1,2.88-1.65,4.72-1.65,1.68,0,3.11.45,4.23,1.32,1.26.98,1.92,2.41,1.92,4.13,0,1.89-.68,3.5-1.96,4.66-.86.78-1.9,1.29-3.11,1.53,1.38.69,1.92,1.95,1.92,3.16,0,.68-.11,1.99-.99,6.21-.96,4.39-1.16,6.25-1.16,7.04,0,.38.02.66.05.87.15-.11.35-.27.59-.49.83-.77,1.99-2.04,3.42-3.76,1.01-1.18,2.12-1.42,2.89-1.42,1.12,0,2.11.56,2.72,1.54.45.72.68,1.63.68,2.71,0,1.82-.48,3.3-1.44,4.41-3.7,4.52-7.23,6.74-10.76,6.74Z"/>
      <path class="cls-7" d="M86.55,58.31c-2.22,0-4-.57-5.29-1.69-1.36-1.18-1.86-2.46-2.01-3.48-1.16,1.09-2.35,1.33-3.15,1.33-1.12,0-2.09-.44-2.81-1.26-.65-.74-.99-1.69-.99-2.74,0-1.14.39-2.19,1.16-3.12l.64-.79c1.78-2.2,3.13-4.02,4.02-5.41.49-.84,1.14-2.1,1.88-3.66.75-1.58,1.49-3.24,2.21-4.95.55-1.29,2.04-3.42,5.79-3.42,1.27,0,2.12.13,2.78.43,1.08.49,1.72,1.47,1.72,2.62,0,.41-.09.89-.29,1.54-.17.56-.41,1.11-.7,1.66-.57,1.15-.66,1.81-.66,2.1,0,.02,0,.22.25.64.3.51.78,1.18,1.45,2,1.17,1.54,2.02,2.79,2.62,3.86.34.62.61,1.26.79,1.94.68-.65,1.47-1.5,2.38-2.64,1.03-1.2,2.15-1.45,2.91-1.45,1.12,0,2.11.56,2.72,1.54.45.72.68,1.63.68,2.71,0,1.72-.46,3.18-1.38,4.34-1.88,2.33-3.66,3.89-5.46,4.78-1.61.8-3.55,1.27-5.78,1.4-1.58,1.15-3.42,1.73-5.48,1.73ZM84.66,46.55c-.15.24-.29.47-.44.69.24-.02.48-.03.73-.03.04,0,.07,0,.11,0-.12-.22-.26-.44-.4-.66Z"/>
      <path class="cls-7" d="M108.15,57.21c-3.81,0-6.85-1.14-9.05-3.37-2.19-2.23-3.3-5.16-3.3-8.73,0-3.01.62-5.72,1.83-8.03,1.22-2.33,2.85-4.17,4.83-5.45,2.02-1.31,4.19-1.97,6.44-1.97,2.4,0,4.33.76,5.73,2.26,1.37,1.46,2.07,3.33,2.07,5.54,0,1.78-.42,3.34-1.24,4.62-1.25,1.96-2.93,2.38-4.11,2.38-1.09,0-2.02-.29-2.76-.88-.86-.67-1.34-1.68-1.34-2.82,0-.38.05-.79.15-1.23,0-.04.02-.08.03-.11-.3.42-.56.96-.78,1.59-.33.95-.49,2.03-.49,3.2,0,3.51,1.51,3.8,3.05,3.8,1,0,2.16-.37,3.42-1.11,1.37-.8,2.77-2.03,4.14-3.68,1.01-1.17,2.12-1.42,2.88-1.42,1.12,0,2.11.56,2.72,1.54.45.72.68,1.63.68,2.71,0,1.72-.46,3.18-1.38,4.34-1.76,2.17-3.88,3.86-6.33,5.04-2.45,1.18-4.86,1.77-7.19,1.77Z"/>
      <path class="cls-7" d="M125.7,57.21c-2.4,0-4.51-.6-6.25-1.8-1.71-1.17-3.03-2.74-3.92-4.67-.85-1.86-1.28-3.89-1.28-6.03,0-2.83.56-5.4,1.65-7.65,1.12-2.3,2.7-4.13,4.7-5.44,2.02-1.33,4.29-2,6.75-2,3.12,0,5.68,1.11,7.62,3.3,1.4,1.59,2.37,3.46,2.88,5.6,1.03-.16,2.19-.41,3.44-.74.45-.11.84-.17,1.21-.17,1.17,0,2.18.62,2.76,1.7.39.73.59,1.6.59,2.6,0,3.37-1.79,4.43-2.86,4.76-1.7.6-3.6,1-5.64,1.19-.81,2.54-2.14,4.66-3.97,6.31-2.24,2.02-4.82,3.04-7.69,3.04ZM125.37,40.12c-.58.94-.88,2.33-.88,4.14,0,1.37.24,2.41.68,3.01.48.64.79.64.92.64.35,0,.78-.08,1.29-.64.35-.39.63-.93.84-1.63-.8-.75-1.46-1.64-1.95-2.66-.44-.91-.75-1.87-.9-2.86Z"/>
      <path class="cls-7" d="M145.45,57.21c-2.01,0-3.68-.84-4.84-2.42-1.01-1.38-1.62-3.36-1.85-6.06-.4-4.71-.61-8.89-.61-12.42v-1.75c.05-1.78.62-3.07,1.68-3.89.94-.72,2.17-1.06,3.77-1.06,1.38,0,2.48.37,3.28,1.1.85.78,1.27,1.92,1.27,3.4,0,2.45.1,5.41.29,8.83.24-.39.47-.77.68-1.12-.34-1-.52-2.1-.52-3.31,0-1.42.32-2.82.94-4.15.63-1.35,1.52-2.48,2.64-3.34,1.22-.94,2.62-1.42,4.17-1.42s2.87.59,3.85,1.71c.93,1.06,1.4,2.5,1.4,4.29,0,.87-.11,1.8-.33,2.78.55-.1,1.15-.21,1.78-.34l1.31-.24c.27-.07.57-.1.95-.1,1.1,0,2.06.44,2.71,1.25.56.7.84,1.57.84,2.6,0,1.44-.32,2.64-.95,3.56-.65.95-1.6,1.63-2.82,2.04-1.74.57-3.6.85-5.53.85-1.11,0-2.19-.1-3.23-.31-.77,1.21-1.61,2.45-2.48,3.71-1.48,2.1-2.76,3.53-3.92,4.37-1.31.95-2.82,1.43-4.47,1.43Z"/>
      <path class="cls-7" d="M172.8,57.21c-4.03,0-7.24-1.15-9.55-3.42-2.32-2.28-3.5-5.38-3.5-9.23,0-2.6.56-5.05,1.65-7.3,1.12-2.29,2.7-4.14,4.7-5.5,2.04-1.39,4.38-2.1,6.95-2.1s4.5.77,6.05,2.3c1.56,1.54,2.35,3.59,2.35,6.1,0,2.84-1.03,5.31-3.06,7.34-1.04,1.04-2.41,1.95-4.14,2.73.96-.17,2.05-.58,3.26-1.25,1.68-.92,3.16-2.15,4.39-3.64,1.02-1.19,2.13-1.43,2.89-1.43,1.12,0,2.11.56,2.72,1.54.45.72.68,1.63.68,2.71,0,1.82-.48,3.3-1.44,4.41-1.35,1.65-3.3,3.2-5.76,4.59-2.54,1.43-5.3,2.16-8.21,2.16ZM172.14,38.56c-.22,0-.72.1-1.35,1.17-.23.39-.42.82-.57,1.28.36-.2.68-.41.96-.64.87-.72.97-1.32.97-1.71,0-.04,0-.07,0-.1Z"/>
      <path class="cls-7" d="M185.7,57.21c-2.11,0-3.72-1.16-4.54-3.28-.61-1.58-.91-3.91-.91-7.12,0-4.52.65-8.88,1.94-12.95.44-1.41,1.21-2.48,2.28-3.19,1.02-.68,2.32-1,3.97-1,1.07,0,1.85.18,2.46.55.51.32,1.34,1.08,1.34,2.65,0,.1,0,.21-.01.34.88-.89,1.76-1.59,2.65-2.11,1.61-.95,3.14-1.43,4.57-1.43,1.91,0,3.06.79,3.68,1.46.87.93,1.32,2.21,1.32,3.79,0,.33-.03.88-.21,1.99.51.23.98.55,1.4.97.89.89,1.36,2.05,1.36,3.34,0,.69-.15,1.41-.44,2.14-.67,1.56-1.61,2.84-2.8,3.87-1.33,1.15-2.85,1.73-4.51,1.73-1.47,0-2.78-.55-3.81-1.6-.81-.84-1.31-1.88-1.48-3.11-.31.59-.62,1.25-.93,1.96-.75,1.72-1.37,3.57-1.84,5.48-.45,1.94-.98,3.24-1.69,4.04-.86.98-2.14,1.48-3.8,1.48Z"/>
      <path class="cls-7" d="M236.75,57.21c-3.3,0-6.33-.76-9-2.25-2.71-1.51-4.88-3.76-6.46-6.67-1.55-2.87-2.34-6.31-2.34-10.23,0-5.34,1-10.14,2.97-14.26,2-4.18,4.78-7.46,8.25-9.76,3.5-2.31,7.43-3.48,11.68-3.48,3.3,0,6.33.76,9,2.25,2.71,1.52,4.88,3.76,6.46,6.67,1.55,2.87,2.34,6.31,2.34,10.23,0,5.34-1,10.14-2.97,14.26-2,4.18-4.78,7.46-8.25,9.76-3.5,2.31-7.43,3.48-11.68,3.48ZM241.35,20.46c-2.12,0-3.93.63-5.55,1.93-1.68,1.35-3.02,3.31-3.99,5.81-1.01,2.61-1.52,5.64-1.52,9.01s.69,6.09,2.05,7.76c1.28,1.57,2.88,2.34,4.9,2.34,2.15,0,3.99-.64,5.62-1.96,1.69-1.36,3.02-3.32,3.96-5.82.98-2.61,1.47-5.63,1.47-8.97s-.69-6.09-2.05-7.76c-1.28-1.57-2.88-2.34-4.9-2.34Z"/>
      <path class="cls-7" d="M276.4,57.21c-2.31,0-4.12-.97-5.23-2.81-.03-.04-.05-.09-.08-.14-.14.17-.28.33-.42.49-1.52,1.63-3.24,2.46-5.11,2.46-2.16,0-4-1.02-5.32-2.94-1.18-1.71-1.78-3.84-1.78-6.31,0-2.59.18-5.01.53-7.19.35-2.18.93-4.51,1.73-6.93.47-1.41,1.18-2.46,2.13-3.15.96-.69,2.27-1.03,4.02-1.03,1.22,0,2.13.26,2.79.8.75.62,1.16,1.54,1.16,2.6,0,.33-.05.83-.6,3.16-.33,1.24-.59,2.32-.79,3.28-.37,1.95-.61,3.36-.75,4.39.4-.74.83-1.64,1.27-2.7.81-1.94,1.61-4.38,2.39-7.25.38-1.41,1.02-2.49,1.92-3.2.91-.72,2.16-1.08,3.71-1.08,1.17,0,2.01.18,2.64.57.53.32,1.41,1.1,1.41,2.73,0,.68-.15,2.12-1.3,7.29-1,4.58-1.27,6.41-1.33,7.13.13-.1.29-.22.48-.39.84-.75,2.01-2.02,3.47-3.76,1.01-1.17,2.12-1.42,2.88-1.42,1.12,0,2.11.56,2.72,1.54.45.72.68,1.63.68,2.71,0,1.82-.48,3.3-1.44,4.41-1.51,1.86-3.21,3.46-5.01,4.69-1.98,1.36-4.25,2.05-6.76,2.05Z"/>
      <path class="cls-7" d="M287.1,57.21c-2.11,0-3.72-1.16-4.54-3.28-.61-1.58-.91-3.91-.91-7.12,0-4.52.65-8.88,1.94-12.95.44-1.41,1.21-2.48,2.28-3.19,1.02-.68,2.32-1,3.97-1,1.07,0,1.85.18,2.46.55.5.31,1.34,1.07,1.34,2.65,0,.1,0,.21-.01.34.88-.89,1.76-1.59,2.65-2.11,1.61-.95,3.14-1.43,4.57-1.43,1.91,0,3.06.79,3.68,1.45.88.93,1.32,2.21,1.32,3.8,0,.34-.03.88-.21,1.99.51.23.98.55,1.4.97.89.89,1.36,2.05,1.36,3.34,0,.68-.15,1.4-.44,2.14-.68,1.56-1.61,2.85-2.8,3.87-1.34,1.15-2.85,1.74-4.51,1.74-1.47,0-2.79-.56-3.81-1.6-.81-.83-1.31-1.88-1.48-3.11-.31.59-.62,1.25-.93,1.96-.75,1.72-1.37,3.56-1.84,5.48-.45,1.94-.98,3.23-1.69,4.04-.86.99-2.14,1.48-3.81,1.48Z"/>
      <path class="cls-7" d="M330.1,57.36c-2.58,0-4.99-.57-7.17-1.7-2.21-1.14-3.88-2.58-4.96-4.27-.57-.89-.87-1.94-.87-3.13s.3-2.25.89-3.18c.75-1.18,1.86-1.82,3.11-1.82.81,0,1.59.25,2.32.76.57.39,1.17,1.02,1.91,1.96,1.24,1.63,2.63,2.38,4.38,2.38,1.3,0,2.33-.51,3.24-1.6,1.02-1.24,1.71-3.35,2.03-6.27l.06-.53h-.17c-1.22,0-2.31-.36-3.21-1.08-.72-.57-1.59-1.63-1.59-3.42,0-1.57.46-2.84,1.37-3.77.92-.95,2.19-1.43,3.78-1.43.32,0,.63,0,.95,0,.28-2.65.58-5.7.89-9.12-2.48.37-3.75.84-4.4,1.21-.84.48-1.19,1.05-1.19,1.96,0,.75.22,1.46.68,2.17.41.61.62,1.28.62,1.98,0,.9-.33,2.18-1.88,3.23-1,.68-2.13,1.02-3.37,1.02-1.38,0-2.59-.43-3.59-1.27-.69-.57-1.24-1.5-1.75-2.91-.44-1.24-.67-2.63-.67-4.12,0-4.91,2.62-8.66,7.57-10.83,4.55-2,10.9-2.97,19.43-2.97,5.73,0,10.87.31,15.27.92,1.46.21,2.53.74,3.21,1.57.64.8.97,1.79.97,2.96,0,3.27-1.95,5.22-5.22,5.22-.2,0-.41,0-.62-.02l-1.79-.15c-1.93-.16-3.89-.3-5.81-.4-1.9-.1-3.93-.15-6.02-.15h-.41c-.28,3.33-.57,6.5-.87,9.46l6.34-.11c1.85,0,3.13.41,3.95,1.26.54.56,1.18,1.56,1.18,3.14,0,2.1-.87,3.39-1.6,4.11-1.05,1.02-2.48,1.54-4.25,1.54h-6.81l-.06.43c-.76,5.98-2.41,10.19-5.03,12.87-2.66,2.72-6.32,4.1-10.85,4.1Z"/>
      <path class="cls-7" d="M366.15,57.21c-3.67,0-6.53-1.75-8.29-5.06-1.56-2.95-2.36-6.74-2.36-11.29,0-4.18.54-8.99,1.62-14.3,1.08-5.38,2.72-10.07,4.86-13.97,2.42-4.4,5.47-6.64,9.08-6.64,2.3,0,4.19,1.1,5.48,3.17,1.13,1.82,1.67,4.25,1.67,7.43,0,4.22-1.16,9.12-3.46,14.58-2.15,5.11-5.06,10.23-8.65,15.23.2.75.41,1.04.48,1.12.1.11.24.23.62.23.93,0,1.71-.25,2.39-.77.91-.69,2.13-1.94,3.63-3.72,1-1.17,2.12-1.41,2.88-1.41,1.12,0,2.11.56,2.72,1.54.45.72.68,1.63.68,2.71,0,1.82-.48,3.3-1.44,4.41-1.51,1.86-3.23,3.46-5.07,4.7-2.01,1.35-4.31,2.04-6.84,2.04ZM369.23,17.72c-.93,2.65-1.76,6.01-2.47,9.99-.07.38-.13.76-.19,1.13.28-.7.54-1.39.79-2.08,1.21-3.39,1.87-6.52,1.97-9.32-.03.09-.07.18-.1.28Z"/>
      <path class="cls-7" d="M390.75,57.21c-1.57,0-3.01-.53-4.29-1.58-.39-.32-.75-.67-1.07-1.06-1.78,1.75-3.88,2.64-6.29,2.64-2.65,0-4.89-1.03-6.49-2.98-1.53-1.86-2.31-4.27-2.31-7.17s.7-5.84,2.07-8.49c1.38-2.66,3.24-4.83,5.55-6.46,2.39-1.69,4.97-2.54,7.68-2.54,1.35,0,2.32.36,2.97,1.1.17.2.33.42.47.68.28-.02.57-.03.86-.03,3.28,0,4.45,1.94,4.45,3.75,0,.58-.09,1.71-.79,5.37-.71,3.57-.99,5.63-1.08,6.8.08-.07.17-.15.27-.23.83-.75,1.99-2.02,3.46-3.78,1.01-1.17,2.12-1.42,2.88-1.42,1.12,0,2.11.56,2.72,1.54.45.72.68,1.63.68,2.71,0,1.82-.48,3.3-1.44,4.41-1.42,1.76-3,3.32-4.65,4.58-1.88,1.43-3.79,2.16-5.66,2.16ZM383.61,39.4c-.89.8-1.62,1.87-2.18,3.19-.59,1.41-.89,2.94-.89,4.52,0,.78.16,1.02.16,1.02,0,0,.05.03.19.03-.01,0,.19-.09.52-.52.48-.62.84-1.51,1.08-2.64l1.13-5.6Z"/>
      <path class="cls-7" d="M402.34,57.21c-2,0-3.68-.84-4.84-2.42-1.01-1.38-1.62-3.36-1.85-6.06-.4-4.7-.61-8.88-.61-12.42v-1.75c.05-1.79.62-3.07,1.69-3.89.94-.71,2.17-1.06,3.76-1.06,1.38,0,2.48.37,3.28,1.1.84.78,1.27,1.92,1.27,3.4,0,2.44.1,5.4.29,8.83.24-.39.47-.77.68-1.12-.34-1-.52-2.1-.52-3.31,0-1.42.32-2.82.94-4.15.63-1.35,1.52-2.48,2.64-3.34,1.22-.94,2.62-1.42,4.17-1.42s2.87.59,3.85,1.71c.93,1.06,1.4,2.5,1.4,4.29,0,.87-.11,1.8-.33,2.78.55-.1,1.15-.21,1.78-.34l1.31-.24c.27-.07.57-.1.95-.1,1.1,0,2.07.44,2.71,1.25.56.7.84,1.57.84,2.6,0,1.44-.32,2.64-.95,3.56-.65.95-1.6,1.64-2.82,2.04-1.74.57-3.59.85-5.53.85-1.11,0-2.19-.1-3.23-.31-.77,1.21-1.61,2.45-2.48,3.71-1.47,2.1-2.75,3.53-3.91,4.37-1.31.95-2.82,1.43-4.47,1.43Z"/>
      <path class="cls-7" d="M428.09,57.21c-2.4,0-4.5-.6-6.25-1.8-1.71-1.17-3.03-2.74-3.92-4.67-.85-1.86-1.28-3.89-1.28-6.03,0-2.83.56-5.4,1.65-7.65,1.12-2.3,2.7-4.13,4.7-5.44,2.02-1.33,4.29-2,6.75-2,3.12,0,5.68,1.11,7.62,3.3,1.4,1.59,2.37,3.46,2.88,5.6,1.04-.16,2.19-.41,3.44-.74.45-.11.84-.17,1.21-.17,1.17,0,2.18.62,2.76,1.7.39.73.59,1.6.59,2.6,0,3.37-1.79,4.43-2.86,4.76-1.7.6-3.6,1-5.64,1.19-.81,2.54-2.14,4.66-3.97,6.31-2.24,2.02-4.82,3.04-7.69,3.04ZM427.77,40.12c-.58.94-.88,2.33-.88,4.14,0,1.37.24,2.41.68,3.01.48.64.79.64.92.64.35,0,.78-.08,1.29-.64.35-.39.63-.93.84-1.63-.8-.75-1.46-1.64-1.95-2.66-.44-.91-.75-1.87-.9-2.86Z"/>
      <path class="cls-7" d="M445.49,57.21c-2.11,0-3.72-1.16-4.54-3.28-.61-1.58-.91-3.91-.91-7.12,0-4.52.65-8.88,1.94-12.95.44-1.41,1.21-2.48,2.28-3.19,1.02-.68,2.32-1,3.97-1,1.07,0,1.85.18,2.46.55.51.32,1.34,1.08,1.34,2.65,0,.1,0,.21-.01.34.88-.89,1.76-1.59,2.65-2.11,1.61-.95,3.14-1.43,4.57-1.43,1.91,0,3.06.79,3.68,1.46.87.93,1.32,2.21,1.32,3.79,0,.33-.03.88-.21,1.99.51.23.98.55,1.4.97.89.89,1.36,2.05,1.36,3.34,0,.69-.15,1.41-.44,2.14-.67,1.56-1.61,2.84-2.8,3.87-1.33,1.15-2.85,1.73-4.51,1.73-1.47,0-2.78-.55-3.81-1.6-.81-.84-1.31-1.88-1.48-3.11-.31.59-.62,1.25-.93,1.96-.75,1.72-1.37,3.57-1.84,5.48-.45,1.94-.98,3.24-1.69,4.04-.86.98-2.14,1.48-3.8,1.48Z"/>
      <path class="cls-7" d="M474.74,58.31c-2.22,0-4-.57-5.29-1.69-1.36-1.18-1.86-2.46-2.01-3.48-1.16,1.09-2.35,1.33-3.15,1.33-1.12,0-2.09-.44-2.81-1.26-.65-.74-.99-1.69-.99-2.74,0-1.14.39-2.19,1.16-3.12l.64-.79c1.78-2.2,3.13-4.02,4.02-5.41.54-.87,1.12-1.96,1.7-3.22.61-1.31,1.42-3.13,2.41-5.41.55-1.27,2.03-3.4,5.78-3.4,1.27,0,2.12.13,2.78.43,1.08.49,1.72,1.47,1.72,2.62,0,.41-.09.89-.29,1.54-.17.56-.41,1.11-.7,1.66-.57,1.15-.66,1.81-.66,2.1,0,.02,0,.22.25.64.3.51.78,1.18,1.45,2,1.17,1.54,2.02,2.79,2.62,3.86.72,1.28,1.08,2.7,1.08,4.2,0,1.72-.4,3.37-1.2,4.9-.81,1.55-1.95,2.82-3.4,3.77-1.5.98-3.21,1.48-5.1,1.48ZM472.85,46.55c-.15.24-.29.47-.44.69.24-.02.48-.03.73-.03.04,0,.07,0,.11,0-.12-.22-.26-.44-.4-.66Z"/>
      <path class="cls-7" d="M490.34,57.21c-2.04,0-3.64-.62-4.78-1.83-1.11-1.18-1.67-2.7-1.67-4.52,0-2.02.61-3.69,1.82-4.97.88-.93,1.98-1.53,3.29-1.81-.69-.67-1.06-1.6-1.06-2.67v-.12l.07-.52c.58-3.8,1.36-8.12,2.32-12.9.97-4.79,1.88-8.96,2.72-12.42.76-3.06,3-4.73,6.29-4.73,4.83,0,5.2,3.1,5.2,4.05,0,.48-.07.99-.22,1.53-.86,3.5-2.02,7.83-3.46,12.84-1.44,5.02-2.83,9.46-4.14,13.19-.4,1.15-1.18,2.01-2.24,2.49.35.21.67.45.96.73,1.16,1.11,1.74,2.66,1.74,4.62s-.62,3.75-1.85,5.05c-1.26,1.33-2.94,2-5,2Z"/>
    </g>
    <g>
      <path class="cls-7" d="M35.65,56.21c-2.01,0-4.31-.17-6.82-.52-1.8-.23-3.1-.77-3.94-1.66-.89-.95-1.29-2.32-1.19-4.08.24-3.38.8-7.56,1.68-12.46.87-4.89,1.95-9.66,3.19-14.2.21-.76.56-1.41,1.03-1.95-.97.47-1.89.99-2.76,1.55-.73.5-1.58.77-2.49.77-1.23,0-2.29-.56-3-1.59-.57-.82-.85-1.8-.85-2.91s.21-2.09.62-2.89c.42-.81,1.09-1.54,2-2.16,2.48-1.69,5.41-2.99,8.72-3.86,3.25-.86,6.44-1.29,9.46-1.29,4.35,0,8.19.78,11.41,2.32,3.32,1.59,5.92,3.95,7.71,7.02,1.78,3.03,2.67,6.7,2.67,10.91,0,5.34-1.09,10.09-3.24,14.12-2.18,4.08-5.4,7.3-9.57,9.54-4.11,2.22-9.04,3.34-14.65,3.34ZM35.15,46.54c.39.01.79.02,1.2.02,5.25,0,9.02-1.49,11.52-4.56,2.57-3.15,3.88-7.49,3.88-12.89,0-3.43-.91-5.96-2.78-7.75-1.9-1.81-4.59-2.7-8.22-2.7-2.17,0-4.34.3-6.48.91.13,0,.25,0,.38,0,4.69,0,5.05,2.83,5.05,3.7,0,.69-.13,1.42-.4,2.23-.83,2.56-1.69,6.09-2.53,10.47-.71,3.65-1.25,7.2-1.62,10.58Z"/>
      <path class="cls-7" d="M70.1,56.21c-3.59,0-5.47-1.75-6.41-3.22-1.19-1.85-1.79-4.27-1.79-7.18,0-1.6.2-3.65.6-6.1.39-2.42.91-4.71,1.53-6.82.41-1.47,1.03-2.52,1.87-3.2.48-.38,1.05-.66,1.73-.83-.63-.25-1.17-.59-1.64-1.02-.77-.71-1.69-2.02-1.69-4.19,0-1.75.72-3.29,2.08-4.45,1.29-1.1,2.88-1.65,4.72-1.65,1.68,0,3.11.45,4.23,1.32,1.26.98,1.92,2.41,1.92,4.13,0,1.89-.68,3.5-1.96,4.66-.86.78-1.9,1.29-3.11,1.53,1.38.69,1.92,1.95,1.92,3.16,0,.68-.11,1.99-.99,6.21-.96,4.39-1.16,6.25-1.16,7.04,0,.38.02.66.05.87.15-.11.35-.27.59-.49.83-.77,1.99-2.04,3.42-3.76,1.01-1.18,2.12-1.42,2.89-1.42,1.12,0,2.11.56,2.72,1.54.45.72.68,1.63.68,2.71,0,1.82-.48,3.3-1.44,4.41-3.7,4.52-7.23,6.74-10.76,6.74Z"/>
      <path class="cls-7" d="M85.55,57.31c-2.22,0-4-.57-5.29-1.69-1.36-1.18-1.86-2.46-2.01-3.48-1.16,1.09-2.35,1.33-3.15,1.33-1.12,0-2.09-.44-2.81-1.26-.65-.74-.99-1.69-.99-2.74,0-1.14.39-2.19,1.16-3.12l.64-.79c1.78-2.2,3.13-4.02,4.02-5.41.49-.84,1.14-2.1,1.88-3.66.75-1.58,1.49-3.24,2.21-4.95.55-1.29,2.04-3.42,5.79-3.42,1.27,0,2.12.13,2.78.43,1.08.49,1.72,1.47,1.72,2.62,0,.41-.09.89-.29,1.54-.17.56-.41,1.11-.7,1.66-.57,1.15-.66,1.81-.66,2.1,0,.02,0,.22.25.64.3.51.78,1.18,1.45,2,1.17,1.54,2.02,2.79,2.62,3.86.34.62.61,1.26.79,1.94.68-.65,1.47-1.5,2.38-2.64,1.03-1.2,2.15-1.45,2.91-1.45,1.12,0,2.11.56,2.72,1.54.45.72.68,1.63.68,2.71,0,1.72-.46,3.18-1.38,4.34-1.88,2.33-3.66,3.89-5.46,4.78-1.61.8-3.55,1.27-5.78,1.4-1.58,1.15-3.42,1.73-5.48,1.73ZM83.66,45.55c-.15.24-.29.47-.44.69.24-.02.48-.03.73-.03.04,0,.07,0,.11,0-.12-.22-.26-.44-.4-.66Z"/>
      <path class="cls-7" d="M107.15,56.21c-3.81,0-6.85-1.14-9.05-3.37-2.19-2.23-3.3-5.16-3.3-8.73,0-3.01.62-5.72,1.83-8.03,1.22-2.33,2.85-4.17,4.83-5.45,2.02-1.31,4.19-1.97,6.44-1.97,2.4,0,4.33.76,5.73,2.26,1.37,1.46,2.07,3.33,2.07,5.54,0,1.78-.42,3.34-1.24,4.62-1.25,1.96-2.93,2.38-4.11,2.38-1.09,0-2.02-.29-2.76-.88-.86-.67-1.34-1.68-1.34-2.82,0-.38.05-.79.15-1.23,0-.04.02-.08.03-.11-.3.42-.56.96-.78,1.59-.33.95-.49,2.03-.49,3.2,0,3.51,1.51,3.8,3.05,3.8,1,0,2.16-.37,3.42-1.11,1.37-.8,2.77-2.03,4.14-3.68,1.01-1.17,2.12-1.42,2.88-1.42,1.12,0,2.11.56,2.72,1.54.45.72.68,1.63.68,2.71,0,1.72-.46,3.18-1.38,4.34-1.76,2.17-3.88,3.86-6.33,5.04-2.45,1.18-4.86,1.77-7.19,1.77Z"/>
      <path class="cls-7" d="M124.7,56.21c-2.4,0-4.51-.6-6.25-1.8-1.71-1.17-3.03-2.74-3.92-4.67-.85-1.86-1.28-3.89-1.28-6.03,0-2.83.56-5.4,1.65-7.65,1.12-2.3,2.7-4.13,4.7-5.44,2.02-1.33,4.29-2,6.75-2,3.12,0,5.68,1.11,7.62,3.3,1.4,1.59,2.37,3.46,2.88,5.6,1.03-.16,2.19-.41,3.44-.74.45-.11.84-.17,1.21-.17,1.17,0,2.18.62,2.76,1.7.39.73.59,1.6.59,2.6,0,3.37-1.79,4.43-2.86,4.76-1.7.6-3.6,1-5.64,1.19-.81,2.54-2.14,4.66-3.97,6.31-2.24,2.02-4.82,3.04-7.69,3.04ZM124.37,39.12c-.58.94-.88,2.33-.88,4.14,0,1.37.24,2.41.68,3.01.48.64.79.64.92.64.35,0,.78-.08,1.29-.64.35-.39.63-.93.84-1.63-.8-.75-1.46-1.64-1.95-2.66-.44-.91-.75-1.87-.9-2.86Z"/>
      <path class="cls-7" d="M144.45,56.21c-2.01,0-3.68-.84-4.84-2.42-1.01-1.38-1.62-3.36-1.85-6.06-.4-4.71-.61-8.89-.61-12.42v-1.75c.05-1.78.62-3.07,1.68-3.89.94-.72,2.17-1.06,3.77-1.06,1.38,0,2.48.37,3.28,1.1.85.78,1.27,1.92,1.27,3.4,0,2.45.1,5.41.29,8.83.24-.39.47-.77.68-1.12-.34-1-.52-2.1-.52-3.31,0-1.42.32-2.82.94-4.15.63-1.35,1.52-2.48,2.64-3.34,1.22-.94,2.62-1.42,4.17-1.42s2.87.59,3.85,1.71c.93,1.06,1.4,2.5,1.4,4.29,0,.87-.11,1.8-.33,2.78.55-.1,1.15-.21,1.78-.34l1.31-.24c.27-.07.57-.1.95-.1,1.1,0,2.06.44,2.71,1.25.56.7.84,1.57.84,2.6,0,1.44-.32,2.64-.95,3.56-.65.95-1.6,1.63-2.82,2.04-1.74.57-3.6.85-5.53.85-1.11,0-2.19-.1-3.23-.31-.77,1.21-1.61,2.45-2.48,3.71-1.48,2.1-2.76,3.53-3.92,4.37-1.31.95-2.82,1.43-4.47,1.43Z"/>
      <path class="cls-7" d="M171.8,56.21c-4.03,0-7.24-1.15-9.55-3.42-2.32-2.28-3.5-5.38-3.5-9.23,0-2.6.56-5.05,1.65-7.3,1.12-2.29,2.7-4.14,4.7-5.5,2.04-1.39,4.38-2.1,6.95-2.1s4.5.77,6.05,2.3c1.56,1.54,2.35,3.59,2.35,6.1,0,2.84-1.03,5.31-3.06,7.34-1.04,1.04-2.41,1.95-4.14,2.73.96-.17,2.05-.58,3.26-1.25,1.68-.92,3.16-2.15,4.39-3.64,1.02-1.19,2.13-1.43,2.89-1.43,1.12,0,2.11.56,2.72,1.54.45.72.68,1.63.68,2.71,0,1.82-.48,3.3-1.44,4.41-1.35,1.65-3.3,3.2-5.76,4.59-2.54,1.43-5.3,2.16-8.21,2.16ZM171.14,37.56c-.22,0-.72.1-1.35,1.17-.23.39-.42.82-.57,1.28.36-.2.68-.41.96-.64.87-.72.97-1.32.97-1.71,0-.04,0-.07,0-.1Z"/>
      <path class="cls-7" d="M184.7,56.21c-2.11,0-3.72-1.16-4.54-3.28-.61-1.58-.91-3.91-.91-7.12,0-4.52.65-8.88,1.94-12.95.44-1.41,1.21-2.48,2.28-3.19,1.02-.68,2.32-1,3.97-1,1.07,0,1.85.18,2.46.55.51.32,1.34,1.08,1.34,2.65,0,.1,0,.21-.01.34.88-.89,1.76-1.59,2.65-2.11,1.61-.95,3.14-1.43,4.57-1.43,1.91,0,3.06.79,3.68,1.46.87.93,1.32,2.21,1.32,3.79,0,.33-.03.88-.21,1.99.51.23.98.55,1.4.97.89.89,1.36,2.05,1.36,3.34,0,.69-.15,1.41-.44,2.14-.67,1.56-1.61,2.84-2.8,3.87-1.33,1.15-2.85,1.73-4.51,1.73-1.47,0-2.78-.55-3.81-1.6-.81-.84-1.31-1.88-1.48-3.11-.31.59-.62,1.25-.93,1.96-.75,1.72-1.37,3.57-1.84,5.48-.45,1.94-.98,3.24-1.69,4.04-.86.98-2.14,1.48-3.8,1.48Z"/>
      <path class="cls-7" d="M235.75,56.21c-3.3,0-6.33-.76-9-2.25-2.71-1.51-4.88-3.76-6.46-6.67-1.55-2.87-2.34-6.31-2.34-10.23,0-5.34,1-10.14,2.97-14.26,2-4.18,4.78-7.46,8.25-9.76,3.5-2.31,7.43-3.48,11.68-3.48,3.3,0,6.33.76,9,2.25,2.71,1.52,4.88,3.76,6.46,6.67,1.55,2.87,2.34,6.31,2.34,10.23,0,5.34-1,10.14-2.97,14.26-2,4.18-4.78,7.46-8.25,9.76-3.5,2.31-7.43,3.48-11.68,3.48ZM240.35,19.46c-2.12,0-3.93.63-5.55,1.93-1.68,1.35-3.02,3.31-3.99,5.81-1.01,2.61-1.52,5.64-1.52,9.01s.69,6.09,2.05,7.76c1.28,1.57,2.88,2.34,4.9,2.34,2.15,0,3.99-.64,5.62-1.96,1.69-1.36,3.02-3.32,3.96-5.82.98-2.61,1.47-5.63,1.47-8.97s-.69-6.09-2.05-7.76c-1.28-1.57-2.88-2.34-4.9-2.34Z"/>
      <path class="cls-7" d="M275.4,56.21c-2.31,0-4.12-.97-5.23-2.81-.03-.04-.05-.09-.08-.14-.14.17-.28.33-.42.49-1.52,1.63-3.24,2.46-5.11,2.46-2.16,0-4-1.02-5.32-2.94-1.18-1.71-1.78-3.84-1.78-6.31,0-2.59.18-5.01.53-7.19.35-2.18.93-4.51,1.73-6.93.47-1.41,1.18-2.46,2.13-3.15.96-.69,2.27-1.03,4.02-1.03,1.22,0,2.13.26,2.79.8.75.62,1.16,1.54,1.16,2.6,0,.33-.05.83-.6,3.16-.33,1.24-.59,2.32-.79,3.28-.37,1.95-.61,3.36-.75,4.39.4-.74.83-1.64,1.27-2.7.81-1.94,1.61-4.38,2.39-7.25.38-1.41,1.02-2.49,1.92-3.2.91-.72,2.16-1.08,3.71-1.08,1.17,0,2.01.18,2.64.57.53.32,1.41,1.1,1.41,2.73,0,.68-.15,2.12-1.3,7.29-1,4.58-1.27,6.41-1.33,7.13.13-.1.29-.22.48-.39.84-.75,2.01-2.02,3.47-3.76,1.01-1.17,2.12-1.42,2.88-1.42,1.12,0,2.11.56,2.72,1.54.45.72.68,1.63.68,2.71,0,1.82-.48,3.3-1.44,4.41-1.51,1.86-3.21,3.46-5.01,4.69-1.98,1.36-4.25,2.05-6.76,2.05Z"/>
      <path class="cls-7" d="M286.1,56.21c-2.11,0-3.72-1.16-4.54-3.28-.61-1.58-.91-3.91-.91-7.12,0-4.52.65-8.88,1.94-12.95.44-1.41,1.21-2.48,2.28-3.19,1.02-.68,2.32-1,3.97-1,1.07,0,1.85.18,2.46.55.5.31,1.34,1.07,1.34,2.65,0,.1,0,.21-.01.34.88-.89,1.76-1.59,2.65-2.11,1.61-.95,3.14-1.43,4.57-1.43,1.91,0,3.06.79,3.68,1.45.88.93,1.32,2.21,1.32,3.8,0,.34-.03.88-.21,1.99.51.23.98.55,1.4.97.89.89,1.36,2.05,1.36,3.34,0,.68-.15,1.4-.44,2.14-.68,1.56-1.61,2.85-2.8,3.87-1.34,1.15-2.85,1.74-4.51,1.74-1.47,0-2.79-.56-3.81-1.6-.81-.83-1.31-1.88-1.48-3.11-.31.59-.62,1.25-.93,1.96-.75,1.72-1.37,3.56-1.84,5.48-.45,1.94-.98,3.23-1.69,4.04-.86.99-2.14,1.48-3.81,1.48Z"/>
      <path class="cls-7" d="M329.1,56.36c-2.58,0-4.99-.57-7.17-1.7-2.21-1.14-3.88-2.58-4.96-4.27-.57-.89-.87-1.94-.87-3.13s.3-2.25.89-3.18c.75-1.18,1.86-1.82,3.11-1.82.81,0,1.59.25,2.32.76.57.39,1.17,1.02,1.91,1.96,1.24,1.63,2.63,2.38,4.38,2.38,1.3,0,2.33-.51,3.24-1.6,1.02-1.24,1.71-3.35,2.03-6.27l.06-.53h-.17c-1.22,0-2.31-.36-3.21-1.08-.72-.57-1.59-1.63-1.59-3.42,0-1.57.46-2.84,1.37-3.77.92-.95,2.19-1.43,3.78-1.43.32,0,.63,0,.95,0,.28-2.65.58-5.7.89-9.12-2.48.37-3.75.84-4.4,1.21-.84.48-1.19,1.05-1.19,1.96,0,.75.22,1.46.68,2.17.41.61.62,1.28.62,1.98,0,.9-.33,2.18-1.88,3.23-1,.68-2.13,1.02-3.37,1.02-1.38,0-2.59-.43-3.59-1.27-.69-.57-1.24-1.5-1.75-2.91-.44-1.24-.67-2.63-.67-4.12,0-4.91,2.62-8.66,7.57-10.83,4.55-2,10.9-2.97,19.43-2.97,5.73,0,10.87.31,15.27.92,1.46.21,2.53.74,3.21,1.57.64.8.97,1.79.97,2.96,0,3.27-1.95,5.22-5.22,5.22-.2,0-.41,0-.62-.02l-1.79-.15c-1.93-.16-3.89-.3-5.81-.4-1.9-.1-3.93-.15-6.02-.15h-.41c-.28,3.33-.57,6.5-.87,9.46l6.34-.11c1.85,0,3.13.41,3.95,1.26.54.56,1.18,1.56,1.18,3.14,0,2.1-.87,3.39-1.6,4.11-1.05,1.02-2.48,1.54-4.25,1.54h-6.81l-.06.43c-.76,5.98-2.41,10.19-5.03,12.87-2.66,2.72-6.32,4.1-10.85,4.1Z"/>
      <path class="cls-7" d="M365.15,56.21c-3.67,0-6.53-1.75-8.29-5.06-1.56-2.95-2.36-6.74-2.36-11.29,0-4.18.54-8.99,1.62-14.3,1.08-5.38,2.72-10.07,4.86-13.97,2.42-4.4,5.47-6.64,9.08-6.64,2.3,0,4.19,1.1,5.48,3.17,1.13,1.82,1.67,4.25,1.67,7.43,0,4.22-1.16,9.12-3.46,14.58-2.15,5.11-5.06,10.23-8.65,15.23.2.75.41,1.04.48,1.12.1.11.24.23.62.23.93,0,1.71-.25,2.39-.77.91-.69,2.13-1.94,3.63-3.72,1-1.17,2.12-1.41,2.88-1.41,1.12,0,2.11.56,2.72,1.54.45.72.68,1.63.68,2.71,0,1.82-.48,3.3-1.44,4.41-1.51,1.86-3.23,3.46-5.07,4.7-2.01,1.35-4.31,2.04-6.84,2.04ZM368.23,16.72c-.93,2.65-1.76,6.01-2.47,9.99-.07.38-.13.76-.19,1.13.28-.7.54-1.39.79-2.08,1.21-3.39,1.87-6.52,1.97-9.32-.03.09-.07.18-.1.28Z"/>
      <path class="cls-7" d="M389.75,56.21c-1.57,0-3.01-.53-4.29-1.58-.39-.32-.75-.67-1.07-1.06-1.78,1.75-3.88,2.64-6.29,2.64-2.65,0-4.89-1.03-6.49-2.98-1.53-1.86-2.31-4.27-2.31-7.17s.7-5.84,2.07-8.49c1.38-2.66,3.24-4.83,5.55-6.46,2.39-1.69,4.97-2.54,7.68-2.54,1.35,0,2.32.36,2.97,1.1.17.2.33.42.47.68.28-.02.57-.03.86-.03,3.28,0,4.45,1.94,4.45,3.75,0,.58-.09,1.71-.79,5.37-.71,3.57-.99,5.63-1.08,6.8.08-.07.17-.15.27-.23.83-.75,1.99-2.02,3.46-3.78,1.01-1.17,2.12-1.42,2.88-1.42,1.12,0,2.11.56,2.72,1.54.45.72.68,1.63.68,2.71,0,1.82-.48,3.3-1.44,4.41-1.42,1.76-3,3.32-4.65,4.58-1.88,1.43-3.79,2.16-5.66,2.16ZM382.61,38.4c-.89.8-1.62,1.87-2.18,3.19-.59,1.41-.89,2.94-.89,4.52,0,.78.16,1.02.16,1.02,0,0,.05.03.19.03-.01,0,.19-.09.52-.52.48-.62.84-1.51,1.08-2.64l1.13-5.6Z"/>
      <path class="cls-7" d="M401.34,56.21c-2,0-3.68-.84-4.84-2.42-1.01-1.38-1.62-3.36-1.85-6.06-.4-4.7-.61-8.88-.61-12.42v-1.75c.05-1.79.62-3.07,1.69-3.89.94-.71,2.17-1.06,3.76-1.06,1.38,0,2.48.37,3.28,1.1.84.78,1.27,1.92,1.27,3.4,0,2.44.1,5.4.29,8.83.24-.39.47-.77.68-1.12-.34-1-.52-2.1-.52-3.31,0-1.42.32-2.82.94-4.15.63-1.35,1.52-2.48,2.64-3.34,1.22-.94,2.62-1.42,4.17-1.42s2.87.59,3.85,1.71c.93,1.06,1.4,2.5,1.4,4.29,0,.87-.11,1.8-.33,2.78.55-.1,1.15-.21,1.78-.34l1.31-.24c.27-.07.57-.1.95-.1,1.1,0,2.07.44,2.71,1.25.56.7.84,1.57.84,2.6,0,1.44-.32,2.64-.95,3.56-.65.95-1.6,1.64-2.82,2.04-1.74.57-3.59.85-5.53.85-1.11,0-2.19-.1-3.23-.31-.77,1.21-1.61,2.45-2.48,3.71-1.47,2.1-2.75,3.53-3.91,4.37-1.31.95-2.82,1.43-4.47,1.43Z"/>
      <path class="cls-7" d="M427.09,56.21c-2.4,0-4.5-.6-6.25-1.8-1.71-1.17-3.03-2.74-3.92-4.67-.85-1.86-1.28-3.89-1.28-6.03,0-2.83.56-5.4,1.65-7.65,1.12-2.3,2.7-4.13,4.7-5.44,2.02-1.33,4.29-2,6.75-2,3.12,0,5.68,1.11,7.62,3.3,1.4,1.59,2.37,3.46,2.88,5.6,1.04-.16,2.19-.41,3.44-.74.45-.11.84-.17,1.21-.17,1.17,0,2.18.62,2.76,1.7.39.73.59,1.6.59,2.6,0,3.37-1.79,4.43-2.86,4.76-1.7.6-3.6,1-5.64,1.19-.81,2.54-2.14,4.66-3.97,6.31-2.24,2.02-4.82,3.04-7.69,3.04ZM426.77,39.12c-.58.94-.88,2.33-.88,4.14,0,1.37.24,2.41.68,3.01.48.64.79.64.92.64.35,0,.78-.08,1.29-.64.35-.39.63-.93.84-1.63-.8-.75-1.46-1.64-1.95-2.66-.44-.91-.75-1.87-.9-2.86Z"/>
      <path class="cls-7" d="M444.49,56.21c-2.11,0-3.72-1.16-4.54-3.28-.61-1.58-.91-3.91-.91-7.12,0-4.52.65-8.88,1.94-12.95.44-1.41,1.21-2.48,2.28-3.19,1.02-.68,2.32-1,3.97-1,1.07,0,1.85.18,2.46.55.51.32,1.34,1.08,1.34,2.65,0,.1,0,.21-.01.34.88-.89,1.76-1.59,2.65-2.11,1.61-.95,3.14-1.43,4.57-1.43,1.91,0,3.06.79,3.68,1.46.87.93,1.32,2.21,1.32,3.79,0,.33-.03.88-.21,1.99.51.23.98.55,1.4.97.89.89,1.36,2.05,1.36,3.34,0,.69-.15,1.41-.44,2.14-.67,1.56-1.61,2.84-2.8,3.87-1.33,1.15-2.85,1.73-4.51,1.73-1.47,0-2.78-.55-3.81-1.6-.81-.84-1.31-1.88-1.48-3.11-.31.59-.62,1.25-.93,1.96-.75,1.72-1.37,3.57-1.84,5.48-.45,1.94-.98,3.24-1.69,4.04-.86.98-2.14,1.48-3.8,1.48Z"/>
      <path class="cls-7" d="M473.74,57.31c-2.22,0-4-.57-5.29-1.69-1.36-1.18-1.86-2.46-2.01-3.48-1.16,1.09-2.35,1.33-3.15,1.33-1.12,0-2.09-.44-2.81-1.26-.65-.74-.99-1.69-.99-2.74,0-1.14.39-2.19,1.16-3.12l.64-.79c1.78-2.2,3.13-4.02,4.02-5.41.54-.87,1.12-1.96,1.7-3.22.61-1.31,1.42-3.13,2.41-5.41.55-1.27,2.03-3.4,5.78-3.4,1.27,0,2.12.13,2.78.43,1.08.49,1.72,1.47,1.72,2.62,0,.41-.09.89-.29,1.54-.17.56-.41,1.11-.7,1.66-.57,1.15-.66,1.81-.66,2.1,0,.02,0,.22.25.64.3.51.78,1.18,1.45,2,1.17,1.54,2.02,2.79,2.62,3.86.72,1.28,1.08,2.7,1.08,4.2,0,1.72-.4,3.37-1.2,4.9-.81,1.55-1.95,2.82-3.4,3.77-1.5.98-3.21,1.48-5.1,1.48ZM471.85,45.55c-.15.24-.29.47-.44.69.24-.02.48-.03.73-.03.04,0,.07,0,.11,0-.12-.22-.26-.44-.4-.66Z"/>
      <path class="cls-7" d="M489.34,56.21c-2.04,0-3.64-.62-4.78-1.83-1.11-1.18-1.67-2.7-1.67-4.52,0-2.02.61-3.69,1.82-4.97.88-.93,1.98-1.53,3.29-1.81-.69-.67-1.06-1.6-1.06-2.67v-.12l.07-.52c.58-3.8,1.36-8.12,2.32-12.9.97-4.79,1.88-8.96,2.72-12.42.76-3.06,3-4.73,6.29-4.73,4.83,0,5.2,3.1,5.2,4.05,0,.48-.07.99-.22,1.53-.86,3.5-2.02,7.83-3.46,12.84-1.44,5.02-2.83,9.46-4.14,13.19-.4,1.15-1.18,2.01-2.24,2.49.35.21.67.45.96.73,1.16,1.11,1.74,2.66,1.74,4.62s-.62,3.75-1.85,5.05c-1.26,1.33-2.94,2-5,2Z"/>
    </g>
    <g>
      <path class="cls-7" d="M34.65,55.21c-2.01,0-4.31-.17-6.82-.52-1.8-.23-3.1-.77-3.94-1.66-.89-.95-1.29-2.32-1.19-4.08.24-3.38.8-7.56,1.68-12.46.87-4.89,1.95-9.66,3.19-14.2.21-.76.56-1.41,1.03-1.95-.97.47-1.89.99-2.76,1.55-.73.5-1.58.77-2.49.77-1.23,0-2.29-.56-3-1.59-.57-.82-.85-1.8-.85-2.91s.21-2.09.62-2.89c.42-.81,1.09-1.54,2-2.16,2.48-1.69,5.41-2.99,8.72-3.86,3.25-.86,6.44-1.29,9.46-1.29,4.35,0,8.19.78,11.41,2.32,3.32,1.59,5.92,3.95,7.71,7.02,1.78,3.03,2.67,6.7,2.67,10.91,0,5.34-1.09,10.09-3.24,14.12-2.18,4.08-5.4,7.3-9.57,9.54-4.11,2.22-9.04,3.34-14.65,3.34ZM34.15,45.54c.39.01.79.02,1.2.02,5.25,0,9.02-1.49,11.52-4.56,2.57-3.15,3.88-7.49,3.88-12.89,0-3.43-.91-5.96-2.78-7.75-1.9-1.81-4.59-2.7-8.22-2.7-2.17,0-4.34.3-6.48.91.13,0,.25,0,.38,0,4.69,0,5.05,2.83,5.05,3.7,0,.69-.13,1.42-.4,2.23-.83,2.56-1.69,6.09-2.53,10.47-.71,3.65-1.25,7.2-1.62,10.58Z"/>
      <path class="cls-7" d="M69.1,55.21c-3.59,0-5.47-1.75-6.41-3.22-1.19-1.85-1.79-4.27-1.79-7.18,0-1.6.2-3.65.6-6.1.39-2.42.91-4.71,1.53-6.82.41-1.47,1.03-2.52,1.87-3.2.48-.38,1.05-.66,1.73-.83-.63-.25-1.17-.59-1.64-1.02-.77-.71-1.69-2.02-1.69-4.19,0-1.75.72-3.29,2.08-4.45,1.29-1.1,2.88-1.65,4.72-1.65,1.68,0,3.11.45,4.23,1.32,1.26.98,1.92,2.41,1.92,4.13,0,1.89-.68,3.5-1.96,4.66-.86.78-1.9,1.29-3.11,1.53,1.38.69,1.92,1.95,1.92,3.16,0,.68-.11,1.99-.99,6.21-.96,4.39-1.16,6.25-1.16,7.04,0,.38.02.66.05.87.15-.11.35-.27.59-.49.83-.77,1.99-2.04,3.42-3.76,1.01-1.18,2.12-1.42,2.89-1.42,1.12,0,2.11.56,2.72,1.54.45.72.68,1.63.68,2.71,0,1.82-.48,3.3-1.44,4.41-3.7,4.52-7.23,6.74-10.76,6.74Z"/>
      <path class="cls-7" d="M84.55,56.31c-2.22,0-4-.57-5.29-1.69-1.36-1.18-1.86-2.46-2.01-3.48-1.16,1.09-2.35,1.33-3.15,1.33-1.12,0-2.09-.44-2.81-1.26-.65-.74-.99-1.69-.99-2.74,0-1.14.39-2.19,1.16-3.12l.64-.79c1.78-2.2,3.13-4.02,4.02-5.41.49-.84,1.14-2.1,1.88-3.66.75-1.58,1.49-3.24,2.21-4.95.55-1.29,2.04-3.42,5.79-3.42,1.27,0,2.12.13,2.78.43,1.08.49,1.72,1.47,1.72,2.62,0,.41-.09.89-.29,1.54-.17.56-.41,1.11-.7,1.66-.57,1.15-.66,1.81-.66,2.1,0,.02,0,.22.25.64.3.51.78,1.18,1.45,2,1.17,1.54,2.02,2.79,2.62,3.86.34.62.61,1.26.79,1.94.68-.65,1.47-1.5,2.38-2.64,1.03-1.2,2.15-1.45,2.91-1.45,1.12,0,2.11.56,2.72,1.54.45.72.68,1.63.68,2.71,0,1.72-.46,3.18-1.38,4.34-1.88,2.33-3.66,3.89-5.46,4.78-1.61.8-3.55,1.27-5.78,1.4-1.58,1.15-3.42,1.73-5.48,1.73ZM82.66,44.55c-.15.24-.29.47-.44.69.24-.02.48-.03.73-.03.04,0,.07,0,.11,0-.12-.22-.26-.44-.4-.66Z"/>
      <path class="cls-7" d="M106.15,55.21c-3.81,0-6.85-1.14-9.05-3.37-2.19-2.23-3.3-5.16-3.3-8.73,0-3.01.62-5.72,1.83-8.03,1.22-2.33,2.85-4.17,4.83-5.45,2.02-1.31,4.19-1.97,6.44-1.97,2.4,0,4.33.76,5.73,2.26,1.37,1.46,2.07,3.33,2.07,5.54,0,1.78-.42,3.34-1.24,4.62-1.25,1.96-2.93,2.38-4.11,2.38-1.09,0-2.02-.29-2.76-.88-.86-.67-1.34-1.68-1.34-2.82,0-.38.05-.79.15-1.23,0-.04.02-.08.03-.11-.3.42-.56.96-.78,1.59-.33.95-.49,2.03-.49,3.2,0,3.51,1.51,3.8,3.05,3.8,1,0,2.16-.37,3.42-1.11,1.37-.8,2.77-2.03,4.14-3.68,1.01-1.17,2.12-1.42,2.88-1.42,1.12,0,2.11.56,2.72,1.54.45.72.68,1.63.68,2.71,0,1.72-.46,3.18-1.38,4.34-1.76,2.17-3.88,3.86-6.33,5.04-2.45,1.18-4.86,1.77-7.19,1.77Z"/>
      <path class="cls-7" d="M123.7,55.21c-2.4,0-4.51-.6-6.25-1.8-1.71-1.17-3.03-2.74-3.92-4.67-.85-1.86-1.28-3.89-1.28-6.03,0-2.83.56-5.4,1.65-7.65,1.12-2.3,2.7-4.13,4.7-5.44,2.02-1.33,4.29-2,6.75-2,3.12,0,5.68,1.11,7.62,3.3,1.4,1.59,2.37,3.46,2.88,5.6,1.03-.16,2.19-.41,3.44-.74.45-.11.84-.17,1.21-.17,1.17,0,2.18.62,2.76,1.7.39.73.59,1.6.59,2.6,0,3.37-1.79,4.43-2.86,4.76-1.7.6-3.6,1-5.64,1.19-.81,2.54-2.14,4.66-3.97,6.31-2.24,2.02-4.82,3.04-7.69,3.04ZM123.37,38.12c-.58.94-.88,2.33-.88,4.14,0,1.37.24,2.41.68,3.01.48.64.79.64.92.64.35,0,.78-.08,1.29-.64.35-.39.63-.93.84-1.63-.8-.75-1.46-1.64-1.95-2.66-.44-.91-.75-1.87-.9-2.86Z"/>
      <path class="cls-7" d="M143.45,55.21c-2.01,0-3.68-.84-4.84-2.42-1.01-1.38-1.62-3.36-1.85-6.06-.4-4.71-.61-8.89-.61-12.42v-1.75c.05-1.78.62-3.07,1.68-3.89.94-.72,2.17-1.06,3.77-1.06,1.38,0,2.48.37,3.28,1.1.85.78,1.27,1.92,1.27,3.4,0,2.45.1,5.41.29,8.83.24-.39.47-.77.68-1.12-.34-1-.52-2.1-.52-3.31,0-1.42.32-2.82.94-4.15.63-1.35,1.52-2.48,2.64-3.34,1.22-.94,2.62-1.42,4.17-1.42s2.87.59,3.85,1.71c.93,1.06,1.4,2.5,1.4,4.29,0,.87-.11,1.8-.33,2.78.55-.1,1.15-.21,1.78-.34l1.31-.24c.27-.07.57-.1.95-.1,1.1,0,2.06.44,2.71,1.25.56.7.84,1.57.84,2.6,0,1.44-.32,2.64-.95,3.56-.65.95-1.6,1.63-2.82,2.04-1.74.57-3.6.85-5.53.85-1.11,0-2.19-.1-3.23-.31-.77,1.21-1.61,2.45-2.48,3.71-1.48,2.1-2.76,3.53-3.92,4.37-1.31.95-2.82,1.43-4.47,1.43Z"/>
      <path class="cls-7" d="M170.8,55.21c-4.03,0-7.24-1.15-9.55-3.42-2.32-2.28-3.5-5.38-3.5-9.23,0-2.6.56-5.05,1.65-7.3,1.12-2.29,2.7-4.14,4.7-5.5,2.04-1.39,4.38-2.1,6.95-2.1s4.5.77,6.05,2.3c1.56,1.54,2.35,3.59,2.35,6.1,0,2.84-1.03,5.31-3.06,7.34-1.04,1.04-2.41,1.95-4.14,2.73.96-.17,2.05-.58,3.26-1.25,1.68-.92,3.16-2.15,4.39-3.64,1.02-1.19,2.13-1.43,2.89-1.43,1.12,0,2.11.56,2.72,1.54.45.72.68,1.63.68,2.71,0,1.82-.48,3.3-1.44,4.41-1.35,1.65-3.3,3.2-5.76,4.59-2.54,1.43-5.3,2.16-8.21,2.16ZM170.14,36.56c-.22,0-.72.1-1.35,1.17-.23.39-.42.82-.57,1.28.36-.2.68-.41.96-.64.87-.72.97-1.32.97-1.71,0-.04,0-.07,0-.1Z"/>
      <path class="cls-7" d="M183.7,55.21c-2.11,0-3.72-1.16-4.54-3.28-.61-1.58-.91-3.91-.91-7.12,0-4.52.65-8.88,1.94-12.95.44-1.41,1.21-2.48,2.28-3.19,1.02-.68,2.32-1,3.97-1,1.07,0,1.85.18,2.46.55.51.32,1.34,1.08,1.34,2.65,0,.1,0,.21-.01.34.88-.89,1.76-1.59,2.65-2.11,1.61-.95,3.14-1.43,4.57-1.43,1.91,0,3.06.79,3.68,1.46.87.93,1.32,2.21,1.32,3.79,0,.33-.03.88-.21,1.99.51.23.98.55,1.4.97.89.89,1.36,2.05,1.36,3.34,0,.69-.15,1.41-.44,2.14-.67,1.56-1.61,2.84-2.8,3.87-1.33,1.15-2.85,1.73-4.51,1.73-1.47,0-2.78-.55-3.81-1.6-.81-.84-1.31-1.88-1.48-3.11-.31.59-.62,1.25-.93,1.96-.75,1.72-1.37,3.57-1.84,5.48-.45,1.94-.98,3.24-1.69,4.04-.86.98-2.14,1.48-3.8,1.48Z"/>
      <path class="cls-7" d="M234.75,55.21c-3.3,0-6.33-.76-9-2.25-2.71-1.51-4.88-3.76-6.46-6.67-1.55-2.87-2.34-6.31-2.34-10.23,0-5.34,1-10.14,2.97-14.26,2-4.18,4.78-7.46,8.25-9.76,3.5-2.31,7.43-3.48,11.68-3.48,3.3,0,6.33.76,9,2.25,2.71,1.52,4.88,3.76,6.46,6.67,1.55,2.87,2.34,6.31,2.34,10.23,0,5.34-1,10.14-2.97,14.26-2,4.18-4.78,7.46-8.25,9.76-3.5,2.31-7.43,3.48-11.68,3.48ZM239.35,18.46c-2.12,0-3.93.63-5.55,1.93-1.68,1.35-3.02,3.31-3.99,5.81-1.01,2.61-1.52,5.64-1.52,9.01s.69,6.09,2.05,7.76c1.28,1.57,2.88,2.34,4.9,2.34,2.15,0,3.99-.64,5.62-1.96,1.69-1.36,3.02-3.32,3.96-5.82.98-2.61,1.47-5.63,1.47-8.97s-.69-6.09-2.05-7.76c-1.28-1.57-2.88-2.34-4.9-2.34Z"/>
      <path class="cls-7" d="M274.4,55.21c-2.31,0-4.12-.97-5.23-2.81-.03-.04-.05-.09-.08-.14-.14.17-.28.33-.42.49-1.52,1.63-3.24,2.46-5.11,2.46-2.16,0-4-1.02-5.32-2.94-1.18-1.71-1.78-3.84-1.78-6.31,0-2.59.18-5.01.53-7.19.35-2.18.93-4.51,1.73-6.93.47-1.41,1.18-2.46,2.13-3.15.96-.69,2.27-1.03,4.02-1.03,1.22,0,2.13.26,2.79.8.75.62,1.16,1.54,1.16,2.6,0,.33-.05.83-.6,3.16-.33,1.24-.59,2.32-.79,3.28-.37,1.95-.61,3.36-.75,4.39.4-.74.83-1.64,1.27-2.7.81-1.94,1.61-4.38,2.39-7.25.38-1.41,1.02-2.49,1.92-3.2.91-.72,2.16-1.08,3.71-1.08,1.17,0,2.01.18,2.64.57.53.32,1.41,1.1,1.41,2.73,0,.68-.15,2.12-1.3,7.29-1,4.58-1.27,6.41-1.33,7.13.13-.1.29-.22.48-.39.84-.75,2.01-2.02,3.47-3.76,1.01-1.17,2.12-1.42,2.88-1.42,1.12,0,2.11.56,2.72,1.54.45.72.68,1.63.68,2.71,0,1.82-.48,3.3-1.44,4.41-1.51,1.86-3.21,3.46-5.01,4.69-1.98,1.36-4.25,2.05-6.76,2.05Z"/>
      <path class="cls-7" d="M285.1,55.21c-2.11,0-3.72-1.16-4.54-3.28-.61-1.58-.91-3.91-.91-7.12,0-4.52.65-8.88,1.94-12.95.44-1.41,1.21-2.48,2.28-3.19,1.02-.68,2.32-1,3.97-1,1.07,0,1.85.18,2.46.55.5.31,1.34,1.07,1.34,2.65,0,.1,0,.21-.01.34.88-.89,1.76-1.59,2.65-2.11,1.61-.95,3.14-1.43,4.57-1.43,1.91,0,3.06.79,3.68,1.45.88.93,1.32,2.21,1.32,3.8,0,.34-.03.88-.21,1.99.51.23.98.55,1.4.97.89.89,1.36,2.05,1.36,3.34,0,.68-.15,1.4-.44,2.14-.68,1.56-1.61,2.85-2.8,3.87-1.34,1.15-2.85,1.74-4.51,1.74-1.47,0-2.79-.56-3.81-1.6-.81-.83-1.31-1.88-1.48-3.11-.31.59-.62,1.25-.93,1.96-.75,1.72-1.37,3.56-1.84,5.48-.45,1.94-.98,3.23-1.69,4.04-.86.99-2.14,1.48-3.81,1.48Z"/>
      <path class="cls-7" d="M328.1,55.36c-2.58,0-4.99-.57-7.17-1.7-2.21-1.14-3.88-2.58-4.96-4.27-.57-.89-.87-1.94-.87-3.13s.3-2.25.89-3.18c.75-1.18,1.86-1.82,3.11-1.82.81,0,1.59.25,2.32.76.57.39,1.17,1.02,1.91,1.96,1.24,1.63,2.63,2.38,4.38,2.38,1.3,0,2.33-.51,3.24-1.6,1.02-1.24,1.71-3.35,2.03-6.27l.06-.53h-.17c-1.22,0-2.31-.36-3.21-1.08-.72-.57-1.59-1.63-1.59-3.42,0-1.57.46-2.84,1.37-3.77.92-.95,2.19-1.43,3.78-1.43.32,0,.63,0,.95,0,.28-2.65.58-5.7.89-9.12-2.48.37-3.75.84-4.4,1.21-.84.48-1.19,1.05-1.19,1.96,0,.75.22,1.46.68,2.17.41.61.62,1.28.62,1.98,0,.9-.33,2.18-1.88,3.23-1,.68-2.13,1.02-3.37,1.02-1.38,0-2.59-.43-3.59-1.27-.69-.57-1.24-1.5-1.75-2.91-.44-1.24-.67-2.63-.67-4.12,0-4.91,2.62-8.66,7.57-10.83,4.55-2,10.9-2.97,19.43-2.97,5.73,0,10.87.31,15.27.92,1.46.21,2.53.74,3.21,1.57.64.8.97,1.79.97,2.96,0,3.27-1.95,5.22-5.22,5.22-.2,0-.41,0-.62-.02l-1.79-.15c-1.93-.16-3.89-.3-5.81-.4-1.9-.1-3.93-.15-6.02-.15h-.41c-.28,3.33-.57,6.5-.87,9.46l6.34-.11c1.85,0,3.13.41,3.95,1.26.54.56,1.18,1.56,1.18,3.14,0,2.1-.87,3.39-1.6,4.11-1.05,1.02-2.48,1.54-4.25,1.54h-6.81l-.06.43c-.76,5.98-2.41,10.19-5.03,12.87-2.66,2.72-6.32,4.1-10.85,4.1Z"/>
      <path class="cls-7" d="M364.15,55.21c-3.67,0-6.53-1.75-8.29-5.06-1.56-2.95-2.36-6.74-2.36-11.29,0-4.18.54-8.99,1.62-14.3,1.08-5.38,2.72-10.07,4.86-13.97,2.42-4.4,5.47-6.64,9.08-6.64,2.3,0,4.19,1.1,5.48,3.17,1.13,1.82,1.67,4.25,1.67,7.43,0,4.22-1.16,9.12-3.46,14.58-2.15,5.11-5.06,10.23-8.65,15.23.2.75.41,1.04.48,1.12.1.11.24.23.62.23.93,0,1.71-.25,2.39-.77.91-.69,2.13-1.94,3.63-3.72,1-1.17,2.12-1.41,2.88-1.41,1.12,0,2.11.56,2.72,1.54.45.72.68,1.63.68,2.71,0,1.82-.48,3.3-1.44,4.41-1.51,1.86-3.23,3.46-5.07,4.7-2.01,1.35-4.31,2.04-6.84,2.04ZM367.23,15.72c-.93,2.65-1.76,6.01-2.47,9.99-.07.38-.13.76-.19,1.13.28-.7.54-1.39.79-2.08,1.21-3.39,1.87-6.52,1.97-9.32-.03.09-.07.18-.1.28Z"/>
      <path class="cls-7" d="M388.75,55.21c-1.57,0-3.01-.53-4.29-1.58-.39-.32-.75-.67-1.07-1.06-1.78,1.75-3.88,2.64-6.29,2.64-2.65,0-4.89-1.03-6.49-2.98-1.53-1.86-2.31-4.27-2.31-7.17s.7-5.84,2.07-8.49c1.38-2.66,3.24-4.83,5.55-6.46,2.39-1.69,4.97-2.54,7.68-2.54,1.35,0,2.32.36,2.97,1.1.17.2.33.42.47.68.28-.02.57-.03.86-.03,3.28,0,4.45,1.94,4.45,3.75,0,.58-.09,1.71-.79,5.37-.71,3.57-.99,5.63-1.08,6.8.08-.07.17-.15.27-.23.83-.75,1.99-2.02,3.46-3.78,1.01-1.17,2.12-1.42,2.88-1.42,1.12,0,2.11.56,2.72,1.54.45.72.68,1.63.68,2.71,0,1.82-.48,3.3-1.44,4.41-1.42,1.76-3,3.32-4.65,4.58-1.88,1.43-3.79,2.16-5.66,2.16ZM381.61,37.4c-.89.8-1.62,1.87-2.18,3.19-.59,1.41-.89,2.94-.89,4.52,0,.78.16,1.02.16,1.02,0,0,.05.03.19.03-.01,0,.19-.09.52-.52.48-.62.84-1.51,1.08-2.64l1.13-5.6Z"/>
      <path class="cls-7" d="M400.34,55.21c-2,0-3.68-.84-4.84-2.42-1.01-1.38-1.62-3.36-1.85-6.06-.4-4.7-.61-8.88-.61-12.42v-1.75c.05-1.79.62-3.07,1.69-3.89.94-.71,2.17-1.06,3.76-1.06,1.38,0,2.48.37,3.28,1.1.84.78,1.27,1.92,1.27,3.4,0,2.44.1,5.4.29,8.83.24-.39.47-.77.68-1.12-.34-1-.52-2.1-.52-3.31,0-1.42.32-2.82.94-4.15.63-1.35,1.52-2.48,2.64-3.34,1.22-.94,2.62-1.42,4.17-1.42s2.87.59,3.85,1.71c.93,1.06,1.4,2.5,1.4,4.29,0,.87-.11,1.8-.33,2.78.55-.1,1.15-.21,1.78-.34l1.31-.24c.27-.07.57-.1.95-.1,1.1,0,2.07.44,2.71,1.25.56.7.84,1.57.84,2.6,0,1.44-.32,2.64-.95,3.56-.65.95-1.6,1.64-2.82,2.04-1.74.57-3.59.85-5.53.85-1.11,0-2.19-.1-3.23-.31-.77,1.21-1.61,2.45-2.48,3.71-1.47,2.1-2.75,3.53-3.91,4.37-1.31.95-2.82,1.43-4.47,1.43Z"/>
      <path class="cls-7" d="M426.09,55.21c-2.4,0-4.5-.6-6.25-1.8-1.71-1.17-3.03-2.74-3.92-4.67-.85-1.86-1.28-3.89-1.28-6.03,0-2.83.56-5.4,1.65-7.65,1.12-2.3,2.7-4.13,4.7-5.44,2.02-1.33,4.29-2,6.75-2,3.12,0,5.68,1.11,7.62,3.3,1.4,1.59,2.37,3.46,2.88,5.6,1.04-.16,2.19-.41,3.44-.74.45-.11.84-.17,1.21-.17,1.17,0,2.18.62,2.76,1.7.39.73.59,1.6.59,2.6,0,3.37-1.79,4.43-2.86,4.76-1.7.6-3.6,1-5.64,1.19-.81,2.54-2.14,4.66-3.97,6.31-2.24,2.02-4.82,3.04-7.69,3.04ZM425.77,38.12c-.58.94-.88,2.33-.88,4.14,0,1.37.24,2.41.68,3.01.48.64.79.64.92.64.35,0,.78-.08,1.29-.64.35-.39.63-.93.84-1.63-.8-.75-1.46-1.64-1.95-2.66-.44-.91-.75-1.87-.9-2.86Z"/>
      <path class="cls-7" d="M443.49,55.21c-2.11,0-3.72-1.16-4.54-3.28-.61-1.58-.91-3.91-.91-7.12,0-4.52.65-8.88,1.94-12.95.44-1.41,1.21-2.48,2.28-3.19,1.02-.68,2.32-1,3.97-1,1.07,0,1.85.18,2.46.55.51.32,1.34,1.08,1.34,2.65,0,.1,0,.21-.01.34.88-.89,1.76-1.59,2.65-2.11,1.61-.95,3.14-1.43,4.57-1.43,1.91,0,3.06.79,3.68,1.46.87.93,1.32,2.21,1.32,3.79,0,.33-.03.88-.21,1.99.51.23.98.55,1.4.97.89.89,1.36,2.05,1.36,3.34,0,.69-.15,1.41-.44,2.14-.67,1.56-1.61,2.84-2.8,3.87-1.33,1.15-2.85,1.73-4.51,1.73-1.47,0-2.78-.55-3.81-1.6-.81-.84-1.31-1.88-1.48-3.11-.31.59-.62,1.25-.93,1.96-.75,1.72-1.37,3.57-1.84,5.48-.45,1.94-.98,3.24-1.69,4.04-.86.98-2.14,1.48-3.8,1.48Z"/>
      <path class="cls-7" d="M472.74,56.31c-2.22,0-4-.57-5.29-1.69-1.36-1.18-1.86-2.46-2.01-3.48-1.16,1.09-2.35,1.33-3.15,1.33-1.12,0-2.09-.44-2.81-1.26-.65-.74-.99-1.69-.99-2.74,0-1.14.39-2.19,1.16-3.12l.64-.79c1.78-2.2,3.13-4.02,4.02-5.41.54-.87,1.12-1.96,1.7-3.22.61-1.31,1.42-3.13,2.41-5.41.55-1.27,2.03-3.4,5.78-3.4,1.27,0,2.12.13,2.78.43,1.08.49,1.72,1.47,1.72,2.62,0,.41-.09.89-.29,1.54-.17.56-.41,1.11-.7,1.66-.57,1.15-.66,1.81-.66,2.1,0,.02,0,.22.25.64.3.51.78,1.18,1.45,2,1.17,1.54,2.02,2.79,2.62,3.86.72,1.28,1.08,2.7,1.08,4.2,0,1.72-.4,3.37-1.2,4.9-.81,1.55-1.95,2.82-3.4,3.77-1.5.98-3.21,1.48-5.1,1.48ZM470.85,44.55c-.15.24-.29.47-.44.69.24-.02.48-.03.73-.03.04,0,.07,0,.11,0-.12-.22-.26-.44-.4-.66Z"/>
      <path class="cls-7" d="M488.34,55.21c-2.04,0-3.64-.62-4.78-1.83-1.11-1.18-1.67-2.7-1.67-4.52,0-2.02.61-3.69,1.82-4.97.88-.93,1.98-1.53,3.29-1.81-.69-.67-1.06-1.6-1.06-2.67v-.12l.07-.52c.58-3.8,1.36-8.12,2.32-12.9.97-4.79,1.88-8.96,2.72-12.42.76-3.06,3-4.73,6.29-4.73,4.83,0,5.2,3.1,5.2,4.05,0,.48-.07.99-.22,1.53-.86,3.5-2.02,7.83-3.46,12.84-1.44,5.02-2.83,9.46-4.14,13.19-.4,1.15-1.18,2.01-2.24,2.49.35.21.67.45.96.73,1.16,1.11,1.74,2.66,1.74,4.62s-.62,3.75-1.85,5.05c-1.26,1.33-2.94,2-5,2Z"/>
    </g>
    <g>
      <path class="cls-7" d="M33.65,54.21c-2.01,0-4.31-.17-6.82-.52-1.8-.23-3.1-.77-3.94-1.66-.89-.95-1.29-2.32-1.19-4.08.24-3.38.8-7.56,1.68-12.46.87-4.89,1.95-9.66,3.19-14.2.21-.76.56-1.41,1.03-1.95-.97.47-1.89.99-2.76,1.55-.73.5-1.58.77-2.49.77-1.23,0-2.29-.56-3-1.59-.57-.82-.85-1.8-.85-2.91s.21-2.09.62-2.89c.42-.81,1.09-1.54,2-2.16,2.48-1.69,5.41-2.99,8.72-3.86,3.25-.86,6.44-1.29,9.46-1.29,4.35,0,8.19.78,11.41,2.32,3.32,1.59,5.92,3.95,7.71,7.02,1.78,3.03,2.67,6.7,2.67,10.91,0,5.34-1.09,10.09-3.24,14.12-2.18,4.08-5.4,7.3-9.57,9.54-4.11,2.22-9.04,3.34-14.65,3.34ZM33.15,44.54c.39.01.79.02,1.2.02,5.25,0,9.02-1.49,11.52-4.56,2.57-3.15,3.88-7.49,3.88-12.89,0-3.43-.91-5.96-2.78-7.75-1.9-1.81-4.59-2.7-8.22-2.7-2.17,0-4.34.3-6.48.91.13,0,.25,0,.38,0,4.69,0,5.05,2.83,5.05,3.7,0,.69-.13,1.42-.4,2.23-.83,2.56-1.69,6.09-2.53,10.47-.71,3.65-1.25,7.2-1.62,10.58Z"/>
      <path class="cls-7" d="M68.1,54.21c-3.59,0-5.47-1.75-6.41-3.22-1.19-1.85-1.79-4.27-1.79-7.18,0-1.6.2-3.65.6-6.1.39-2.42.91-4.71,1.53-6.82.41-1.47,1.03-2.52,1.87-3.2.48-.38,1.05-.66,1.73-.83-.63-.25-1.17-.59-1.64-1.02-.77-.71-1.69-2.02-1.69-4.19,0-1.75.72-3.29,2.08-4.45,1.29-1.1,2.88-1.65,4.72-1.65,1.68,0,3.11.45,4.23,1.32,1.26.98,1.92,2.41,1.92,4.13,0,1.89-.68,3.5-1.96,4.66-.86.78-1.9,1.29-3.11,1.53,1.38.69,1.92,1.95,1.92,3.16,0,.68-.11,1.99-.99,6.21-.96,4.39-1.16,6.25-1.16,7.04,0,.38.02.66.05.87.15-.11.35-.27.59-.49.83-.77,1.99-2.04,3.42-3.76,1.01-1.18,2.12-1.42,2.89-1.42,1.12,0,2.11.56,2.72,1.54.45.72.68,1.63.68,2.71,0,1.82-.48,3.3-1.44,4.41-3.7,4.52-7.23,6.74-10.76,6.74Z"/>
      <path class="cls-7" d="M83.55,55.31c-2.22,0-4-.57-5.29-1.69-1.36-1.18-1.86-2.46-2.01-3.48-1.16,1.09-2.35,1.33-3.15,1.33-1.12,0-2.09-.44-2.81-1.26-.65-.74-.99-1.69-.99-2.74,0-1.14.39-2.19,1.16-3.12l.64-.79c1.78-2.2,3.13-4.02,4.02-5.41.49-.84,1.14-2.1,1.88-3.66.75-1.58,1.49-3.24,2.21-4.95.55-1.29,2.04-3.42,5.79-3.42,1.27,0,2.12.13,2.78.43,1.08.49,1.72,1.47,1.72,2.62,0,.41-.09.89-.29,1.54-.17.56-.41,1.11-.7,1.66-.57,1.15-.66,1.81-.66,2.1,0,.02,0,.22.25.64.3.51.78,1.18,1.45,2,1.17,1.54,2.02,2.79,2.62,3.86.34.62.61,1.26.79,1.94.68-.65,1.47-1.5,2.38-2.64,1.03-1.2,2.15-1.45,2.91-1.45,1.12,0,2.11.56,2.72,1.54.45.72.68,1.63.68,2.71,0,1.72-.46,3.18-1.38,4.34-1.88,2.33-3.66,3.89-5.46,4.78-1.61.8-3.55,1.27-5.78,1.4-1.58,1.15-3.42,1.73-5.48,1.73ZM81.66,43.55c-.15.24-.29.47-.44.69.24-.02.48-.03.73-.03.04,0,.07,0,.11,0-.12-.22-.26-.44-.4-.66Z"/>
      <path class="cls-7" d="M105.15,54.21c-3.81,0-6.85-1.14-9.05-3.37-2.19-2.23-3.3-5.16-3.3-8.73,0-3.01.62-5.72,1.83-8.03,1.22-2.33,2.85-4.17,4.83-5.45,2.02-1.31,4.19-1.97,6.44-1.97,2.4,0,4.33.76,5.73,2.26,1.37,1.46,2.07,3.33,2.07,5.54,0,1.78-.42,3.34-1.24,4.62-1.25,1.96-2.93,2.38-4.11,2.38-1.09,0-2.02-.29-2.76-.88-.86-.67-1.34-1.68-1.34-2.82,0-.38.05-.79.15-1.23,0-.04.02-.08.03-.11-.3.42-.56.96-.78,1.59-.33.95-.49,2.03-.49,3.2,0,3.51,1.51,3.8,3.05,3.8,1,0,2.16-.37,3.42-1.11,1.37-.8,2.77-2.03,4.14-3.68,1.01-1.17,2.12-1.42,2.88-1.42,1.12,0,2.11.56,2.72,1.54.45.72.68,1.63.68,2.71,0,1.72-.46,3.18-1.38,4.34-1.76,2.17-3.88,3.86-6.33,5.04-2.45,1.18-4.86,1.77-7.19,1.77Z"/>
      <path class="cls-7" d="M122.7,54.21c-2.4,0-4.51-.6-6.25-1.8-1.71-1.17-3.03-2.74-3.92-4.67-.85-1.86-1.28-3.89-1.28-6.03,0-2.83.56-5.4,1.65-7.65,1.12-2.3,2.7-4.13,4.7-5.44,2.02-1.33,4.29-2,6.75-2,3.12,0,5.68,1.11,7.62,3.3,1.4,1.59,2.37,3.46,2.88,5.6,1.03-.16,2.19-.41,3.44-.74.45-.11.84-.17,1.21-.17,1.17,0,2.18.62,2.76,1.7.39.73.59,1.6.59,2.6,0,3.37-1.79,4.43-2.86,4.76-1.7.6-3.6,1-5.64,1.19-.81,2.54-2.14,4.66-3.97,6.31-2.24,2.02-4.82,3.04-7.69,3.04ZM122.37,37.12c-.58.94-.88,2.33-.88,4.14,0,1.37.24,2.41.68,3.01.48.64.79.64.92.64.35,0,.78-.08,1.29-.64.35-.39.63-.93.84-1.63-.8-.75-1.46-1.64-1.95-2.66-.44-.91-.75-1.87-.9-2.86Z"/>
      <path class="cls-7" d="M142.45,54.21c-2.01,0-3.68-.84-4.84-2.42-1.01-1.38-1.62-3.36-1.85-6.06-.4-4.71-.61-8.89-.61-12.42v-1.75c.05-1.78.62-3.07,1.68-3.89.94-.72,2.17-1.06,3.77-1.06,1.38,0,2.48.37,3.28,1.1.85.78,1.27,1.92,1.27,3.4,0,2.45.1,5.41.29,8.83.24-.39.47-.77.68-1.12-.34-1-.52-2.1-.52-3.31,0-1.42.32-2.82.94-4.15.63-1.35,1.52-2.48,2.64-3.34,1.22-.94,2.62-1.42,4.17-1.42s2.87.59,3.85,1.71c.93,1.06,1.4,2.5,1.4,4.29,0,.87-.11,1.8-.33,2.78.55-.1,1.15-.21,1.78-.34l1.31-.24c.27-.07.57-.1.95-.1,1.1,0,2.06.44,2.71,1.25.56.7.84,1.57.84,2.6,0,1.44-.32,2.64-.95,3.56-.65.95-1.6,1.63-2.82,2.04-1.74.57-3.6.85-5.53.85-1.11,0-2.19-.1-3.23-.31-.77,1.21-1.61,2.45-2.48,3.71-1.48,2.1-2.76,3.53-3.92,4.37-1.31.95-2.82,1.43-4.47,1.43Z"/>
      <path class="cls-7" d="M169.8,54.21c-4.03,0-7.24-1.15-9.55-3.42-2.32-2.28-3.5-5.38-3.5-9.23,0-2.6.56-5.05,1.65-7.3,1.12-2.29,2.7-4.14,4.7-5.5,2.04-1.39,4.38-2.1,6.95-2.1s4.5.77,6.05,2.3c1.56,1.54,2.35,3.59,2.35,6.1,0,2.84-1.03,5.31-3.06,7.34-1.04,1.04-2.41,1.95-4.14,2.73.96-.17,2.05-.58,3.26-1.25,1.68-.92,3.16-2.15,4.39-3.64,1.02-1.19,2.13-1.43,2.89-1.43,1.12,0,2.11.56,2.72,1.54.45.72.68,1.63.68,2.71,0,1.82-.48,3.3-1.44,4.41-1.35,1.65-3.3,3.2-5.76,4.59-2.54,1.43-5.3,2.16-8.21,2.16ZM169.14,35.56c-.22,0-.72.1-1.35,1.17-.23.39-.42.82-.57,1.28.36-.2.68-.41.96-.64.87-.72.97-1.32.97-1.71,0-.04,0-.07,0-.1Z"/>
      <path class="cls-7" d="M182.7,54.21c-2.11,0-3.72-1.16-4.54-3.28-.61-1.58-.91-3.91-.91-7.12,0-4.52.65-8.88,1.94-12.95.44-1.41,1.21-2.48,2.28-3.19,1.02-.68,2.32-1,3.97-1,1.07,0,1.85.18,2.46.55.51.32,1.34,1.08,1.34,2.65,0,.1,0,.21-.01.34.88-.89,1.76-1.59,2.65-2.11,1.61-.95,3.14-1.43,4.57-1.43,1.91,0,3.06.79,3.68,1.46.87.93,1.32,2.21,1.32,3.79,0,.33-.03.88-.21,1.99.51.23.98.55,1.4.97.89.89,1.36,2.05,1.36,3.34,0,.69-.15,1.41-.44,2.14-.67,1.56-1.61,2.84-2.8,3.87-1.33,1.15-2.85,1.73-4.51,1.73-1.47,0-2.78-.55-3.81-1.6-.81-.84-1.31-1.88-1.48-3.11-.31.59-.62,1.25-.93,1.96-.75,1.72-1.37,3.57-1.84,5.48-.45,1.94-.98,3.24-1.69,4.04-.86.98-2.14,1.48-3.8,1.48Z"/>
      <path class="cls-7" d="M233.75,54.21c-3.3,0-6.33-.76-9-2.25-2.71-1.51-4.88-3.76-6.46-6.67-1.55-2.87-2.34-6.31-2.34-10.23,0-5.34,1-10.14,2.97-14.26,2-4.18,4.78-7.46,8.25-9.76,3.5-2.31,7.43-3.48,11.68-3.48,3.3,0,6.33.76,9,2.25,2.71,1.52,4.88,3.76,6.46,6.67,1.55,2.87,2.34,6.31,2.34,10.23,0,5.34-1,10.14-2.97,14.26-2,4.18-4.78,7.46-8.25,9.76-3.5,2.31-7.43,3.48-11.68,3.48ZM238.35,17.46c-2.12,0-3.93.63-5.55,1.93-1.68,1.35-3.02,3.31-3.99,5.81-1.01,2.61-1.52,5.64-1.52,9.01s.69,6.09,2.05,7.76c1.28,1.57,2.88,2.34,4.9,2.34,2.15,0,3.99-.64,5.62-1.96,1.69-1.36,3.02-3.32,3.96-5.82.98-2.61,1.47-5.63,1.47-8.97s-.69-6.09-2.05-7.76c-1.28-1.57-2.88-2.34-4.9-2.34Z"/>
      <path class="cls-7" d="M273.4,54.21c-2.31,0-4.12-.97-5.23-2.81-.03-.04-.05-.09-.08-.14-.14.17-.28.33-.42.49-1.52,1.63-3.24,2.46-5.11,2.46-2.16,0-4-1.02-5.32-2.94-1.18-1.71-1.78-3.84-1.78-6.31,0-2.59.18-5.01.53-7.19.35-2.18.93-4.51,1.73-6.93.47-1.41,1.18-2.46,2.13-3.15.96-.69,2.27-1.03,4.02-1.03,1.22,0,2.13.26,2.79.8.75.62,1.16,1.54,1.16,2.6,0,.33-.05.83-.6,3.16-.33,1.24-.59,2.32-.79,3.28-.37,1.95-.61,3.36-.75,4.39.4-.74.83-1.64,1.27-2.7.81-1.94,1.61-4.38,2.39-7.25.38-1.41,1.02-2.49,1.92-3.2.91-.72,2.16-1.08,3.71-1.08,1.17,0,2.01.18,2.64.57.53.32,1.41,1.1,1.41,2.73,0,.68-.15,2.12-1.3,7.29-1,4.58-1.27,6.41-1.33,7.13.13-.1.29-.22.48-.39.84-.75,2.01-2.02,3.47-3.76,1.01-1.17,2.12-1.42,2.88-1.42,1.12,0,2.11.56,2.72,1.54.45.72.68,1.63.68,2.71,0,1.82-.48,3.3-1.44,4.41-1.51,1.86-3.21,3.46-5.01,4.69-1.98,1.36-4.25,2.05-6.76,2.05Z"/>
      <path class="cls-7" d="M284.1,54.21c-2.11,0-3.72-1.16-4.54-3.28-.61-1.58-.91-3.91-.91-7.12,0-4.52.65-8.88,1.94-12.95.44-1.41,1.21-2.48,2.28-3.19,1.02-.68,2.32-1,3.97-1,1.07,0,1.85.18,2.46.55.5.31,1.34,1.07,1.34,2.65,0,.1,0,.21-.01.34.88-.89,1.76-1.59,2.65-2.11,1.61-.95,3.14-1.43,4.57-1.43,1.91,0,3.06.79,3.68,1.45.88.93,1.32,2.21,1.32,3.8,0,.34-.03.88-.21,1.99.51.23.98.55,1.4.97.89.89,1.36,2.05,1.36,3.34,0,.68-.15,1.4-.44,2.14-.68,1.56-1.61,2.85-2.8,3.87-1.34,1.15-2.85,1.74-4.51,1.74-1.47,0-2.79-.56-3.81-1.6-.81-.83-1.31-1.88-1.48-3.11-.31.59-.62,1.25-.93,1.96-.75,1.72-1.37,3.56-1.84,5.48-.45,1.94-.98,3.23-1.69,4.04-.86.99-2.14,1.48-3.81,1.48Z"/>
      <path class="cls-7" d="M327.1,54.36c-2.58,0-4.99-.57-7.17-1.7-2.21-1.14-3.88-2.58-4.96-4.27-.57-.89-.87-1.94-.87-3.13s.3-2.25.89-3.18c.75-1.18,1.86-1.82,3.11-1.82.81,0,1.59.25,2.32.76.57.39,1.17,1.02,1.91,1.96,1.24,1.63,2.63,2.38,4.38,2.38,1.3,0,2.33-.51,3.24-1.6,1.02-1.24,1.71-3.35,2.03-6.27l.06-.53h-.17c-1.22,0-2.31-.36-3.21-1.08-.72-.57-1.59-1.63-1.59-3.42,0-1.57.46-2.84,1.37-3.77.92-.95,2.19-1.43,3.78-1.43.32,0,.63,0,.95,0,.28-2.65.58-5.7.89-9.12-2.48.37-3.75.84-4.4,1.21-.84.48-1.19,1.05-1.19,1.96,0,.75.22,1.46.68,2.17.41.61.62,1.28.62,1.98,0,.9-.33,2.18-1.88,3.23-1,.68-2.13,1.02-3.37,1.02-1.38,0-2.59-.43-3.59-1.27-.69-.57-1.24-1.5-1.75-2.91-.44-1.24-.67-2.63-.67-4.12,0-4.91,2.62-8.66,7.57-10.83,4.55-2,10.9-2.97,19.43-2.97,5.73,0,10.87.31,15.27.92,1.46.21,2.53.74,3.21,1.57.64.8.97,1.79.97,2.96,0,3.27-1.95,5.22-5.22,5.22-.2,0-.41,0-.62-.02l-1.79-.15c-1.93-.16-3.89-.3-5.81-.4-1.9-.1-3.93-.15-6.02-.15h-.41c-.28,3.33-.57,6.5-.87,9.46l6.34-.11c1.85,0,3.13.41,3.95,1.26.54.56,1.18,1.56,1.18,3.14,0,2.1-.87,3.39-1.6,4.11-1.05,1.02-2.48,1.54-4.25,1.54h-6.81l-.06.43c-.76,5.98-2.41,10.19-5.03,12.87-2.66,2.72-6.32,4.1-10.85,4.1Z"/>
      <path class="cls-7" d="M363.15,54.21c-3.67,0-6.53-1.75-8.29-5.06-1.56-2.95-2.36-6.74-2.36-11.29,0-4.18.54-8.99,1.62-14.3,1.08-5.38,2.72-10.07,4.86-13.97,2.42-4.4,5.47-6.64,9.08-6.64,2.3,0,4.19,1.1,5.48,3.17,1.13,1.82,1.67,4.25,1.67,7.43,0,4.22-1.16,9.12-3.46,14.58-2.15,5.11-5.06,10.23-8.65,15.23.2.75.41,1.04.48,1.12.1.11.24.23.62.23.93,0,1.71-.25,2.39-.77.91-.69,2.13-1.94,3.63-3.72,1-1.17,2.12-1.41,2.88-1.41,1.12,0,2.11.56,2.72,1.54.45.72.68,1.63.68,2.71,0,1.82-.48,3.3-1.44,4.41-1.51,1.86-3.23,3.46-5.07,4.7-2.01,1.35-4.31,2.04-6.84,2.04ZM366.23,14.72c-.93,2.65-1.76,6.01-2.47,9.99-.07.38-.13.76-.19,1.13.28-.7.54-1.39.79-2.08,1.21-3.39,1.87-6.52,1.97-9.32-.03.09-.07.18-.1.28Z"/>
      <path class="cls-7" d="M387.75,54.21c-1.57,0-3.01-.53-4.29-1.58-.39-.32-.75-.67-1.07-1.06-1.78,1.75-3.88,2.64-6.29,2.64-2.65,0-4.89-1.03-6.49-2.98-1.53-1.86-2.31-4.27-2.31-7.17s.7-5.84,2.07-8.49c1.38-2.66,3.24-4.83,5.55-6.46,2.39-1.69,4.97-2.54,7.68-2.54,1.35,0,2.32.36,2.97,1.1.17.2.33.42.47.68.28-.02.57-.03.86-.03,3.28,0,4.45,1.94,4.45,3.75,0,.58-.09,1.71-.79,5.37-.71,3.57-.99,5.63-1.08,6.8.08-.07.17-.15.27-.23.83-.75,1.99-2.02,3.46-3.78,1.01-1.17,2.12-1.42,2.88-1.42,1.12,0,2.11.56,2.72,1.54.45.72.68,1.63.68,2.71,0,1.82-.48,3.3-1.44,4.41-1.42,1.76-3,3.32-4.65,4.58-1.88,1.43-3.79,2.16-5.66,2.16ZM380.61,36.4c-.89.8-1.62,1.87-2.18,3.19-.59,1.41-.89,2.94-.89,4.52,0,.78.16,1.02.16,1.02,0,0,.05.03.19.03-.01,0,.19-.09.52-.52.48-.62.84-1.51,1.08-2.64l1.13-5.6Z"/>
      <path class="cls-7" d="M399.34,54.21c-2,0-3.68-.84-4.84-2.42-1.01-1.38-1.62-3.36-1.85-6.06-.4-4.7-.61-8.88-.61-12.42v-1.75c.05-1.79.62-3.07,1.69-3.89.94-.71,2.17-1.06,3.76-1.06,1.38,0,2.48.37,3.28,1.1.84.78,1.27,1.92,1.27,3.4,0,2.44.1,5.4.29,8.83.24-.39.47-.77.68-1.12-.34-1-.52-2.1-.52-3.31,0-1.42.32-2.82.94-4.15.63-1.35,1.52-2.48,2.64-3.34,1.22-.94,2.62-1.42,4.17-1.42s2.87.59,3.85,1.71c.93,1.06,1.4,2.5,1.4,4.29,0,.87-.11,1.8-.33,2.78.55-.1,1.15-.21,1.78-.34l1.31-.24c.27-.07.57-.1.95-.1,1.1,0,2.07.44,2.71,1.25.56.7.84,1.57.84,2.6,0,1.44-.32,2.64-.95,3.56-.65.95-1.6,1.64-2.82,2.04-1.74.57-3.59.85-5.53.85-1.11,0-2.19-.1-3.23-.31-.77,1.21-1.61,2.45-2.48,3.71-1.47,2.1-2.75,3.53-3.91,4.37-1.31.95-2.82,1.43-4.47,1.43Z"/>
      <path class="cls-7" d="M425.09,54.21c-2.4,0-4.5-.6-6.25-1.8-1.71-1.17-3.03-2.74-3.92-4.67-.85-1.86-1.28-3.89-1.28-6.03,0-2.83.56-5.4,1.65-7.65,1.12-2.3,2.7-4.13,4.7-5.44,2.02-1.33,4.29-2,6.75-2,3.12,0,5.68,1.11,7.62,3.3,1.4,1.59,2.37,3.46,2.88,5.6,1.04-.16,2.19-.41,3.44-.74.45-.11.84-.17,1.21-.17,1.17,0,2.18.62,2.76,1.7.39.73.59,1.6.59,2.6,0,3.37-1.79,4.43-2.86,4.76-1.7.6-3.6,1-5.64,1.19-.81,2.54-2.14,4.66-3.97,6.31-2.24,2.02-4.82,3.04-7.69,3.04ZM424.77,37.12c-.58.94-.88,2.33-.88,4.14,0,1.37.24,2.41.68,3.01.48.64.79.64.92.64.35,0,.78-.08,1.29-.64.35-.39.63-.93.84-1.63-.8-.75-1.46-1.64-1.95-2.66-.44-.91-.75-1.87-.9-2.86Z"/>
      <path class="cls-7" d="M442.49,54.21c-2.11,0-3.72-1.16-4.54-3.28-.61-1.58-.91-3.91-.91-7.12,0-4.52.65-8.88,1.94-12.95.44-1.41,1.21-2.48,2.28-3.19,1.02-.68,2.32-1,3.97-1,1.07,0,1.85.18,2.46.55.51.32,1.34,1.08,1.34,2.65,0,.1,0,.21-.01.34.88-.89,1.76-1.59,2.65-2.11,1.61-.95,3.14-1.43,4.57-1.43,1.91,0,3.06.79,3.68,1.46.87.93,1.32,2.21,1.32,3.79,0,.33-.03.88-.21,1.99.51.23.98.55,1.4.97.89.89,1.36,2.05,1.36,3.34,0,.69-.15,1.41-.44,2.14-.67,1.56-1.61,2.84-2.8,3.87-1.33,1.15-2.85,1.73-4.51,1.73-1.47,0-2.78-.55-3.81-1.6-.81-.84-1.31-1.88-1.48-3.11-.31.59-.62,1.25-.93,1.96-.75,1.72-1.37,3.57-1.84,5.48-.45,1.94-.98,3.24-1.69,4.04-.86.98-2.14,1.48-3.8,1.48Z"/>
      <path class="cls-7" d="M471.74,55.31c-2.22,0-4-.57-5.29-1.69-1.36-1.18-1.86-2.46-2.01-3.48-1.16,1.09-2.35,1.33-3.15,1.33-1.12,0-2.09-.44-2.81-1.26-.65-.74-.99-1.69-.99-2.74,0-1.14.39-2.19,1.16-3.12l.64-.79c1.78-2.2,3.13-4.02,4.02-5.41.54-.87,1.12-1.96,1.7-3.22.61-1.31,1.42-3.13,2.41-5.41.55-1.27,2.03-3.4,5.78-3.4,1.27,0,2.12.13,2.78.43,1.08.49,1.72,1.47,1.72,2.62,0,.41-.09.89-.29,1.54-.17.56-.41,1.11-.7,1.66-.57,1.15-.66,1.81-.66,2.1,0,.02,0,.22.25.64.3.51.78,1.18,1.45,2,1.17,1.54,2.02,2.79,2.62,3.86.72,1.28,1.08,2.7,1.08,4.2,0,1.72-.4,3.37-1.2,4.9-.81,1.55-1.95,2.82-3.4,3.77-1.5.98-3.21,1.48-5.1,1.48ZM469.85,43.55c-.15.24-.29.47-.44.69.24-.02.48-.03.73-.03.04,0,.07,0,.11,0-.12-.22-.26-.44-.4-.66Z"/>
      <path class="cls-7" d="M487.34,54.21c-2.04,0-3.64-.62-4.78-1.83-1.11-1.18-1.67-2.7-1.67-4.52,0-2.02.61-3.69,1.82-4.97.88-.93,1.98-1.53,3.29-1.81-.69-.67-1.06-1.6-1.06-2.67v-.12l.07-.52c.58-3.8,1.36-8.12,2.32-12.9.97-4.79,1.88-8.96,2.72-12.42.76-3.06,3-4.73,6.29-4.73,4.83,0,5.2,3.1,5.2,4.05,0,.48-.07.99-.22,1.53-.86,3.5-2.02,7.83-3.46,12.84-1.44,5.02-2.83,9.46-4.14,13.19-.4,1.15-1.18,2.01-2.24,2.49.35.21.67.45.96.73,1.16,1.11,1.74,2.66,1.74,4.62s-.62,3.75-1.85,5.05c-1.26,1.33-2.94,2-5,2Z"/>
    </g>
  </g>
  <text class="cls-1" transform="translate(18.25 51.96)"><tspan class="cls-9" x="0" y="0">D</tspan><tspan x="41.3" y="0">isc</tspan><tspan class="cls-4" x="93.35" y="0">o</tspan><tspan class="cls-10" x="116.4" y="0">ver </tspan><tspan class="cls-6" x="196.5" y="0">O</tspan><tspan x="236.8" y="0">ur F</tspan><tspan class="cls-9" x="333.5" y="0">l</tspan><tspan class="cls-3" x="349.29" y="0">a</tspan><tspan x="373.29" y="0">vo</tspan><tspan class="cls-5" x="418.29" y="0">r</tspan><tspan class="cls-8" x="441.79" y="0">s</tspan><tspan x="462.99" y="0">!</tspan></text>
</svg>