<?xml version="1.0" encoding="UTF-8"?>
<svg id="Body" xmlns="http://www.w3.org/2000/svg" viewBox="0 0 536.31 188.99">
  <defs>
    <style>
      .cls-1 {
        fill: #80deff;
      }

      .cls-2 {
        letter-spacing: -.02em;
      }

      .cls-3, .cls-4 {
        fill: #fff;
      }

      .cls-4, .cls-5 {
        font-family: Story-of-Bela, 'Story of Bela';
        font-size: 20px;
      }

      .cls-6 {
        letter-spacing: -.05em;
      }

      .cls-5, .cls-7 {
        fill: #f93;
      }

      .cls-8 {
        fill: #036;
      }

      .cls-9 {
        fill: #80deff;
      }

      .cls-10 {
        letter-spacing: -.02em;
      }

      .cls-11 {
        letter-spacing: -.01em;
      }

      .cls-12 {
        letter-spacing: -.01em;
      }

      .cls-13 {
        fill: #4c2e04;
      }
    </style>
  </defs>
  <g>
    <g>
      <text class="cls-5" transform="translate(17.99 60.37)"><tspan x="0" y="0">Exp</tspan><tspan class="cls-11" x="34.84" y="0">l</tspan><tspan x="41.02" y="0">ore Our </tspan><tspan class="cls-2" x="124.94" y="0">F</tspan><tspan class="cls-10" x="136.38" y="0">l</tspan><tspan x="142.52" y="0">avors!</tspan><tspan x="0" y="31">Ready </tspan><tspan class="cls-6" x="69.58" y="31">T</tspan><tspan x="79.8" y="31">o Order? Shop </tspan><tspan class="cls-12" x="228.76" y="31">N</tspan><tspan x="244.14" y="31">ow!</tspan></text>
      <g>
        <path class="cls-8" d="M24.08,62.96c-.25,0-.5,0-.74-.03-3.13-.23-5.34-1.81-6.07-4.32-.37-1.19-.47-2.46-.55-3.59-.07-1.51-.08-2.81-.04-4.05.04-1.26.11-2.59.45-3.91.28-1.34,1.32-3.54,5.09-3.84.42-.02.75-.03,1.08-.03.27,0,.55,0,.83.03.18.01.38.02.58.04,1.87.11,5.01.29,5.97,2.91.32.89.2,1.54.12,1.96l-.03.16c-.22,1.25-1.06,2.72-2.41,3.29.24.62.29,1.32.16,1.99,1.4.54,2.38,1.97,2.42,3.67.03.78-.17,1.61-.6,2.37-.61,1.19-1.74,2.2-3.09,2.76-.99.4-2.04.6-3.17.6Z"/>
        <path class="cls-8" d="M31.83,63.11c-.44,0-.89-.08-1.39-.24-2.02-.76-3.18-2.98-2.65-4.97.31-1.2,1.04-2.32,1.73-3.19-.53-.65-1.05-1.4-1.44-2.25-.37-.82-.52-1.6-.45-2.32.21-2.17,2.01-3.79,4.17-3.79.47,0,.92.07,1.37.22.57.2,1.12.56,1.69,1.11.11-.11.22-.22.33-.33.51-.46,1.09-.76,1.75-.9.29-.06.59-.1.9-.1,1.94,0,3.62,1.26,4.07,3.06.2.74.16,1.61-.12,2.46-.33,1.03-.91,1.87-1.32,2.41-.12.15-.24.3-.36.44.44.56.84,1.12,1.05,1.5.38.66.97,1.69.89,2.96-.07,1.81-1.6,3.47-3.54,3.85-.18.04-.42.07-.67.07-.61,0-1.23-.16-1.77-.47-.51-.27-.91-.64-1.23-1.01-.54.59-1.54,1.49-3.01,1.49Z"/>
        <path class="cls-8" d="M43.41,65.35c-2.32,0-3.99-1.91-4.27-4.87-.43-3.87-.29-7.4.42-10.46.52-2.13,1.88-3.45,3.55-3.45.57,0,1.06.15,1.49.38.74-.38,1.57-.64,2.5-.76.33-.04.63-.06.92-.06,3.28,0,5.85,2.46,6.41,6.13.53,3.45-.93,7.56-4.73,8.75-.65.2-1.27.29-1.86.29-.13,0-.26,0-.39-.01-.07.49-.18.94-.34,1.35-.61,1.67-2.04,2.72-3.71,2.72ZM48.06,53.74h0Z"/>
        <path class="cls-8" d="M56.41,62.69c-2.24,0-3.93-1.5-4.53-4.02-.44-1.73-.59-3.67-.47-5.89.06-1.47.22-2.88.47-4.28.24-1.21.77-3.99,3.51-4.5.28-.05.61-.09.96-.09,1.39,0,3.18.47,4.05,1.8.67,1.05.58,2.16.54,2.76-.07.81-.26,1.52-.43,2.14-.07.25-.13.49-.19.74-.42,1.72-.55,3.56-.4,5.49.01.16.06.38.11.6.22,1.08.68,3.33-1.24,4.58-.67.43-1.5.66-2.37.66Z"/>
        <path class="cls-8" d="M65.22,62.57c-.81,0-1.62-.12-2.41-.37-2.08-.64-3.73-2.15-4.67-4.26-1.1-2.48-1.07-5.56.08-8.02,1.2-2.56,3.98-4.21,7.07-4.21,2.52,0,4.76,1.17,6,3.14,2.19,3.48,1.63,8.5-1.31,11.68-1.14,1.3-2.85,2.04-4.77,2.04Z"/>
        <path class="cls-8" d="M73.95,62.93c-1.4,0-2.62-.65-3.36-1.8-1-1.52-1.14-4.2-1.14-6.87.02-1.46.04-3.43.64-5.23.3-.88,1.09-3.21,3.94-3.21,1.28,0,2.37.45,3.11,1.23.48-.16.96-.25,1.43-.25.94,0,2.69.38,3.88,2.94.51,1.15.71,2.46.6,3.81-.22,2.6-1.92,4.41-4.13,4.41-.22,0-.43-.02-.65-.06,0,.77-.07,1.5-.21,2.06-.44,1.72-2.16,2.96-4.1,2.96Z"/>
        <path class="cls-8" d="M87.33,62.85c-3.64,0-6.58-2.17-7.33-5.41-.52-2.22-.42-4.57.28-6.6.96-2.83,3.58-4.75,6.51-4.75,1.35,0,2.67.42,3.82,1.21,2.5,1.73,3.3,4.83,1.93,7.2.47.34.86.79,1.1,1.31.76,1.53.52,3.45-.63,4.76-1.28,1.43-3.4,2.28-5.68,2.28Z"/>
        <path class="cls-8" d="M105.67,62.53c-3.7,0-6.65-1.78-8.08-4.88-.64-1.42-.94-3.07-.88-4.92.06-1.49.37-3.65,1.53-5.58,1.45-2.45,4.35-3.99,7.55-3.99,2.84,0,5.41,1.22,6.88,3.27.98,1.39,1.61,2.98,1.84,4.62.15,1.02.16,2.05.05,3.05-.66,5.05-4.23,8.43-8.89,8.43ZM106.03,53.66c.09-.03.22-.15.32-.45.21-.66.15-1.48-.13-1.95-.09-.14-.18-.22-.28-.27-.09.17-.24.58-.22,1.48,0,.53.15.99.26,1.16.02,0,.04.02.05.03Z"/>
        <path class="cls-8" d="M117.4,62.65c-1.49,0-2.97-.6-3.94-1.61-.61-.67-1.04-1.44-1.33-2.32-1.04-2.89-.95-6.89.25-9.89.62-1.5,2.08-2.42,3.84-2.42,1.33,0,2.77.62,3.66,1.73.27-.37.6-.71,1.01-1.03.51-.39,1.16-.64,1.88-.73.21-.02.34-.02.47-.02.71,0,1.42.16,2.07.45.29.12.78.34,1.19.79.72.74.95,1.66,1.02,2.31.07.61.05,1.3-.07,2.09-.06.46-.15.93-.24,1.4-.09.49-.19.98-.25,1.48-.1.85-.02,1.08.51,1.58.49.5.69,1.03.77,1.31.02.08.04.15.05.23.3,1.92-1.18,3.63-2.71,4.11-.38.11-.88.23-1.44.23-1.08,0-2.12-.35-2.96-.95-1.07.74-2.34,1.19-3.6,1.24-.03,0-.12,0-.15,0Z"/>
        <path class="cls-8" d="M129.57,62.93c-1.4,0-2.62-.65-3.36-1.8-1-1.52-1.14-4.2-1.14-6.87.02-1.46.04-3.43.64-5.23.3-.88,1.09-3.21,3.94-3.21,1.28,0,2.37.45,3.11,1.23.48-.16.96-.25,1.43-.25.94,0,2.69.38,3.88,2.94.51,1.15.71,2.46.6,3.81-.22,2.6-1.92,4.41-4.13,4.41-.22,0-.43-.02-.65-.06,0,.77-.07,1.5-.21,2.06-.44,1.72-2.16,2.96-4.1,2.96Z"/>
        <path class="cls-8" d="M146.13,63.23c-2.04,0-3.67-1.17-4.05-2.91-.26-1.17-.31-2.38-.33-3.41l-.02-.79c-.06-2.12-.12-4.31.07-6.5.18-1.95.6-6.47,5.85-6.47.86,0,1.7.12,2.43.23l.47.07c.25.04.71.05,1.12.06.53.02,1.07.03,1.54.1,2.08.26,3.45,2.02,3.31,4.28-.08,1.36-.69,2.54-1.6,3.32.49.8.71,1.81.56,2.82-.23,1.65-1.36,2.89-2.88,3.17-.46.07-.83.09-1.18.09-.44,0-.87-.04-1.27-.08,0,.06.01.13.02.19.06.56.13,1.14.14,1.76.03.54.02,1.27-.37,2-.75,1.29-2.19,2.06-3.81,2.06Z"/>
        <path class="cls-8" d="M157.95,62.69c-2.24,0-3.94-1.5-4.53-4.02-.44-1.73-.59-3.67-.47-5.89.07-1.48.22-2.89.47-4.28.24-1.21.77-3.99,3.51-4.5.28-.05.61-.09.96-.09,1.39,0,3.19.47,4.05,1.81.67,1.05.58,2.21.54,2.76-.07.81-.27,1.52-.44,2.15-.07.24-.13.48-.19.73-.41,1.71-.54,3.55-.39,5.49.01.16.06.38.11.6.22,1.08.68,3.33-1.24,4.58-.66.43-1.5.66-2.37.66Z"/>
        <path class="cls-8" d="M164.66,62.65c-1.5,0-2.97-.6-3.95-1.61-.61-.67-1.04-1.44-1.33-2.32-.46-1.28-.61-2.82-.45-4.53.04-.49.51-5.11,3.61-6.75.88-.52,2.07-.82,3.38-.82.27,0,.55.01.81.04.39.04.96.15,1.56.35.51-.34,1.11-.56,1.77-.63.18-.02.31-.02.43-.02.7,0,1.41.16,2.06.45.3.12.79.35,1.19.79.56.59.92,1.41,1.01,2.32.07.6.05,1.29-.07,2.08-.06.46-.16.94-.25,1.42-.09.49-.19.97-.25,1.46-.09.85-.02,1.08.51,1.58.48.49.68,1.01.76,1.29.03.09.04.17.06.26.26,1.71-.96,3.55-2.72,4.11-.38.11-.88.23-1.44.23-1.08,0-2.12-.35-2.96-.95-1.07.74-2.33,1.19-3.6,1.24-.03,0-.13,0-.15,0Z"/>
        <path class="cls-8" d="M179.81,62.87c-1.62,0-4.56-.69-6.12-5.32-.7-2.08-1.38-4.33-1.6-6.67-.12-1.3.28-2.54,1.13-3.48.86-.95,2.09-1.49,3.36-1.49,1.45,0,2.72.69,3.52,1.86.73-1.22,2.08-2,3.54-2,1.62,0,2.97,1,3.45,2.55.34,1.12.16,2.38-.07,3.69l-.03.18c-.16,1.04-.38,2.02-.68,2.97-.11.33-.21.62-.3.92-.59,1.83-1.26,3.9-2.86,5.48-.84.84-2.03,1.32-3.34,1.32Z"/>
        <path class="cls-8" d="M191.75,62.57c-.81,0-1.62-.12-2.41-.37-2.08-.64-3.73-2.16-4.67-4.26-1.1-2.48-1.07-5.56.09-8.02,1.2-2.56,3.98-4.21,7.07-4.21,2.52,0,4.77,1.17,6,3.14,2.19,3.47,1.63,8.5-1.31,11.68-1.14,1.3-2.85,2.04-4.77,2.04Z"/>
        <path class="cls-8" d="M200.49,62.93c-1.4,0-2.62-.65-3.36-1.8-1-1.53-1.14-4.2-1.14-6.87.02-1.89.09-3.57.64-5.23.3-.88,1.09-3.21,3.94-3.21,1.28,0,2.37.45,3.11,1.23.48-.16.96-.25,1.43-.25.94,0,2.69.38,3.88,2.94.51,1.16.71,2.47.6,3.81-.19,2.19-1.66,4.41-4.13,4.41-.22,0-.43-.02-.65-.06,0,.77-.07,1.49-.21,2.06-.44,1.73-2.17,2.96-4.1,2.96Z"/>
        <path class="cls-8" d="M212.23,62.87c-.78,0-3.45-.12-4.85-1.72-.99-1.05-1.29-2.63-.71-3.97.23-.53.57-.97.99-1.3-.75-.78-1.25-1.74-1.41-2.81-.29-1.81.45-3.66,1.96-4.96,1.22-1.03,2.96-1.62,4.78-1.62,1.49,0,2.9.37,4.08,1.06.54.31,1.88,1.21,2.31,2.63.46,1.52-.11,3.26-1.38,4.25.47.59.81,1.32.92,2.25.14,1.3-.24,2.64-1.03,3.68-1.2,1.59-3.26,2.51-5.66,2.51Z"/>
        <path class="cls-8" d="M220.71,62.65c-.73,0-1.39-.15-1.96-.46-1.76-.9-2.49-3.16-1.58-5.02.12-.24.27-.46.43-.67-.29-.44-.5-.94-.59-1.48-.19-1.12-.31-2.36-.39-3.87l-.02-.35c-.04-.85-.08-1.72,0-2.64.06-.67.22-1.31.47-1.91.02-.04.04-.08.06-.12,1.19-2.34,3.11-2.62,4.44-2.62,3.3,0,3.85,2.45,3.94,3.5.08.78.03,1.69-.16,2.72-.03.22-.11.72-.2,1.24-.09.57-.19,1.15-.21,1.32,0,.03-.01.07-.02.11-.03.15-.05.4-.08.69-.15,1.36-.29,2.38-.64,3.13.16.2.29.43.4.67.33.69.44,1.55.32,2.46-.29,1.96-2.02,3.31-4.22,3.31Z"/>
        <path class="cls-8" d="M21.53,94.07c-.17,0-.34,0-.51-.03-1.36-.14-3.15-.95-3.87-4.01-.28-1.2-1.51-9.87,1.19-13.2,1.92-2.54,5.66-2.74,6.75-2.74,2.87,0,5.4,1.04,6.93,2.85,1.11,1.32,1.63,3.23,1.42,5.12-.2,1.69-.94,3.1-2.14,4.14.72.86,1.29,1.9,1.44,3.15.18,1.77-1.04,3.6-2.72,4.12-.32.11-.7.17-1.15.17-.61,0-1.23-.14-1.8-.41-.04-.02-.08-.04-.11-.06-.44-.24-.76-.51-.99-.72-.11-.09-.25-.23-.43-.43-.01.02-.03.05-.05.07-.83,1.2-2.41,1.97-3.97,1.97Z"/>
        <path class="cls-8" d="M37.88,93.85c-3.64,0-6.58-2.17-7.33-5.41-.52-2.22-.42-4.57.28-6.6.96-2.83,3.58-4.75,6.51-4.75,1.35,0,2.67.42,3.82,1.21,2.5,1.73,3.3,4.83,1.93,7.2.47.34.86.79,1.1,1.31.76,1.53.52,3.45-.63,4.76-1.28,1.43-3.4,2.28-5.68,2.28Z"/>
        <path class="cls-8" d="M47,93.65c-1.5,0-2.97-.6-3.95-1.61-.61-.67-1.04-1.44-1.33-2.32-.46-1.28-.61-2.82-.45-4.53.04-.49.51-5.11,3.61-6.75.88-.52,2.07-.82,3.38-.82.27,0,.55.01.81.04.39.04.96.15,1.56.35.51-.34,1.11-.56,1.77-.63.18-.02.31-.02.43-.02.7,0,1.41.16,2.06.45.3.12.79.35,1.19.79.56.59.92,1.41,1.01,2.32.07.6.05,1.29-.07,2.08-.06.46-.16.94-.25,1.42-.09.49-.19.97-.25,1.46-.09.85-.02,1.08.51,1.58.48.49.68,1.01.76,1.29.03.09.04.17.06.26.26,1.71-.96,3.55-2.72,4.11-.38.11-.88.23-1.44.23-1.08,0-2.12-.35-2.96-.95-1.07.74-2.33,1.19-3.6,1.24-.03,0-.13,0-.15,0Z"/>
        <path class="cls-8" d="M60.75,93.89c-2.88,0-5.1-1.73-5.92-4.63-.45-1.7-.5-3.55-.13-5.25.63-3.08,3.1-5.16,6.16-5.16.21,0,.42.01.62.03.08-.45.21-.93.41-1.39.62-1.61,2.1-2.66,3.83-2.66,2.37,0,4.02,1.91,4.29,4.98.32,4.02.07,7.45-.76,10.51-.5,2.02-1.94,3.35-3.65,3.35-.44,0-1.02-.09-1.65-.43-1.29.57-2.58.65-3.19.65Z"/>
        <path class="cls-8" d="M74.52,97.48c-.22,0-.44-.01-.66-.04-1.5-.19-2.83-1.19-3.41-2.54-.54-1.26-.39-2.62.42-3.73.13-.18.27-.35.42-.49-.45-.16-.87-.38-1.26-.64-2.91-1.99-3.64-6.39-2.66-9.5.56-1.74,2.29-2.96,4.21-2.96,1.73,0,3.17,1.01,3.68,2.55.07-.15.14-.29.22-.43.69-1.24,1.94-1.92,3.52-1.92.4,0,.83.05,1.26.15,1.55.42,2.27,1.28,2.62,1.92.89,1.67.25,3.58-.18,4.84l-.1.31c-.42,1.36-.86,2.82-1.08,4.24-.05.38-.09.78-.13,1.19-.07.74-.14,1.5-.31,2.29-.52,2.22-2.18,3.9-4.33,4.44-.68.15-1.42.3-2.24.3Z"/>
        <path class="cls-8" d="M94.09,94.03c-1.97,0-4.42-.99-4.93-5.71-.18-1.67-.17-3.34-.17-4.95,0-.4,0-.79,0-1.19-.2-.01-.4-.04-.59-.07-.77-.14-1.5-.57-1.99-1.17-.02-.03-.04-.05-.06-.08-1.02-1.36-1.13-3.44-.25-4.94.39-.74,1.15-1.38,2.05-1.7.62-.22,1.24-.25,1.65-.25.19,0,.39,0,.58.01,0,0,.2,0,.24.01.29.03,2.12.08,2.94.08h.19c.46,0,.82-.03,1.19-.05.33-.02.67-.04,1-.05.1,0,.21-.01.32-.02.23-.02.47-.03.7-.03.76,0,1.4.15,1.95.47.59.36,1.02.77,1.33,1.23.23.33.39.7.5,1.13.33,1.12.23,2.3-.26,3.25-.44.87-1.3,1.6-2.3,1.94-.19.06-.37.12-.56.16.01,1.46.14,2.86.39,4.17.05.24.12.51.18.78.1.43.21.86.28,1.29.11.76.19,1.53.04,2.34-.42,2-2.19,3.32-4.41,3.32Z"/>
        <path class="cls-8" d="M104,93.57c-.81,0-1.62-.12-2.41-.37-2.08-.64-3.73-2.15-4.67-4.26-1.1-2.48-1.07-5.56.08-8.02,1.2-2.56,3.98-4.21,7.07-4.21,2.52,0,4.76,1.17,6,3.14,2.19,3.48,1.63,8.5-1.31,11.68-1.14,1.3-2.85,2.04-4.77,2.04Z"/>
        <path class="cls-8" d="M123.08,93.53c-3.7,0-6.65-1.78-8.08-4.88-.64-1.42-.94-3.07-.88-4.92.05-1.49.36-3.65,1.53-5.57,1.45-2.45,4.34-3.99,7.55-3.99,2.84,0,5.41,1.22,6.89,3.27.98,1.39,1.62,2.98,1.84,4.62.15,1.04.16,2.07.04,3.05-.66,5.04-4.23,8.42-8.89,8.42ZM123.42,84.66c.1-.02.23-.15.32-.45.21-.66.15-1.48-.13-1.95-.09-.14-.18-.22-.28-.27-.1.17-.24.58-.22,1.48,0,.52.15.99.26,1.16.02,0,.03.02.05.02Z"/>
        <path class="cls-8" d="M133.41,93.93c-1.4,0-2.62-.65-3.36-1.8-1-1.52-1.14-4.2-1.14-6.87.02-1.46.04-3.43.64-5.23.3-.88,1.09-3.21,3.94-3.21,1.28,0,2.37.45,3.11,1.23.48-.16.96-.25,1.43-.25.94,0,2.69.38,3.88,2.94.51,1.15.71,2.46.6,3.81-.22,2.6-1.92,4.41-4.13,4.41-.22,0-.43-.02-.65-.06,0,.77-.07,1.5-.21,2.06-.44,1.72-2.16,2.96-4.1,2.96Z"/>
        <path class="cls-8" d="M145.37,93.89c-2.88,0-5.1-1.73-5.92-4.63-.45-1.7-.5-3.55-.13-5.25.63-3.08,3.1-5.16,6.16-5.16.21,0,.42.01.62.03.08-.45.21-.93.41-1.39.62-1.61,2.1-2.66,3.83-2.66,2.37,0,4.02,1.91,4.29,4.98.32,4.02.07,7.45-.76,10.51-.5,2.02-1.94,3.35-3.65,3.35-.44,0-1.02-.09-1.65-.43-1.29.57-2.58.65-3.19.65Z"/>
        <path class="cls-8" d="M159.33,93.85c-3.64,0-6.58-2.17-7.33-5.41-.52-2.22-.42-4.56.28-6.6.96-2.84,3.58-4.75,6.51-4.75,1.35,0,2.67.42,3.82,1.21,2.5,1.73,3.3,4.83,1.93,7.21.47.34.86.79,1.1,1.31.76,1.53.52,3.46-.63,4.76-1.28,1.43-3.4,2.28-5.68,2.28Z"/>
        <path class="cls-8" d="M167.33,93.93c-1.4,0-2.62-.65-3.36-1.8-1-1.52-1.14-4.2-1.14-6.87.02-1.46.04-3.43.64-5.23.3-.88,1.09-3.21,3.94-3.21,1.28,0,2.37.45,3.11,1.23.48-.16.96-.25,1.43-.25.94,0,2.69.38,3.88,2.94.51,1.15.71,2.46.6,3.81-.22,2.6-1.92,4.41-4.13,4.41-.22,0-.43-.02-.65-.06,0,.77-.07,1.5-.21,2.06-.44,1.72-2.16,2.96-4.1,2.96Z"/>
        <path class="cls-8" d="M179.4,93.82c-1.1,0-2.06-.32-2.77-.92-1.1-.94-1.47-2.33-.99-3.64.14-.39.36-.76.63-1.1-.35-.57-.56-1.28-.61-2.11-.02-.5,0-.99.07-1.51-.1-.03-.2-.06-.3-.1-1.68-.59-3.09-2.46-2.07-5.94.74-2.51,3.27-4.14,6.44-4.14,2.98,0,5.57,1.31,6.78,3.43,1.47,2.54.69,6.17-1.74,8.08-.55.43-1.12.62-1.57.76,0,.05,0,.1,0,.14-.01.41-.1.78-.25,1.12.48.65.71,1.43.68,2.25-.04.99-.48,1.94-1.22,2.62-.66.58-1.51.93-2.43,1.01-.17.02-.4.04-.64.04Z"/>
        <path class="cls-8" d="M197.03,93.95c-.38,0-3.77-.05-5.65-1.67-1-.94-1.44-2.14-1.27-3.26.19-1.59,1.14-2.82,2.51-3.31-2.56-2.08-3.2-5.3-1.58-7.87,1.27-2.06,3.84-3.29,6.85-3.29.43,0,.85.02,1.28.07,2.38.29,4.31,1.43,5.17,3.03.68,1.26.66,2.74-.06,4.17-.36.72-.88,1.29-1.51,1.66.88.91,1.52,2.1,1.66,3.81.07,1.59-.41,3.08-1.32,4.16-1.39,1.62-3.54,2.5-6.08,2.5Z"/>
        <path class="cls-8" d="M206.73,93.69c-1.8,0-3.38-1.07-4.02-2.73-.37-.9-.47-1.84-.56-2.67-.38-3.24-.44-6.32-.16-9.13.46-4.18,3.17-4.63,4.31-4.63,2.23,0,3.89,1.07,4.43,2.86.14.52.21,1.02.24,1.5.05,0,.1-.02.15-.03.35-.05.66-.07.96-.07,1.01,0,1.98.24,2.81.68.63.36,1.15.81,1.59,1.35,1.87,2.52,1.61,5.65,1.43,7.72-.5,4.71-3.63,5.07-4.57,5.07-1.34,0-2.51-.59-3.27-1.56-.26.37-.6.7-1.06.99-.68.43-1.47.66-2.27.66Z"/>
        <path class="cls-8" d="M222.59,93.57c-.81,0-1.62-.12-2.41-.37-2.08-.64-3.73-2.16-4.67-4.26-1.1-2.48-1.07-5.56.09-8.02,1.2-2.56,3.98-4.21,7.07-4.21,2.52,0,4.77,1.17,6,3.14,2.19,3.47,1.63,8.5-1.31,11.68-1.14,1.3-2.85,2.04-4.77,2.04Z"/>
        <path class="cls-8" d="M231.33,96.35c-2.32,0-3.99-1.91-4.27-4.87-.43-3.87-.29-7.4.42-10.46.52-2.13,1.88-3.45,3.55-3.45.57,0,1.06.15,1.49.38.74-.38,1.57-.64,2.5-.76.33-.04.63-.06.92-.06,3.28,0,5.85,2.46,6.41,6.13.53,3.45-.93,7.56-4.73,8.75-.65.2-1.27.29-1.86.29-.13,0-.26,0-.39-.01-.07.49-.18.94-.34,1.35-.61,1.67-2.04,2.72-3.71,2.72ZM235.98,84.74h0Z"/>
        <path class="cls-8" d="M250.39,93.69c-2.24,0-3.93-1.5-4.53-4.02-.44-1.73-.59-3.67-.47-5.89.07-1.49.22-2.9.47-4.28.51-2.71,2.33-4.49,4.87-4.78.29-.03.57-.05.84-.05,2.51,0,3.57,1.5,3.98,2.4.49-1.01,1.34-1.99,2.84-2.27.3-.05.6-.08.93-.08,1.42,0,3.23.48,4.09,1.84.66,1.03.57,2.18.52,2.73-.08.94-.29,1.72-.48,2.48l-.09.35c-.34,1.4-.42,3.43-.49,5.23-.02.42-.03.82-.05,1.2-.12,3.37-2.18,4.88-4.16,4.88-.67,0-1.36-.15-2.04-.45-1.07-.46-1.86-1.17-2.49-1.97-.15.74-.53,1.48-1.37,2.02-.66.43-1.5.66-2.37.66Z"/>
        <path class="cls-8" d="M268.33,93.57c-.81,0-1.62-.12-2.41-.37-2.08-.64-3.73-2.15-4.67-4.26-1.1-2.48-1.07-5.56.08-8.02,1.2-2.56,3.98-4.21,7.07-4.21,2.52,0,4.76,1.17,6,3.14,2.19,3.48,1.63,8.5-1.31,11.68-1.14,1.3-2.85,2.04-4.77,2.04Z"/>
        <path class="cls-8" d="M286.15,93.73c-1.41,0-2.7-.56-3.71-1.57-.98.97-2.32,1.53-3.77,1.53-4.73,0-5.39-4.76-5.7-7.05-.15-1.02-.27-2.17-.39-3.48l-.02-.17c-.17-1.33-.52-4.09,2.19-5.39.64-.32,1.34-.5,2.04-.5,1.81,0,3.33,1.12,3.97,2.85.81-.69,1.79-.81,2.33-.81.68,0,1.29.18,1.79.51.66-1.46,2.13-2.41,3.8-2.41,1.82,0,3.32,1.09,3.83,2.78.21.71.24,1.37.26,1.96.02,1.51-.14,3.06-.49,4.95-.32,1.68-1.28,6.79-6.13,6.79Z"/>
        <path class="cls-8" d="M294.07,93.65c-.73,0-1.39-.15-1.96-.46-1.76-.9-2.49-3.16-1.58-5.02.12-.24.27-.46.43-.67-.29-.44-.5-.94-.59-1.48-.19-1.12-.31-2.36-.39-3.87l-.02-.35c-.04-.85-.08-1.72,0-2.64.06-.67.22-1.31.47-1.91.02-.04.04-.08.06-.12,1.19-2.34,3.11-2.62,4.44-2.62,3.3,0,3.85,2.45,3.94,3.5.08.78.03,1.69-.16,2.72-.03.22-.11.72-.2,1.24-.09.57-.19,1.15-.21,1.32,0,.03-.01.07-.02.11-.03.15-.05.4-.08.69-.15,1.36-.29,2.38-.64,3.13.16.2.29.43.4.67.33.69.44,1.55.32,2.46-.29,1.96-2.02,3.31-4.22,3.31Z"/>
      </g>
      <text class="cls-4" transform="translate(17.99 60.37)"><tspan x="0" y="0">Exp</tspan><tspan class="cls-11" x="34.84" y="0">l</tspan><tspan x="41.02" y="0">ore Our </tspan><tspan class="cls-2" x="124.94" y="0">F</tspan><tspan class="cls-10" x="136.38" y="0">l</tspan><tspan x="142.52" y="0">avors!</tspan><tspan x="0" y="31">Ready </tspan><tspan class="cls-6" x="69.58" y="31">T</tspan><tspan x="79.8" y="31">o Order? Shop </tspan><tspan class="cls-12" x="228.76" y="31">N</tspan><tspan x="244.14" y="31">ow!</tspan></text>
    </g>
    <path class="cls-8" d="M233.7,46.2v13.99c0,1.26,1.43,1.99,2.45,1.26l9.74-7c.86-.62.86-1.9,0-2.52l-9.74-7c-1.03-.74-2.45,0-2.45,1.26Z"/>
    <path class="cls-8" d="M306.59,77.13v13.99c0,1.26,1.43,1.99,2.45,1.26l9.74-7c.86-.62.86-1.9,0-2.52l-9.74-7c-1.03-.74-2.45,0-2.45,1.26Z"/>
  </g>
  <g>
    <path class="cls-9" d="M509.98,70.25c0-2.84-2.3-5.13-5.13-5.13s-5.13,2.3-5.13,5.13c0,2.22,1.41,4.11,3.39,4.82-.26,1.74-.67,3.49-1.26,5.2-2.01,5.9-5.6,10.57-9.59,13.11-.21-1.28-.38-2.58-.48-3.88-.95-11.41,3.06-22.98,11.08-46.12,4.79-13.85,5.99-24.12,1.13-28.3-.82-.71-1.96-1.36-3.71-1.72-17.14-3.64-41.72,30.57-66.1,27.26-8.02-1.08-14.55-5.65-21.67-9.08-2.67-1.29-5.55-2.39-8.51-2.2-2.72.17-5.38,1.5-7.1,3.62-1.73,2.13-2.5,5.02-1.98,7.71.34,1.77,1.17,3.37,2.11,4.94.06.11.13.22.2.33.33.53.66,1.07.99,1.6,1.34,2.17,2.58,4.44,3.68,6.78.28.56.52,1.1.78,1.67.77,1.74,1.49,3.53,2.11,5.32h0c.29.8.54,1.62.79,2.43.16.54.33,1.08.47,1.63.57,2.02,1.02,4.06,1.35,6.13.07.41.13.82.19,1.23,0,.02,0,.05.01.07.04.23.07.47.1.7.65,5.35.41,10.77-.85,16.01-.07.3-.15.59-.22.89-.19.78-.39,1.56-.6,2.34,0,.02,0,.04-.01.05-.01.05-.03.11-.04.16-.17.64-.35,1.27-.53,1.91h0c-.06.22-.12.43-.18.64-.24.83-.48,1.67-.72,2.5,0,.03-.02.05-.02.08-.11.41-.24.82-.36,1.23-.08.28-.16.56-.25.82-.12.42-.25.84-.38,1.26-6.25,1.87-12.22,8.07-15.11,16.57-.66,1.96-1.13,3.96-1.41,5.96-2.28.53-3.98,2.56-3.98,5,0,2.84,2.3,5.13,5.13,5.13s5.13-2.3,5.13-5.13c0-2.22-1.41-4.11-3.39-4.82.26-1.74.67-3.49,1.26-5.2,2.3-6.75,6.67-11.89,11.34-14.06-.18.61-.36,1.21-.54,1.82-.4,1.36-.78,2.7-1.14,4.06-.08.29-.15.58-.24.86-.09.34-.18.68-.29,1.02-.18.67-.37,1.35-.56,2.03-.5,1.77-.99,3.58-1.41,5.41-.27,1.2-.51,2.43-.7,3.64-.01.05-.02.1-.02.16-.16,1.04-.28,2.09-.34,3.13-.08,1.26-.08,2.53.03,3.76.06.79.17,1.59.34,2.36v.02c.22,1.1.53,2.21.99,3.27,2.18,5.34,7.21,9.69,13.15,12.53,4.24,2.05,8.9,3.37,13.7,4.27l-3.86,12.41c-.32,1.02.25,2.11,1.27,2.42,0,0,0,0,0,0l5.47,1.7c2.11.66,4.35-.52,5-2.63s-.52-4.35-2.63-5l-3.63-1.13,2.23-7.16s0,0,0,0c.65.09,1.29.17,1.93.26,10.65,1.3,21.51,1.13,32.2.19,1.26-.11,2.52-.24,3.78-.38,0,0,0,0,0,0l4.15,14.7c.24.85,1.02,1.41,1.86,1.41.17,0,.35-.02.53-.07,0,0,0,0,.01,0l5.51-1.56c2.12-.6,3.36-2.81,2.76-4.93s-2.81-3.36-4.93-2.76l-3.66,1.03-2.35-8.31c3.45-.5,6.86-1.19,10.14-2.21,5.68-1.76,11.01-4.55,14.66-8.53,3.59-3.91,5.39-8.8,5.64-13.67.35-6.78-2.51-13.12-4.79-19.52-1.52-4.31-2.98-8.66-3.96-13.08,4.96-2.76,9.39-8.18,11.75-15.14.66-1.96,1.13-3.96,1.41-5.96,2.28-.53,3.98-2.56,3.98-5Z"/>
    <path class="cls-9" d="M393.3,122.53c.44.36.85.76,1.2,1.2.01-.08.03-.17.04-.25.01-.14.03-.26.05-.35.17-1.11.4-2.32.73-3.78.34-1.48.74-3.05,1.23-4.79-1,1.62-1.85,3.41-2.5,5.31-.3.87-.55,1.76-.75,2.65ZM496.83,72c-1.48,5.76-2.21,10.51-2.11,15.04,1.75-2.15,3.21-4.81,4.21-7.76.3-.87.55-1.76.75-2.65-1.44-1.17-2.46-2.8-2.86-4.62Z"/>
    <path class="cls-1" d="M513.06,70.25c0,3.09-1.69,5.82-4.31,7.22-.31,1.61-.73,3.19-1.25,4.72-2.23,6.57-6.24,12.12-11.16,15.57.96,3.73,2.22,7.41,3.36,10.62.34.95.69,1.9,1.05,2.85,2.08,5.64,4.24,11.47,3.92,17.86-.31,5.87-2.6,11.4-6.45,15.6-3.71,4.05-9.25,7.29-16.02,9.39-2.2.68-4.56,1.25-7.15,1.74l.58,2.05.7-.2c.63-.17,1.27-.26,1.92-.26,3.15,0,5.95,2.12,6.8,5.15,1.06,3.75-1.13,7.66-4.88,8.73l-5.52,1.56c-.45.13-.9.19-1.37.19-2.23,0-4.21-1.49-4.82-3.65l-3.45-12.21c-.41.04-.82.08-1.25.12-5.78.52-11.12.76-16.32.76-5.53,0-10.89-.3-15.92-.89l-.55,1.75.7.22c3.72,1.16,5.81,5.13,4.65,8.85-.92,2.98-3.63,4.97-6.75,4.97-.71,0-1.42-.1-2.1-.32,0,0-5.45-1.69-5.48-1.7-1.28-.39-2.32-1.27-2.95-2.45-.63-1.19-.75-2.55-.35-3.83l2.85-9.18c-4.16-.97-7.82-2.23-11.1-3.81-7.12-3.41-12.33-8.43-14.66-14.14-.46-1.09-.84-2.32-1.11-3.63-1.5,1.96-3.86,3.22-6.52,3.22-4.53,0-8.2-3.68-8.2-8.2,0-3.09,1.69-5.82,4.3-7.23.31-1.6.73-3.19,1.25-4.72,2.9-8.53,8.76-15.25,15.53-17.97l.17-.58c.12-.39.23-.78.34-1.17,0-.04.04-.13.05-.17.23-.79.47-1.61.71-2.44l.04-.16c.04-.14.07-.27.11-.41.01-.06.14-.51.14-.51.14-.47.27-.95.4-1.43,0,0,.05-.18.06-.22.19-.7.36-1.41.54-2.11l.26-1.05c1.14-4.74,1.41-9.75.79-14.9-.02-.17-.04-.34-.07-.51-.01-.04-.03-.2-.04-.22-.04-.31-.09-.62-.14-.92l-.04-.23c-.31-1.94-.74-3.89-1.28-5.79-.14-.54-.3-1.05-.46-1.56-.27-.9-.51-1.63-.74-2.3-.56-1.62-1.24-3.33-2.02-5.11l-.02-.03c-.23-.51-.46-1-.71-1.51-.01-.02-.02-.04-.03-.06-1.01-2.17-2.2-4.34-3.52-6.48l-.98-1.61s-.06-.1-.09-.15c-.06-.09-.1-.17-.15-.25-.98-1.64-2.03-3.61-2.47-5.9-.68-3.55.3-7.37,2.62-10.23,2.24-2.74,5.71-4.52,9.29-4.75.29-.02.57-.02.85-.02,3.49,0,6.74,1.35,9.19,2.52,1.87.9,3.71,1.88,5.49,2.83,5.06,2.69,9.83,5.25,15.26,5.97.97.14,1.97.2,2.97.2h0c10.91,0,22.07-7.6,32.86-14.95,9.67-6.58,18.8-12.8,27.19-12.8,1.13,0,2.24.12,3.3.34,2.03.42,3.7,1.21,5.08,2.4,5.63,4.85,5.56,14.9-.23,31.64-2.76,7.95-5.03,14.5-6.78,20.14,1.49-1.53,3.57-2.47,5.87-2.47,4.53,0,8.21,3.68,8.21,8.21Z"/>
    <polygon class="cls-9" points="385.81 136.44 394.09 141.92 409.79 138.14 396.55 124.51 385.81 136.44"/>
    <g>
      <g>
        <path class="cls-13" d="M430.74,162.08l-3.63-1.13,4.45-14.31c.32-1.02-.25-2.11-1.27-2.42-1.02-.32-2.11.25-2.42,1.27l-6.25,20.09c-.32,1.02.25,2.11,1.27,2.42,0,0,0,0,0,0l5.47,1.7c2.11.66,4.35-.52,5-2.63s-.52-4.35-2.63-5Z"/>
        <path class="cls-13" d="M482.08,163.4c-.6-2.12-2.81-3.36-4.93-2.76l-3.66,1.03-4.07-14.42c-.29-1.03-1.36-1.63-2.39-1.34-1.03.29-1.63,1.36-1.34,2.39l5.72,20.24c.24.85,1.02,1.41,1.86,1.41.17,0,.35-.02.53-.07,0,0,0,0,.01,0l5.51-1.56c2.12-.6,3.36-2.81,2.76-4.93Z"/>
      </g>
      <g>
        <path class="cls-13" d="M485.6,98.37c-1.29,0-2.56-.2-3.8-.62-.76-.26-1.17-1.08-.91-1.84s1.08-1.17,1.84-.91c6.96,2.37,15.53-4.24,19.1-14.73,1.12-3.3,1.65-6.74,1.53-9.97-.03-.8.6-1.48,1.4-1.5.79-.03,1.48.6,1.51,1.4.13,3.57-.45,7.38-1.69,11.01-3.49,10.25-11.46,17.16-18.99,17.16Z"/>
        <circle class="cls-13" cx="504.85" cy="70.25" r="5.13"/>
      </g>
      <g>
        <path class="cls-13" d="M407.38,100.78c1.29,0,2.56.2,3.8.62.76.26,1.17,1.08.91,1.84s-1.08,1.17-1.84.91c-6.96-2.37-15.53,4.24-19.1,14.73-1.12,3.3-1.65,6.74-1.53,9.97.03.8-.6,1.48-1.4,1.5-.79.03-1.48-.6-1.51-1.4-.13-3.57.45-7.38,1.69-11.01,3.49-10.25,11.46-17.16,18.99-17.16Z"/>
        <circle class="cls-13" cx="388.14" cy="128.9" r="5.13"/>
      </g>
      <path class="cls-3" d="M502.85,43.37c-8.02,23.14-12.03,34.71-11.08,46.12.1,1.31.28,2.6.48,3.89.17,1,.37,1.98.59,2.96.98,4.42,2.44,8.77,3.96,13.08,2.28,6.41,5.14,12.75,4.79,19.52-.26,4.87-2.06,9.77-5.64,13.67-3.65,3.98-8.99,6.78-14.66,8.53-3.28,1.02-6.68,1.71-10.14,2.21-1.29.2-2.59.36-3.89.49-1.26.14-2.52.27-3.78.38-10.69.95-21.55,1.11-32.2-.19-.65-.08-1.29-.16-1.93-.26-1.3-.19-2.58-.39-3.87-.63-4.8-.89-9.47-2.22-13.71-4.27-5.94-2.85-10.97-7.2-13.15-12.53-.45-1.06-.77-2.17-.99-3.27v-.02c-.16-.77-.28-1.57-.34-2.36-.11-1.23-.11-2.5-.03-3.76.06-1.04.17-2.09.34-3.13,0-.06.01-.11.02-.16.19-1.21.43-2.44.7-3.64.42-1.83.9-3.64,1.41-5.41.19-.68.37-1.36.56-2.03.1-.34.2-.68.29-1.02.08-.29.15-.58.24-.86.36-1.36.74-2.7,1.14-4.06.39-1.37.79-2.72,1.2-4.09.25-.81.49-1.62.73-2.44.08-.27.16-.54.25-.82.12-.41.25-.82.36-1.23.04-.13.08-.27.12-.39.15-.54.32-1.09.47-1.63.11-.4.23-.79.33-1.19h.01v-.02c.2-.68.38-1.36.57-2.05.08-.31.16-.61.24-.9.21-.78.4-1.58.6-2.38,1.26-5.23,1.5-10.66.85-16.01-.03-.26-.06-.51-.11-.77-.34-2.49-.86-4.95-1.54-7.36-.37-1.37-.79-2.72-1.26-4.06-.62-1.8-1.34-3.59-2.11-5.33-.26-.57-.5-1.11-.78-1.67-1.1-2.33-2.34-4.61-3.68-6.78-.33-.53-.66-1.07-.99-1.6-.06-.11-.13-.22-.2-.33-.94-1.56-1.77-3.17-2.11-4.94-.51-2.69.26-5.58,1.98-7.71,1.73-2.12,4.38-3.44,7.1-3.62,2.96-.19,5.84.92,8.51,2.2,7.13,3.42,13.65,8,21.67,9.08,24.38,3.31,48.96-30.9,66.1-27.26,1.75.36,2.89,1.01,3.71,1.72,4.86,4.18,3.66,14.46-1.13,28.3Z"/>
      <path class="cls-7" d="M494.62,128.58c-.14,2.5-.9,6.14-3.82,9.32-2.52,2.75-6.52,5.03-11.59,6.59-5.4,1.68-11.3,2.35-16.35,2.8-5.51.48-10.56.73-15.46.73-5.35,0-10.5-.3-15.29-.89-7.19-.88-12.86-2.35-17.34-4.51-4.8-2.3-8.35-5.55-9.7-8.88-2.05-5.02-.16-11.76,1.66-18.27.28-1,.55-1.99.81-2.94.77-2.91,1.68-5.9,2.54-8.78,1.22-4.1,2.49-8.32,3.52-12.61,1.42-5.95,1.76-12.16,1-18.49-.57-4.48-1.66-9.01-3.21-13.49-.39-1.13.34-2.33,1.51-2.56,8.44-1.67,13.79,2.13,23.3,3.13,18.38,1.94,22.93-9.66,42.81-10.48,3.23-.13,7.17,0,11.76.84,1.18.22,1.9,1.44,1.51,2.58-5.65,16.7-8.34,26.78-7.46,37.4.64,7.71,3.02,14.93,5.41,21.68.36,1.01.73,2.02,1.1,3.04,1.8,4.88,3.51,9.49,3.28,13.79Z"/>
      <g>
        <path class="cls-13" d="M431.09,100.59c.27.46.76.72,1.25.72.25,0,.5-.06.73-.2l11.78-6.88c.45-.26.72-.74.72-1.25s-.27-.99-.72-1.25l-11.78-6.88c-.69-.41-1.58-.17-1.99.52-.4.69-.17,1.58.52,1.99l9.63,5.62-9.63,5.62c-.69.4-.93,1.29-.52,1.99Z"/>
        <ellipse class="cls-13" cx="463.34" cy="92.51" rx="7.59" ry="9.75"/>
        <path class="cls-13" d="M463.64,107.02c-1.34,1.51-5.08,5.11-10.98,5.85-5.92.73-10.45-1.81-12.58-3.36,1.1-2.03,1.47-3.99,1.57-5.36.06-.8-.55-1.49-1.35-1.55-.82-.07-1.5.55-1.55,1.35-.09,1.28-.47,3.2-1.77,5.09-1.65,2.39-3.9,3.44-5.1,3.86-.76.26-1.16,1.09-.9,1.85.21.6.77.98,1.37.98.16,0,.32-.03.48-.08,1.31-.45,3.62-1.52,5.59-3.75,2.21,1.58,6.52,4.01,12.16,4.01.79,0,1.6-.05,2.44-.15,6.89-.85,11.25-5.05,12.81-6.81.53-.6.47-1.52-.13-2.05-.6-.53-1.52-.47-2.05.13Z"/>
      </g>
      <path class="cls-3" d="M403.16,102.55c1.3-4.34,2.62-8.68,3.67-13.06,1.26-5.23,1.5-10.66.85-16.01-.03-.25-.07-.51-.12-.77-.34-2.49-.86-4.95-1.54-7.37-.38-1.37-.79-2.72-1.27-4.06,2.86.21,5.58,1.08,8.07,2.49.81,2.95,1.4,5.92,1.78,8.86.77,6.32.43,12.54-1,18.49-1.04,4.29-2.3,8.51-3.52,12.61l-6.93-1.18Z"/>
    </g>
  </g>
</svg>