<?xml version="1.0" encoding="UTF-8"?>
<svg id="Body" xmlns="http://www.w3.org/2000/svg" viewBox="0 0 253.34 47.45">
  <defs>
    <style>
      .cls-1 {
        letter-spacing: -.04em;
      }

      .cls-2, .cls-3 {
        fill: #f93;
      }

      .cls-2, .cls-4 {
        font-family: Pacifico-Regular, Pacifico;
        font-size: 30px;
      }

      .cls-4 {
        fill: #fff;
      }
    </style>
  </defs>
  <text class="cls-2" transform="translate(11.75 30.97)"><tspan x="0" y="0">Mission &amp; </tspan><tspan class="cls-1" x="146.83" y="0">V</tspan><tspan x="168.52" y="0">alues</tspan></text>
  <g>
    <path class="cls-3" d="M45.71,33.12c-2.26,0-4.09-.72-5.44-2.14-1.32-1.39-1.99-3.22-1.99-5.44,0-1.33.25-3.15.76-5.55l1.41-6.46c.09-.42.16-.8.22-1.17.04-.28.06-.57.07-.84-.25.16-.58.45-.99.93-.59.69-1.51,2.18-2.57,5.35-.89,2.66-1.62,6.21-2.18,10.55-.19,1.62-.57,2.72-1.2,3.46-.51.6-1.48,1.32-3.21,1.32-1.24,0-2.22-.37-2.92-1.09-.69-.71-1.03-1.75-1.03-3.19,0-.94.12-2.1.36-3.55.22-1.34.5-2.92.85-4.74,1.11-5.85,1.34-8.12,1.34-8.99,0-.06,0-.11,0-.16-.38.13-.83.47-1.31.97-.58.62-1.5,2.02-2.62,5.2-.94,2.69-1.74,6.42-2.38,11.09-.19,1.36-.48,2.3-.94,2.98-.46.68-1.39,1.48-3.23,1.48-1.3,0-2.32-.37-3.03-1.1-.7-.72-1.04-1.79-1.04-3.27,0-.72.07-1.58.21-2.65.13-.99.35-2.33.66-4.09.51-3.09.92-5.81,1.22-8.07.09-.73.16-1.39.2-1.98-.39.35-.94.91-1.63,1.83-.87,1.18-1.96,1.36-2.52,1.36-.9,0-1.73-.42-2.32-1.18-.48-.62-.74-1.36-.74-2.14,0-.57.11-1.14.33-1.71.19-.49.48-1,.88-1.56,1.11-1.55,2.38-2.78,3.78-3.64,1.5-.93,3.04-1.4,4.59-1.4,2.13,0,3.39.96,4.06,1.76.3.35.55.75.75,1.19.17-.17.33-.34.5-.5,1.79-1.63,3.82-2.46,6.03-2.46,1.9,0,3.5.73,4.62,2.12.25.31.48.65.67,1.01.26-.3.53-.57.81-.82,1.71-1.53,3.71-2.31,5.96-2.31,2.51,0,3.97,1.13,4.76,2.07,1.05,1.27,1.59,2.97,1.59,5.06,0,1.03-.14,2.21-.43,3.61l-1.83,8.59c-.17.84-.26,1.58-.26,2.16,0,.29.04.45.06.52,0,0,.1,0,.16,0,.09,0,.36,0,.79-.3.33-.23.93-.74,1.85-1.84.63-.73,1.46-1.13,2.34-1.13.95,0,1.79.47,2.31,1.3.35.56.53,1.25.53,2.05,0,1.25-.35,2.31-1.03,3.13-1.21,1.46-2.4,2.52-3.64,3.23-1.32.75-2.73,1.13-4.2,1.13Z"/>
    <path class="cls-3" d="M53.84,33.12c-2.52,0-3.85-1.25-4.52-2.3-.8-1.24-1.2-2.84-1.2-4.74,0-1.02.12-2.25.37-3.79.24-1.48.56-2.89.94-4.19.28-1.01.72-1.76,1.33-2.27-.57-.55-1.21-1.51-1.21-3.04,0-1.29.53-2.42,1.53-3.28.92-.79,2.05-1.18,3.35-1.18,1.19,0,2.21.32,3.03.97.94.74,1.46,1.84,1.46,3.1,0,1.37-.5,2.54-1.44,3.39-.27.25-.57.46-.89.63.31.5.44,1.06.44,1.59,0,.45-.07,1.29-.61,3.89-.24,1.09-.39,1.9-.5,2.5.26-.29.54-.62.84-.98.64-.74,1.46-1.14,2.35-1.14.95,0,1.8.48,2.31,1.3.35.55.53,1.24.53,2.05,0,1.29-.36,2.36-1.06,3.17-2.37,2.9-4.69,4.32-7.06,4.32Z"/>
    <path class="cls-3" d="M63.11,33.78c-1.53,0-2.78-.41-3.7-1.21-.53-.47-.89-.95-1.12-1.43-.54.26-1.06.33-1.45.33-.9,0-1.71-.37-2.29-1.03-.52-.6-.79-1.35-.79-2.17s.3-1.68.87-2.38l.39-.48c1.04-1.29,1.84-2.36,2.35-3.17.27-.46.64-1.19,1.08-2.11.44-.93.89-1.92,1.32-2.94.41-.96,1.5-2.54,4.21-2.54.88,0,1.49.1,2,.33.94.43,1.5,1.29,1.5,2.3,0,.33-.06.69-.21,1.16-.12.38-.28.76-.48,1.14-.21.42-.27.68-.29.8,0,.02.02.04.04.06.11.18.33.52.8,1.1.74.97,1.27,1.75,1.65,2.43.02.03.04.07.05.1.17-.19.34-.4.53-.63.66-.77,1.49-1.17,2.37-1.17.96,0,1.8.48,2.31,1.3.35.55.53,1.24.53,2.05,0,1.22-.34,2.26-1,3.1-1.21,1.49-2.36,2.5-3.55,3.09-1.01.5-2.2.8-3.55.91-1.04.7-2.24,1.06-3.57,1.06Z"/>
    <path class="cls-3" d="M75.92,33.78c-1.53,0-2.78-.41-3.7-1.21-.53-.47-.89-.95-1.12-1.43-.54.26-1.06.33-1.45.33-.9,0-1.71-.37-2.29-1.03-.52-.6-.79-1.35-.79-2.17s.3-1.68.87-2.38l.39-.48c1.04-1.29,1.84-2.36,2.35-3.17.27-.46.64-1.19,1.08-2.11.44-.93.89-1.92,1.32-2.94.41-.96,1.5-2.54,4.21-2.54.88,0,1.49.1,2,.33.94.43,1.5,1.29,1.5,2.3,0,.33-.06.69-.21,1.16-.12.38-.28.76-.48,1.14-.21.42-.27.68-.29.8,0,.02.02.04.04.06.11.18.33.52.8,1.1.74.97,1.27,1.75,1.65,2.43.02.03.04.07.05.1.17-.19.34-.4.53-.63.66-.77,1.49-1.17,2.37-1.17.96,0,1.8.48,2.31,1.3.35.55.53,1.24.53,2.05,0,1.22-.34,2.26-1,3.1-1.21,1.49-2.36,2.5-3.55,3.09-1.01.5-2.2.8-3.55.91-1.04.7-2.24,1.06-3.57,1.06Z"/>
    <path class="cls-3" d="M86.84,33.12c-2.52,0-3.85-1.25-4.52-2.3-.8-1.24-1.2-2.84-1.2-4.74,0-1.02.12-2.25.37-3.79.24-1.48.56-2.89.94-4.19.28-1.01.72-1.76,1.33-2.27-.57-.55-1.21-1.51-1.21-3.04,0-1.29.53-2.42,1.53-3.28.92-.79,2.05-1.18,3.35-1.18,1.19,0,2.22.32,3.03.97.94.74,1.46,1.84,1.46,3.1,0,1.37-.5,2.54-1.44,3.39-.27.25-.57.46-.89.63.31.5.44,1.06.44,1.59,0,.45-.07,1.29-.61,3.89-.24,1.09-.39,1.9-.5,2.5.26-.29.54-.62.84-.98.64-.74,1.46-1.14,2.35-1.14.95,0,1.8.48,2.31,1.3.35.55.53,1.24.53,2.05,0,1.29-.36,2.36-1.06,3.17-2.37,2.9-4.69,4.32-7.06,4.32Z"/>
    <path class="cls-3" d="M95.75,33.12c-1.6,0-3.02-.41-4.2-1.22-1.15-.79-2.04-1.84-2.63-3.13-.56-1.22-.84-2.55-.84-3.95,0-1.82.36-3.48,1.07-4.94.74-1.51,1.78-2.72,3.1-3.59,1.35-.88,2.86-1.33,4.49-1.33,2.08,0,3.87.78,5.17,2.25.77.87,1.34,1.86,1.7,2.98.4-.08.83-.18,1.29-.3.34-.09.64-.13.93-.13.99,0,1.87.54,2.36,1.44.3.56.45,1.21.45,1.94,0,2.63-1.59,3.41-2.27,3.62-.92.32-1.94.56-3.03.69-.54,1.44-1.35,2.66-2.44,3.64-1.49,1.35-3.23,2.03-5.15,2.03ZM95.85,24.94c.04.63.19.87.24.94,0,0,0,.01.01.02.02-.02.04-.04.08-.08.04-.05.1-.13.17-.25-.18-.2-.34-.41-.49-.63Z"/>
    <path class="cls-3" d="M113.48,33.12c-1.57,0-2.46-.65-2.94-1.19-.32-.36-.56-.79-.72-1.28-.22.53-.47.96-.76,1.29-.47.54-1.35,1.18-2.87,1.18-1.59,0-2.86-.9-3.47-2.48-.4-1.04-.6-2.54-.6-4.56,0-2.79.41-5.49,1.2-8.01.32-1.02.89-1.81,1.69-2.34.74-.49,1.69-.74,2.83-.74.8,0,1.4.14,1.9.45.38.24.68.57.89.97.23-.17.46-.32.7-.46,1.09-.64,2.17-.96,3.18-.96,1.48,0,2.38.59,2.87,1.08s1.08,1.39,1.08,2.87c0,.4-.04,1.17-.35,3.24-.2,1.21-.36,2.34-.47,3.38-.11,1.02-.17,2.17-.17,3.43s-.34,2.29-1.01,3c-.7.75-1.7,1.13-2.97,1.13Z"/>
    <path class="cls-3" d="M145.8,35.16c-1.9,0-3.02-.84-3.62-1.54l-1.55-1.83c-2.13.88-4.22,1.32-6.23,1.32-1.86,0-3.53-.3-4.97-.9-1.53-.64-2.75-1.56-3.62-2.73-.91-1.23-1.37-2.61-1.37-4.13,0-1.88.58-3.65,1.74-5.26.82-1.15,1.98-2.24,3.5-3.31-.78-1.77-1.16-3.39-1.16-4.9,0-1.77.38-3.38,1.14-4.77.78-1.43,1.89-2.55,3.28-3.34,1.37-.77,2.93-1.16,4.65-1.16,2.32,0,4.18.72,5.54,2.13,1.34,1.39,2.01,3.26,2.01,5.54,0,1.85-.54,3.61-1.61,5.23-.74,1.13-1.83,2.22-3.31,3.31.68.86,1.45,1.78,2.3,2.77.74-.8,1.47-1.71,2.21-2.73.41-.6.96-1.06,1.61-1.34.55-.24,1.19-.36,1.91-.36,3.56,0,3.74,2.49,3.74,2.99,0,.82-.31,1.69-.97,2.74-1.02,1.56-2.19,2.99-3.51,4.27l1.26,1.39c.99,1.03,1.21,2.12,1.21,2.84,0,1.09-.47,2.08-1.33,2.79-.77.63-1.73.95-2.87.95ZM133.62,23.16c-.63.63-.97,1.23-.97,1.75,0,.34.09.43.23.53.34.25.93.38,1.7.38.35,0,.7-.02,1.04-.06-.73-.92-1.4-1.79-2-2.6ZM137.39,9.78c-.39,0-.51.12-.63.28-.27.36-.4.83-.4,1.44,0,.34.05.7.14,1.08.34-.31.52-.54.63-.7.35-.53.51-1.1.51-1.73,0-.19-.02-.3-.04-.35-.04,0-.11-.02-.21-.02Z"/>
    <path class="cls-3" d="M168.45,33.12c-2.03,0-4.8-.84-6.49-4.85-1.14-2.69-1.69-6.16-1.69-10.59,0-3.62.26-6.93.78-9.83.25-1.44.64-2.42,1.24-3.09.72-.81,1.8-1.22,3.19-1.22,2.42,0,3.98,1.46,3.98,3.71,0,.16-.02.47-.08.91-.59,3.56-.88,6.74-.88,9.53s.23,4.98.67,6.36c.2.62.38.89.47.99.29-.06.91-.41,1.79-1.44.83-.98,1.62-2.17,2.36-3.55-.83-.76-1.5-1.64-2.01-2.63-.76-1.49-1.15-3.2-1.15-5.1s.31-3.48.91-4.83c.65-1.45,1.58-2.56,2.76-3.31,1.17-.74,2.49-1.12,3.91-1.12,1.88,0,3.47.73,4.6,2.12,1.04,1.28,1.58,2.98,1.58,5.04,0,1.81-.28,3.75-.84,5.78.31.01.64.02.97.02.99,0,1.79.29,2.38.85.61.58.94,1.37.94,2.23,0,.96-.31,1.86-.88,2.6-.48.61-1.38,1.36-2.98,1.4-.23,0-.45,0-.66,0-.89,0-1.74-.05-2.54-.15-1.38,2.59-3.01,4.82-4.87,6.63-2.39,2.34-4.89,3.53-7.44,3.53Z"/>
    <path class="cls-3" d="M192.39,33.12c-1.12,0-2.18-.39-3.08-1.13-.06-.05-.12-.1-.18-.16-1.31,1.02-2.67,1.29-3.72,1.29-1.83,0-3.4-.72-4.52-2.08-1.04-1.26-1.57-2.88-1.57-4.81s.45-3.75,1.33-5.46c.89-1.71,2.09-3.11,3.58-4.16,1.57-1.11,3.28-1.67,5.07-1.67,1.04,0,1.84.31,2.38.93.03.04.07.08.1.12.03,0,.06,0,.1,0,2.4,0,3.47,1.53,3.47,3.05,0,.4-.06,1.12-.49,3.37-.12.6-.22,1.13-.3,1.6.15-.18.32-.37.49-.58.63-.74,1.46-1.14,2.34-1.14.96,0,1.8.48,2.31,1.3.35.55.53,1.24.53,2.05,0,1.29-.36,2.36-1.06,3.17-.87,1.09-1.87,2.07-2.91,2.86-1.27.97-2.58,1.46-3.88,1.46Z"/>
    <path class="cls-3" d="M201.21,33.12c-2.51,0-4.48-1.2-5.68-3.46-1-1.89-1.51-4.29-1.51-7.15,0-2.56.33-5.5.98-8.74.67-3.31,1.68-6.2,3-8.61,1.6-2.92,3.67-4.4,6.15-4.4,1.65,0,3.05.81,3.96,2.28.76,1.23,1.12,2.82,1.12,4.88,0,2.64-.72,5.68-2.14,9.06-1.24,2.95-2.9,5.91-4.93,8.81.24-.04.43-.13.62-.27.34-.26.98-.84,2.05-2.11.63-.73,1.46-1.13,2.34-1.13.96,0,1.8.48,2.31,1.3.35.55.53,1.24.53,2.05,0,1.29-.36,2.36-1.06,3.17-.94,1.16-2.03,2.17-3.2,2.96-1.34.9-2.87,1.36-4.55,1.36Z"/>
    <path class="cls-3" d="M215.16,33.12c-1.32,0-2.45-.47-3.26-1.33-1.2,1.09-2.41,1.33-3.25,1.33-1.1,0-2.65-.37-3.85-2.11-.8-1.17-1.21-2.59-1.21-4.24s.11-3.09.33-4.44c.21-1.35.57-2.79,1.07-4.28.33-1.01.86-1.78,1.57-2.29.72-.52,1.66-.77,2.88-.77.93,0,1.64.22,2.18.67.39.33.68.75.84,1.23.25-.43.55-.79.92-1.07.69-.54,1.61-.82,2.72-.82.85,0,1.48.14,2,.45.79.48,1.23,1.33,1.23,2.33,0,.48-.09,1.4-.8,4.55-.15.68-.27,1.25-.37,1.74.17-.19.35-.4.54-.64.63-.74,1.46-1.14,2.34-1.14.95,0,1.79.47,2.31,1.3.35.56.53,1.25.53,2.05,0,1.29-.36,2.36-1.06,3.17-.94,1.16-2.01,2.17-3.16,2.95-1.32.91-2.84,1.37-4.51,1.37Z"/>
    <path class="cls-3" d="M225.63,33.12c-2.63,0-4.75-.77-6.29-2.29-1.55-1.52-2.34-3.58-2.34-6.11,0-1.68.36-3.27,1.07-4.73.73-1.5,1.77-2.72,3.09-3.61,1.36-.93,2.92-1.4,4.62-1.4s3.11.54,4.19,1.61c1.08,1.06,1.65,2.53,1.65,4.23,0,.64-.08,1.25-.23,1.83.45-.25.93-.38,1.44-.38.95,0,1.79.47,2.31,1.3.35.56.53,1.25.53,2.05,0,1.29-.36,2.36-1.06,3.17-.86,1.05-2.11,2.05-3.67,2.92-1.65.93-3.44,1.4-5.32,1.4Z"/>
    <path class="cls-3" d="M236.82,33.78c-1.53,0-2.78-.41-3.7-1.21-.53-.47-.89-.95-1.12-1.43-.54.26-1.06.33-1.45.33-.9,0-1.71-.37-2.29-1.03-.52-.6-.79-1.35-.79-2.17s.3-1.68.87-2.38l.39-.48c1.04-1.29,1.84-2.36,2.35-3.17.3-.49.63-1.11.97-1.84.37-.79.84-1.87,1.44-3.23.41-.94,1.49-2.52,4.2-2.52.88,0,1.49.1,2,.33.94.43,1.5,1.29,1.5,2.3,0,.33-.06.69-.21,1.16-.12.38-.28.76-.48,1.14-.21.42-.27.68-.29.8,0,.02.02.04.04.06.11.18.33.52.8,1.1.74.97,1.27,1.75,1.65,2.43.5.89.75,1.87.75,2.91,0,1.16-.27,2.28-.81,3.31-.55,1.05-1.32,1.92-2.31,2.56-1.03.68-2.21,1.02-3.5,1.02Z"/>
  </g>
  <text class="cls-4" transform="translate(11.75 30.97)"><tspan x="0" y="0">Mission &amp; </tspan><tspan class="cls-1" x="146.83" y="0">V</tspan><tspan x="168.52" y="0">alues</tspan></text>
</svg>