<?xml version="1.0" encoding="UTF-8"?>
<svg id="Header" xmlns="http://www.w3.org/2000/svg" viewBox="0 0 358.27 92.57">
  <defs>
    <style>
      .cls-1 {
        fill: #fff;
      }

      .cls-2 {
        fill: #036;
      }

      .cls-3 {
        fill: #80deff;
      }

      .cls-4 {
        fill: #f93;
      }

      .cls-5 {
        fill: #4c2e04;
      }
    </style>
  </defs>
  <g>
    <path class="cls-1" d="M225.88,38.74v1.23c-.02,1.21-.03,3.15-.06,5.1l-.02,1.3c-.19,12.45-.28,17.6-3.33,21.6-1.56,2.05-3.51,3.31-3.73,3.45-1.73,1.05-3.64,1.74-5.58,2.01-.86.14-1.83.22-2.8.22h-.01c-4.07,0-8.11-1.32-11.11-3.61l-.12-.09c-.75-.59-1.42-1.29-2.02-2.06-.29.93-.77,1.95-1.63,2.83-.96.96-2.05,1.47-3,1.87l-.11.04c-1.13.44-2.33.66-3.58.66-.96,0-1.91-.14-2.82-.4-.28-.07-.63-.17-1.02-.33-.89-.33-1.69-.86-2.3-1.54l-.1-.12c-.68-.83-1.14-1.86-1.4-3.15-.13.86-.38,1.62-.75,2.3-.75,1.5-2.24,2.72-4.04,3.28-.66.21-1.47.32-2.39.32-1.73,0-3.69-.39-5.13-1.02-.69-.32-1.23-.66-1.68-1.05-.37-.33-.67-.7-.95-1.1-.07.08-.14.17-.22.25-.94.94-1.98,1.43-2.96,1.85l-.13.05c-1.13.44-2.33.66-3.58.66-.96,0-1.91-.14-2.82-.4-.3-.08-.61-.17-.91-.28-1.07-.42-1.85-.95-2.44-1.63l-.07-.08c-.67-.82-1.13-1.86-1.4-3.15-.13.84-.37,1.58-.73,2.25-.79,1.57-2.27,2.78-4.08,3.33-.64.21-1.45.32-2.37.32-1.73,0-3.69-.39-5.12-1.02-.7-.32-1.24-.66-1.69-1.05-.64-.58-1.14-1.29-1.49-2.06-2.13,2.05-5.1,3.18-5.58,3.35-1.47.52-3.05.78-4.71.78-2.56,0-5.19-.63-7.41-1.78-.73-.37-1.44-.83-2.1-1.35-2.4-1.89-4.03-4.62-4.59-7.68-.25-1.3-.42-2.59-.55-3.87-.18.22-.37.43-.57.63-1.12,1.16-2.25,1.96-3.56,2.52l-.11.05c-.31.12-.87.36-1.58.55-.71.2-1.56.37-2.46.37-.24,0-.48-.01-.71-.03.2,3.59.1,6.88-1.74,8.8l-.08.07c-.89.88-2.17,1.46-3.51,1.59-.63.08-1.42.12-2.15.12-1.21,0-2.26-.11-3.14-.35-.46-.11-.95-.3-1.39-.54-1.04-.55-2.4-1.82-2.8-4.63l-.02-.19c-.13-1.45-.24-2.75-.29-4.1-.3-7.86-.38-16.27-.23-24.99v-.38c.06-1.1.14-2.26.28-3.78l.02-.19c.31-2.16,1.19-3.41,2.06-4.13-.01-.09-.03-.18-.04-.26-.1-.71-.14-.95-.35-1.25l-.58-.85v-.45c-.24-.94-.13-1.95.33-2.84.69-1.32,2.04-2.14,3.52-2.14.44,0,.86.07,1.28.2.37.13.77.27,1.19.45.55.24,1.09.51,1.61.82.55-1.18,1.22-2.31,2-3.36.8-1.09,2.13-1.76,3.53-1.76.62,0,1.21.13,1.78.37l1.65.71c2.11.89,3.14,3.22,2.38,5.33-.24.67-.61,1.12-.73,1.27-.29.33-.56.66-.81.99.27.05.54.12.8.19,2.33.64,4.4,2.05,6.02,4.07.56.7.97,1.36,1.28,1.91,2.34-3.97,6.49-6.37,11.23-6.37,1.33,0,2.67.2,3.97.58,2.2.61,4.95,1.6,6.87,3.73.11-.37.26-.73.46-1.1.54-.94,1.27-1.67,2.16-2.18,1.3-.71,2.71-1.03,4.39-1.03.53,0,1.06.03,1.57.07,1.11.11,2.44.35,3.6,1.32.14.12.27.24.4.37h.41c.37-.23.74-.43,1.12-.61,1.52-.75,3.13-.92,4.2-.98h.43c2.74,0,5.41.79,7.52,2.25,1.01.67,1.8,1.55,2.43,2.33l.32.38.09.14c.05.07.09.14.13.2.09-.69.28-1.49.7-2.26.54-.94,1.28-1.67,2.16-2.18,1.29-.7,2.71-1.03,4.39-1.03.53,0,1.06.03,1.58.07,1.1.11,2.43.35,3.59,1.32.2.16.38.34.56.53.46-.3.92-.55,1.38-.77,1.5-.75,3.11-.92,4.18-.98h.44c2.75,0,5.42.79,7.52,2.25.83.56,1.61,1.3,2.44,2.33.01.02.04.05.06.08.14-1.11.39-1.86.81-2.49l.11-.15c1.09-1.44,2.87-1.72,4.16-1.92l.22-.04c1.05-.16,1.91-.23,2.74-.23,1.72,0,3.28.32,4.62.95,1.19.52,2.12,1.54,2.5,2.74l.06.18.03.19c.06.3.1.64.11,1.08v.09c.09-.82.35-1.73.99-2.6,1.53-2.14,4.15-2.36,5.72-2.5.94-.08,1.8-.15,2.6-.15,1.21,0,3.01.15,4.57,1.44.87.73,1.45,1.61,1.78,2.7.48,1.5.46,3.29.43,7.23Z"/>
    <path class="cls-1" d="M349,49.39l-.02.12c-.25,1.31-.69,3.02-1.87,4.48l-.09.11-.09.09c-.87.93-2.02,1.68-3.28,2.16,1.61.67,2.63,2.2,3.02,2.89l.09.16c.47.75.89,1.63,1.25,2.63l.04.11c.33,1.01.64,2.22.44,3.55-.62,4.49-7.01,6.92-7.74,7.18-1.47.52-3.04.78-4.7.78-2.57,0-5.2-.63-7.42-1.78-.72-.37-1.44-.83-2.1-1.35-.33-.26-.65-.55-.96-.84-.23.54-.54,1.08-1,1.57-1.64,1.77-3.96,1.98-5.35,2.1-1.42.14-2.99.3-4.6.3-.89,0-1.71-.05-2.5-.14-2.35-.25-4.64-1.07-6.4-2.29-.29-.21-.62-.45-.92-.72-.72-.61-1.28-1.35-1.74-2.11-.18.79-.43,1.58-.88,2.35-.8,1.39-2.28,2.41-3.96,2.75l-.19.03c-.6.09-1.21.13-1.82.13s-1.23-.04-1.82-.13c-.83-.1-3.49-.44-4.99-2.74-.61-.93-1.01-2.19-1.24-4.06-1.08,2.24-2.63,4.02-4.48,5.16-1.99,1.18-4.42,1.76-7.26,1.76-.14,0-.37.01-.59.01-2.56,0-4.82-.41-6.73-1.22-.8-.34-1.58-.8-2.3-1.36-.96-.76-1.82-1.67-2.58-2.71-1.21-1.61-1.98-3.38-2.47-5.07-.02.39-.1.77-.25,1.14-.08.24-.19.48-.31.74-.14.33-.34.73-.57,1.13-.3.54-.62,1.01-.83,1.32-.31.42-.69.77-1.1,1.03-.21.39-.49.75-.84,1.05-1.11.98-2.07,1.56-2.17,1.62-.27.16-.53.3-.78.42l-.18.09c-.36.18-.79.31-1.23.36-.36.27-.78.47-1.23.6-.6.19-1.33.35-2.11.47h-.05s-.16.03-.16.03c-.27.04-.55.07-.83.1l-.18.03h-.32s-.29,0-.29,0l-.47-.08s-.09-.03-.14-.04c-.36.11-.73.19-1.12.19h-.1c-4.1-.1-8.17-1.42-11.17-3.63l-.22-.17c-2.35-1.8-4.08-4.67-4.7-7.84-.31-1.57-.39-3.01-.27-4.39l.02-.14c.07-.5.18-.99.34-1.45v-.16l.35-.69c.96-2.29,3.63-3.69,7.2-3.69,1.28,0,4.26.24,6.12,2.13.15.15.3.29.42.45.03.03.07.09.1.13.01,0,.01,0,.01,0,.11.14.22.31.33.51.06.1.12.22.17.33l.46.46v.9c.1.35.17.68.24.99,0,0,.06.22.07.27.09.31.12.4.13.42.17.33.29.44.3.45l.04.02s.09-.03.13-.05c.03-.04.07-.08.11-.12.01-.05.01-.1.02-.15.09-.32.28-1.22.29-6.11v-3.23c-.02-3.71-.02-6.38-.06-6.86-.05-1.04-.06-2.02-.06-2.96-.01-1.48-.01-2.88-.22-4.18-.06-.39-.17-1.08-.11-1.88,0-.13,0-.25.03-.38v-.11c.02-.08.04-.2.08-.35.02-.14.05-.26.09-.38l.07-.23.08-.21s.1-.21.11-.24v-.38l1.11-1.11c-1.1-.88-1.7-2.19-1.56-3.57.12-1.29.88-2.43,2.04-3.12.06-.29.14-.57.26-.86.43-1.03,1.13-1.81,2.09-2.32.67-.35,1.46-.55,2.24-.55.62,0,1.21.12,1.76.36.04.02.08.05.12.07.81-.35,1.69-.56,2.56-.56.14,0,.27,0,.4.01,2.04.13,3.3,1.24,3.74,1.71.55.57,1.44,1.81,1.28,3.7-.14,1.74-1.25,2.94-2.07,3.69-.24.22-.46.4-.66.56.71.41,1.29.92,1.74,1.52.1-.13.19-.26.29-.4l.1-.11.11-.11c.93-.93,2.27-1.5,3.63-1.56,1.13-.11,2.17-.2,3.28-.2.89,0,1.7.06,2.48.19l.11.02c.67.13,1.94.48,2.99,1.37l.1.08.1.1c.47.47.84,1.04,1.12,1.7.33-1.07.98-1.96,1.9-2.53,1.02-.62,2.28-.81,4.4-.96l.37-.03h1.1c2.21,0,3.29.12,4.13.47l.2.09.19.11c.55.32.99.71,1.35,1.15.07-.08.14-.16.21-.24-.29-.53-.51-1.12-.65-1.81l-.02-.13c-.3-1.85-.16-3.4.42-4.74.58-1.4,1.69-2.53,3.05-3.1,1.24-.5,2.38-.56,3.24-.56.28,0,.55,0,.83.02.2,0,.4.01.6.01h.27c1.28.12,2.35.53,3.17,1.24,2.18,1.87,2.48,5.53,1.5,7.86-.21.54-.5,1.04-.83,1.49.23.22.45.46.65.72.58.77.97,1.72,1.19,2.75.16-.28.33-.57.52-.85,1.41-2.11,3.84-3.71,6.49-4.27,1.55-.34,3.21-.5,5.06-.5,1.5,0,3.14.11,5.01.34,2.87.4,4.13,1.83,4.68,2.95.18.36.29.72.37,1.05,2.42-2.74,5.89-4.34,9.75-4.34,1.34,0,2.67.2,3.97.58,2.4.66,5.45,1.76,7.38,4.3l.08.11.16.2c1.58,2.24,1.97,4.82,2.15,7.05.18,2.72.32,6.24-.24,9.76Z"/>
  </g>
  <g>
    <g>
      <path class="cls-4" d="M126.77,53.69c1.55,0,3.06.05,4.56-.21,1.09-.21,2.23-.77,3.01-1.6.67-.84.98-1.92,1.19-3.01.46-2.96.41-5.96.2-8.97-.15-1.82-.43-3.81-1.52-5.34-.06-.09-.13-.17-.19-.26-1.29-1.71-3.57-2.54-5.64-3.11-4.77-1.4-9.89.57-11.97,5.49-1.81,4.36-1.96,9.33-2.07,14.04-.05,3.84.05,7.72.78,11.5.41,2.28,1.59,4.25,3.36,5.64.48.38,1,.71,1.56,1,2.79,1.45,6.48,1.86,9.42.83,1.86-.67,5.28-2.59,5.55-4.51.1-.67-.11-1.4-.32-2.02-.26-.73-.56-1.4-.98-2.07-.02-.04-.05-.09-.08-.13-.34-.63-1.11-1.58-1.73-1.58-.42.05-.83.26-1.19.52-1.4.93-2.96,1.96-4.66,2.02-.39.02-.77-.05-1.1-.18-.79-.29-1.4-.94-1.65-1.84-.2-.57-.31-1.25-.41-1.86-.15-1.55-.26-3.11-.26-4.66,1.35.26,2.8.41,4.15.31ZM122.73,48.2c.1-2.65.31-5.34,1.14-7.88.57-1.66,2.02-3.37,3.84-1.92.29.24.5.61.66,1.06.54,1.55.37,4.03.17,5.31-.15.94-.36,2.02-1.09,2.59-.5.43-1.89.67-3.09.77-.66.06-1.26.07-1.62.05Z"/>
      <path class="cls-4" d="M164.68,47.02c.1-2.64.05-5.38-.52-7.97-.36-1.55-.78-3.21-1.66-4.5-.08-.09-.15-.19-.23-.29-.51-.63-1.06-1.24-1.74-1.69-1.71-1.18-3.83-1.7-5.85-1.66-.99.05-2.02.21-2.96.67-1.19.56-2.26,1.46-3.21,2.45-.12.13-.24.26-.36.39-.1.15-.31.36-.46.57-.18-.87-.42-1.79-.71-2.5h0c-.21-.5-.45-.91-.73-1.12-.46-.42-1.14-.52-1.71-.57-1.35-.1-2.79-.15-4.04.52-.36.21-.67.52-.88.88-.31.56-.36,1.29-.36,1.91-.05,2.44.05,4.87.21,7.3,0,1.86-.05,3.67-.05,5.53,0,2.17.05,4.4-.05,6.63-.15,3.73-.46,7.45-.52,11.18,0,.88,0,1.76.15,2.58.1.63.42,1.25.88,1.66.22.19.51.36.84.52,1.52.67,3.98.94,5.16.56.84-.26,1.66-.83,2.07-1.66.36-.67.47-1.5.47-2.33.05-1.29-.05-2.59-.16-3.88-.36-5.12-.31-11.6.21-16.72.21-1.66.36-3.37,1.09-4.87.62-1.24,1.76-1.91,3.11-1.76.62.1,1.19.56,1.55,1.14.09.12.16.28.24.46.97,2.51.43,10.05.39,12.27-.05,3.37-.15,6.73-.11,10.09,0,1.25.05,2.49.15,3.73.11.77.32,1.61.78,2.17.27.31.67.53,1.08.69.21.08.43.14.63.19,1.4.41,2.95.36,4.3-.15.72-.31,1.39-.62,1.91-1.14.63-.63.88-1.55,1.04-2.44.21-1.14.21-2.38.21-3.57-.05-5.07-.31-10.2-.15-15.33Z"/>
      <path class="cls-4" d="M194.15,47.02c.11-2.64.05-5.38-.52-7.97-.36-1.55-.77-3.21-1.66-4.5-.08-.1-.15-.2-.24-.3-.5-.63-1.06-1.22-1.73-1.67-1.71-1.18-3.84-1.7-5.86-1.66-.98.05-2.02.21-2.95.67-1.2.56-2.27,1.47-3.22,2.46-.12.13-.24.26-.36.39-.11.15-.32.36-.47.57-.18-.87-.42-1.79-.71-2.5-.21-.5-.45-.91-.73-1.12-.46-.42-1.14-.52-1.71-.57-1.35-.1-2.8-.15-4.04.52-.36.21-.67.52-.88.88-.31.56-.36,1.29-.36,1.91-.05,2.44.05,4.87.21,7.3,0,1.86-.05,3.67-.05,5.53,0,2.17.05,4.4-.05,6.63-.15,3.73-.46,7.45-.52,11.18,0,.88,0,1.76.15,2.58.11.63.42,1.25.88,1.66.22.19.51.36.84.52,1.52.67,3.98.94,5.17.56.83-.26,1.66-.83,2.07-1.66.36-.67.46-1.5.46-2.33.05-1.29-.05-2.59-.15-3.88-.36-5.12-.31-11.6.21-16.72.21-1.66.36-3.37,1.08-4.87.63-1.24,1.76-1.91,3.11-1.76.62.1,1.19.56,1.55,1.14.09.12.16.28.23.46.98,2.51.44,10.05.39,12.27-.05,3.37-.15,6.73-.1,10.09,0,1.25.05,2.49.15,3.73.1.77.31,1.61.77,2.17.28.31.67.53,1.08.68.21.09.43.15.63.2,1.4.41,2.96.36,4.3-.15.73-.31,1.4-.62,1.92-1.14.62-.63.88-1.55,1.04-2.44.2-1.14.2-2.38.2-3.57-.05-5.07-.31-10.2-.15-15.33Z"/>
      <path class="cls-4" d="M222.23,32.49c-.15-.48-.37-.8-.7-1.08-.99-.82-2.36-.74-4.67-.53-1.19.1-2.69.21-3.37,1.15-.47.63-.36,1.53-.32,2.32.21,2.37.26,5.02.31,7.44-.28,3.88-2.99,5.77-4.98,4.94-1.01-.4-1.84-1.51-2.07-3.41-.31-2.43-.31-4.85-.15-7.23.05-.56.19-2.44.15-3.46,0-.23-.02-.43-.05-.54-.1-.32-.41-.58-.67-.69-1.66-.79-3.62-.73-5.38-.47-.57.1-1.97.26-2.28.68-.36.53-.36,2.58-.36,3.22-.05,3.69-.05,7.38.36,11.02.05,1.15.21,2.31.47,3.42.15.84.46,1.69,1.04,2.32.29.29.63.55,1.01.76.22.13.46.25.7.35,1.09.48,2.23.69,3.42.84,1.86.21,3.89.32,5.7-.21.83-.26,1.6-.79,2.27-1.32.32-.26.63-.53.88-.9v1c0,.64,0,1.28,0,1.93,0,1.83-.05,3.64-.47,5.4-.5,2.07-2.75,3.08-4.62,2.14-.09-.04-.16-.09-.25-.13-.73-.42-1.19-1.16-1.55-1.9-.36-.79-.46-1.74-.73-2.58-.04-.15-.08-.29-.13-.43-.14-.43-.33-.82-.64-1.1-.42-.31-.94-.53-1.45-.53-1.04-.1-2.07-.05-3.11.11-.67.15-1.39.32-1.97.73-.62.48-.93,1.37-1.04,2.17-.1,1.16,0,2.31.21,3.43.41,2.26,1.6,4.53,3.42,5.95.03.02.06.05.09.07,3.1,2.37,7.56,3.35,11.4,2.72,1.5-.21,2.96-.73,4.25-1.52,0,0,1.61-1.01,2.85-2.64,2.47-3.23,2.46-8.32,2.66-20.91.04-2.65.05-5.28.05-6.07.03-3.63.05-5.42-.28-6.46Z"/>
      <path class="cls-4" d="M112.84,41.16c-.11-1.73-.53-3.44-1.28-5.06-.2-.43-.63-1.26-1.34-2.14-.92-1.15-2.31-2.38-4.26-2.92-1.26-.34-2.48-.32-3.49-.16-.88.13-1.62.35-2.11.5-.16.05-.31.1-.46.15.41-1.01.94-2.13,1.63-3.3.88-1.49,1.83-2.73,2.71-3.75.07-.09.13-.17.16-.27.16-.42-.05-.91-.53-1.11l-1.66-.71c-.45-.19-.99-.07-1.27.31-.72.97-1.52,2.28-2.12,3.94-.42,1.18-.64,2.29-.76,3.27,0,.03,0,.05,0,.09-.06-.09-.13-.18-.2-.26-1.05-1.32-2.79-2.64-4.53-3.4-.33-.14-.65-.26-.96-.36-.58-.19-1.04.46-.7.97,0,0,0,.02,0,.02,1.3,1.92.49,3.44,1.8,5.28.03.05.07.1.12.16-.84.07-1.57.2-1.97.41-.7.38-.97,1.4-1.08,2.15-.11,1.25-.2,2.46-.26,3.67v.26c-.14,8.25-.09,16.56.23,24.81.05,1.29.15,2.59.27,3.93.11.75.38,1.78,1.08,2.15.19.1.41.19.66.25,1.21.32,2.99.26,4.07.13.53-.05,1.12-.27,1.5-.64,1.29-1.35.81-6.13.7-7.97-.09-1.57-.28-2.92-.4-3.98.26-.09.65-.18,1.08-.07.88.21,1.04,1,1.68,1.59.08.07.15.14.25.2.12.08.24.15.36.2,0,0,0,0,.02,0,1.45.63,3.47-.25,4.02-.47.72-.31,1.52-.8,2.48-1.78,1.56-1.61,2.58-3.77,3.33-5.86,1.08-3.28,1.45-6.78,1.24-10.23ZM100.96,50.89c-.29-.31-.43-.74-.54-1.16-.38-1.3-.6-2.65-.67-4.01-.11-1.89.03-4,.69-5.75.36-.97.67-1.43,1.1-1.74,1.16-.82,3.05-.4,3.85.84.11.18.19.35.26.52.12.32.15.62.18.83.12,1.08.1,2.18-.05,3.25-.18,1.25-.51,2.46-.97,3.61-.46,1.16-1.03,2.4-1.81,3.32-.23.27-.5.53-.81.63-.07.02-.14.04-.21.05h0c-.36.05-.73-.09-1.01-.38Z"/>
    </g>
    <g>
      <path class="cls-4" d="M287.72,32.66c-.04-.34-.09-.61-.16-.78-.11-.26-.36-.47-.63-.63-.62-.26-3.1-.21-3.78-.21-.57.05-2.59.15-3.11.47-.42.26-.57.84-.57,1.37-.1,1.89,0,3.84,0,5.72.05,4.94.26,9.89-.1,14.78-.15,1.63-.46,3.32-1.04,4.84-.21.58-.46,1.21-.94,1.63-.64.65-1.62.8-2.44.48-.3-.12-.58-.29-.82-.53-.47-.43-.78-1-.94-1.58-.52-1.48-.56-3-.62-4.53-.15-5.1.31-10.2.77-15.3.12-1.24.44-3.88.02-5.48-.12-.44-.29-.8-.53-1.04-.36-.31-.93-.53-1.45-.63-1.66-.26-3.37-.11-5.03.05-.52,0-1.08.21-1.45.57-.62.74-.67,1.84-.73,2.79-.15,2.68-.1,5.36.05,8.05.05,1.26-.05,2.52-.05,3.78-.05,4.15-.26,8.25.15,12.35.21,2.63.98,5.37,2.59,7.52.53.73,1.18,1.45,1.92,2.03.48.37,1.01.69,1.55.92,1.86.79,3.98,1,6,.94,1.86,0,3.88-.31,5.49-1.26,1.45-.89,2.54-2.31,3.26-3.84.77-1.63,1.4-3.42,1.76-5.21.21-1.32.32-2.63.42-3.95.15-2.05.36-4.1.42-6.15.1-4.15.05-8.25.1-12.35,0-.77.04-3.4-.15-4.85Z"/>
      <g>
        <path class="cls-4" d="M294.86,70.19c-.98-.12-2.07-.37-2.64-1.25-1.14-1.75-.93-8.12-.88-10.24.05-3.56,0-7.06.05-10.55,0-1.56.05-14.49.78-15.92.21-.37.52-.75.93-1,.62-.37,1.4-.44,2.07-.37.88,0,1.81.06,2.64.31.73.19,1.45.5,1.92,1.12.52.69.72,1.62.72,2.5,0,2.5-.21,12.3-.26,14.74-.05,4.5-.16,8.93-.16,13.43,0,1.12,0,2.25-.05,3.37-.1.94-.26,1.94-.72,2.75-.36.62-1.09,1-1.71,1.12-.88.12-1.81.12-2.69,0Z"/>
        <path class="cls-4" d="M293.28,27.85c-.23-.31-.35-.69-.43-1.08-.16-.96-.2-2,.2-2.88.23-.58.7-1.08,1.25-1.31,1.06-.42,2.27-.27,3.36-.27.47.04.94.15,1.25.42.94.81,1.06,2.88.59,4-.47,1.19-1.41,1.88-2.66,2-.98.08-3.01-.12-3.56-.88Z"/>
      </g>
      <path class="cls-4" d="M322.73,66.05c-.04-.71-.09-2.36-.36-3.56-.12-.54-.29-1-.52-1.22-.26-.32-.73-.37-1.09-.32-1.08.05-2.12.32-3.21.36-.77.04-2.31-.05-3.39-.39-.44-.14-.8-.32-1.01-.54-.98-1.09-1.4-5.15-1.45-6.61-.05-3.64-.05-7.39.52-11.03.15-.78.52-2.92,1.24-3.33.99-.68,5.24.31,6.43.31.67-.05,1.45-.26,1.86-.78.41-.52.56-1.2.67-1.87.09-.78.28-3.08.1-4.3-.04-.25-.09-.45-.15-.59-.36-.73-1.29-.99-2.07-1.1-2.96-.36-6.06-.52-8.96.11-1.71.36-3.42,1.4-4.4,2.86-1.3,1.93-1.86,4.26-2.17,6.55-.78,5.62-.88,11.34-.84,17.02,0,2.24.26,4.58.99,6.71.46,1.35,1.08,2.76,2.12,3.64.19.17.4.33.62.48,1.42.99,3.21,1.53,4.87,1.71,2.12.26,4.25.05,6.32-.16,1.14-.1,2.48-.2,3.26-1.04.67-.73.67-1.93.63-2.92Z"/>
      <path class="cls-4" d="M336.91,53.69c1.55,0,3.06.05,4.56-.21,1.09-.21,2.23-.77,3.01-1.6.67-.84.98-1.92,1.19-3.01.46-2.96.41-5.96.21-8.97-.15-1.82-.44-3.81-1.52-5.34-.06-.09-.13-.17-.19-.26-1.3-1.71-3.57-2.54-5.65-3.11-4.77-1.4-9.89.57-11.97,5.49-1.81,4.36-1.96,9.33-2.07,14.04-.05,3.84.05,7.72.78,11.5.41,2.28,1.59,4.25,3.36,5.64.48.38,1,.71,1.56,1,2.79,1.45,6.48,1.86,9.42.83,1.86-.67,5.28-2.59,5.55-4.51.1-.67-.11-1.4-.31-2.02-.26-.73-.57-1.4-.99-2.07-.02-.04-.05-.09-.08-.13-.34-.63-1.11-1.58-1.73-1.58-.41.05-.83.26-1.19.52-1.4.93-2.95,1.96-4.66,2.02-.39.02-.76-.05-1.1-.17-.79-.29-1.39-.94-1.65-1.85-.21-.57-.31-1.25-.42-1.86-.15-1.55-.26-3.11-.26-4.66,1.35.26,2.79.41,4.14.31ZM332.87,48.2c.1-2.65.31-5.34,1.14-7.88.57-1.66,2.02-3.37,3.84-1.92.29.24.5.61.66,1.06.54,1.55.37,4.03.17,5.31-.15.94-.36,2.02-1.09,2.59-.5.43-1.89.67-3.09.77-.66.06-1.26.07-1.62.05Z"/>
      <g>
        <g>
          <path class="cls-4" d="M254.06,27.47c-.05-1.23.28-2.22.56-2.93.22-.55.51-1.11,1.04-1.55.52-.44,1.32-.75,2.13-.7.94.06,1.46.61,1.52.67.42.44.38.93.36,1.1-.03.37-.25.81-.99,1.49-1.03.95-1.46.87-2.39,1.67-1.16.99-1.32,1.8-1.7,1.76-.41-.05-.5-1.01-.52-1.51Z"/>
          <path class="cls-4" d="M251.95,23.22c.08-.19.2-.44.55-.63.3-.16.76-.22,1.07-.08.24.11.34.31.33.5,0,.33-.18.51-.37.83-.47.78-.15,1.34-.45,1.41-.24.05-.59-.29-.73-.43-.07-.07-.75-.77-.4-1.59Z"/>
          <path class="cls-4" d="M253.3,26.8c-.08-.25-.29-.81-1.04-1.15-.56-.25-1.33-.29-1.87-.02-.1.05-.47.26-.5.61-.03.34.27.69.77.87.27.06.67.17,1.07.39.77.42.88.86,1.16.83.36-.04.63-.83.41-1.53Z"/>
        </g>
        <g>
          <g>
            <path class="cls-4" d="M258.23,62.73s-.11-.07-.17-.09c-2.17-.62-4.33-1.24-6.5-1.86-.7-.19-1.38-.39-2.08-.6-.1-.02-.17.09-.09.15l1.86,1.45,5.08,3.98c.22.17.53.12.69-.09.22-.31.45-.66.67-1.04.17-.3.32-.6.44-.88.09-.19.16-.36.22-.53.08-.19.02-.38-.12-.5ZM251.6,68.92l-2.51-4.56-1.51-2.73c-.04-.07-.15-.04-.14.05l.14,1.63.56,6.34c.02.19.18.36.37.39.05,0,.09.02.14,0,.28-.03.55-.06.82-.1.04,0,.07,0,.11-.02.6-.09,1.19-.21,1.76-.39.27-.08.39-.39.26-.63ZM255.59,66.52l-6.92-5.43c-.07-.05-.16.02-.12.09l4.08,7.43c.12.21.4.3.63.19.05-.02.09-.04.13-.06.19-.09.38-.2.56-.31,0,0,.76-.45,1.66-1.24.07-.06.12-.13.14-.21.04-.16-.02-.34-.16-.46Z"/>
            <path class="cls-4" d="M246.47,62.97l-.07-.8c-.02-.2-.17-.37-.37-.39-.41-.06-.82-.19-1.2-.39-.04-.02-.09-.05-.12-.07-.77-.42-1.26-1.14-1.65-1.89-.15-.3-.25-.63-.34-.97-.02-.08-.04-.15-.06-.23-.11-.46-.21-.94-.36-1.38-.02-.03-.02-.05-.02-.09-.02-.02-.02-.02-.02-.04-.02-.03-.02-.07-.03-.1-.02-.08-.04-.15-.07-.22-.02-.06-.05-.12-.09-.18-.03-.06-.07-.12-.12-.18-.62-.77-2.1-1.28-3.92-1.28h-.08c-.43.02-.87.07-1.3.13-.71.16-1.48.32-2.07.74-.31.22-.53.52-.7.86,0,.02-.02.02-.02.04v.02c-.2.39-.32.84-.37,1.24-.11,1.17,0,2.33.22,3.43.43,2.21,1.64,4.43,3.5,5.86.04.03.08.06.12.09,2.54,1.87,5.95,2.89,9.26,2.97.28,0,.5-.22.48-.48l-.59-6.68ZM238.04,55.79c1.18,0,2.08.26,2.61.54.03.02.06.03.09.05.29.17.44.34.44.47,0,.15-.2.36-.58.55-.53.28-1.42.51-2.57.51-.36,0-.7-.02-1.01-.06-.51-.07-.94-.19-1.27-.32-.02,0-.04-.02-.05-.02-.53-.22-.82-.48-.82-.67,0-.37,1.19-1.06,3.15-1.06Z"/>
            <path class="cls-4" d="M259.84,34.96c0-.3-.02-.58-.03-.84-.02-.5-.07-.9-.13-1.25,0-.02,0-.03,0-.05,0,0,0,0,0-.02,0-.05-.02-.11-.04-.17-.02-.06-.04-.12-.07-.18-.02-.03-.03-.05-.04-.09-.03-.05-.06-.1-.1-.16-.43-.6-1.35-1.07-2.55-1.32-.17-.03-.34-.06-.53-.09-.12-.02-.24-.03-.37-.05-.16-.02-.32-.03-.5-.04-.15,0-.3-.02-.46-.02-.04,0-.08,0-.12,0h-.12c-.17,0-.35,0-.52.02-.19,0-.37.02-.55.04-.23.02-.46.06-.68.09-.16.03-.32.06-.47.1-.2.04-.39.09-.56.14-.15.05-.3.1-.43.15-.35.15-.66.31-.91.5-.05.03-.09.07-.13.1-.03.02-.06.05-.09.08-.02.02-.05.04-.07.06t0,.02s-.02.02-.03.03c-.04.04-.09.09-.12.13-.08.1-.15.2-.2.32,0,.02-.02.03-.02.05,0,.02-.02.04-.02.06-.02.05-.03.11-.04.17-.02.04-.02.08-.02.12,0,.06-.02.12-.02.19-.04.44.03.87.08,1.16.39,2.46.18,4.96.32,7.44.05.68.05,3.57.06,9.32v1c0,5.15-.22,6.27-.4,6.99-.05.15.05.31.21.35.5.15,1,.29,1.49.43,2.21.64,4.43,1.28,6.65,1.91.26.08.54-.08.6-.33.7-3.39.74-8.37.88-16.44.05-2.65.05-5.28.05-6.06.02-1.62.04-2.88.02-3.86ZM250.97,33.01c0-.43,1.35-1.26,3.81-1.26,1.43,0,2.48.28,3.11.6h.02c.45.23.68.49.68.66,0,.13-.13.3-.39.47-.56.39-1.73.78-3.42.78-.73,0-1.35-.07-1.87-.19-.46-.1-.85-.23-1.14-.37-.52-.24-.79-.51-.79-.7Z"/>
          </g>
          <path class="cls-4" d="M250.37,31.98s0,0,0,.02c.02-.03.05-.05.08-.08-.02.02-.05.04-.07.06ZM251.7,31.2c.1-.04.2-.07.31-.11.18-.05.36-.1.56-.14.15-.04.31-.07.47-.1.22-.03.45-.07.68-.09-.74.07-1.43.22-2.02.44ZM251.51,31.27c.06-.02.12-.05.18-.07-.04.01-.09.03-.13.05-.02,0-.04.02-.06.03ZM251.12,31.46c-.17.09-.32.18-.45.28.13-.1.29-.19.45-.28ZM251.51,31.27c-.14.06-.27.12-.4.19.12-.07.26-.13.4-.19ZM254.78,30.69c-.36,0-.71.02-1.06.06.18-.02.36-.03.55-.04.17,0,.35-.02.52-.02h.12s-.09,0-.12,0ZM256.87,30.9c1.2.26,2.11.73,2.55,1.32-.43-.64-1.4-1.08-2.55-1.32Z"/>
          <path class="cls-4" d="M238.04,54.71c-1.93,0-3.88.63-4.18,1.81,0-.02.02-.02.02-.04.17-.34.39-.64.7-.86.6-.43,1.36-.58,2.07-.74.43-.06.87-.11,1.3-.13h.08c1.82,0,3.3.52,3.92,1.28-.63-.87-2.28-1.32-3.92-1.32Z"/>
        </g>
      </g>
    </g>
  </g>
  <g>
    <path class="cls-2" d="M27.18,66.1c-1.18.25-2.99.53-5.19.45-2.3-.08-8.17-.29-10.36-3.89-.31-.51-.74-1.41-.71-5.19.02-2.59.26-6.27,1.26-10.7l17.6,9.12-2.61,10.21Z"/>
    <path class="cls-3" d="M30.37,25.44c-6.37-2.46-10.6-1-11.9-.48-10.11,4.1-10.37,19.97-9.02,25.88.23,1.02.48,1.58.82,2.08,1.8,2.65,5.54,2.57,15.28,3.74,1.65.2,2.95.37,3.62.46"/>
    <g>
      <path class="cls-5" d="M39.52,80.68l-1.77-.55,2.17-6.97c.15-.5-.12-1.03-.62-1.18-.5-.15-1.03.12-1.18.62l-3.05,9.79c-.15.5.12,1.03.62,1.18,0,0,0,0,0,0l2.67.83c1.03.32,2.12-.25,2.44-1.28s-.25-2.12-1.28-2.44Z"/>
      <path class="cls-5" d="M64.55,81.32c-.29-1.03-1.37-1.64-2.4-1.34l-1.78.5-1.99-7.03c-.14-.5-.66-.79-1.17-.65-.5.14-.79.66-.65,1.17l2.79,9.87c.12.42.5.69.91.69.08,0,.17-.01.26-.04,0,0,0,0,0,0l2.68-.76c1.03-.29,1.64-1.37,1.34-2.4Z"/>
    </g>
    <g>
      <path class="cls-5" d="M66.26,49.63c-.63,0-1.25-.1-1.85-.3-.37-.13-.57-.53-.44-.9.13-.37.53-.57.9-.44,3.4,1.15,7.57-2.07,9.31-7.18.55-1.61.8-3.29.75-4.86-.01-.39.29-.72.68-.73.39-.01.72.29.73.68.06,1.74-.22,3.6-.82,5.37-1.7,5-5.58,8.37-9.26,8.37Z"/>
      <circle class="cls-5" cx="75.64" cy="35.92" r="2.5"/>
    </g>
    <path class="cls-1" d="M74.67,22.82c-3.91,11.28-5.86,16.92-5.4,22.48.27,3.32,1.33,6.54,2.45,9.71,1.11,3.12,2.5,6.22,2.33,9.52-.12,2.38-1,4.76-2.75,6.67-1.78,1.94-4.38,3.3-7.15,4.16s-5.73,1.24-8.68,1.5c-5.22.46-10.51.54-15.7-.09-3.31-.41-6.62-1.12-9.51-2.51-2.89-1.39-5.35-3.51-6.41-6.11-.22-.52-.37-1.06-.48-1.6-.08-.38-.13-.76-.17-1.15-.05-.6-.05-1.22-.01-1.84.03-.51.08-1.01.17-1.52,0-.03,0-.05,0-.08.09-.59.21-1.18.34-1.77.35-1.56.82-3.09,1.21-4.54.93-3.46,2.1-6.87,2.94-10.34.61-2.55.73-5.2.42-7.8-.01-.12-.03-.25-.06-.37-.17-1.21-.42-2.41-.75-3.59-.18-.67-.39-1.33-.62-1.98-.3-.88-.65-1.75-1.03-2.6-.12-.27-.25-.54-.38-.81-.54-1.14-1.14-2.24-1.79-3.3-.19-.31-.39-.62-.58-.94-.46-.76-.86-1.54-1.03-2.41-.25-1.31.12-2.72.97-3.76.84-1.03,2.13-1.68,3.46-1.77,1.44-.09,2.85.45,4.15,1.07,3.47,1.67,6.66,3.9,10.56,4.43,11.88,1.61,23.87-15.06,32.22-13.29.85.18,1.41.49,1.81.84,2.37,2.04,1.78,7.04-.55,13.8Z"/>
    <path class="cls-4" d="M70.66,64.35c-.07,1.22-.44,2.99-1.86,4.54-1.23,1.34-3.18,2.45-5.65,3.21-2.63.82-5.51,1.15-7.97,1.36-2.69.24-5.15.35-7.53.35-2.61,0-5.12-.15-7.45-.43-3.5-.43-6.27-1.15-8.45-2.2-2.34-1.12-4.07-2.7-4.73-4.33-1-2.45-.08-5.73.81-8.91.14-.49.27-.97.4-1.44.38-1.42.82-2.87,1.24-4.28.59-2,1.21-4.05,1.72-6.15.69-2.9.86-5.93.49-9.01-.28-2.18-.81-4.39-1.57-6.58-.19-.55.16-1.13.74-1.25,4.11-.81,6.72,1.04,11.36,1.53,8.96.94,11.18-4.71,20.87-5.11,1.57-.07,3.5,0,5.73.41.58.11.93.7.74,1.26-2.75,8.14-4.07,13.05-3.64,18.23.31,3.76,1.47,7.28,2.64,10.57.17.49.35.99.54,1.48.88,2.38,1.71,4.63,1.6,6.72Z"/>
    <circle class="cls-2" cx="18.12" cy="55.76" r="2.01"/>
    <g>
      <path class="cls-5" d="M43.61,50.71c.13.23.37.35.61.35.12,0,.24-.03.36-.1l5.74-3.35c.22-.13.35-.36.35-.61s-.13-.48-.35-.61l-5.74-3.35c-.34-.2-.77-.08-.97.25-.2.34-.08.77.25.97l4.69,2.74-4.69,2.74c-.34.2-.45.63-.25.97Z"/>
      <ellipse class="cls-5" cx="59.33" cy="46.77" rx="3.7" ry="4.75"/>
      <path class="cls-5" d="M59.48,53.84c-.65.74-2.48,2.49-5.35,2.85-2.89.36-5.09-.88-6.13-1.64.54-.99.72-1.94.76-2.61.03-.39-.27-.73-.66-.76-.4-.03-.73.27-.76.66-.04.62-.23,1.56-.86,2.48-.8,1.16-1.9,1.68-2.48,1.88-.37.13-.57.53-.44.9.1.29.38.48.67.48.08,0,.15-.01.23-.04.64-.22,1.76-.74,2.72-1.83,1.08.77,3.18,1.95,5.93,1.95.38,0,.78-.02,1.19-.07,3.36-.42,5.48-2.46,6.24-3.32.26-.29.23-.74-.06-1-.29-.26-.74-.23-1,.06Z"/>
    </g>
    <path class="cls-3" d="M41,46.02c0,9.88-6.64,17.9-14.84,17.9-1.01,0-2.01-.12-2.96-.36.03-.51.08-1.01.17-1.52,0-.03,0-.05,0-.08.09-.59.21-1.18.34-1.77.79.22,1.6.34,2.45.34,6.31,0,11.44-6.5,11.44-14.5s-4.76-14.02-10.75-14.47c-.3-.88-.65-1.75-1.03-2.6-.12-.27-.25-.54-.38-.81.24-.01.48-.02.72-.02,8.19,0,14.84,8.01,14.84,17.9Z"/>
    <g>
      <path class="cls-5" d="M28.97,58.75c-3.33,0-4.99-1.28-5.81-2.42-.75-1.05-.93-2.04-.94-2.7-.06-2.32,1.71-4.56,4.49-5.7.36-.15.78.03.92.39.15.36-.03.78-.39.92-2.2.9-3.65,2.65-3.61,4.36.02.66.24,1.3.68,1.91.7.98,2.27,2.08,5.75,1.79,1.36-.11,2.67-.55,3.91-1.29.34-.2.77-.09.97.24.2.34.09.77-.24.97-1.42.86-2.95,1.36-4.52,1.49-.43.04-.83.05-1.21.05Z"/>
      <circle class="cls-5" cx="34.34" cy="56.61" r="2.5"/>
    </g>
    <path class="cls-1" d="M26.07,51.66c.63-2.11,1.28-4.23,1.79-6.37.61-2.55.73-5.2.42-7.8-.01-.12-.03-.25-.06-.37-.17-1.21-.42-2.41-.75-3.59-.18-.67-.39-1.33-.62-1.98,1.39.1,2.72.53,3.93,1.21.4,1.44.68,2.88.87,4.32.37,3.08.21,6.11-.49,9.01-.51,2.09-1.12,4.15-1.72,6.15"/>
  </g>
</svg>