<?xml version="1.0" encoding="UTF-8"?>
<svg id="Header" xmlns="http://www.w3.org/2000/svg" version="1.1" viewBox="0 0 62.47 78.42">
  <!-- Generator: Adobe Illustrator 30.0.0, SVG Export Plug-In . SVG Version: 2.1.1 Build 123)  -->
  <defs>
    <style>
      .st0 {
        fill: #fff;
      }

      .st1 {
        fill: #036;
      }
    </style>
  </defs>
  <path class="st0" d="M26.58,71.02c-.15-.12-.3-.24-.44-.37-2.31-1.99-3.84-4.89-4.65-7.8-.05-.17-.09-.33-.13-.5-.16-.72-.34-1.83-.35-3.21-.26,1.47-.76,2.74-1.64,3.67l-.08.08c-.92.91-2.27,1.51-3.67,1.65-.71.08-1.59.14-2.4.14-1.32,0-2.48-.13-3.43-.39-.51-.13-1.01-.32-1.47-.56-1.08-.57-2.48-1.9-2.91-4.87l-.02-.19c-.15-1.58-.27-3.11-.32-4.65-.35-8.96-.44-18.57-.27-28.53v-.41c.07-1.26.17-2.58.31-4.31l.03-.18c.36-2.51,1.42-3.84,2.4-4.55-.08-.46-.11-.94-.22-1.39-.16-.54-.48-.99-.71-1.49-.54-1.1-.47-2.48.1-3.56.69-1.31,2.03-2.13,3.51-2.13.44,0,.87.07,1.27.2.42.14.87.3,1.33.5.79.34,1.57.76,2.32,1.24.65-1.54,1.48-2.98,2.48-4.32.81-1.11,2.15-1.78,3.57-1.78.63,0,1.24.13,1.81.37l1.89.81c2.12.91,3.17,3.25,2.4,5.37-.2.6-.52,1.02-.74,1.29-.55.63-1.05,1.27-1.52,1.91.61.08,1.22.18,1.8.34,2.54.71,4.81,2.25,6.58,4.47,1.03,1.29,1.66,2.5,1.95,3.11,1.02,2.2,1.62,4.54,1.76,6.96.29,4.52-.24,8.87-1.57,12.92l-.03.09c-1.26,3.47-2.71,5.98-4.55,7.87-.95.98-1.91,1.73-2.95,2.3.48-.05.97-.08,1.49-.08,1.4,0,4.64.26,6.62,2.29.58.58.98,1.24,1.25,2.01.24.67.39,1.38.56,2.07.1.41.22.83.45,1.19.12.2.31.42.53.49.23.08.51,0,.69-.16.33-.28.39-.76.45-1.17.05-.38.08-.77.11-1.16.05-.71.07-1.43.09-2.15.03-1.09.04-2.18.04-3.26v-3.65c0-4.43-.02-7.35-.06-7.91-.07-1.17-.07-2.28-.08-3.35,0-.97,0-1.95-.05-2.92-.05-.98-.23-1.94-.3-2.91-.08-1.17.04-2.5.67-3.52.26-.42.65-.78,1.02-1.11.07-.07.31-.34.4-.34l.06-.04c-1.47-.87-2.33-2.37-2.17-3.99.14-1.37.99-2.59,2.3-3.27.06-.37.14-.74.3-1.12.43-1.04,1.15-1.84,2.12-2.36.68-.36,1.5-.56,2.3-.56.63,0,1.23.13,1.77.36.13.06.24.13.36.19.91-.45,1.93-.71,2.95-.71.14,0,.27,0,.42,0,2.12.14,3.43,1.29,3.89,1.78.68.71,1.46,1.95,1.3,3.79-.15,1.79-1.31,3.06-2.18,3.85-.59.54-1.08.88-1.49,1.14,1.14.5,2.03,1.17,2.67,2.01.03.04.07.07.1.11l.07.1c.17.26.3.53.43.8.15.32.25.65.33,1.01.16.67.21,1.36.24,2.04.02.28.03.64.04,1.02.03,1.19,0,2.63-.02,4.55v1.02c0,1.37-.02,3.64-.06,5.92l-.03,1.76c-.07,4.16-.09,8.33-.39,12.48-.32,4.45-1.18,8.99-4.25,12.4-.92,1.03-1.99,1.93-3.15,2.67-3.59,2.28-7.9,2.94-12.07,2.63-3.96-.29-8.04-1.54-11.17-4.04Z"/>
  <g>
    <path class="st1" d="M33.87,28.12c-.12-1.97-.61-3.93-1.47-5.78-.23-.5-.72-1.44-1.53-2.45-1.05-1.32-2.63-2.72-4.87-3.34-1.44-.39-2.83-.36-3.99-.19-1.01.15-1.85.4-2.41.57-.19.06-.35.11-.53.18.47-1.16,1.08-2.43,1.87-3.77,1.01-1.7,2.09-3.12,3.09-4.29.08-.1.15-.19.19-.31.19-.48-.06-1.03-.6-1.26l-1.9-.81c-.51-.22-1.13-.08-1.45.35-.82,1.11-1.74,2.61-2.42,4.5-.48,1.35-.73,2.62-.87,3.74,0,.04,0,.06,0,.1-.07-.1-.15-.2-.23-.3-1.2-1.51-3.19-3.01-5.17-3.88-.38-.16-.74-.29-1.1-.41-.66-.22-1.19.53-.8,1.11,0,0,0,.02,0,.03,1.49,2.19.56,3.93,2.06,6.04.04.05.08.11.13.19-.96.08-1.79.23-2.25.47-.8.43-1.11,1.6-1.23,2.46-.12,1.43-.23,2.81-.3,4.19v.3c-.16,9.43-.1,18.93.27,28.35.05,1.48.18,2.96.31,4.49.12.86.43,2.03,1.23,2.46.21.11.47.21.75.28,1.39.37,3.42.3,4.65.15.61-.06,1.28-.31,1.72-.73,1.48-1.54.93-7.01.8-9.11-.11-1.79-.32-3.34-.46-4.55.3-.1.74-.2,1.24-.08,1.01.24,1.19,1.14,1.92,1.81.09.08.18.16.28.23.13.09.27.17.42.23,0,0,0,0,.02,0,1.66.72,3.96-.28,4.59-.54.82-.35,1.74-.91,2.83-2.03,1.79-1.84,2.94-4.31,3.81-6.7,1.23-3.75,1.66-7.75,1.41-11.69ZM20.3,39.24c-.33-.35-.49-.85-.62-1.33-.43-1.49-.69-3.02-.77-4.58-.12-2.16.04-4.57.79-6.57.42-1.11.76-1.64,1.26-1.99,1.33-.94,3.48-.46,4.4.95.12.2.22.4.29.59.13.37.18.71.2.95.14,1.24.11,2.49-.05,3.71-.2,1.43-.58,2.81-1.11,4.13-.52,1.33-1.18,2.74-2.07,3.79-.27.31-.57.6-.93.72-.08.03-.16.04-.24.05h0c-.41.05-.84-.11-1.15-.43Z"/>
    <g>
      <g>
        <path class="st1" d="M47.85,23.17c-.06-1.41.32-2.54.64-3.35.25-.63.59-1.27,1.19-1.77.6-.5,1.51-.86,2.43-.8,1.07.07,1.67.7,1.73.76.48.5.43,1.07.42,1.26-.03.42-.28.92-1.13,1.7-1.18,1.08-1.67,1-2.73,1.91-1.32,1.13-1.51,2.06-1.95,2.01-.46-.06-.57-1.16-.59-1.73Z"/>
        <path class="st1" d="M45.44,18.31c.09-.21.23-.51.63-.72.34-.18.87-.25,1.22-.1.28.12.38.35.38.57,0,.37-.2.58-.42.94-.53.89-.17,1.54-.52,1.61-.28.06-.67-.33-.83-.49-.08-.08-.85-.88-.46-1.82Z"/>
        <path class="st1" d="M46.98,22.4c-.09-.28-.33-.93-1.19-1.32-.63-.29-1.52-.33-2.14-.02-.11.06-.53.3-.57.7-.04.39.31.78.88.99.31.07.77.2,1.23.45.88.48,1.01.98,1.32.95.41-.04.72-.95.47-1.75Z"/>
      </g>
      <g>
        <g>
          <path class="st1" d="M52.61,63.47c-.05-.04-.12-.08-.19-.11-2.48-.71-4.95-1.41-7.43-2.13-.8-.22-1.58-.45-2.38-.68-.11-.03-.19.11-.1.18l2.12,1.66,5.81,4.55c.25.19.61.14.79-.1.25-.35.51-.75.76-1.19.19-.34.36-.69.5-1.01.1-.21.19-.42.26-.61.09-.21.02-.43-.14-.57ZM45.04,70.54l-2.87-5.21-1.72-3.12c-.04-.08-.17-.04-.16.05l.16,1.87.64,7.24c.03.22.2.41.42.45.05,0,.11.02.16,0,.32-.04.63-.07.94-.11.04,0,.08,0,.12-.02.68-.1,1.36-.24,2.02-.44.31-.09.45-.44.3-.72ZM49.6,67.79l-7.91-6.21c-.08-.06-.19.02-.14.11l4.67,8.49c.14.24.46.34.72.21.05-.03.1-.04.15-.07.21-.11.43-.23.65-.35,0,0,.87-.51,1.89-1.41.08-.07.13-.15.16-.24.04-.19-.02-.39-.19-.52Z"/>
          <path class="st1" d="M39.18,63.73l-.08-.92c-.03-.23-.19-.42-.42-.45-.47-.07-.94-.21-1.37-.45-.04-.03-.1-.05-.14-.08-.88-.48-1.44-1.31-1.88-2.16-.17-.34-.28-.72-.39-1.11-.03-.09-.04-.18-.07-.27-.12-.53-.24-1.07-.41-1.57-.02-.04-.03-.06-.03-.1-.02-.02-.02-.03-.02-.04-.02-.04-.03-.08-.04-.11-.02-.09-.04-.18-.08-.26-.03-.07-.05-.13-.1-.2-.04-.07-.08-.14-.13-.2-.71-.88-2.4-1.47-4.48-1.47h-.09c-.5.03-.99.08-1.49.15-.81.19-1.69.36-2.37.85-.35.25-.61.59-.8.98,0,.02-.02.03-.03.04v.02c-.23.45-.36.95-.42,1.41-.12,1.33,0,2.66.25,3.93.5,2.53,1.87,5.07,4,6.69.04.04.09.07.13.11,2.9,2.14,6.8,3.31,10.58,3.39.32,0,.57-.26.55-.55l-.67-7.64ZM29.54,55.53c1.34,0,2.38.29,2.99.62.04.02.07.04.11.05.33.19.5.39.5.54,0,.18-.23.42-.66.63-.61.32-1.63.58-2.94.58-.42,0-.8-.03-1.16-.07-.58-.08-1.07-.21-1.45-.36-.03,0-.04-.02-.05-.02-.6-.25-.94-.55-.94-.76,0-.42,1.36-1.21,3.6-1.21Z"/>
          <path class="st1" d="M54.45,31.73c0-.34-.02-.66-.04-.95-.03-.57-.08-1.03-.15-1.42,0-.02,0-.04,0-.05,0,0,0,0,0-.02,0-.06-.03-.12-.04-.19-.02-.07-.04-.13-.08-.2-.02-.04-.04-.06-.04-.1-.04-.06-.07-.11-.11-.19-.5-.68-1.54-1.22-2.91-1.51-.19-.04-.39-.07-.6-.11-.13-.02-.27-.04-.42-.05-.19-.03-.37-.04-.57-.04-.17,0-.34-.02-.52-.02-.04,0-.09,0-.13,0h-.13c-.19,0-.4,0-.59.02-.21,0-.42.03-.63.04-.27.03-.52.07-.78.11-.19.04-.37.07-.54.11-.23.04-.44.1-.65.16-.18.06-.34.11-.5.18-.4.17-.75.35-1.03.57-.05.04-.1.08-.15.11-.04.03-.07.06-.11.09-.03.02-.05.04-.08.07t0,.02s-.03.03-.04.04c-.04.04-.1.1-.13.15-.09.11-.18.23-.23.36,0,.02-.02.04-.03.05,0,.03-.02.04-.03.07-.02.06-.04.12-.04.19-.02.04-.02.09-.03.14,0,.07-.02.14-.02.21-.04.5.04.99.09,1.33.45,2.81.2,5.67.36,8.51.05.78.05,4.08.07,10.65v1.14c0,5.89-.25,7.17-.46,7.98-.05.17.06.35.24.4.57.17,1.14.33,1.71.49,2.53.73,5.06,1.46,7.59,2.18.3.09.62-.09.68-.38.8-3.87.85-9.57,1.01-18.79.05-3.02.05-6.03.06-6.92.03-1.86.04-3.29.02-4.41ZM44.32,29.5c0-.49,1.54-1.44,4.35-1.44,1.64,0,2.84.32,3.55.69h.02c.51.27.78.56.78.75,0,.15-.15.34-.44.54-.64.44-1.97.89-3.91.89-.83,0-1.55-.08-2.14-.21-.53-.11-.97-.27-1.31-.42-.59-.27-.9-.58-.9-.8Z"/>
        </g>
        <path class="st1" d="M43.63,28.31s0,0,0,.02c.03-.04.06-.06.09-.09-.03.02-.05.04-.08.07ZM45.15,27.42c.11-.04.22-.08.35-.12.2-.06.42-.11.65-.16.17-.04.35-.08.54-.11.26-.04.51-.08.78-.11-.85.07-1.63.25-2.31.51ZM44.94,27.5c.07-.03.14-.06.21-.08-.05.02-.1.03-.15.05-.02,0-.04.02-.06.03ZM44.49,27.72c-.19.1-.37.21-.52.32.15-.12.33-.22.52-.32ZM44.94,27.5c-.16.07-.31.14-.45.22.14-.08.29-.15.45-.22ZM48.67,26.85c-.41,0-.81.02-1.21.07.2-.02.42-.04.63-.04.19,0,.4-.02.59-.02h.13c-.05,0-.1,0-.14,0ZM51.06,27.08c1.37.29,2.41.83,2.91,1.51-.5-.73-1.6-1.24-2.91-1.51Z"/>
        <path class="st1" d="M29.54,54.3c-2.2,0-4.43.72-4.77,2.07,0-.02.02-.03.03-.04.19-.39.45-.73.8-.98.68-.49,1.56-.66,2.37-.85.5-.07.99-.12,1.49-.15h.09c2.08,0,3.78.59,4.48,1.47-.72-.99-2.61-1.51-4.48-1.51Z"/>
      </g>
    </g>
  </g>
</svg>