<?xml version="1.0" encoding="UTF-8"?>
<svg id="Header" xmlns="http://www.w3.org/2000/svg" viewBox="0 0 198.32 93.11">
  <defs>
    <style>
      .cls-1 {
        fill: #4c2e04;
      }
    </style>
  </defs>
  <path class="cls-1" d="M42.1,58.95c.27,0,.5,0,.72,0,14.93,0,29.86,0,44.79,0,1.44,0,2.51-.91,2.87-2.46.79-3.37,1.58-6.73,2.37-10.1,1.63-6.94,3.27-13.87,4.87-20.81.13-.58.17-1.22.06-1.8-.19-1.03-1.23-1.81-2.39-1.95-.28-.03-.56-.03-.83-.03-20.34,0-40.67,0-61.01.01-.54,0-.74-.15-.86-.67-.6-2.55-1.25-5.1-1.88-7.64-.43-1.75-1.31-2.43-3.11-2.43-4.12,0-8.24,0-12.36,0-1.3,0-2.34.78-2.65,1.95-.45,1.74.79,3.35,2.63,3.36,3.42.01,6.85,0,10.27,0,.19,0,.38,0,.62,0,.19.77.38,1.52.57,2.28,4.27,17.2,8.53,34.4,12.82,51.6.12.48.35.95.61,1.37.38.62.96.93,1.71.92.83,0,1.66,0,2.51.05-1.64,1.14-2.56,2.65-2.49,4.65.05,1.41.63,2.59,1.69,3.52,2.12,1.87,5.35,1.6,7.17-.57,1.54-1.83,1.87-5.42-1.42-7.6h27.58c-1.67,1.11-2.58,2.56-2.56,4.51.01,1.39.55,2.57,1.54,3.53,1.97,1.9,5.15,1.84,7.04-.14,1.13-1.18,1.58-2.6,1.35-4.22-.23-1.59-1.09-2.78-2.58-3.7.33-.02.49-.03.66-.03,1.48,0,2.96-.01,4.43,0,.79,0,1.38-.34,1.77-1,.62-1.02.62-2.09.02-3.12-.4-.7-1.03-1.04-1.86-1.04-2.92.01-5.84,0-8.76,0-11.06,0-22.11,0-33.17.01-.54,0-.74-.15-.86-.67-.57-2.42-1.18-4.83-1.78-7.24-.04-.17-.08-.33-.13-.57ZM44.97,26.99c.44,3.56.88,7.09,1.32,10.66h-9.48c-.88-3.55-1.76-7.08-2.64-10.66h10.81ZM80.13,37.65c0-.1-.02-.16,0-.23.37-3.35.75-6.7,1.11-10.05.04-.39.23-.42.55-.42,3.11,0,6.22,0,9.33,0,.15,0,.3.02.46.04,0,.11,0,.18-.02.25-.79,3.36-1.58,6.73-2.36,10.09-.07.32-.25.35-.52.35-2.71,0-5.42,0-8.13,0-.13,0-.27-.02-.42-.03ZM75.9,26.99c0,.17.01.31,0,.45-.36,3.24-.74,6.49-1.08,9.73-.05.44-.22.52-.62.52-2.64-.02-5.28,0-7.92,0-.17,0-.33,0-.47,0v-10.69h10.1ZM60.42,37.65c-.14.02-.21.03-.28.03-2.69,0-5.39,0-8.08,0-.34,0-.44-.12-.47-.44-.29-2.47-.61-4.93-.91-7.4-.12-.94-.23-1.88-.34-2.85h10.08v10.65ZM40.77,53.6c-.87-3.53-1.75-7.04-2.62-10.58h8.81c.44,3.53.87,7.04,1.31,10.58h-7.49ZM74.12,43.03c0,.19,0,.31-.02.43-.36,3.23-.74,6.45-1.08,9.68-.04.41-.18.51-.57.51-2.08-.02-4.17,0-6.25,0-.15,0-.3-.02-.45-.03v-10.57h8.38ZM78.3,53.63c.4-3.58.8-7.08,1.19-10.6h8.31c0,.12,0,.21-.02.29-.78,3.31-1.56,6.63-2.33,9.94-.07.31-.22.38-.5.37-1.23-.01-2.47,0-3.7,0-.95,0-1.91,0-2.95,0ZM60.37,53.59c-.13.02-.2.04-.27.04-2.03,0-4.06,0-6.09.01-.32,0-.41-.12-.44-.42-.3-2.46-.61-4.93-.91-7.39-.11-.92-.22-1.85-.34-2.79h8.05v10.55Z"/>
  <g>
    <g>
      <path class="cls-1" d="M109.59,14.83c.95-1.54,2.91-2.16,4.73-2.16.33,0,.64.02.95.06,2.07.26,4.44,1.61,3.26,3.96-.37.73-.97,1.01-1.61,1.01-.55,0-1.16-.22-1.65-.51-.24-.13-.49-.27-.75-.35-.18-.04-.4-.06-.57.04-.13.07-.18.26-.17.38,0,.26.13.51.31.7.48.46,1.08.77,1.67,1.12,1.52.86,2.57,1.74,2.71,3.59.04.86-.22,1.81-.79,2.49-1.01,1.17-2.57,1.63-4.16,1.63-1.15,0-3.06-.29-3.98-1.08-.35-.33-.62-.84-.55-1.32.13-1.08.82-1.7,1.78-1.7.33,0,.68.07,1.04.22.28.11.53.17.77.17,1.04,0,1.5-1.01.38-1.89-.73-.57-1.61-.97-2.35-1.54-1.5-1.21-2.11-3.12-1.04-4.8Z"/>
      <path class="cls-1" d="M120.2,13.75c.04-.22.11-.46.24-.66.11-.2.31-.35.49-.5.44-.31,1.01-.42,1.56-.44.38-.02.81.02,1.17.17.71.29,1.21.99,1.23,1.76.02.35-.04.71-.11,1.06-.04.2-.26,1.43-.29,1.63-.2,1.19-.31,2.42-.27,3.65.04,1.25.2,2.51.24,3.76.02.57,0,1.21-.33,1.69-.35.51-1.21.84-1.91.84-.59,0-1.08-.26-1.45-.71-.79-1.01-.92-4.67-.92-5.9-.02-2.11.05-4.25.35-6.34Z"/>
      <path class="cls-1" d="M132.06,12.38c.55,0,1.12.07,1.71.26,1.67.5,3.5,2.69,2.18,4.44-.48.64-1.41.93-2.2.86-.42-.04-.79-.24-1.06-.57-.26-.31-.35-.73-.57-1.08-.16-.27-.37-.37-.59-.37-.48,0-1.01.55-1.25.97-.86,1.48-1.08,3.43-.33,4.95.33.66,1.01,1.01,1.63,1.01.75,0,1.45-.49,1.39-1.59,0-.07-.02-.15-.04-.22-.44.02-.88.02-1.32-.07-.22-.04-.46-.13-.64-.27-.13-.09-.24-.26-.27-.42-.15-.62.2-1.28.79-1.48.48-.17,1.8-.26,2.84-.26,1.54,0,1.93.05,2.22,1.8.2,1.48-.13,3.15-.94,4.4-.88,1.36-2.49,1.98-4.11,1.98-3.15,0-5.37-2.18-5.73-5.28-.5-4.27,2.18-9.03,6.29-9.03Z"/>
      <path class="cls-1" d="M137.64,19.4c.05-1.25.18-2.47.4-3.7.29-1.56,1.23-2.69,2.86-2.88,1.17-.13,2.09.09,2.55,1.1.53,1.15.81,2.4,1.21,3.59.33.93,1.1,2.68,1.56,3.54-.18-1.47-.24-3.7.09-5.53.2-1.14.55-2.42,1.74-2.64.83-.15,2.27.09,2.71.79.26.4.24.92.2,1.37-.07.81-.27,1.5-.48,2.29-.44,1.81-.46,4.38-.55,6.25-.05,1.54-.7,2.73-1.98,2.73-.33,0-.71-.07-1.14-.26-1.5-.64-2.2-2.2-2.95-3.61-.7-1.34-1.3-2.69-1.85-4.09-.31,1.58-.38,3.23-.26,4.82.09.97.73,2.46-.2,3.06-.31.2-.73.31-1.17.31-1.37,0-2.07-1.03-2.36-2.27-.4-1.59-.48-3.24-.38-4.88Z"/>
      <path class="cls-1" d="M157.83,13.75c.04-.22.11-.46.24-.66.11-.2.31-.35.49-.5.44-.31,1.01-.42,1.56-.44.38-.02.81.02,1.17.17.71.29,1.21.99,1.23,1.76.02.35-.04.71-.11,1.06-.04.2-.26,1.43-.29,1.63-.2,1.19-.31,2.42-.27,3.65.04,1.25.2,2.51.24,3.76.02.57,0,1.21-.33,1.69-.35.51-1.21.84-1.91.84-.59,0-1.08-.26-1.45-.71-.79-1.01-.92-4.67-.92-5.9-.02-2.11.05-4.25.35-6.34Z"/>
      <path class="cls-1" d="M163.59,19.4c.05-1.25.18-2.47.4-3.7.29-1.56,1.23-2.69,2.86-2.88,1.17-.13,2.09.09,2.55,1.1.53,1.15.81,2.4,1.21,3.59.33.93,1.1,2.68,1.56,3.54-.18-1.47-.24-3.7.09-5.53.2-1.14.55-2.42,1.74-2.64.82-.15,2.27.09,2.71.79.26.4.24.92.2,1.37-.07.81-.28,1.5-.48,2.29-.44,1.81-.46,4.38-.55,6.25-.05,1.54-.7,2.73-1.98,2.73-.33,0-.71-.07-1.14-.26-1.5-.64-2.2-2.2-2.95-3.61-.7-1.34-1.3-2.69-1.85-4.09-.31,1.58-.38,3.23-.26,4.82.09.97.73,2.46-.2,3.06-.31.2-.73.31-1.17.31-1.38,0-2.07-1.03-2.36-2.27-.4-1.59-.48-3.24-.38-4.88Z"/>
    </g>
    <g>
      <path class="cls-1" d="M114.13,48.48c.55,0,1.12.07,1.71.26,1.67.5,3.5,2.69,2.18,4.44-.48.64-1.41.93-2.2.86-.42-.04-.79-.24-1.06-.57-.26-.31-.35-.73-.57-1.08-.16-.27-.37-.37-.59-.37-.48,0-1.01.55-1.25.97-.86,1.48-1.08,3.43-.33,4.95.33.64.88.95,1.47.95.53,0,1.08-.27,1.46-.81.35-.59.88-.82,1.43-.82s1.04.22,1.45.59c1.01.93.48,2.05-.26,3.13-.88,1.25-2.44,1.81-4,1.81-3.15,0-5.37-2.18-5.73-5.28-.5-4.27,2.18-9.03,6.29-9.03Z"/>
      <path class="cls-1" d="M120.58,50.19c1.03-1.36,3.17-1.83,4.76-1.83,1.94,0,3.85.66,4.95,1.96.75.9,1.01,2.18.88,3.3-.22,1.85-1.39,3.06-3.26,3.65,1.17.84,2.46,2,2.62,3.45.07.73-.49,1.59-1.21,1.81-.16.05-.33.07-.51.07-.29,0-.61-.07-.88-.2-.2-.11-.37-.24-.55-.4-.5-.42-2.47-3.01-2.88-3.52-.07-.09-.33-.44-.51-.66.05.37.11.71.18,1.08.16.75.37,1.54.29,2.31-.04.29-.13.57-.29.82-.37.53-1.36,1.06-2.37.95-1.25-.13-1.72-1.26-1.96-2.27-.4-1.72-1.01-8.38.73-10.52ZM123.83,54.35c.42.04.88.05,1.3-.02.53-.11,1.08-.29,1.46-.64,1.34-1.19.33-2.22-.81-2.22-1.61,0-1.87,1.61-1.96,2.88Z"/>
      <path class="cls-1" d="M132.16,53.8c.04-1.08.09-2.18.37-3.23.29-1.5,1.63-2,3.02-2.11.49-.02.97-.04,1.47,0,1.45.11,3.88.06,4.42,1.5.15.4.07.59,0,1.01-.11.62-.59,1.52-1.26,1.69-.13.04-.28.06-.42.06-.22,0-.46-.04-.68-.09-.5-.13-.97-.33-1.47-.49-.29-.11-.62-.22-.94-.2-.27.02-.57.2-.68.44-.16.37-.11.81-.04,1.19.04.18.09.4.26.49.48.29,1.15.17,1.78.17.55,0,1.06.09,1.32.7.2.46.09,1.1-.22,1.48-.2.24-.51.38-.82.44-.4.06-.81-.02-1.21-.06-.24-.02-.71-.04-.84.15-.13.2-.05.81,0,1.04.16.62.49.88,1.15.88.29,0,.61-.07.84-.17.44-.2.8-.59,1.26-.79.2-.07.4-.17.62-.17.86.02,1.45.92,1.47,1.78.02.44-.11.88-.33,1.26-.38.77-1.14,1.37-1.92,1.7-.86.35-1.81.46-2.73.38-1.72-.13-3.43-.86-3.94-2.64-.29-.93-.37-1.94-.44-2.93-.05-1.15-.07-2.33-.04-3.5Z"/>
      <path class="cls-1" d="M142.5,58.3c.71-2.62,1.01-3.32,1.58-5.33.24-.86.48-1.74.84-2.57.5-1.23,1.6-2.03,2.95-2.03,2.58,0,3.08,3.81,3.59,5.86.57,2.14,1.39,4.23,1.79,6.41.07.42.07.66-.05,1.06-.26.6-.97.88-1.59.88-.16,0-.33-.04-.49-.07-.84-.24-1.21-1.74-1.36-2.47-.73-.06-2.16-.07-2.93,0-.35,1.14-.9,2.55-2.31,2.55-.31,0-.66-.06-1.06-.18-1.94-.64-1.47-2.64-.95-4.1ZM147.77,57.26c.24-.04.92-.05,1.45-.04-.22-1.03-.48-2.03-.77-3.04-.2.81-.59,2.25-.81,3.08h.13Z"/>
      <path class="cls-1" d="M152.45,49.14c.18-.35.53-.62.9-.75.46-.17.99-.13,1.48-.11.4.04,2.71.09,3.12.07.66,0,1.32-.07,1.98-.09.59-.02,1.25-.15,1.76.15.24.15.46.33.6.57.11.15.17.31.2.48.16.53.16,1.17-.09,1.67-.2.4-.62.73-1.06.88-.55.18-1.15.26-1.72.17-.11,1.96-.02,3.96.35,5.88.13.62.31,1.25.42,1.87.07.5.13,1.01.04,1.48-.22,1.04-1.23,1.56-2.23,1.56-2.04,0-2.51-1.91-2.7-3.59-.2-1.91-.13-3.85-.15-5.77,0-.59.04-1.15.09-1.74-.7.2-1.43.35-2.12.22-.29-.06-.57-.22-.75-.44-.49-.66-.53-1.78-.11-2.49Z"/>
      <path class="cls-1" d="M163.18,53.8c.04-1.08.09-2.18.37-3.23.29-1.5,1.63-2,3.03-2.11.49-.02.97-.04,1.46,0,1.45.11,3.88.06,4.42,1.5.15.4.07.59,0,1.01-.11.62-.59,1.52-1.26,1.69-.13.04-.28.06-.42.06-.22,0-.46-.04-.68-.09-.49-.13-.97-.33-1.47-.49-.29-.11-.62-.22-.93-.2-.28.02-.57.2-.68.44-.17.37-.11.81-.04,1.19.04.18.09.4.26.49.48.29,1.15.17,1.78.17.55,0,1.06.09,1.32.7.2.46.09,1.1-.22,1.48-.2.24-.51.38-.82.44-.4.06-.81-.02-1.21-.06-.24-.02-.71-.04-.84.15-.13.2-.05.81,0,1.04.17.62.5.88,1.15.88.29,0,.61-.07.84-.17.44-.2.81-.59,1.27-.79.2-.07.4-.17.62-.17.86.02,1.45.92,1.46,1.78.02.44-.11.88-.33,1.26-.38.77-1.13,1.37-1.92,1.7-.86.35-1.81.46-2.73.38-1.72-.13-3.43-.86-3.94-2.64-.29-.93-.37-1.94-.44-2.93-.06-1.15-.07-2.33-.04-3.5Z"/>
      <path class="cls-1" d="M100.79,76.3c.71-2.62,1.01-3.32,1.58-5.33.24-.86.48-1.74.84-2.57.49-1.23,1.59-2.03,2.95-2.03,2.58,0,3.08,3.81,3.59,5.86.57,2.14,1.39,4.23,1.8,6.41.07.42.07.66-.05,1.06-.26.6-.97.88-1.59.88-.17,0-.33-.04-.5-.07-.84-.24-1.21-1.74-1.36-2.47-.73-.06-2.16-.07-2.93,0-.35,1.14-.9,2.55-2.31,2.55-.31,0-.66-.06-1.06-.18-1.94-.64-1.46-2.64-.95-4.1ZM106.07,75.26c.24-.04.92-.05,1.45-.04-.22-1.03-.48-2.03-.77-3.04-.2.81-.59,2.25-.81,3.08h.13Z"/>
      <path class="cls-1" d="M118.4,66.48c.55,0,1.12.07,1.71.26,1.67.5,3.5,2.69,2.18,4.44-.48.64-1.41.93-2.2.86-.42-.04-.79-.24-1.06-.57-.26-.31-.35-.73-.57-1.08-.16-.27-.37-.37-.59-.37-.48,0-1.01.55-1.25.97-.86,1.48-1.08,3.43-.33,4.95.33.64.88.95,1.47.95.53,0,1.08-.27,1.46-.81.35-.59.88-.82,1.43-.82s1.04.22,1.45.59c1.01.93.48,2.05-.26,3.13-.88,1.25-2.44,1.81-4,1.81-3.15,0-5.37-2.18-5.73-5.28-.5-4.27,2.18-9.03,6.29-9.03Z"/>
      <path class="cls-1" d="M129.8,66.48c.55,0,1.12.07,1.71.26,1.67.5,3.5,2.69,2.18,4.44-.48.64-1.41.93-2.2.86-.42-.04-.79-.24-1.06-.57-.26-.31-.35-.73-.57-1.08-.16-.27-.37-.37-.59-.37-.48,0-1.01.55-1.25.97-.86,1.48-1.08,3.43-.33,4.95.33.64.88.95,1.47.95.53,0,1.08-.27,1.46-.81.35-.59.88-.82,1.43-.82s1.04.22,1.45.59c1.01.93.48,2.05-.26,3.13-.88,1.25-2.44,1.81-4,1.81-3.15,0-5.37-2.18-5.73-5.28-.5-4.27,2.18-9.03,6.29-9.03Z"/>
      <path class="cls-1" d="M134.87,73.41c.06-1.45.38-2.97,1.14-4.22,1.08-1.83,3.23-2.77,5.35-2.77,1.87,0,3.74.73,4.82,2.24.71,1.01,1.19,2.2,1.36,3.41.11.77.13,1.56.04,2.33-.44,3.35-2.73,6.1-6.32,6.1-2.51,0-4.66-1.06-5.74-3.41-.51-1.14-.68-2.44-.64-3.68ZM139.45,73.15c.02.92.33,2.31,1.3,2.69.26.13.57.18.86.18,1.03,0,1.71-.75,2-1.69.53-1.69.04-4.09-1.98-4.44-.31-.05-.66,0-.94.15-1.08.55-1.26,1.96-1.25,3.1Z"/>
      <path class="cls-1" d="M148.52,71.63c0-.15.02-.27.02-.37.07-1.14.24-3.77,1.23-4.36.49-.29,1.1-.38,1.67-.42,1.21-.07,2.05.53,2.11,1.85.07,1.25-.18,2.47-.31,3.7-.09.77-.15,1.56-.18,2.33,0,.35-.02.7.02,1.04.09.93.66,1.34,1.28,1.34.71,0,1.46-.51,1.67-1.39.24-1.04.26-2.13.22-3.21-.02-.64-.09-1.3-.18-1.94-.09-.57-.2-1.12-.22-1.69-.02-.37-.02-.75.09-1.12.18-.66,1.06-.97,1.89-.97.7,0,1.36.22,1.58.64,1.34,2.69,1.91,8.19-.22,11.45-.39.57-.92,1.08-1.52,1.43-.94.7-1.92.97-3.08.97-.99,0-2.31-.27-3.19-.75-1.87-1.04-2.58-3.19-2.8-5.2-.13-1.1-.15-2.22-.05-3.34Z"/>
      <path class="cls-1" d="M161.62,73.5c.05-1.25.18-2.47.4-3.7.29-1.56,1.23-2.69,2.86-2.88,1.17-.13,2.09.09,2.55,1.1.53,1.15.81,2.4,1.21,3.59.33.93,1.1,2.68,1.56,3.54-.18-1.47-.24-3.7.09-5.53.2-1.14.55-2.42,1.74-2.64.82-.15,2.27.09,2.71.79.26.4.24.92.2,1.37-.07.81-.28,1.5-.48,2.29-.44,1.81-.46,4.38-.55,6.25-.05,1.54-.7,2.73-1.98,2.73-.33,0-.71-.07-1.14-.26-1.5-.64-2.2-2.2-2.95-3.61-.7-1.34-1.3-2.69-1.85-4.09-.31,1.58-.38,3.23-.26,4.82.09.97.73,2.46-.2,3.06-.31.2-.73.31-1.17.31-1.38,0-2.07-1.03-2.36-2.27-.4-1.59-.48-3.24-.38-4.88Z"/>
      <path class="cls-1" d="M175.55,67.14c.18-.35.53-.62.9-.75.46-.17.99-.13,1.48-.11.4.04,2.71.09,3.12.07.66,0,1.32-.07,1.98-.09.59-.02,1.25-.15,1.76.15.24.15.46.33.61.57.11.15.16.31.2.48.16.53.16,1.17-.09,1.67-.2.4-.62.73-1.06.88-.55.18-1.15.26-1.72.17-.11,1.96-.02,3.96.35,5.88.13.62.31,1.25.42,1.87.07.5.13,1.01.04,1.48-.22,1.04-1.23,1.56-2.24,1.56-2.03,0-2.51-1.91-2.69-3.59-.2-1.91-.13-3.85-.15-5.77,0-.59.04-1.15.09-1.74-.7.2-1.43.35-2.13.22-.29-.06-.57-.22-.75-.44-.5-.66-.53-1.78-.11-2.49Z"/>
    </g>
  </g>
</svg>