<?xml version="1.0" encoding="UTF-8"?>
<svg id="Header" xmlns="http://www.w3.org/2000/svg" version="1.1" viewBox="0 0 133.45 49.73">
  <!-- Generator: Adobe Illustrator 30.0.0, SVG Export Plug-In . SVG Version: 2.1.1 Build 123)  -->
  <defs>
    <style>
      .st0 {
        fill: #fff;
      }
    </style>
  </defs>
  <g>
    <path class="st0" d="M38.36,17.24c-.15-1.33-.64-2.53-1.5-3.56-1.36-1.62-3.11-2.46-5.22-2.49-2.26-.02-4.52,0-6.78,0s-4.44,0-6.65-.01c-1.19,0-2.31.24-3.34.83-2.33,1.33-3.55,3.35-3.56,6.03-.04,4.47-.01,8.93-.01,13.4,0,.5.05,1,.15,1.49.66,3.1,3.46,5.37,6.62,5.37,4.47,0,8.93,0,13.4-.01.32,0,.65-.01.97-.05,1.37-.17,2.59-.71,3.63-1.63,1.55-1.37,2.33-3.12,2.33-5.19.01-4.45.01-8.9,0-13.35,0-.28-.01-.55-.04-.83ZM24.82,33.37c-4.72-.01-8.6-3.91-8.6-8.64.01-4.76,3.9-8.62,8.67-8.62,4.72.01,8.59,3.9,8.59,8.63-.01,4.76-3.89,8.63-8.66,8.63ZM34.09,17.35c-1.02,0-1.85-.84-1.85-1.86s.84-1.84,1.85-1.84,1.85.83,1.85,1.85-.83,1.85-1.85,1.85ZM24.85,18.58c-3.42,0-6.16,2.75-6.16,6.16s2.75,6.16,6.16,6.16c3.41.01,6.17-2.75,6.16-6.16,0-3.42-2.74-6.16-6.16-6.16Z"/>
    <path class="st0" d="M43.86,17.89c-.02-3.39-1.37-6.45-3.89-8.84-1.46-1.39-3.22-2.37-5.23-2.91-1.02-.28-2.1-.42-3.2-.42h-7.47c-2.04,0-4.08,0-6.12.01-2.47.01-4.76.75-6.82,2.19-2.48,1.73-4.12,4.1-4.9,7.02-.19.7-.31,1.44-.37,2.21l-.03.18v14.71l.08.77c.17,1.61.65,3.14,1.43,4.55,1.31,2.37,3.23,4.15,5.7,5.29,1.26.59,2.62.95,4.02,1.06l.52.05h14.54l.79-.07c1.65-.18,3.2-.68,4.63-1.48,2.51-1.42,4.34-3.48,5.43-6.15.47-1.13.76-2.33.85-3.55.03-.41.05-.82.05-1.22v-3.58c.01-3.27.01-6.55-.01-9.82ZM40.87,31.29c0,.33-.02.66-.04.98-.07.92-.28,1.8-.63,2.65-.84,2.03-2.22,3.6-4.13,4.67-1.09.61-2.25.98-3.49,1.11-.2.03-.4.04-.6.06h-14.26c-.13,0-.26-.02-.39-.04-1.06-.08-2.07-.35-3.03-.79-1.88-.87-3.33-2.21-4.33-4.03-.59-1.06-.95-2.2-1.08-3.41-.02-.2-.04-.4-.06-.6v-14.3s.02-.07.02-.11c.03-.6.12-1.19.28-1.77.59-2.23,1.83-4.01,3.72-5.33,1.53-1.08,3.24-1.64,5.11-1.65,4.53-.02,9.05-.01,13.58-.01.82,0,1.63.1,2.42.31,1.5.41,2.82,1.13,3.95,2.2,1.91,1.81,2.93,4.04,2.95,6.68.03,4.46.01,8.92.01,13.38Z"/>
  </g>
  <path class="st0" d="M67.11,5.81h-.39c-10.39-.01-18.74,8.13-19.01,18.51-.05,2.29.3,4.58,1.05,6.74.73,2.11,1.83,4.08,3.23,5.81,1.4,1.72,3.11,3.2,5.01,4.33,3.06,1.82,6.55,2.69,10.05,2.63,1.31-.02,2.63-.18,3.92-.46,1.1-.23,2.18-.57,3.21-1.01,2.04-.86,3.92-2.09,5.53-3.6,1.61-1.51,2.96-3.31,3.96-5.28,1.03-2.01,1.69-4.21,1.95-6.46.07-.61.11-1.23.13-1.84.2-10.47-8.16-19.16-18.64-19.37ZM68.94,40.68v-11.39h3.66c.21-1.51.41-3,.61-4.52h-4.23s-.04-.04-.04-.05c0-1.11-.11-2.22.09-3.32.16-.92.63-1.63,1.58-1.87.42-.11.87-.1,1.3-.11.48-.02.96-.01,1.46-.01.01-.11.01-.19.01-.27,0-1.09,0-2.18.01-3.28,0-.2-.06-.26-.26-.29-1.43-.25-2.85-.4-4.31-.2-3.28.45-4.42,2.86-4.64,4.87-.14,1.23-.07,2.48-.1,3.72v.81h-3.98v4.5h3.95v11.34c-7.28-1.14-13.56-7.71-13.34-16.21.23-8.8,7.5-15.77,16.34-15.59,8.91.18,15.86,7.53,15.7,16.31-.16,8.49-6.74,14.7-13.81,15.56Z"/>
  <g>
    <path class="st0" d="M120.59,38.48c.04.07.14.12.09.22-.04.07-.14.03-.21.03-1.27.01-2.53,0-3.8.01-.25,0-.33-.15-.44-.3-1.06-1.47-2.11-2.95-3.17-4.42-2.33-3.25-4.67-6.5-7.01-9.75-2.58-3.6-5.16-7.19-7.74-10.78-.56-.79-1.13-1.57-1.69-2.36-.06-.07-.17-.15-.12-.24.04-.1.17-.04.26-.05h1.87c.58,0,1.16.02,1.73,0,.27-.01.43.07.59.29,1.69,2.37,3.39,4.74,5.09,7.11,4.44,6.17,8.87,12.33,13.3,18.5.42.58.83,1.16,1.25,1.74Z"/>
    <path class="st0" d="M126.9,38.65l-11.4-16.15c1.23-1.39,10.11-11.43,10.11-11.43,1.16-1.16,1.14-2.69.59-3.72-.54-1.01-1.6-1.63-2.75-1.63-.08,0-.17,0-.26.01h-1.08c-.3,0-.59,0-.98-.01-.77,0-1.88.22-2.82,1.29l-7.64,8.65c-.19-.27-5.92-8.38-5.92-8.38-.9-1.29-2.07-1.56-2.91-1.56-2.05.01-4.1.01-6.16.01h-2.83s-.14-.01-.14-.01c-1.08,0-2.06.54-2.65,1.44-.6.96-.75,2.45.24,3.68l10.94,15.49c-1.33,1.5-10.66,12.05-10.66,12.05-1.12,1.09-1.13,2.46-.77,3.38.46,1.21,1.62,2,2.93,2,.09,0,.18,0,.28,0h1.06c.31,0,.61,0,.99,0,1.06,0,2.04-.45,2.75-1.26,1.45-1.64,2.9-3.28,4.35-4.92,0,0,3.33-3.76,3.9-4.41l.43.6c1.99,2.82,3.97,5.63,5.95,8.44.7,1,1.76,1.55,3,1.55.73,0,1.46,0,2.18,0h6.71s.13,0,.13,0c1.23,0,2.32-.68,2.88-1.86.38-.84.45-2.13-.45-3.25ZM124.35,40.75h-4.51c-1.47,0-2.94,0-4.41,0-.24,0-.39-.08-.52-.28-2.5-3.54-4.99-7.07-7.49-10.61-.3-.43-.62-.85-.9-1.28-.15-.23-.24-.2-.4-.02-1.54,1.76-3.08,3.51-4.63,5.25-1.97,2.23-3.95,4.46-5.92,6.7-.14.17-.29.24-.52.24-.72-.02-1.44,0-2.16,0-.1,0-.24.05-.28-.07-.04-.09.08-.16.14-.23,1.7-1.92,3.4-3.84,5.1-5.77,2.34-2.64,4.67-5.29,7.02-7.92.22-.24.08-.38-.05-.56-1.93-2.74-3.86-5.47-5.79-8.21-2.11-2.99-4.23-5.98-6.34-8.97-.05-.08-.16-.15-.09-.25.05-.08.15-.04.24-.04,3,0,6.01,0,9.01-.01.24,0,.34.13.45.29,1.44,2.04,2.88,4.08,4.32,6.11,1.19,1.7,2.4,3.39,3.58,5.09.17.24.25.23.43.02,3.31-3.75,6.62-7.49,9.93-11.24.17-.19.34-.28.6-.27.72.02,1.44.01,2.16.01.08,0,.19-.04.23.04.06.1-.06.16-.12.23-1.67,1.89-3.34,3.78-5.01,5.67-2.19,2.48-4.38,4.96-6.58,7.43-.17.2-.08.31.02.46,1.68,2.37,3.36,4.74,5.04,7.12,2.53,3.59,5.07,7.19,7.61,10.79.05.06.14.13.1.21-.05.11-.17.07-.26.07Z"/>
  </g>
</svg>