<?xml version="1.0" encoding="UTF-8"?>
<svg id="Body" xmlns="http://www.w3.org/2000/svg" viewBox="0 0 276.91 60.3">
  <defs>
    <style>
      .cls-1 {
        fill: #f93;
      }

      .cls-1, .cls-2 {
        font-family: Pacifico-Regular, Pacifico;
        font-size: 30px;
      }

      .cls-3 {
        letter-spacing: -.02em;
      }

      .cls-4 {
        fill: #036;
      }

      .cls-2 {
        fill: #fff;
      }
    </style>
  </defs>
  <text class="cls-1" transform="translate(31.38 37.39)"><tspan x="0" y="0">What We O</tspan><tspan class="cls-3" x="167.29" y="0">ff</tspan><tspan x="187.21" y="0">er</tspan></text>
  <g>
    <path class="cls-4" d="M55.17,39.55c-1.78,0-4.23-.69-5.77-3.95-.22-.48-.43-.98-.61-1.52-.53.85-1.08,1.6-1.65,2.25-1.9,2.14-4.02,3.22-6.31,3.22-1.93,0-4.57-.84-6.2-4.83-1.09-2.66-1.62-6.06-1.62-10.4,0-3.03.27-6.38.8-9.98.2-1.42.62-2.46,1.29-3.17.76-.8,1.84-1.21,3.21-1.21,1.06,0,1.94.28,2.63.82.57.45,1.26,1.34,1.26,3.01,0,.17-.02.51-.07,1.01-.59,4.07-.89,7.5-.89,10.27,0,2.47.2,4.35.6,5.61.05.15.09.28.14.39.18-.21.41-.5.69-.92.89-1.31,1.8-3.35,2.72-6.07.94-2.78,1.75-6.15,2.41-10.03.25-1.43.77-2.45,1.59-3.12.79-.65,1.81-.97,3.02-.97,1.14,0,2.06.32,2.73.94.49.46,1.07,1.29,1.07,2.68,0,.47-.04.86-.11,1.18-.52,3.04-.79,6.22-.79,9.35,0,2.13.07,3.84.21,5.09.15,1.33.43,1.94.58,2.18.03.05.06.08.07.08h0s.04,0,.11,0c0,0,.55-.08,1.66-1.44.8-.98,1.56-2.17,2.28-3.55-.83-.76-1.51-1.64-2.03-2.65-.76-1.49-1.15-3.2-1.15-5.1s.31-3.48.91-4.83c.65-1.45,1.58-2.56,2.76-3.31,1.17-.74,2.49-1.12,3.91-1.12,1.88,0,3.47.73,4.6,2.12,1.04,1.28,1.58,2.98,1.58,5.04,0,1.79-.28,3.73-.83,5.78.31.01.63.02.96.02.99,0,1.79.29,2.38.85.61.58.94,1.37.94,2.23,0,.96-.31,1.86-.88,2.61-.48.61-1.38,1.36-2.98,1.4h-.4c-.97,0-1.9-.05-2.78-.15-1.36,2.59-2.96,4.82-4.78,6.63-2.35,2.35-4.79,3.54-7.25,3.54Z"/>
    <path class="cls-4" d="M80.1,39.55c-2.01,0-3.18-.85-3.81-1.56-.37-.42-.66-.9-.87-1.44-.77,1.92-2.36,3-4.47,3-1.4,0-2.5-.67-3.01-1.84-.32-.71-.46-1.68-.46-3.13,0-.68.01-1.23.03-1.64l.03-2.32c0-3.17.33-6.53.98-9.98.67-3.53,1.68-6.56,3-9,1.99-3.68,4.46-4.45,6.18-4.45,1.57,0,2.9.7,3.86,2.01.82,1.14,1.23,2.57,1.23,4.25,0,2.35-.68,4.78-2.01,7.24-.13.24-.27.49-.42.74,2.17.17,3.54,1.67,3.54,3.93,0,.95-.22,2.42-.71,4.65-.04.16-.07.32-.1.46.17-.19.34-.4.54-.63.63-.74,1.46-1.14,2.34-1.14.95,0,1.8.48,2.31,1.3.35.55.53,1.25.53,2.05,0,1.29-.36,2.36-1.06,3.17-1.02,1.18-2.1,2.17-3.2,2.94-1.31.92-2.81,1.38-4.46,1.38Z"/>
    <path class="cls-4" d="M95.08,39.55c-1.12,0-2.18-.39-3.08-1.13-.06-.05-.12-.1-.18-.16-1.31,1.02-2.67,1.29-3.72,1.29-1.83,0-3.4-.72-4.52-2.08-1.04-1.26-1.57-2.88-1.57-4.81s.45-3.75,1.33-5.46c.89-1.71,2.09-3.11,3.58-4.16,1.57-1.11,3.28-1.67,5.07-1.67,1.04,0,1.84.31,2.38.93.03.04.07.08.1.12h.1c2.4,0,3.47,1.53,3.47,3.05,0,.4-.06,1.12-.49,3.37-.12.6-.22,1.13-.3,1.6.15-.18.32-.37.49-.58.63-.74,1.46-1.14,2.34-1.14.96,0,1.8.48,2.31,1.3.35.55.53,1.25.53,2.05,0,1.29-.36,2.36-1.06,3.17-.87,1.09-1.87,2.07-2.91,2.86-1.27.97-2.58,1.46-3.88,1.46Z"/>
    <path class="cls-4" d="M105.19,39.55c-2.64,0-4.68-1.18-5.92-3.42-1.04-1.88-1.57-4.3-1.57-7.19,0-.25,0-.49,0-.74-.73-.12-1.31-.42-1.75-.88-.57-.6-.87-1.42-.87-2.43,0-2.72,1.8-3.68,3.35-3.68h.04c.34-1.69.8-3.28,1.37-4.75.79-2.05,1.77-3.73,2.93-4.98,1.38-1.5,2.95-2.27,4.67-2.27,1.51,0,2.81.72,3.66,2.02.69,1.07,1.04,2.37,1.04,3.88,0,2.24-.57,4.31-1.7,6.2.6.15,1,.44,1.26.69.54.54.8,1.27.8,2.2s-.39,4.07-5.39,4.07h-1.72c0,.12,0,.23,0,.34,0,1.31.06,2.32.19,3.01.06.33.13.53.17.63.02,0,.04,0,.06,0,0,0,.1-.02.32-.12.26-.12.49-.27.7-.45.73-.67,1.49-.81,1.99-.81.98,0,1.83.52,2.34,1.44.31.56.47,1.22.47,1.94,0,.64-.13,1.28-.38,1.88-.28.67-.71,1.24-1.27,1.69-1.38,1.14-3,1.73-4.79,1.73Z"/>
    <path class="cls-4" d="M141.19,39.55c-1.78,0-4.23-.69-5.77-3.95-.22-.48-.43-.98-.61-1.52-.53.85-1.08,1.6-1.65,2.25-1.9,2.14-4.02,3.22-6.31,3.22-1.93,0-4.57-.84-6.2-4.83-1.09-2.66-1.62-6.06-1.62-10.4,0-3.03.27-6.38.8-9.98.2-1.42.62-2.46,1.29-3.17.76-.8,1.84-1.21,3.21-1.21,1.06,0,1.94.28,2.63.82.57.45,1.26,1.34,1.26,3.01,0,.17-.02.51-.07,1.01-.59,4.07-.89,7.5-.89,10.27,0,2.47.2,4.35.6,5.61.05.15.09.28.14.39.18-.21.41-.5.69-.92.89-1.31,1.8-3.35,2.72-6.07.94-2.78,1.75-6.15,2.41-10.03.25-1.43.77-2.45,1.59-3.12.79-.65,1.81-.97,3.02-.97,1.14,0,2.06.32,2.73.94.49.46,1.07,1.29,1.07,2.68,0,.47-.04.86-.11,1.18-.52,3.04-.79,6.22-.79,9.35,0,2.13.07,3.84.21,5.09.15,1.33.43,1.94.58,2.18.03.05.06.08.07.08h0s.04,0,.11,0c0,0,.55-.08,1.66-1.44.8-.98,1.56-2.17,2.28-3.55-.83-.76-1.51-1.64-2.03-2.65-.76-1.49-1.15-3.2-1.15-5.1s.31-3.48.91-4.83c.65-1.45,1.58-2.56,2.76-3.31,1.17-.74,2.49-1.12,3.91-1.12,1.88,0,3.47.73,4.6,2.12,1.04,1.28,1.58,2.98,1.58,5.04,0,1.79-.28,3.73-.83,5.78.31.01.63.02.96.02.99,0,1.79.29,2.38.85.61.58.94,1.37.94,2.23,0,.96-.31,1.86-.88,2.61-.48.61-1.38,1.36-2.98,1.4h-.4c-.97,0-1.9-.05-2.78-.15-1.36,2.59-2.96,4.82-4.78,6.63-2.35,2.35-4.79,3.54-7.25,3.54Z"/>
    <path class="cls-4" d="M160.96,39.55c-2.49,0-4.49-.8-5.94-2.37-1.41-1.52-2.12-3.55-2.12-6.02,0-1.68.36-3.27,1.07-4.73.73-1.5,1.77-2.72,3.09-3.61,1.36-.93,2.92-1.4,4.62-1.4s3.11.54,4.19,1.61c1.08,1.06,1.65,2.53,1.65,4.23,0,.9-.15,1.74-.46,2.53.54.21,1,.59,1.33,1.12.35.56.53,1.25.53,2.05,0,1.11-.28,2.11-.84,2.96-.74,1.14-1.73,2.05-2.95,2.68-1.2.63-2.6.95-4.19.95Z"/>
    <path class="cls-4" d="M185.59,39.55c-2.12,0-4.07-.49-5.79-1.46-1.76-.98-3.17-2.44-4.19-4.32-1-1.84-1.5-4.03-1.5-6.52,0-3.33.63-6.32,1.86-8.9,1.27-2.64,3.03-4.72,5.23-6.18,2.24-1.47,4.74-2.22,7.45-2.22,2.12,0,4.07.49,5.79,1.46,1.76.99,3.17,2.44,4.19,4.32,1,1.84,1.5,4.03,1.5,6.52,0,3.33-.63,6.32-1.86,8.9-1.26,2.64-3.02,4.72-5.23,6.18-2.24,1.47-4.74,2.22-7.45,2.22ZM188.35,17.49c-1.08,0-2,.32-2.83.98-.9.72-1.62,1.78-2.15,3.15-.57,1.47-.86,3.19-.86,5.12s.35,3.29,1.05,4.15c.62.77,1.34,1.11,2.32,1.11,1.1,0,2.04-.33,2.87-1,.9-.73,1.62-1.79,2.13-3.15.55-1.48.83-3.19.83-5.1s-.35-3.29-1.05-4.15c-.62-.77-1.34-1.11-2.32-1.11Z"/>
    <path class="cls-4" d="M213.61,48.88c-1.2,0-3.26-.45-4.53-3.23-.11.21-.22.41-.34.6-1.39,2.18-3.21,2.63-4.49,2.63-1.36,0-3.82-.58-4.99-4.49-.67-2.25-1-5.46-1-9.81,0-3.97.4-8.04,1.19-12.1.8-4.12,1.96-7.61,3.42-10.36,1.75-3.27,3.92-4.93,6.44-4.93,1.55,0,2.89.71,3.77,2,.24.35.44.73.6,1.15,1.57-2.09,3.38-3.15,5.38-3.15,1.62,0,3,.78,3.9,2.19.73,1.16,1.1,2.66,1.1,4.46,0,1.95-.36,4.13-1.08,6.49-.71,2.36-1.79,4.61-3.18,6.67-.03.05-.06.09-.1.14.08,0,.15-.01.19-.02,1.01-.12,1.36-.13,1.56-.13,1.41,0,2.84,1.01,2.84,3.26,0,1.26-.52,4.13-5.16,4.38.06.44.11.89.15,1.35.14,1.41.2,2.83.2,4.23,0,2.58-.46,4.55-1.41,6.03-1.39,2.17-3.21,2.63-4.49,2.63Z"/>
    <path class="cls-4" d="M226.21,39.55c-2.63,0-4.75-.77-6.29-2.29-1.55-1.52-2.34-3.58-2.34-6.11,0-1.68.36-3.27,1.07-4.73.73-1.5,1.77-2.72,3.09-3.61,1.36-.93,2.92-1.4,4.62-1.4s3.11.54,4.19,1.61c1.08,1.06,1.65,2.53,1.65,4.23,0,.64-.08,1.25-.23,1.83.45-.25.93-.38,1.44-.38.95,0,1.79.47,2.31,1.3.35.56.53,1.25.53,2.05,0,1.29-.36,2.36-1.06,3.17-.86,1.05-2.11,2.05-3.67,2.93-1.65.93-3.44,1.4-5.32,1.4Z"/>
    <path class="cls-4" d="M233.95,39.55c-1.59,0-2.86-.9-3.47-2.48-.4-1.04-.6-2.54-.6-4.56,0-2.79.41-5.49,1.2-8.01.32-1.02.89-1.81,1.69-2.34.74-.49,1.69-.74,2.83-.74.8,0,1.4.14,1.9.45.38.24.68.57.88.97.22-.17.45-.32.67-.45,1.09-.64,2.15-.97,3.15-.97,1.43,0,2.31.61,2.79,1.12.67.71,1.01,1.66,1.01,2.83,0,.17,0,.4-.06.77.19.13.37.28.54.44.69.69,1.05,1.58,1.05,2.57,0,.51-.11,1.04-.32,1.58-.46,1.07-1.09,1.94-1.9,2.63-.93.81-2.05,1.23-3.22,1.23-1.1,0-2.09-.42-2.86-1.2-.12-.12-.24-.26-.35-.42-.34.84-.62,1.73-.85,2.65-.3,1.31-.67,2.17-1.19,2.76-.46.53-1.34,1.16-2.88,1.16Z"/>
  </g>
  <text class="cls-2" transform="translate(31.38 37.39)"><tspan x="0" y="0">What We O</tspan><tspan class="cls-3" x="167.29" y="0">ff</tspan><tspan x="187.21" y="0">er</tspan></text>
</svg>