<?xml version="1.0" encoding="UTF-8"?>
<svg id="Body" xmlns="http://www.w3.org/2000/svg" viewBox="0 0 533.74 472.87">
  <defs>
    <style>
      .cls-1 {
        fill: #dff7ff;
        stroke: #036;
        stroke-linecap: round;
        stroke-linejoin: round;
        stroke-width: 4px;
      }
    </style>
  </defs>
  <path class="cls-1" d="M483.68,23.25H49.7c-16.81.03-30.44,14.06-30.6,31.43v325.76c0,17.53,13.72,31.73,30.65,31.73h238.38c6.62,0,12.88,3.03,16.99,8.23,4,5.06,9.39,10.37,16.6,15.15,17.41,11.53,36.36,13.89,48.13,14.07,3.18.05,4.54-3.99,2.02-5.92-5.72-4.37-12.41-10.89-17.11-19.99v-.02c-2.72-5.26,1.1-11.52,7.01-11.52h121.96c16.81-.03,30.45-14.06,30.61-31.43V54.98c0-17.53-13.73-31.73-30.66-31.73Z"/>
</svg>