<?xml version="1.0" encoding="UTF-8"?>
<svg id="Body" xmlns="http://www.w3.org/2000/svg" viewBox="0 0 315.43 81.52">
  <defs>
    <style>
      .cls-1 {
        fill: #80deff;
      }

      .cls-1, .cls-2 {
        font-family: Pacifico-Regular, Pacifico;
        font-size: 50px;
      }

      .cls-2 {
        fill: #57d38c;
      }

      .cls-3 {
        fill: #036;
      }

      .cls-4 {
        letter-spacing: -.12em;
      }
    </style>
  </defs>
  <text class="cls-2" transform="translate(10.59 52.84)"><tspan x="0" y="0">Who</tspan><tspan class="cls-4" x="108.6" y="0"> </tspan><tspan x="115.85" y="0">We Are</tspan></text>
  <g>
    <g>
      <path class="cls-3" d="M55.24,60.09c-2.59,0-6.15-1.01-8.41-5.82-.75-1.59-1.34-3.43-1.79-5.51-1.3,2.6-2.7,4.74-4.18,6.41-2.9,3.27-6.1,4.92-9.52,4.92-2.8,0-6.66-1.25-9.1-7.22-1.72-4.2-2.6-9.87-2.6-16.83,0-4.98.44-10.51,1.32-16.44.29-2.09.88-3.59,1.8-4.56,1-1.06,2.48-1.6,4.38-1.6,1.45,0,2.65.36,3.56,1.08,1.05.83,1.59,2.17,1.59,3.97,0,.2-.01.57-.11,1.55-.99,6.8-1.49,12.57-1.49,17.25,0,4.24.36,7.52,1.06,9.75.6,1.92,1.17,2.24,1.2,2.25,0-.01.86-.27,2.56-2.79,1.54-2.29,3.12-5.8,4.69-10.43,1.59-4.7,2.96-10.39,4.07-16.92.36-2.05,1.07-3.48,2.18-4.39,1.08-.88,2.49-1.32,4.19-1.32,1.55,0,2.77.41,3.64,1.21.62.58,1.36,1.66,1.36,3.49,0,.69-.05,1.24-.15,1.68-.89,5.2-1.35,10.57-1.35,15.87,0,3.61.12,6.51.36,8.62.27,2.36.78,3.58,1.16,4.19.35.56.75.78,1.43.78.44,0,1.68-.28,3.8-2.89,1.57-1.93,3.06-4.32,4.43-7.1-1.63-1.29-2.92-2.86-3.85-4.68-1.17-2.29-1.77-4.94-1.77-7.89s.47-5.43,1.4-7.5c.98-2.17,2.36-3.83,4.1-4.94,1.74-1.1,3.69-1.66,5.8-1.66,2.71,0,5,1.05,6.62,3.04,1.54,1.89,2.33,4.44,2.33,7.56,0,3.32-.6,6.97-1.79,10.87,1.03.08,2.14.13,3.34.13,1.29,0,2.32.35,3.05,1.05.75.72,1.15,1.67,1.15,2.75,0,1.32-.4,2.5-1.19,3.52-.62.8-1.8,1.76-3.95,1.82h-.63c-1.92,0-3.73-.12-5.4-.37-2.29,4.55-5.03,8.44-8.15,11.56-3.66,3.66-7.4,5.51-11.14,5.51ZM69.62,22.46c-.08.09-.18.23-.27.4-.28.52-.61,1.54-.61,3.53,0,1.08.13,2.03.39,2.85.47-1.87.71-3.5.71-4.85,0-1.1-.13-1.67-.22-1.93Z"/>
      <path class="cls-3" d="M96.79,60.09c-2.29,0-4.09-.72-5.35-2.15-1.19-1.35-1.8-3.24-1.8-5.6,0-.72.11-1.76.33-3.13-.73,1.69-1.33,3.49-1.79,5.36-.84,3.56-3.21,5.52-6.64,5.52-2.44,0-3.43-1.42-3.8-2.27-.44-.99-.64-2.48-.64-4.68,0-1.13.02-2,.05-2.66l.05-3.92c0-5.21.54-10.73,1.61-16.4,1.08-5.74,2.72-10.66,4.86-14.61,2.42-4.46,5.49-6.72,9.13-6.72,2.17,0,4.02.97,5.35,2.8,1.2,1.66,1.8,3.78,1.8,6.3,0,3.69-1.07,7.53-3.19,11.43-.59,1.09-1.29,2.23-2.1,3.42.65-.17,1.28-.25,1.89-.25,3.29,0,5.25,1.96,5.25,5.25,0,1.45-.37,3.9-1.14,7.47-.65,2.96-.84,4.35-.89,5,.13-.1.29-.23.48-.39.84-.75,2.01-2.02,3.47-3.76,1.01-1.17,2.12-1.42,2.88-1.42,1.12,0,2.11.56,2.72,1.54.45.72.68,1.63.68,2.71,0,1.82-.48,3.3-1.44,4.41-1.63,1.88-3.35,3.46-5.09,4.68-1.95,1.37-4.2,2.06-6.67,2.06ZM90.96,20.78c-.4,1.15-.79,2.5-1.17,4.05.59-1.44.98-2.79,1.17-4.05Z"/>
      <path class="cls-3" d="M112.39,60.09c-2.38,0-4.46-.62-6.18-1.85-1.68-1.19-2.95-2.77-3.8-4.7-.81-1.84-1.22-3.85-1.22-5.95,0-2.82.55-5.4,1.62-7.64,1.1-2.29,2.63-4.12,4.55-5.44,1.96-1.34,4.19-2.02,6.63-2.02s4.46.62,6.2,1.84c1.7,1.19,2.99,2.78,3.83,4.71.81,1.85,1.22,3.85,1.22,5.95,0,2.83-.56,5.4-1.65,7.65-1.12,2.29-2.67,4.12-4.6,5.43-1.98,1.34-4.2,2.02-6.6,2.02ZM113.59,41.89c-.23,0-.71,0-1.29.91-.39.61-.86,1.85-.86,4.34,0,1.91.38,2.7.61,3.01.37.5.66.54.89.54.16,0,.6,0,1.19-.92.39-.62.86-1.88.86-4.33,0-1.74-.34-2.59-.63-2.99-.4-.56-.66-.56-.77-.56Z"/>
      <path class="cls-3" d="M171.09,60.09c-2.59,0-6.15-1.01-8.41-5.82-.75-1.58-1.34-3.42-1.78-5.49-1.3,2.59-2.69,4.71-4.19,6.4-2.9,3.27-6.1,4.92-9.52,4.92-2.8,0-6.66-1.25-9.1-7.22-1.73-4.2-2.6-9.87-2.6-16.83,0-4.97.45-10.51,1.32-16.44.29-2.09.88-3.59,1.8-4.56,1-1.06,2.47-1.6,4.37-1.6,1.45,0,2.65.36,3.56,1.08,1.06.83,1.59,2.17,1.59,3.97,0,.21-.01.57-.11,1.55-.99,6.8-1.49,12.57-1.49,17.25,0,4.24.36,7.52,1.06,9.75.6,1.92,1.17,2.24,1.2,2.25,0-.01.86-.27,2.56-2.79,1.54-2.29,3.12-5.8,4.69-10.43,1.59-4.69,2.96-10.38,4.07-16.92.36-2.05,1.07-3.49,2.19-4.39,1.08-.88,2.49-1.32,4.19-1.32,1.55,0,2.77.41,3.64,1.21.62.58,1.36,1.66,1.36,3.49,0,.69-.05,1.24-.15,1.68-.89,5.2-1.35,10.57-1.35,15.87,0,3.61.12,6.51.36,8.62.27,2.36.78,3.58,1.16,4.19.35.56.75.78,1.43.78.44,0,1.68-.28,3.8-2.89,1.57-1.93,3.06-4.31,4.43-7.1-1.63-1.29-2.92-2.86-3.85-4.68-1.17-2.29-1.77-4.94-1.77-7.89s.47-5.43,1.4-7.49c.98-2.17,2.36-3.83,4.1-4.94,1.74-1.1,3.69-1.66,5.8-1.66,2.71,0,5,1.05,6.62,3.04,1.54,1.89,2.33,4.44,2.33,7.56,0,3.32-.6,6.97-1.79,10.87,1.03.09,2.14.13,3.34.13,1.29,0,2.32.35,3.05,1.05.75.72,1.15,1.67,1.15,2.75,0,1.32-.4,2.5-1.19,3.52-.62.8-1.8,1.76-3.95,1.82h-.63c-1.92,0-3.73-.12-5.4-.37-2.29,4.55-5.03,8.44-8.15,11.56-3.66,3.66-7.41,5.51-11.14,5.51ZM185.47,22.46c-.08.09-.18.24-.27.4-.28.52-.61,1.54-.61,3.53,0,1.08.13,2.03.39,2.85.47-1.87.71-3.5.71-4.85,0-1.11-.13-1.67-.22-1.93Z"/>
      <path class="cls-3" d="M204.04,60.09c-3.77,0-6.77-1.18-8.92-3.52-2.11-2.29-3.18-5.36-3.18-9.13,0-2.6.56-5.05,1.65-7.3,1.12-2.29,2.7-4.14,4.7-5.5,2.04-1.39,4.38-2.1,6.95-2.1s4.5.77,6.05,2.3c1.56,1.54,2.35,3.59,2.35,6.1,0,1.94-.48,3.7-1.43,5.27.13-.01.26-.02.38-.02,1.12,0,2.11.56,2.72,1.54.45.72.68,1.63.68,2.71,0,1.59-.4,3-1.18,4.19-1.12,1.71-2.6,3.07-4.42,4.02-1.8.95-3.94,1.43-6.36,1.43ZM204.33,41.44c-.22,0-.72.1-1.35,1.17-.23.39-.42.82-.58,1.28.36-.2.68-.41.96-.64.87-.72.97-1.32.97-1.71,0-.04,0-.07,0-.1Z"/>
      <path class="cls-3" d="M260.34,60.09c-2.85,0-5.21-.86-7.02-2.57-.75-.7-1.38-1.53-1.89-2.46-2.66,3.34-6.12,5.03-10.34,5.03-2.66,0-5.11-.67-7.27-2-2.17-1.33-3.89-3.26-5.12-5.74-1.2-2.42-1.81-5.28-1.81-8.51,0-5.36,1.17-10.4,3.46-14.97,2.32-4.63,5.8-8.4,10.33-11.2,4.53-2.8,10.02-4.22,16.3-4.22,1.61,0,3.36.12,5.19.37,1.86.25,3.59.63,5.13,1.13,1.72.49,2.78,1.96,2.78,3.9,0,1.35-.49,2.61-1.45,3.74-1.3,1.53-2.79,1.86-3.8,1.86-.2,0-.39,0-.56-.02.39.77.46,1.52.46,1.92,0,.44-.07.92-.21,1.49-.85,3.19-1.64,6.74-2.35,10.6-.69,3.78-1.04,6.66-1.04,8.56s.33,2.61.47,2.83c.09.14.21.32.78.32.63,0,1.24-.22,1.86-.68.84-.62,1.95-1.75,3.31-3.36,1-1.17,2.12-1.41,2.88-1.41,1.12,0,2.11.56,2.72,1.54.45.72.68,1.63.68,2.71,0,1.77-.47,3.24-1.41,4.37-1.75,2.11-3.52,3.76-5.24,4.9-1.89,1.25-4.2,1.88-6.85,1.88ZM255.16,23.25c-3.49.11-6.49,1.02-8.94,2.71-2.64,1.83-4.64,4.27-5.95,7.28-1.35,3.1-2.03,6.49-2.03,10.1,0,2.39.44,4.21,1.3,5.41.74,1.03,1.59,1.49,2.75,1.49,1.46,0,2.73-.61,3.88-1.85,1.34-1.45,2.61-3.94,3.78-7.39,1.23-3.63,2.47-8.65,3.68-14.94.3-1.41.92-2.28,1.54-2.81Z"/>
      <path class="cls-3" d="M271.34,60.09c-2.11,0-3.72-1.16-4.54-3.28-.61-1.58-.91-3.91-.91-7.12,0-4.52.65-8.88,1.94-12.95.44-1.41,1.21-2.48,2.28-3.19,1.03-.68,2.33-1,3.97-1,1.07,0,1.85.18,2.46.55.51.32,1.34,1.08,1.34,2.65,0,.1,0,.21-.01.35.89-.89,1.77-1.6,2.68-2.12,1.62-.94,3.18-1.42,4.63-1.42,3.29,0,5.25,1.96,5.25,5.25,0,.41-.06,1.15-.48,3.5-.13.66-.22,1.12-.27,1.45.34-.24.78-.6,1.34-1.16,1.02-1.02,2.07-1.24,2.76-1.24,1.1,0,2.08.54,2.7,1.48.46.71.7,1.59.7,2.62,0,1.76-.52,3.2-1.55,4.28-1.08,1.12-2.34,2.07-3.76,2.85-1.54.84-3.2,1.27-4.93,1.27-2.3,0-4.12-.65-5.42-1.92-1.04-1.02-1.67-2.3-1.89-3.82-.32.6-.64,1.27-.95,2-.75,1.72-1.37,3.56-1.84,5.48-.45,1.91-.99,3.2-1.71,4.02-.88,1-2.15,1.51-3.78,1.51ZM289.61,43.74h0Z"/>
      <path class="cls-3" d="M299.89,60.09c-3.77,0-6.77-1.18-8.92-3.52-2.11-2.29-3.18-5.36-3.18-9.13,0-2.6.56-5.05,1.65-7.3,1.12-2.29,2.7-4.14,4.7-5.5,2.04-1.39,4.38-2.1,6.95-2.1s4.5.77,6.05,2.3c1.56,1.54,2.35,3.59,2.35,6.1,0,1.94-.48,3.7-1.43,5.27.13-.01.26-.02.38-.02,1.12,0,2.11.56,2.72,1.54.45.72.68,1.63.68,2.71,0,1.59-.4,3-1.18,4.19-1.11,1.71-2.6,3.07-4.42,4.02-1.8.95-3.94,1.43-6.36,1.43ZM300.18,41.44c-.22,0-.72.1-1.35,1.17-.23.39-.42.82-.58,1.28.36-.2.68-.41.96-.64.87-.72.97-1.32.97-1.71,0-.04,0-.07,0-.1Z"/>
    </g>
    <g>
      <path class="cls-3" d="M54.24,59.09c-2.59,0-6.15-1.01-8.41-5.82-.75-1.59-1.34-3.43-1.79-5.51-1.3,2.6-2.7,4.74-4.18,6.41-2.9,3.27-6.1,4.92-9.52,4.92-2.8,0-6.66-1.25-9.1-7.22-1.72-4.2-2.6-9.87-2.6-16.83,0-4.98.44-10.51,1.32-16.44.29-2.09.88-3.59,1.8-4.56,1-1.06,2.48-1.6,4.38-1.6,1.45,0,2.65.36,3.56,1.08,1.05.83,1.59,2.17,1.59,3.97,0,.2-.01.57-.11,1.55-.99,6.8-1.49,12.57-1.49,17.25,0,4.24.36,7.52,1.06,9.75.6,1.92,1.17,2.24,1.2,2.25,0-.01.86-.27,2.56-2.79,1.54-2.29,3.12-5.8,4.69-10.43,1.59-4.7,2.96-10.39,4.07-16.92.36-2.05,1.07-3.48,2.18-4.39,1.08-.88,2.49-1.32,4.19-1.32,1.55,0,2.77.41,3.64,1.21.62.58,1.36,1.66,1.36,3.49,0,.69-.05,1.24-.15,1.68-.89,5.2-1.35,10.57-1.35,15.87,0,3.61.12,6.51.36,8.62.27,2.36.78,3.58,1.16,4.19.35.56.75.78,1.43.78.44,0,1.68-.28,3.8-2.89,1.57-1.93,3.06-4.32,4.43-7.1-1.63-1.29-2.92-2.86-3.85-4.68-1.17-2.29-1.77-4.94-1.77-7.89s.47-5.43,1.4-7.5c.98-2.17,2.36-3.83,4.1-4.94,1.74-1.1,3.69-1.66,5.8-1.66,2.71,0,5,1.05,6.62,3.04,1.54,1.89,2.33,4.44,2.33,7.56,0,3.32-.6,6.97-1.79,10.87,1.03.08,2.14.13,3.34.13,1.29,0,2.32.35,3.05,1.05.75.72,1.15,1.67,1.15,2.75,0,1.32-.4,2.5-1.19,3.52-.62.8-1.8,1.76-3.95,1.82h-.63c-1.92,0-3.73-.12-5.4-.37-2.29,4.55-5.03,8.44-8.15,11.56-3.66,3.66-7.4,5.51-11.14,5.51ZM68.62,21.46c-.08.09-.18.23-.27.4-.28.52-.61,1.54-.61,3.53,0,1.08.13,2.03.39,2.85.47-1.87.71-3.5.71-4.85,0-1.1-.13-1.67-.22-1.93Z"/>
      <path class="cls-3" d="M95.79,59.09c-2.29,0-4.09-.72-5.35-2.15-1.19-1.35-1.8-3.24-1.8-5.6,0-.72.11-1.76.33-3.13-.73,1.69-1.33,3.49-1.79,5.36-.84,3.56-3.21,5.52-6.64,5.52-2.44,0-3.43-1.42-3.8-2.27-.44-.99-.64-2.48-.64-4.68,0-1.13.02-2,.05-2.66l.05-3.92c0-5.21.54-10.73,1.61-16.4,1.08-5.74,2.72-10.66,4.86-14.61,2.42-4.46,5.49-6.72,9.13-6.72,2.17,0,4.02.97,5.35,2.8,1.2,1.66,1.8,3.78,1.8,6.3,0,3.69-1.07,7.53-3.19,11.43-.59,1.09-1.29,2.23-2.1,3.42.65-.17,1.28-.25,1.89-.25,3.29,0,5.25,1.96,5.25,5.25,0,1.45-.37,3.9-1.14,7.47-.65,2.96-.84,4.35-.89,5,.13-.1.29-.23.48-.39.84-.75,2.01-2.02,3.47-3.76,1.01-1.17,2.12-1.42,2.88-1.42,1.12,0,2.11.56,2.72,1.54.45.72.68,1.63.68,2.71,0,1.82-.48,3.3-1.44,4.41-1.63,1.88-3.35,3.46-5.09,4.68-1.95,1.37-4.2,2.06-6.67,2.06ZM89.96,19.78c-.4,1.15-.79,2.5-1.17,4.05.59-1.44.98-2.79,1.17-4.05Z"/>
      <path class="cls-3" d="M111.39,59.09c-2.38,0-4.46-.62-6.18-1.85-1.68-1.19-2.95-2.77-3.8-4.7-.81-1.84-1.22-3.85-1.22-5.95,0-2.82.55-5.4,1.62-7.64,1.1-2.29,2.63-4.12,4.55-5.44,1.96-1.34,4.19-2.02,6.63-2.02s4.46.62,6.2,1.84c1.7,1.19,2.99,2.78,3.83,4.71.81,1.85,1.22,3.85,1.22,5.95,0,2.83-.56,5.4-1.65,7.65-1.12,2.29-2.67,4.12-4.6,5.43-1.98,1.34-4.2,2.02-6.6,2.02ZM112.59,40.89c-.23,0-.71,0-1.29.91-.39.61-.86,1.85-.86,4.34,0,1.91.38,2.7.61,3.01.37.5.66.54.89.54.16,0,.6,0,1.19-.92.39-.62.86-1.88.86-4.33,0-1.74-.34-2.59-.63-2.99-.4-.56-.66-.56-.77-.56Z"/>
      <path class="cls-3" d="M170.09,59.09c-2.59,0-6.15-1.01-8.41-5.82-.75-1.58-1.34-3.42-1.78-5.49-1.3,2.59-2.69,4.71-4.19,6.4-2.9,3.27-6.1,4.92-9.52,4.92-2.8,0-6.66-1.25-9.1-7.22-1.73-4.2-2.6-9.87-2.6-16.83,0-4.97.45-10.51,1.32-16.44.29-2.09.88-3.59,1.8-4.56,1-1.06,2.47-1.6,4.37-1.6,1.45,0,2.65.36,3.56,1.08,1.06.83,1.59,2.17,1.59,3.97,0,.21-.01.57-.11,1.55-.99,6.8-1.49,12.57-1.49,17.25,0,4.24.36,7.52,1.06,9.75.6,1.92,1.17,2.24,1.2,2.25,0-.01.86-.27,2.56-2.79,1.54-2.29,3.12-5.8,4.69-10.43,1.59-4.69,2.96-10.38,4.07-16.92.36-2.05,1.07-3.49,2.19-4.39,1.08-.88,2.49-1.32,4.19-1.32,1.55,0,2.77.41,3.64,1.21.62.58,1.36,1.66,1.36,3.49,0,.69-.05,1.24-.15,1.68-.89,5.2-1.35,10.57-1.35,15.87,0,3.61.12,6.51.36,8.62.27,2.36.78,3.58,1.16,4.19.35.56.75.78,1.43.78.44,0,1.68-.28,3.8-2.89,1.57-1.93,3.06-4.31,4.43-7.1-1.63-1.29-2.92-2.86-3.85-4.68-1.17-2.29-1.77-4.94-1.77-7.89s.47-5.43,1.4-7.49c.98-2.17,2.36-3.83,4.1-4.94,1.74-1.1,3.69-1.66,5.8-1.66,2.71,0,5,1.05,6.62,3.04,1.54,1.89,2.33,4.44,2.33,7.56,0,3.32-.6,6.97-1.79,10.87,1.03.09,2.14.13,3.34.13,1.29,0,2.32.35,3.05,1.05.75.72,1.15,1.67,1.15,2.75,0,1.32-.4,2.5-1.19,3.52-.62.8-1.8,1.76-3.95,1.82h-.63c-1.92,0-3.73-.12-5.4-.37-2.29,4.55-5.03,8.44-8.15,11.56-3.66,3.66-7.41,5.51-11.14,5.51ZM184.47,21.46c-.08.09-.18.24-.27.4-.28.52-.61,1.54-.61,3.53,0,1.08.13,2.03.39,2.85.47-1.87.71-3.5.71-4.85,0-1.11-.13-1.67-.22-1.93Z"/>
      <path class="cls-3" d="M203.04,59.09c-3.77,0-6.77-1.18-8.92-3.52-2.11-2.29-3.18-5.36-3.18-9.13,0-2.6.56-5.05,1.65-7.3,1.12-2.29,2.7-4.14,4.7-5.5,2.04-1.39,4.38-2.1,6.95-2.1s4.5.77,6.05,2.3c1.56,1.54,2.35,3.59,2.35,6.1,0,1.94-.48,3.7-1.43,5.27.13-.01.26-.02.38-.02,1.12,0,2.11.56,2.72,1.54.45.72.68,1.63.68,2.71,0,1.59-.4,3-1.18,4.19-1.12,1.71-2.6,3.07-4.42,4.02-1.8.95-3.94,1.43-6.36,1.43ZM203.33,40.44c-.22,0-.72.1-1.35,1.17-.23.39-.42.82-.58,1.28.36-.2.68-.41.96-.64.87-.72.97-1.32.97-1.71,0-.04,0-.07,0-.1Z"/>
      <path class="cls-3" d="M259.34,59.09c-2.85,0-5.21-.86-7.02-2.57-.75-.7-1.38-1.53-1.89-2.46-2.66,3.34-6.12,5.03-10.34,5.03-2.66,0-5.11-.67-7.27-2-2.17-1.33-3.89-3.26-5.12-5.74-1.2-2.42-1.81-5.28-1.81-8.51,0-5.36,1.17-10.4,3.46-14.97,2.32-4.63,5.8-8.4,10.33-11.2,4.53-2.8,10.02-4.22,16.3-4.22,1.61,0,3.36.12,5.19.37,1.86.25,3.59.63,5.13,1.13,1.72.49,2.78,1.96,2.78,3.9,0,1.35-.49,2.61-1.45,3.74-1.3,1.53-2.79,1.86-3.8,1.86-.2,0-.39,0-.56-.02.39.77.46,1.52.46,1.92,0,.44-.07.92-.21,1.49-.85,3.19-1.64,6.74-2.35,10.6-.69,3.78-1.04,6.66-1.04,8.56s.33,2.61.47,2.83c.09.14.21.32.78.32.63,0,1.24-.22,1.86-.68.84-.62,1.95-1.75,3.31-3.36,1-1.17,2.12-1.41,2.88-1.41,1.12,0,2.11.56,2.72,1.54.45.72.68,1.63.68,2.71,0,1.77-.47,3.24-1.41,4.37-1.75,2.11-3.52,3.76-5.24,4.9-1.89,1.25-4.2,1.88-6.85,1.88ZM254.16,22.25c-3.49.11-6.49,1.02-8.94,2.71-2.64,1.83-4.64,4.27-5.95,7.28-1.35,3.1-2.03,6.49-2.03,10.1,0,2.39.44,4.21,1.3,5.41.74,1.03,1.59,1.49,2.75,1.49,1.46,0,2.73-.61,3.88-1.85,1.34-1.45,2.61-3.94,3.78-7.39,1.23-3.63,2.47-8.65,3.68-14.94.3-1.41.92-2.28,1.54-2.81Z"/>
      <path class="cls-3" d="M270.34,59.09c-2.11,0-3.72-1.16-4.54-3.28-.61-1.58-.91-3.91-.91-7.12,0-4.52.65-8.88,1.94-12.95.44-1.41,1.21-2.48,2.28-3.19,1.03-.68,2.33-1,3.97-1,1.07,0,1.85.18,2.46.55.51.32,1.34,1.08,1.34,2.65,0,.1,0,.21-.01.35.89-.89,1.77-1.6,2.68-2.12,1.62-.94,3.18-1.42,4.63-1.42,3.29,0,5.25,1.96,5.25,5.25,0,.41-.06,1.15-.48,3.5-.13.66-.22,1.12-.27,1.45.34-.24.78-.6,1.34-1.16,1.02-1.02,2.07-1.24,2.76-1.24,1.1,0,2.08.54,2.7,1.48.46.71.7,1.59.7,2.62,0,1.76-.52,3.2-1.55,4.28-1.08,1.12-2.34,2.07-3.76,2.85-1.54.84-3.2,1.27-4.93,1.27-2.3,0-4.12-.65-5.42-1.92-1.04-1.02-1.67-2.3-1.89-3.82-.32.6-.64,1.27-.95,2-.75,1.72-1.37,3.56-1.84,5.48-.45,1.91-.99,3.2-1.71,4.02-.88,1-2.15,1.51-3.78,1.51ZM288.61,42.74h0Z"/>
      <path class="cls-3" d="M298.89,59.09c-3.77,0-6.77-1.18-8.92-3.52-2.11-2.29-3.18-5.36-3.18-9.13,0-2.6.56-5.05,1.65-7.3,1.12-2.29,2.7-4.14,4.7-5.5,2.04-1.39,4.38-2.1,6.95-2.1s4.5.77,6.05,2.3c1.56,1.54,2.35,3.59,2.35,6.1,0,1.94-.48,3.7-1.43,5.27.13-.01.26-.02.38-.02,1.12,0,2.11.56,2.72,1.54.45.72.68,1.63.68,2.71,0,1.59-.4,3-1.18,4.19-1.11,1.71-2.6,3.07-4.42,4.02-1.8.95-3.94,1.43-6.36,1.43ZM299.18,40.44c-.22,0-.72.1-1.35,1.17-.23.39-.42.82-.58,1.28.36-.2.68-.41.96-.64.87-.72.97-1.32.97-1.71,0-.04,0-.07,0-.1Z"/>
    </g>
    <g>
      <path class="cls-3" d="M53.24,58.09c-2.59,0-6.15-1.01-8.41-5.82-.75-1.59-1.34-3.43-1.79-5.51-1.3,2.6-2.7,4.74-4.18,6.41-2.9,3.27-6.1,4.92-9.52,4.92-2.8,0-6.66-1.25-9.1-7.22-1.72-4.2-2.6-9.87-2.6-16.83,0-4.98.44-10.51,1.32-16.44.29-2.09.88-3.59,1.8-4.56,1-1.06,2.48-1.6,4.38-1.6,1.45,0,2.65.36,3.56,1.08,1.05.83,1.59,2.17,1.59,3.97,0,.2-.01.57-.11,1.55-.99,6.8-1.49,12.57-1.49,17.25,0,4.24.36,7.52,1.06,9.75.6,1.92,1.17,2.24,1.2,2.25,0-.01.86-.27,2.56-2.79,1.54-2.29,3.12-5.8,4.69-10.43,1.59-4.7,2.96-10.39,4.07-16.92.36-2.05,1.07-3.48,2.18-4.39,1.08-.88,2.49-1.32,4.19-1.32,1.55,0,2.77.41,3.64,1.21.62.58,1.36,1.66,1.36,3.49,0,.69-.05,1.24-.15,1.68-.89,5.2-1.35,10.57-1.35,15.87,0,3.61.12,6.51.36,8.62.27,2.36.78,3.58,1.16,4.19.35.56.75.78,1.43.78.44,0,1.68-.28,3.8-2.89,1.57-1.93,3.06-4.32,4.43-7.1-1.63-1.29-2.92-2.86-3.85-4.68-1.17-2.29-1.77-4.94-1.77-7.89s.47-5.43,1.4-7.5c.98-2.17,2.36-3.83,4.1-4.94,1.74-1.1,3.69-1.66,5.8-1.66,2.71,0,5,1.05,6.62,3.04,1.54,1.89,2.33,4.44,2.33,7.56,0,3.32-.6,6.97-1.79,10.87,1.03.08,2.14.13,3.34.13,1.29,0,2.32.35,3.05,1.05.75.72,1.15,1.67,1.15,2.75,0,1.32-.4,2.5-1.19,3.52-.62.8-1.8,1.76-3.95,1.82h-.63c-1.92,0-3.73-.12-5.4-.37-2.29,4.55-5.03,8.44-8.15,11.56-3.66,3.66-7.4,5.51-11.14,5.51ZM67.62,20.46c-.08.09-.18.23-.27.4-.28.52-.61,1.54-.61,3.53,0,1.08.13,2.03.39,2.85.47-1.87.71-3.5.71-4.85,0-1.1-.13-1.67-.22-1.93Z"/>
      <path class="cls-3" d="M94.79,58.09c-2.29,0-4.09-.72-5.35-2.15-1.19-1.35-1.8-3.24-1.8-5.6,0-.72.11-1.76.33-3.13-.73,1.69-1.33,3.49-1.79,5.36-.84,3.56-3.21,5.52-6.64,5.52-2.44,0-3.43-1.42-3.8-2.27-.44-.99-.64-2.48-.64-4.68,0-1.13.02-2,.05-2.66l.05-3.92c0-5.21.54-10.73,1.61-16.4,1.08-5.74,2.72-10.66,4.86-14.61,2.42-4.46,5.49-6.72,9.13-6.72,2.17,0,4.02.97,5.35,2.8,1.2,1.66,1.8,3.78,1.8,6.3,0,3.69-1.07,7.53-3.19,11.43-.59,1.09-1.29,2.23-2.1,3.42.65-.17,1.28-.25,1.89-.25,3.29,0,5.25,1.96,5.25,5.25,0,1.45-.37,3.9-1.14,7.47-.65,2.96-.84,4.35-.89,5,.13-.1.29-.23.48-.39.84-.75,2.01-2.02,3.47-3.76,1.01-1.17,2.12-1.42,2.88-1.42,1.12,0,2.11.56,2.72,1.54.45.72.68,1.63.68,2.71,0,1.82-.48,3.3-1.44,4.41-1.63,1.88-3.35,3.46-5.09,4.68-1.95,1.37-4.2,2.06-6.67,2.06ZM88.96,18.78c-.4,1.15-.79,2.5-1.17,4.05.59-1.44.98-2.79,1.17-4.05Z"/>
      <path class="cls-3" d="M110.39,58.09c-2.38,0-4.46-.62-6.18-1.85-1.68-1.19-2.95-2.77-3.8-4.7-.81-1.84-1.22-3.85-1.22-5.95,0-2.82.55-5.4,1.62-7.64,1.1-2.29,2.63-4.12,4.55-5.44,1.96-1.34,4.19-2.02,6.63-2.02s4.46.62,6.2,1.84c1.7,1.19,2.99,2.78,3.83,4.71.81,1.85,1.22,3.85,1.22,5.95,0,2.83-.56,5.4-1.65,7.65-1.12,2.29-2.67,4.12-4.6,5.43-1.98,1.34-4.2,2.02-6.6,2.02ZM111.59,39.89c-.23,0-.71,0-1.29.91-.39.61-.86,1.85-.86,4.34,0,1.91.38,2.7.61,3.01.37.5.66.54.89.54.16,0,.6,0,1.19-.92.39-.62.86-1.88.86-4.33,0-1.74-.34-2.59-.63-2.99-.4-.56-.66-.56-.77-.56Z"/>
      <path class="cls-3" d="M169.09,58.09c-2.59,0-6.15-1.01-8.41-5.82-.75-1.58-1.34-3.42-1.78-5.49-1.3,2.59-2.69,4.71-4.19,6.4-2.9,3.27-6.1,4.92-9.52,4.92-2.8,0-6.66-1.25-9.1-7.22-1.73-4.2-2.6-9.87-2.6-16.83,0-4.97.45-10.51,1.32-16.44.29-2.09.88-3.59,1.8-4.56,1-1.06,2.47-1.6,4.37-1.6,1.45,0,2.65.36,3.56,1.08,1.06.83,1.59,2.17,1.59,3.97,0,.21-.01.57-.11,1.55-.99,6.8-1.49,12.57-1.49,17.25,0,4.24.36,7.52,1.06,9.75.6,1.92,1.17,2.24,1.2,2.25,0-.01.86-.27,2.56-2.79,1.54-2.29,3.12-5.8,4.69-10.43,1.59-4.69,2.96-10.38,4.07-16.92.36-2.05,1.07-3.49,2.19-4.39,1.08-.88,2.49-1.32,4.19-1.32,1.55,0,2.77.41,3.64,1.21.62.58,1.36,1.66,1.36,3.49,0,.69-.05,1.24-.15,1.68-.89,5.2-1.35,10.57-1.35,15.87,0,3.61.12,6.51.36,8.62.27,2.36.78,3.58,1.16,4.19.35.56.75.78,1.43.78.44,0,1.68-.28,3.8-2.89,1.57-1.93,3.06-4.31,4.43-7.1-1.63-1.29-2.92-2.86-3.85-4.68-1.17-2.29-1.77-4.94-1.77-7.89s.47-5.43,1.4-7.49c.98-2.17,2.36-3.83,4.1-4.94,1.74-1.1,3.69-1.66,5.8-1.66,2.71,0,5,1.05,6.62,3.04,1.54,1.89,2.33,4.44,2.33,7.56,0,3.32-.6,6.97-1.79,10.87,1.03.09,2.14.13,3.34.13,1.29,0,2.32.35,3.05,1.05.75.72,1.15,1.67,1.15,2.75,0,1.32-.4,2.5-1.19,3.52-.62.8-1.8,1.76-3.95,1.82h-.63c-1.92,0-3.73-.12-5.4-.37-2.29,4.55-5.03,8.44-8.15,11.56-3.66,3.66-7.41,5.51-11.14,5.51ZM183.47,20.46c-.08.09-.18.24-.27.4-.28.52-.61,1.54-.61,3.53,0,1.08.13,2.03.39,2.85.47-1.87.71-3.5.71-4.85,0-1.11-.13-1.67-.22-1.93Z"/>
      <path class="cls-3" d="M202.04,58.09c-3.77,0-6.77-1.18-8.92-3.52-2.11-2.29-3.18-5.36-3.18-9.13,0-2.6.56-5.05,1.65-7.3,1.12-2.29,2.7-4.14,4.7-5.5,2.04-1.39,4.38-2.1,6.95-2.1s4.5.77,6.05,2.3c1.56,1.54,2.35,3.59,2.35,6.1,0,1.94-.48,3.7-1.43,5.27.13-.01.26-.02.38-.02,1.12,0,2.11.56,2.72,1.54.45.72.68,1.63.68,2.71,0,1.59-.4,3-1.18,4.19-1.12,1.71-2.6,3.07-4.42,4.02-1.8.95-3.94,1.43-6.36,1.43ZM202.33,39.44c-.22,0-.72.1-1.35,1.17-.23.39-.42.82-.58,1.28.36-.2.68-.41.96-.64.87-.72.97-1.32.97-1.71,0-.04,0-.07,0-.1Z"/>
      <path class="cls-3" d="M258.34,58.09c-2.85,0-5.21-.86-7.02-2.57-.75-.7-1.38-1.53-1.89-2.46-2.66,3.34-6.12,5.03-10.34,5.03-2.66,0-5.11-.67-7.27-2-2.17-1.33-3.89-3.26-5.12-5.74-1.2-2.42-1.81-5.28-1.81-8.51,0-5.36,1.17-10.4,3.46-14.97,2.32-4.63,5.8-8.4,10.33-11.2,4.53-2.8,10.02-4.22,16.3-4.22,1.61,0,3.36.12,5.19.37,1.86.25,3.59.63,5.13,1.13,1.72.49,2.78,1.96,2.78,3.9,0,1.35-.49,2.61-1.45,3.74-1.3,1.53-2.79,1.86-3.8,1.86-.2,0-.39,0-.56-.02.39.77.46,1.52.46,1.92,0,.44-.07.92-.21,1.49-.85,3.19-1.64,6.74-2.35,10.6-.69,3.78-1.04,6.66-1.04,8.56s.33,2.61.47,2.83c.09.14.21.32.78.32.63,0,1.24-.22,1.86-.68.84-.62,1.95-1.75,3.31-3.36,1-1.17,2.12-1.41,2.88-1.41,1.12,0,2.11.56,2.72,1.54.45.72.68,1.63.68,2.71,0,1.77-.47,3.24-1.41,4.37-1.75,2.11-3.52,3.76-5.24,4.9-1.89,1.25-4.2,1.88-6.85,1.88ZM253.16,21.25c-3.49.11-6.49,1.02-8.94,2.71-2.64,1.83-4.64,4.27-5.95,7.28-1.35,3.1-2.03,6.49-2.03,10.1,0,2.39.44,4.21,1.3,5.41.74,1.03,1.59,1.49,2.75,1.49,1.46,0,2.73-.61,3.88-1.85,1.34-1.45,2.61-3.94,3.78-7.39,1.23-3.63,2.47-8.65,3.68-14.94.3-1.41.92-2.28,1.54-2.81Z"/>
      <path class="cls-3" d="M269.34,58.09c-2.11,0-3.72-1.16-4.54-3.28-.61-1.58-.91-3.91-.91-7.12,0-4.52.65-8.88,1.94-12.95.44-1.41,1.21-2.48,2.28-3.19,1.03-.68,2.33-1,3.97-1,1.07,0,1.85.18,2.46.55.51.32,1.34,1.08,1.34,2.65,0,.1,0,.21-.01.35.89-.89,1.77-1.6,2.68-2.12,1.62-.94,3.18-1.42,4.63-1.42,3.29,0,5.25,1.96,5.25,5.25,0,.41-.06,1.15-.48,3.5-.13.66-.22,1.12-.27,1.45.34-.24.78-.6,1.34-1.16,1.02-1.02,2.07-1.24,2.76-1.24,1.1,0,2.08.54,2.7,1.48.46.71.7,1.59.7,2.62,0,1.76-.52,3.2-1.55,4.28-1.08,1.12-2.34,2.07-3.76,2.85-1.54.84-3.2,1.27-4.93,1.27-2.3,0-4.12-.65-5.42-1.92-1.04-1.02-1.67-2.3-1.89-3.82-.32.6-.64,1.27-.95,2-.75,1.72-1.37,3.56-1.84,5.48-.45,1.91-.99,3.2-1.71,4.02-.88,1-2.15,1.51-3.78,1.51ZM287.61,41.74h0Z"/>
      <path class="cls-3" d="M297.89,58.09c-3.77,0-6.77-1.18-8.92-3.52-2.11-2.29-3.18-5.36-3.18-9.13,0-2.6.56-5.05,1.65-7.3,1.12-2.29,2.7-4.14,4.7-5.5,2.04-1.39,4.38-2.1,6.95-2.1s4.5.77,6.05,2.3c1.56,1.54,2.35,3.59,2.35,6.1,0,1.94-.48,3.7-1.43,5.27.13-.01.26-.02.38-.02,1.12,0,2.11.56,2.72,1.54.45.72.68,1.63.68,2.71,0,1.59-.4,3-1.18,4.19-1.11,1.71-2.6,3.07-4.42,4.02-1.8.95-3.94,1.43-6.36,1.43ZM298.18,39.44c-.22,0-.72.1-1.35,1.17-.23.39-.42.82-.58,1.28.36-.2.68-.41.96-.64.87-.72.97-1.32.97-1.71,0-.04,0-.07,0-.1Z"/>
    </g>
    <g>
      <path class="cls-3" d="M52.24,57.09c-2.59,0-6.15-1.01-8.41-5.82-.75-1.59-1.34-3.43-1.79-5.51-1.3,2.6-2.7,4.74-4.18,6.41-2.9,3.27-6.1,4.92-9.52,4.92-2.8,0-6.66-1.25-9.1-7.22-1.72-4.2-2.6-9.87-2.6-16.83,0-4.98.44-10.51,1.32-16.44.29-2.09.88-3.59,1.8-4.56,1-1.06,2.48-1.6,4.38-1.6,1.45,0,2.65.36,3.56,1.08,1.05.83,1.59,2.17,1.59,3.97,0,.2-.01.57-.11,1.55-.99,6.8-1.49,12.57-1.49,17.25,0,4.24.36,7.52,1.06,9.75.6,1.92,1.17,2.24,1.2,2.25,0-.01.86-.27,2.56-2.79,1.54-2.29,3.12-5.8,4.69-10.43,1.59-4.7,2.96-10.39,4.07-16.92.36-2.05,1.07-3.48,2.18-4.39,1.08-.88,2.49-1.32,4.19-1.32,1.55,0,2.77.41,3.64,1.21.62.58,1.36,1.66,1.36,3.49,0,.69-.05,1.24-.15,1.68-.89,5.2-1.35,10.57-1.35,15.87,0,3.61.12,6.51.36,8.62.27,2.36.78,3.58,1.16,4.19.35.56.75.78,1.43.78.44,0,1.68-.28,3.8-2.89,1.57-1.93,3.06-4.32,4.43-7.1-1.63-1.29-2.92-2.86-3.85-4.68-1.17-2.29-1.77-4.94-1.77-7.89s.47-5.43,1.4-7.5c.98-2.17,2.36-3.83,4.1-4.94,1.74-1.1,3.69-1.66,5.8-1.66,2.71,0,5,1.05,6.62,3.04,1.54,1.89,2.33,4.44,2.33,7.56,0,3.32-.6,6.97-1.79,10.87,1.03.08,2.14.13,3.34.13,1.29,0,2.32.35,3.05,1.05.75.72,1.15,1.67,1.15,2.75,0,1.32-.4,2.5-1.19,3.52-.62.8-1.8,1.76-3.95,1.82h-.63c-1.92,0-3.73-.12-5.4-.37-2.29,4.55-5.03,8.44-8.15,11.56-3.66,3.66-7.4,5.51-11.14,5.51ZM66.62,19.46c-.08.09-.18.23-.27.4-.28.52-.61,1.54-.61,3.53,0,1.08.13,2.03.39,2.85.47-1.87.71-3.5.71-4.85,0-1.1-.13-1.67-.22-1.93Z"/>
      <path class="cls-3" d="M93.79,57.09c-2.29,0-4.09-.72-5.35-2.15-1.19-1.35-1.8-3.24-1.8-5.6,0-.72.11-1.76.33-3.13-.73,1.69-1.33,3.49-1.79,5.36-.84,3.56-3.21,5.52-6.64,5.52-2.44,0-3.43-1.42-3.8-2.27-.44-.99-.64-2.48-.64-4.68,0-1.13.02-2,.05-2.66l.05-3.92c0-5.21.54-10.73,1.61-16.4,1.08-5.74,2.72-10.66,4.86-14.61,2.42-4.46,5.49-6.72,9.13-6.72,2.17,0,4.02.97,5.35,2.8,1.2,1.66,1.8,3.78,1.8,6.3,0,3.69-1.07,7.53-3.19,11.43-.59,1.09-1.29,2.23-2.1,3.42.65-.17,1.28-.25,1.89-.25,3.29,0,5.25,1.96,5.25,5.25,0,1.45-.37,3.9-1.14,7.47-.65,2.96-.84,4.35-.89,5,.13-.1.29-.23.48-.39.84-.75,2.01-2.02,3.47-3.76,1.01-1.17,2.12-1.42,2.88-1.42,1.12,0,2.11.56,2.72,1.54.45.72.68,1.63.68,2.71,0,1.82-.48,3.3-1.44,4.41-1.63,1.88-3.35,3.46-5.09,4.68-1.95,1.37-4.2,2.06-6.67,2.06ZM87.96,17.78c-.4,1.15-.79,2.5-1.17,4.05.59-1.44.98-2.79,1.17-4.05Z"/>
      <path class="cls-3" d="M109.39,57.09c-2.38,0-4.46-.62-6.18-1.85-1.68-1.19-2.95-2.77-3.8-4.7-.81-1.84-1.22-3.85-1.22-5.95,0-2.82.55-5.4,1.62-7.64,1.1-2.29,2.63-4.12,4.55-5.44,1.96-1.34,4.19-2.02,6.63-2.02s4.46.62,6.2,1.84c1.7,1.19,2.99,2.78,3.83,4.71.81,1.85,1.22,3.85,1.22,5.95,0,2.83-.56,5.4-1.65,7.65-1.12,2.29-2.67,4.12-4.6,5.43-1.98,1.34-4.2,2.02-6.6,2.02ZM110.59,38.89c-.23,0-.71,0-1.29.91-.39.61-.86,1.85-.86,4.34,0,1.91.38,2.7.61,3.01.37.5.66.54.89.54.16,0,.6,0,1.19-.92.39-.62.86-1.88.86-4.33,0-1.74-.34-2.59-.63-2.99-.4-.56-.66-.56-.77-.56Z"/>
      <path class="cls-3" d="M168.09,57.09c-2.59,0-6.15-1.01-8.41-5.82-.75-1.58-1.34-3.42-1.78-5.49-1.3,2.59-2.69,4.71-4.19,6.4-2.9,3.27-6.1,4.92-9.52,4.92-2.8,0-6.66-1.25-9.1-7.22-1.73-4.2-2.6-9.87-2.6-16.83,0-4.97.45-10.51,1.32-16.44.29-2.09.88-3.59,1.8-4.56,1-1.06,2.47-1.6,4.37-1.6,1.45,0,2.65.36,3.56,1.08,1.06.83,1.59,2.17,1.59,3.97,0,.21-.01.57-.11,1.55-.99,6.8-1.49,12.57-1.49,17.25,0,4.24.36,7.52,1.06,9.75.6,1.92,1.17,2.24,1.2,2.25,0-.01.86-.27,2.56-2.79,1.54-2.29,3.12-5.8,4.69-10.43,1.59-4.69,2.96-10.38,4.07-16.92.36-2.05,1.07-3.49,2.19-4.39,1.08-.88,2.49-1.32,4.19-1.32,1.55,0,2.77.41,3.64,1.21.62.58,1.36,1.66,1.36,3.49,0,.69-.05,1.24-.15,1.68-.89,5.2-1.35,10.57-1.35,15.87,0,3.61.12,6.51.36,8.62.27,2.36.78,3.58,1.16,4.19.35.56.75.78,1.43.78.44,0,1.68-.28,3.8-2.89,1.57-1.93,3.06-4.31,4.43-7.1-1.63-1.29-2.92-2.86-3.85-4.68-1.17-2.29-1.77-4.94-1.77-7.89s.47-5.43,1.4-7.49c.98-2.17,2.36-3.83,4.1-4.94,1.74-1.1,3.69-1.66,5.8-1.66,2.71,0,5,1.05,6.62,3.04,1.54,1.89,2.33,4.44,2.33,7.56,0,3.32-.6,6.97-1.79,10.87,1.03.09,2.14.13,3.34.13,1.29,0,2.32.35,3.05,1.05.75.72,1.15,1.67,1.15,2.75,0,1.32-.4,2.5-1.19,3.52-.62.8-1.8,1.76-3.95,1.82h-.63c-1.92,0-3.73-.12-5.4-.37-2.29,4.55-5.03,8.44-8.15,11.56-3.66,3.66-7.41,5.51-11.14,5.51ZM182.47,19.46c-.08.09-.18.24-.27.4-.28.52-.61,1.54-.61,3.53,0,1.08.13,2.03.39,2.85.47-1.87.71-3.5.71-4.85,0-1.11-.13-1.67-.22-1.93Z"/>
      <path class="cls-3" d="M201.04,57.09c-3.77,0-6.77-1.18-8.92-3.52-2.11-2.29-3.18-5.36-3.18-9.13,0-2.6.56-5.05,1.65-7.3,1.12-2.29,2.7-4.14,4.7-5.5,2.04-1.39,4.38-2.1,6.95-2.1s4.5.77,6.05,2.3c1.56,1.54,2.35,3.59,2.35,6.1,0,1.94-.48,3.7-1.43,5.27.13-.01.26-.02.38-.02,1.12,0,2.11.56,2.72,1.54.45.72.68,1.63.68,2.71,0,1.59-.4,3-1.18,4.19-1.12,1.71-2.6,3.07-4.42,4.02-1.8.95-3.94,1.43-6.36,1.43ZM201.33,38.44c-.22,0-.72.1-1.35,1.17-.23.39-.42.82-.58,1.28.36-.2.68-.41.96-.64.87-.72.97-1.32.97-1.71,0-.04,0-.07,0-.1Z"/>
      <path class="cls-3" d="M257.34,57.09c-2.85,0-5.21-.86-7.02-2.57-.75-.7-1.38-1.53-1.89-2.46-2.66,3.34-6.12,5.03-10.34,5.03-2.66,0-5.11-.67-7.27-2-2.17-1.33-3.89-3.26-5.12-5.74-1.2-2.42-1.81-5.28-1.81-8.51,0-5.36,1.17-10.4,3.46-14.97,2.32-4.63,5.8-8.4,10.33-11.2,4.53-2.8,10.02-4.22,16.3-4.22,1.61,0,3.36.12,5.19.37,1.86.25,3.59.63,5.13,1.13,1.72.49,2.78,1.96,2.78,3.9,0,1.35-.49,2.61-1.45,3.74-1.3,1.53-2.79,1.86-3.8,1.86-.2,0-.39,0-.56-.02.39.77.46,1.52.46,1.92,0,.44-.07.92-.21,1.49-.85,3.19-1.64,6.74-2.35,10.6-.69,3.78-1.04,6.66-1.04,8.56s.33,2.61.47,2.83c.09.14.21.32.78.32.63,0,1.24-.22,1.86-.68.84-.62,1.95-1.75,3.31-3.36,1-1.17,2.12-1.41,2.88-1.41,1.12,0,2.11.56,2.72,1.54.45.72.68,1.63.68,2.71,0,1.77-.47,3.24-1.41,4.37-1.75,2.11-3.52,3.76-5.24,4.9-1.89,1.25-4.2,1.88-6.85,1.88ZM252.16,20.25c-3.49.11-6.49,1.02-8.94,2.71-2.64,1.83-4.64,4.27-5.95,7.28-1.35,3.1-2.03,6.49-2.03,10.1,0,2.39.44,4.21,1.3,5.41.74,1.03,1.59,1.49,2.75,1.49,1.46,0,2.73-.61,3.88-1.85,1.34-1.45,2.61-3.94,3.78-7.39,1.23-3.63,2.47-8.65,3.68-14.94.3-1.41.92-2.28,1.54-2.81Z"/>
      <path class="cls-3" d="M268.34,57.09c-2.11,0-3.72-1.16-4.54-3.28-.61-1.58-.91-3.91-.91-7.12,0-4.52.65-8.88,1.94-12.95.44-1.41,1.21-2.48,2.28-3.19,1.03-.68,2.33-1,3.97-1,1.07,0,1.85.18,2.46.55.51.32,1.34,1.08,1.34,2.65,0,.1,0,.21-.01.35.89-.89,1.77-1.6,2.68-2.12,1.62-.94,3.18-1.42,4.63-1.42,3.29,0,5.25,1.96,5.25,5.25,0,.41-.06,1.15-.48,3.5-.13.66-.22,1.12-.27,1.45.34-.24.78-.6,1.34-1.16,1.02-1.02,2.07-1.24,2.76-1.24,1.1,0,2.08.54,2.7,1.48.46.71.7,1.59.7,2.62,0,1.76-.52,3.2-1.55,4.28-1.08,1.12-2.34,2.07-3.76,2.85-1.54.84-3.2,1.27-4.93,1.27-2.3,0-4.12-.65-5.42-1.92-1.04-1.02-1.67-2.3-1.89-3.82-.32.6-.64,1.27-.95,2-.75,1.72-1.37,3.56-1.84,5.48-.45,1.91-.99,3.2-1.71,4.02-.88,1-2.15,1.51-3.78,1.51ZM286.61,40.74h0Z"/>
      <path class="cls-3" d="M296.89,57.09c-3.77,0-6.77-1.18-8.92-3.52-2.11-2.29-3.18-5.36-3.18-9.13,0-2.6.56-5.05,1.65-7.3,1.12-2.29,2.7-4.14,4.7-5.5,2.04-1.39,4.38-2.1,6.95-2.1s4.5.77,6.05,2.3c1.56,1.54,2.35,3.59,2.35,6.1,0,1.94-.48,3.7-1.43,5.27.13-.01.26-.02.38-.02,1.12,0,2.11.56,2.72,1.54.45.72.68,1.63.68,2.71,0,1.59-.4,3-1.18,4.19-1.11,1.71-2.6,3.07-4.42,4.02-1.8.95-3.94,1.43-6.36,1.43ZM297.18,38.44c-.22,0-.72.1-1.35,1.17-.23.39-.42.82-.58,1.28.36-.2.68-.41.96-.64.87-.72.97-1.32.97-1.71,0-.04,0-.07,0-.1Z"/>
    </g>
    <g>
      <path class="cls-3" d="M51.24,56.09c-2.59,0-6.15-1.01-8.41-5.82-.75-1.59-1.34-3.43-1.79-5.51-1.3,2.6-2.7,4.74-4.18,6.41-2.9,3.27-6.1,4.92-9.52,4.92-2.8,0-6.66-1.25-9.1-7.22-1.72-4.2-2.6-9.87-2.6-16.83,0-4.98.44-10.51,1.32-16.44.29-2.09.88-3.59,1.8-4.56,1-1.06,2.48-1.6,4.38-1.6,1.45,0,2.65.36,3.56,1.08,1.05.83,1.59,2.17,1.59,3.97,0,.2-.01.57-.11,1.55-.99,6.8-1.49,12.57-1.49,17.25,0,4.24.36,7.52,1.06,9.75.6,1.92,1.17,2.24,1.2,2.25,0-.01.86-.27,2.56-2.79,1.54-2.29,3.12-5.8,4.69-10.43,1.59-4.7,2.96-10.39,4.07-16.92.36-2.05,1.07-3.48,2.18-4.39,1.08-.88,2.49-1.32,4.19-1.32,1.55,0,2.77.41,3.64,1.21.62.58,1.36,1.66,1.36,3.49,0,.69-.05,1.24-.15,1.68-.89,5.2-1.35,10.57-1.35,15.87,0,3.61.12,6.51.36,8.62.27,2.36.78,3.58,1.16,4.19.35.56.75.78,1.43.78.44,0,1.68-.28,3.8-2.89,1.57-1.93,3.06-4.32,4.43-7.1-1.63-1.29-2.92-2.86-3.85-4.68-1.17-2.29-1.77-4.94-1.77-7.89s.47-5.43,1.4-7.5c.98-2.17,2.36-3.83,4.1-4.94,1.74-1.1,3.69-1.66,5.8-1.66,2.71,0,5,1.05,6.62,3.04,1.54,1.89,2.33,4.44,2.33,7.56,0,3.32-.6,6.97-1.79,10.87,1.03.08,2.14.13,3.34.13,1.29,0,2.32.35,3.05,1.05.75.72,1.15,1.67,1.15,2.75,0,1.32-.4,2.5-1.19,3.52-.62.8-1.8,1.76-3.95,1.82h-.63c-1.92,0-3.73-.12-5.4-.37-2.29,4.55-5.03,8.44-8.15,11.56-3.66,3.66-7.4,5.51-11.14,5.51ZM65.62,18.46c-.08.09-.18.23-.27.4-.28.52-.61,1.54-.61,3.53,0,1.08.13,2.03.39,2.85.47-1.87.71-3.5.71-4.85,0-1.1-.13-1.67-.22-1.93Z"/>
      <path class="cls-3" d="M92.79,56.09c-2.29,0-4.09-.72-5.35-2.15-1.19-1.35-1.8-3.24-1.8-5.6,0-.72.11-1.76.33-3.13-.73,1.69-1.33,3.49-1.79,5.36-.84,3.56-3.21,5.52-6.64,5.52-2.44,0-3.43-1.42-3.8-2.27-.44-.99-.64-2.48-.64-4.68,0-1.13.02-2,.05-2.66l.05-3.92c0-5.21.54-10.73,1.61-16.4,1.08-5.74,2.72-10.66,4.86-14.61,2.42-4.46,5.49-6.72,9.13-6.72,2.17,0,4.02.97,5.35,2.8,1.2,1.66,1.8,3.78,1.8,6.3,0,3.69-1.07,7.53-3.19,11.43-.59,1.09-1.29,2.23-2.1,3.42.65-.17,1.28-.25,1.89-.25,3.29,0,5.25,1.96,5.25,5.25,0,1.45-.37,3.9-1.14,7.47-.65,2.96-.84,4.35-.89,5,.13-.1.29-.23.48-.39.84-.75,2.01-2.02,3.47-3.76,1.01-1.17,2.12-1.42,2.88-1.42,1.12,0,2.11.56,2.72,1.54.45.72.68,1.63.68,2.71,0,1.82-.48,3.3-1.44,4.41-1.63,1.88-3.35,3.46-5.09,4.68-1.95,1.37-4.2,2.06-6.67,2.06ZM86.96,16.78c-.4,1.15-.79,2.5-1.17,4.05.59-1.44.98-2.79,1.17-4.05Z"/>
      <path class="cls-3" d="M108.39,56.09c-2.38,0-4.46-.62-6.18-1.85-1.68-1.19-2.95-2.77-3.8-4.7-.81-1.84-1.22-3.85-1.22-5.95,0-2.82.55-5.4,1.62-7.64,1.1-2.29,2.63-4.12,4.55-5.44,1.96-1.34,4.19-2.02,6.63-2.02s4.46.62,6.2,1.84c1.7,1.19,2.99,2.78,3.83,4.71.81,1.85,1.22,3.85,1.22,5.95,0,2.83-.56,5.4-1.65,7.65-1.12,2.29-2.67,4.12-4.6,5.43-1.98,1.34-4.2,2.02-6.6,2.02ZM109.59,37.89c-.23,0-.71,0-1.29.91-.39.61-.86,1.85-.86,4.34,0,1.91.38,2.7.61,3.01.37.5.66.54.89.54.16,0,.6,0,1.19-.92.39-.62.86-1.88.86-4.33,0-1.74-.34-2.59-.63-2.99-.4-.56-.66-.56-.77-.56Z"/>
      <path class="cls-3" d="M167.09,56.09c-2.59,0-6.15-1.01-8.41-5.82-.75-1.58-1.34-3.42-1.78-5.49-1.3,2.59-2.69,4.71-4.19,6.4-2.9,3.27-6.1,4.92-9.52,4.92-2.8,0-6.66-1.25-9.1-7.22-1.73-4.2-2.6-9.87-2.6-16.83,0-4.97.45-10.51,1.32-16.44.29-2.09.88-3.59,1.8-4.56,1-1.06,2.47-1.6,4.37-1.6,1.45,0,2.65.36,3.56,1.08,1.06.83,1.59,2.17,1.59,3.97,0,.21-.01.57-.11,1.55-.99,6.8-1.49,12.57-1.49,17.25,0,4.24.36,7.52,1.06,9.75.6,1.92,1.17,2.24,1.2,2.25,0-.01.86-.27,2.56-2.79,1.54-2.29,3.12-5.8,4.69-10.43,1.59-4.69,2.96-10.38,4.07-16.92.36-2.05,1.07-3.49,2.19-4.39,1.08-.88,2.49-1.32,4.19-1.32,1.55,0,2.77.41,3.64,1.21.62.58,1.36,1.66,1.36,3.49,0,.69-.05,1.24-.15,1.68-.89,5.2-1.35,10.57-1.35,15.87,0,3.61.12,6.51.36,8.62.27,2.36.78,3.58,1.16,4.19.35.56.75.78,1.43.78.44,0,1.68-.28,3.8-2.89,1.57-1.93,3.06-4.31,4.43-7.1-1.63-1.29-2.92-2.86-3.85-4.68-1.17-2.29-1.77-4.94-1.77-7.89s.47-5.43,1.4-7.49c.98-2.17,2.36-3.83,4.1-4.94,1.74-1.1,3.69-1.66,5.8-1.66,2.71,0,5,1.05,6.62,3.04,1.54,1.89,2.33,4.44,2.33,7.56,0,3.32-.6,6.97-1.79,10.87,1.03.09,2.14.13,3.34.13,1.29,0,2.32.35,3.05,1.05.75.72,1.15,1.67,1.15,2.75,0,1.32-.4,2.5-1.19,3.52-.62.8-1.8,1.76-3.95,1.82h-.63c-1.92,0-3.73-.12-5.4-.37-2.29,4.55-5.03,8.44-8.15,11.56-3.66,3.66-7.41,5.51-11.14,5.51ZM181.47,18.46c-.08.09-.18.24-.27.4-.28.52-.61,1.54-.61,3.53,0,1.08.13,2.03.39,2.85.47-1.87.71-3.5.71-4.85,0-1.11-.13-1.67-.22-1.93Z"/>
      <path class="cls-3" d="M200.04,56.09c-3.77,0-6.77-1.18-8.92-3.52-2.11-2.29-3.18-5.36-3.18-9.13,0-2.6.56-5.05,1.65-7.3,1.12-2.29,2.7-4.14,4.7-5.5,2.04-1.39,4.38-2.1,6.95-2.1s4.5.77,6.05,2.3c1.56,1.54,2.35,3.59,2.35,6.1,0,1.94-.48,3.7-1.43,5.27.13-.01.26-.02.38-.02,1.12,0,2.11.56,2.72,1.54.45.72.68,1.63.68,2.71,0,1.59-.4,3-1.18,4.19-1.12,1.71-2.6,3.07-4.42,4.02-1.8.95-3.94,1.43-6.36,1.43ZM200.33,37.44c-.22,0-.72.1-1.35,1.17-.23.39-.42.82-.58,1.28.36-.2.68-.41.96-.64.87-.72.97-1.32.97-1.71,0-.04,0-.07,0-.1Z"/>
      <path class="cls-3" d="M256.34,56.09c-2.85,0-5.21-.86-7.02-2.57-.75-.7-1.38-1.53-1.89-2.46-2.66,3.34-6.12,5.03-10.34,5.03-2.66,0-5.11-.67-7.27-2-2.17-1.33-3.89-3.26-5.12-5.74-1.2-2.42-1.81-5.28-1.81-8.51,0-5.36,1.17-10.4,3.46-14.97,2.32-4.63,5.8-8.4,10.33-11.2,4.53-2.8,10.02-4.22,16.3-4.22,1.61,0,3.36.12,5.19.37,1.86.25,3.59.63,5.13,1.13,1.72.49,2.78,1.96,2.78,3.9,0,1.35-.49,2.61-1.45,3.74-1.3,1.53-2.79,1.86-3.8,1.86-.2,0-.39,0-.56-.02.39.77.46,1.52.46,1.92,0,.44-.07.92-.21,1.49-.85,3.19-1.64,6.74-2.35,10.6-.69,3.78-1.04,6.66-1.04,8.56s.33,2.61.47,2.83c.09.14.21.32.78.32.63,0,1.24-.22,1.86-.68.84-.62,1.95-1.75,3.31-3.36,1-1.17,2.12-1.41,2.88-1.41,1.12,0,2.11.56,2.72,1.54.45.72.68,1.63.68,2.71,0,1.77-.47,3.24-1.41,4.37-1.75,2.11-3.52,3.76-5.24,4.9-1.89,1.25-4.2,1.88-6.85,1.88ZM251.16,19.25c-3.49.11-6.49,1.02-8.94,2.71-2.64,1.83-4.64,4.27-5.95,7.28-1.35,3.1-2.03,6.49-2.03,10.1,0,2.39.44,4.21,1.3,5.41.74,1.03,1.59,1.49,2.75,1.49,1.46,0,2.73-.61,3.88-1.85,1.34-1.45,2.61-3.94,3.78-7.39,1.23-3.63,2.47-8.65,3.68-14.94.3-1.41.92-2.28,1.54-2.81Z"/>
      <path class="cls-3" d="M267.34,56.09c-2.11,0-3.72-1.16-4.54-3.28-.61-1.58-.91-3.91-.91-7.12,0-4.52.65-8.88,1.94-12.95.44-1.41,1.21-2.48,2.28-3.19,1.03-.68,2.33-1,3.97-1,1.07,0,1.85.18,2.46.55.51.32,1.34,1.08,1.34,2.65,0,.1,0,.21-.01.35.89-.89,1.77-1.6,2.68-2.12,1.62-.94,3.18-1.42,4.63-1.42,3.29,0,5.25,1.96,5.25,5.25,0,.41-.06,1.15-.48,3.5-.13.66-.22,1.12-.27,1.45.34-.24.78-.6,1.34-1.16,1.02-1.02,2.07-1.24,2.76-1.24,1.1,0,2.08.54,2.7,1.48.46.71.7,1.59.7,2.62,0,1.76-.52,3.2-1.55,4.28-1.08,1.12-2.34,2.07-3.76,2.85-1.54.84-3.2,1.27-4.93,1.27-2.3,0-4.12-.65-5.42-1.92-1.04-1.02-1.67-2.3-1.89-3.82-.32.6-.64,1.27-.95,2-.75,1.72-1.37,3.56-1.84,5.48-.45,1.91-.99,3.2-1.71,4.02-.88,1-2.15,1.51-3.78,1.51ZM285.61,39.74h0Z"/>
      <path class="cls-3" d="M295.89,56.09c-3.77,0-6.77-1.18-8.92-3.52-2.11-2.29-3.18-5.36-3.18-9.13,0-2.6.56-5.05,1.65-7.3,1.12-2.29,2.7-4.14,4.7-5.5,2.04-1.39,4.38-2.1,6.95-2.1s4.5.77,6.05,2.3c1.56,1.54,2.35,3.59,2.35,6.1,0,1.94-.48,3.7-1.43,5.27.13-.01.26-.02.38-.02,1.12,0,2.11.56,2.72,1.54.45.72.68,1.63.68,2.71,0,1.59-.4,3-1.18,4.19-1.11,1.71-2.6,3.07-4.42,4.02-1.8.95-3.94,1.43-6.36,1.43ZM296.18,37.44c-.22,0-.72.1-1.35,1.17-.23.39-.42.82-.58,1.28.36-.2.68-.41.96-.64.87-.72.97-1.32.97-1.71,0-.04,0-.07,0-.1Z"/>
    </g>
    <g>
      <path class="cls-3" d="M50.24,55.09c-2.59,0-6.15-1.01-8.41-5.82-.75-1.59-1.34-3.43-1.79-5.51-1.3,2.6-2.7,4.74-4.18,6.41-2.9,3.27-6.1,4.92-9.52,4.92-2.8,0-6.66-1.25-9.1-7.22-1.72-4.2-2.6-9.87-2.6-16.83,0-4.98.44-10.51,1.32-16.44.29-2.09.88-3.59,1.8-4.56,1-1.06,2.48-1.6,4.38-1.6,1.45,0,2.65.36,3.56,1.08,1.05.83,1.59,2.17,1.59,3.97,0,.2-.01.57-.11,1.55-.99,6.8-1.49,12.57-1.49,17.25,0,4.24.36,7.52,1.06,9.75.6,1.92,1.17,2.24,1.2,2.25,0-.01.86-.27,2.56-2.79,1.54-2.29,3.12-5.8,4.69-10.43,1.59-4.7,2.96-10.39,4.07-16.92.36-2.05,1.07-3.48,2.18-4.39,1.08-.88,2.49-1.32,4.19-1.32,1.55,0,2.77.41,3.64,1.21.62.58,1.36,1.66,1.36,3.49,0,.69-.05,1.24-.15,1.68-.89,5.2-1.35,10.57-1.35,15.87,0,3.61.12,6.51.36,8.62.27,2.36.78,3.58,1.16,4.19.35.56.75.78,1.43.78.44,0,1.68-.28,3.8-2.89,1.57-1.93,3.06-4.32,4.43-7.1-1.63-1.29-2.92-2.86-3.85-4.68-1.17-2.29-1.77-4.94-1.77-7.89s.47-5.43,1.4-7.5c.98-2.17,2.36-3.83,4.1-4.94,1.74-1.1,3.69-1.66,5.8-1.66,2.71,0,5,1.05,6.62,3.04,1.54,1.89,2.33,4.44,2.33,7.56,0,3.32-.6,6.97-1.79,10.87,1.03.08,2.14.13,3.34.13,1.29,0,2.32.35,3.05,1.05.75.72,1.15,1.67,1.15,2.75,0,1.32-.4,2.5-1.19,3.52-.62.8-1.8,1.76-3.95,1.82h-.63c-1.92,0-3.73-.12-5.4-.37-2.29,4.55-5.03,8.44-8.15,11.56-3.66,3.66-7.4,5.51-11.14,5.51ZM64.62,17.46c-.08.09-.18.23-.27.4-.28.52-.61,1.54-.61,3.53,0,1.08.13,2.03.39,2.85.47-1.87.71-3.5.71-4.85,0-1.1-.13-1.67-.22-1.93Z"/>
      <path class="cls-3" d="M91.79,55.09c-2.29,0-4.09-.72-5.35-2.15-1.19-1.35-1.8-3.24-1.8-5.6,0-.72.11-1.76.33-3.13-.73,1.69-1.33,3.49-1.79,5.36-.84,3.56-3.21,5.52-6.64,5.52-2.44,0-3.43-1.42-3.8-2.27-.44-.99-.64-2.48-.64-4.68,0-1.13.02-2,.05-2.66l.05-3.92c0-5.21.54-10.73,1.61-16.4,1.08-5.74,2.72-10.66,4.86-14.61,2.42-4.46,5.49-6.72,9.13-6.72,2.17,0,4.02.97,5.35,2.8,1.2,1.66,1.8,3.78,1.8,6.3,0,3.69-1.07,7.53-3.19,11.43-.59,1.09-1.29,2.23-2.1,3.42.65-.17,1.28-.25,1.89-.25,3.29,0,5.25,1.96,5.25,5.25,0,1.45-.37,3.9-1.14,7.47-.65,2.96-.84,4.35-.89,5,.13-.1.29-.23.48-.39.84-.75,2.01-2.02,3.47-3.76,1.01-1.17,2.12-1.42,2.88-1.42,1.12,0,2.11.56,2.72,1.54.45.72.68,1.63.68,2.71,0,1.82-.48,3.3-1.44,4.41-1.63,1.88-3.35,3.46-5.09,4.68-1.95,1.37-4.2,2.06-6.67,2.06ZM85.96,15.78c-.4,1.15-.79,2.5-1.17,4.05.59-1.44.98-2.79,1.17-4.05Z"/>
      <path class="cls-3" d="M107.39,55.09c-2.38,0-4.46-.62-6.18-1.85-1.68-1.19-2.95-2.77-3.8-4.7-.81-1.84-1.22-3.85-1.22-5.95,0-2.82.55-5.4,1.62-7.64,1.1-2.29,2.63-4.12,4.55-5.44,1.96-1.34,4.19-2.02,6.63-2.02s4.46.62,6.2,1.84c1.7,1.19,2.99,2.78,3.83,4.71.81,1.85,1.22,3.85,1.22,5.95,0,2.83-.56,5.4-1.65,7.65-1.12,2.29-2.67,4.12-4.6,5.43-1.98,1.34-4.2,2.02-6.6,2.02ZM108.59,36.89c-.23,0-.71,0-1.29.91-.39.61-.86,1.85-.86,4.34,0,1.91.38,2.7.61,3.01.37.5.66.54.89.54.16,0,.6,0,1.19-.92.39-.62.86-1.88.86-4.33,0-1.74-.34-2.59-.63-2.99-.4-.56-.66-.56-.77-.56Z"/>
      <path class="cls-3" d="M166.09,55.09c-2.59,0-6.15-1.01-8.41-5.82-.75-1.58-1.34-3.42-1.78-5.49-1.3,2.59-2.69,4.71-4.19,6.4-2.9,3.27-6.1,4.92-9.52,4.92-2.8,0-6.66-1.25-9.1-7.22-1.73-4.2-2.6-9.87-2.6-16.83,0-4.97.45-10.51,1.32-16.44.29-2.09.88-3.59,1.8-4.56,1-1.06,2.47-1.6,4.37-1.6,1.45,0,2.65.36,3.56,1.08,1.06.83,1.59,2.17,1.59,3.97,0,.21-.01.57-.11,1.55-.99,6.8-1.49,12.57-1.49,17.25,0,4.24.36,7.52,1.06,9.75.6,1.92,1.17,2.24,1.2,2.25,0-.01.86-.27,2.56-2.79,1.54-2.29,3.12-5.8,4.69-10.43,1.59-4.69,2.96-10.38,4.07-16.92.36-2.05,1.07-3.49,2.19-4.39,1.08-.88,2.49-1.32,4.19-1.32,1.55,0,2.77.41,3.64,1.21.62.58,1.36,1.66,1.36,3.49,0,.69-.05,1.24-.15,1.68-.89,5.2-1.35,10.57-1.35,15.87,0,3.61.12,6.51.36,8.62.27,2.36.78,3.58,1.16,4.19.35.56.75.78,1.43.78.44,0,1.68-.28,3.8-2.89,1.57-1.93,3.06-4.31,4.43-7.1-1.63-1.29-2.92-2.86-3.85-4.68-1.17-2.29-1.77-4.94-1.77-7.89s.47-5.43,1.4-7.49c.98-2.17,2.36-3.83,4.1-4.94,1.74-1.1,3.69-1.66,5.8-1.66,2.71,0,5,1.05,6.62,3.04,1.54,1.89,2.33,4.44,2.33,7.56,0,3.32-.6,6.97-1.79,10.87,1.03.09,2.14.13,3.34.13,1.29,0,2.32.35,3.05,1.05.75.72,1.15,1.67,1.15,2.75,0,1.32-.4,2.5-1.19,3.52-.62.8-1.8,1.76-3.95,1.82h-.63c-1.92,0-3.73-.12-5.4-.37-2.29,4.55-5.03,8.44-8.15,11.56-3.66,3.66-7.41,5.51-11.14,5.51ZM180.47,17.46c-.08.09-.18.24-.27.4-.28.52-.61,1.54-.61,3.53,0,1.08.13,2.03.39,2.85.47-1.87.71-3.5.71-4.85,0-1.11-.13-1.67-.22-1.93Z"/>
      <path class="cls-3" d="M199.04,55.09c-3.77,0-6.77-1.18-8.92-3.52-2.11-2.29-3.18-5.36-3.18-9.13,0-2.6.56-5.05,1.65-7.3,1.12-2.29,2.7-4.14,4.7-5.5,2.04-1.39,4.38-2.1,6.95-2.1s4.5.77,6.05,2.3c1.56,1.54,2.35,3.59,2.35,6.1,0,1.94-.48,3.7-1.43,5.27.13-.01.26-.02.38-.02,1.12,0,2.11.56,2.72,1.54.45.72.68,1.63.68,2.71,0,1.59-.4,3-1.18,4.19-1.12,1.71-2.6,3.07-4.42,4.02-1.8.95-3.94,1.43-6.36,1.43ZM199.33,36.44c-.22,0-.72.1-1.35,1.17-.23.39-.42.82-.58,1.28.36-.2.68-.41.96-.64.87-.72.97-1.32.97-1.71,0-.04,0-.07,0-.1Z"/>
      <path class="cls-3" d="M255.34,55.09c-2.85,0-5.21-.86-7.02-2.57-.75-.7-1.38-1.53-1.89-2.46-2.66,3.34-6.12,5.03-10.34,5.03-2.66,0-5.11-.67-7.27-2-2.17-1.33-3.89-3.26-5.12-5.74-1.2-2.42-1.81-5.28-1.81-8.51,0-5.36,1.17-10.4,3.46-14.97,2.32-4.63,5.8-8.4,10.33-11.2,4.53-2.8,10.02-4.22,16.3-4.22,1.61,0,3.36.12,5.19.37,1.86.25,3.59.63,5.13,1.13,1.72.49,2.78,1.96,2.78,3.9,0,1.35-.49,2.61-1.45,3.74-1.3,1.53-2.79,1.86-3.8,1.86-.2,0-.39,0-.56-.02.39.77.46,1.52.46,1.92,0,.44-.07.92-.21,1.49-.85,3.19-1.64,6.74-2.35,10.6-.69,3.78-1.04,6.66-1.04,8.56s.33,2.61.47,2.83c.09.14.21.32.78.32.63,0,1.24-.22,1.86-.68.84-.62,1.95-1.75,3.31-3.36,1-1.17,2.12-1.41,2.88-1.41,1.12,0,2.11.56,2.72,1.54.45.72.68,1.63.68,2.71,0,1.77-.47,3.24-1.41,4.37-1.75,2.11-3.52,3.76-5.24,4.9-1.89,1.25-4.2,1.88-6.85,1.88ZM250.16,18.25c-3.49.11-6.49,1.02-8.94,2.71-2.64,1.83-4.64,4.27-5.95,7.28-1.35,3.1-2.03,6.49-2.03,10.1,0,2.39.44,4.21,1.3,5.41.74,1.03,1.59,1.49,2.75,1.49,1.46,0,2.73-.61,3.88-1.85,1.34-1.45,2.61-3.94,3.78-7.39,1.23-3.63,2.47-8.65,3.68-14.94.3-1.41.92-2.28,1.54-2.81Z"/>
      <path class="cls-3" d="M266.34,55.09c-2.11,0-3.72-1.16-4.54-3.28-.61-1.58-.91-3.91-.91-7.12,0-4.52.65-8.88,1.94-12.95.44-1.41,1.21-2.48,2.28-3.19,1.03-.68,2.33-1,3.97-1,1.07,0,1.85.18,2.46.55.51.32,1.34,1.08,1.34,2.65,0,.1,0,.21-.01.35.89-.89,1.77-1.6,2.68-2.12,1.62-.94,3.18-1.42,4.63-1.42,3.29,0,5.25,1.96,5.25,5.25,0,.41-.06,1.15-.48,3.5-.13.66-.22,1.12-.27,1.45.34-.24.78-.6,1.34-1.16,1.02-1.02,2.07-1.24,2.76-1.24,1.1,0,2.08.54,2.7,1.48.46.71.7,1.59.7,2.62,0,1.76-.52,3.2-1.55,4.28-1.08,1.12-2.34,2.07-3.76,2.85-1.54.84-3.2,1.27-4.93,1.27-2.3,0-4.12-.65-5.42-1.92-1.04-1.02-1.67-2.3-1.89-3.82-.32.6-.64,1.27-.95,2-.75,1.72-1.37,3.56-1.84,5.48-.45,1.91-.99,3.2-1.71,4.02-.88,1-2.15,1.51-3.78,1.51ZM284.61,38.74h0Z"/>
      <path class="cls-3" d="M294.89,55.09c-3.77,0-6.77-1.18-8.92-3.52-2.11-2.29-3.18-5.36-3.18-9.13,0-2.6.56-5.05,1.65-7.3,1.12-2.29,2.7-4.14,4.7-5.5,2.04-1.39,4.38-2.1,6.95-2.1s4.5.77,6.05,2.3c1.56,1.54,2.35,3.59,2.35,6.1,0,1.94-.48,3.7-1.43,5.27.13-.01.26-.02.38-.02,1.12,0,2.11.56,2.72,1.54.45.72.68,1.63.68,2.71,0,1.59-.4,3-1.18,4.19-1.11,1.71-2.6,3.07-4.42,4.02-1.8.95-3.94,1.43-6.36,1.43ZM295.18,36.44c-.22,0-.72.1-1.35,1.17-.23.39-.42.82-.58,1.28.36-.2.68-.41.96-.64.87-.72.97-1.32.97-1.71,0-.04,0-.07,0-.1Z"/>
    </g>
  </g>
  <text class="cls-1" transform="translate(10.59 52.84)"><tspan x="0" y="0">Who</tspan><tspan class="cls-4" x="108.6" y="0"> </tspan><tspan x="115.85" y="0">We Are</tspan></text>
</svg>