<?xml version="1.0" encoding="UTF-8"?>
<svg id="Body" xmlns="http://www.w3.org/2000/svg" viewBox="0 0 228.94 55.49">
  <defs>
    <style>
      .cls-1, .cls-2 {
        fill: #f93;
      }

      .cls-1, .cls-3 {
        font-family: Pacifico-Regular, Pacifico;
        font-size: 30px;
      }

      .cls-4 {
        letter-spacing: .02em;
      }

      .cls-5 {
        letter-spacing: 0em;
      }

      .cls-3 {
        fill: #fff;
      }
    </style>
  </defs>
  <text class="cls-1" transform="translate(9.53 34.99)"><tspan x="0" y="0">Why Ch</tspan><tspan class="cls-5" x="108.64" y="0">o</tspan><tspan x="122.08" y="0">se U</tspan><tspan class="cls-4" x="181.87" y="0">s</tspan><tspan x="194.29" y="0">?</tspan></text>
  <g>
    <path class="cls-2" d="M33.32,37.14c-1.78,0-4.23-.69-5.77-3.95-.22-.48-.43-.98-.61-1.52-.53.85-1.08,1.6-1.65,2.25-1.9,2.14-4.02,3.22-6.31,3.22-1.93,0-4.57-.84-6.2-4.83-1.09-2.66-1.62-6.06-1.62-10.4,0-3.03.27-6.38.8-9.98.2-1.42.62-2.46,1.29-3.17.76-.8,1.84-1.21,3.21-1.21,1.06,0,1.94.28,2.63.82.57.45,1.26,1.34,1.26,3.01,0,.18-.02.51-.07,1.01-.59,4.07-.89,7.5-.89,10.27,0,2.47.2,4.35.6,5.61.05.15.09.28.14.39.18-.21.41-.5.69-.92.89-1.31,1.8-3.35,2.72-6.07.94-2.78,1.75-6.15,2.41-10.03.25-1.43.77-2.45,1.59-3.12.79-.65,1.81-.97,3.02-.97,1.14,0,2.06.32,2.73.94.49.46,1.07,1.29,1.07,2.68,0,.47-.04.86-.11,1.19-.52,3.04-.79,6.22-.79,9.35,0,2.13.07,3.84.21,5.09.15,1.33.43,1.94.58,2.18.03.06.06.08.07.09t0,0s.04,0,.11,0c0,0,.55-.08,1.66-1.44.8-.98,1.56-2.17,2.28-3.55-.83-.76-1.51-1.64-2.03-2.65-.76-1.49-1.15-3.2-1.15-5.1s.31-3.48.91-4.83c.65-1.45,1.58-2.56,2.76-3.31,1.17-.74,2.49-1.12,3.91-1.12,1.88,0,3.47.73,4.6,2.12,1.04,1.28,1.58,2.98,1.58,5.04,0,1.79-.28,3.73-.83,5.78.31.01.63.02.96.02.99,0,1.79.29,2.38.85.61.58.94,1.37.94,2.23,0,.96-.31,1.86-.88,2.6-.48.61-1.38,1.36-2.98,1.4h-.4c-.97,0-1.9-.05-2.78-.15-1.36,2.59-2.96,4.82-4.78,6.63-2.35,2.35-4.79,3.54-7.25,3.54Z"/>
    <path class="cls-2" d="M58.25,37.14c-2.01,0-3.18-.85-3.81-1.56-.37-.42-.66-.9-.87-1.44-.77,1.92-2.36,3-4.47,3-1.4,0-2.5-.67-3.01-1.84-.32-.71-.46-1.68-.46-3.13,0-.68.01-1.23.03-1.64l.03-2.32c0-3.17.33-6.53.98-9.98.67-3.53,1.68-6.56,3-9,1.99-3.68,4.46-4.45,6.18-4.45,1.57,0,2.9.7,3.86,2.01.82,1.14,1.23,2.56,1.23,4.25,0,2.35-.68,4.78-2.01,7.24-.13.24-.27.49-.42.74,2.17.17,3.54,1.67,3.54,3.93,0,.95-.22,2.42-.71,4.65-.04.16-.07.32-.1.46.17-.19.34-.4.54-.64.63-.74,1.46-1.14,2.34-1.14.95,0,1.8.48,2.31,1.3.35.55.53,1.24.53,2.05,0,1.29-.36,2.36-1.06,3.17-1.02,1.18-2.1,2.17-3.2,2.94-1.31.92-2.81,1.38-4.46,1.38Z"/>
    <path class="cls-2" d="M64.43,50.64c-1.54,0-2.88-.53-3.89-1.52-1.02-1-1.56-2.35-1.56-3.9,0-1.22.27-2.46.81-3.69.52-1.19,1.43-2.48,2.76-3.93.29-.31.61-.64.95-.97-.61-.32-1.22-.83-1.76-1.61-.8-1.17-1.21-2.59-1.21-4.24s.11-3.09.33-4.44c.21-1.35.57-2.79,1.07-4.28.33-1.01.86-1.78,1.57-2.29.72-.52,1.66-.77,2.88-.77.93,0,1.64.22,2.18.66.39.33.68.75.84,1.23.25-.43.55-.79.92-1.07.69-.54,1.61-.82,2.72-.82.88,0,1.54.16,2.07.52.74.49,1.16,1.32,1.16,2.27,0,.47-.1,1.45-.81,5.48-.45,2.78-.72,4.44-.8,4.96-.76,5.27-1.84,9.55-3.2,12.7-2.04,4.72-4.95,5.71-7.03,5.71Z"/>
    <path class="cls-2" d="M96.11,37.14c-2.68,0-5.07-.51-7.1-1.51-2.11-1.04-3.75-2.55-4.89-4.48-1.12-1.9-1.69-4.12-1.69-6.59,0-3.23.63-6.16,1.87-8.71,1.27-2.6,3.02-4.65,5.22-6.09,2.22-1.46,4.72-2.21,7.43-2.21s4.83.75,6.33,2.24c1.51,1.49,2.27,3.45,2.27,5.82,0,1.57-.31,2.9-.92,3.95-.79,1.36-2.06,2.11-3.58,2.11-1.03,0-1.9-.28-2.58-.84-.78-.63-1.22-1.59-1.22-2.69,0-.31.04-.7.15-1.32.13-.68.15-.98.15-1.11,0-.45-.1-.59-.1-.59,0,0-.18-.14-.81-.14-.9,0-1.76.3-2.62.92-.9.65-1.66,1.65-2.25,2.98-.62,1.41-.94,3.14-.94,5.15,0,1.86.46,3.21,1.41,4.14.95.93,2.47,1.4,4.54,1.4,1.13,0,2.3-.15,3.46-.44,1.22-.3,2.61-.78,4.13-1.42.58-.23,1.06-.34,1.52-.34.99,0,1.85.46,2.38,1.25.38.58.58,1.26.58,2.04,0,2.02-1.13,3.63-3.18,4.53-1.56.68-3.19,1.18-4.86,1.5-1.65.31-3.24.47-4.74.47Z"/>
    <path class="cls-2" d="M115.31,37.14c-2.01,0-3.18-.85-3.81-1.56-.37-.42-.66-.9-.87-1.44-.77,1.92-2.36,3-4.47,3-1.4,0-2.5-.67-3.01-1.84-.32-.71-.46-1.68-.46-3.13,0-.68.01-1.23.03-1.64l.03-2.32c0-3.17.33-6.53.98-9.98.67-3.53,1.68-6.56,3-9,1.99-3.68,4.46-4.45,6.18-4.45,1.57,0,2.9.7,3.86,2.01.82,1.14,1.23,2.56,1.23,4.25,0,2.35-.68,4.78-2.01,7.24-.13.24-.27.49-.42.74,2.17.17,3.54,1.67,3.54,3.93,0,.95-.22,2.42-.71,4.65-.04.16-.07.32-.1.46.17-.19.34-.4.54-.64.63-.74,1.46-1.14,2.34-1.14.95,0,1.8.48,2.31,1.3.35.55.53,1.24.53,2.05,0,1.29-.36,2.36-1.06,3.17-1.02,1.18-2.1,2.17-3.2,2.94-1.31.92-2.81,1.38-4.46,1.38Z"/>
    <path class="cls-2" d="M124.67,37.14c-1.6,0-3-.42-4.18-1.26-1.12-.8-1.98-1.86-2.55-3.15-.53-1.21-.8-2.52-.8-3.89,0-1.81.35-3.47,1.05-4.93.72-1.51,1.73-2.71,3-3.58,1.32-.9,2.81-1.35,4.43-1.35s3,.42,4.18,1.25c1.14.8,2.01,1.86,2.57,3.16.53,1.21.8,2.52.8,3.89,0,1.82-.36,3.48-1.07,4.94-.73,1.51-1.75,2.71-3.03,3.57-1.32.9-2.8,1.35-4.41,1.35ZM125.29,26.4c-.12.18-.39.76-.39,2.17,0,.62.07.97.13,1.16,0,0,0,0,0,0,.15-.23.39-.82.39-2.17,0-.61-.08-.96-.14-1.15Z"/>
    <path class="cls-2" d="M138.62,37.8c-1.53,0-2.78-.41-3.7-1.21-.53-.47-.89-.95-1.12-1.43-.54.26-1.06.33-1.45.33-.9,0-1.71-.37-2.29-1.03-.52-.6-.79-1.35-.79-2.17s.3-1.68.87-2.38l.39-.48c1.04-1.29,1.84-2.36,2.35-3.17.27-.46.64-1.19,1.08-2.11.44-.93.89-1.92,1.32-2.94.41-.96,1.5-2.54,4.21-2.54.88,0,1.49.1,2,.33.94.43,1.5,1.29,1.5,2.3,0,.33-.06.69-.21,1.16-.12.38-.28.76-.48,1.14-.21.42-.27.68-.29.8,0,.02.02.04.04.06.11.18.33.52.8,1.1.74.97,1.27,1.75,1.65,2.43.02.03.04.07.05.1.17-.19.34-.4.53-.63.66-.77,1.49-1.17,2.37-1.17.96,0,1.8.48,2.31,1.3.35.55.53,1.24.53,2.05,0,1.22-.34,2.26-1,3.1-1.21,1.49-2.36,2.5-3.55,3.09-1.01.5-2.2.8-3.55.91-1.04.7-2.24,1.06-3.57,1.06Z"/>
    <path class="cls-2" d="M151.46,37.14c-2.49,0-4.49-.8-5.94-2.37-1.41-1.52-2.12-3.55-2.12-6.02,0-1.68.36-3.27,1.07-4.73.73-1.5,1.77-2.72,3.09-3.61,1.36-.93,2.92-1.4,4.62-1.4s3.11.54,4.19,1.61c1.08,1.06,1.65,2.53,1.65,4.23,0,.9-.15,1.74-.46,2.53.54.21,1,.59,1.33,1.12.35.56.53,1.25.53,2.05,0,1.11-.28,2.11-.84,2.96-.74,1.14-1.73,2.05-2.95,2.68-1.2.63-2.6.95-4.19.95Z"/>
    <path class="cls-2" d="M188.4,37.14c-2.19,0-3.94-.62-5.2-1.84-.52-.5-.93-1.06-1.24-1.69-.19.22-.38.43-.58.63-1.91,1.92-4.17,2.9-6.71,2.9-2.25,0-4.03-.69-5.28-2.04-1.21-1.31-1.82-3.02-1.82-5.09,0-1.03.14-2.21.43-3.61l1.86-8.6c.05-.21.14-.63.28-1.31.06-.27.1-.55.13-.84-.61.45-1.29,1.17-2.01,2.15-.88,1.19-1.97,1.37-2.53,1.37-.9,0-1.73-.42-2.32-1.18-.48-.62-.74-1.36-.74-2.14,0-1.05.41-2.14,1.22-3.27,2.44-3.34,5.39-5.03,8.79-5.03,2.23,0,3.58.95,4.33,1.75,1.04,1.12,1.57,2.68,1.57,4.63,0,1.12-.08,2.18-.24,3.14-.15.91-.4,2.13-.75,3.64l-1.23,5.48-.21.95c-.09.42-.16.81-.22,1.17-.04.31-.07.62-.07.92,0,.04,0,.07,0,.1.02,0,.04,0,.07,0,.78,0,1.63-.71,2.2-1.31,1.03-1.07,2.04-2.93,2.99-5.5.99-2.7,1.78-6.23,2.34-10.5.19-1.37.49-2.32.94-2.99.45-.67,1.38-1.48,3.23-1.48,1.66,0,2.61.75,3.12,1.37.64.79.95,1.87.95,3.3,0,.65-.07,1.44-.22,2.42-.13.89-.33,2.13-.59,3.72-.54,3.05-.97,5.85-1.28,8.35-.19,1.34-.22,2.01-.22,2.33,0,.28.03.44.06.52.16,0,.41-.04.77-.3.33-.23.93-.74,1.85-1.84.63-.73,1.46-1.13,2.34-1.13.95,0,1.79.47,2.31,1.3.35.56.53,1.25.53,2.05,0,1.25-.35,2.31-1.03,3.13-1.21,1.46-2.4,2.52-3.64,3.23-1.32.75-2.73,1.13-4.2,1.13Z"/>
    <path class="cls-2" d="M198.42,37.8c-1.53,0-2.78-.41-3.7-1.21-.53-.47-.89-.95-1.12-1.43-.54.26-1.06.33-1.45.33-.9,0-1.71-.37-2.29-1.03-.52-.6-.79-1.35-.79-2.17s.3-1.68.87-2.38l.39-.48c1.04-1.29,1.84-2.36,2.35-3.17.3-.49.63-1.11.97-1.84.37-.79.84-1.87,1.44-3.23.41-.94,1.49-2.52,4.2-2.52.88,0,1.49.1,2,.33.94.43,1.5,1.29,1.5,2.3,0,.33-.06.69-.21,1.16-.12.38-.28.76-.48,1.14-.21.42-.27.68-.29.8,0,.02.02.04.04.06.11.18.33.52.8,1.1.74.97,1.27,1.75,1.65,2.43.5.89.75,1.87.75,2.91,0,1.16-.27,2.28-.81,3.31-.55,1.05-1.32,1.92-2.31,2.56-1.03.68-2.21,1.02-3.5,1.02Z"/>
    <path class="cls-2" d="M208.41,37.14c-1.81,0-2.88-.74-3.46-1.35-.8-.85-1.22-1.98-1.22-3.26,0-1.77.71-2.9,1.31-3.53.34-.36.83-.76,1.52-1.04-.13-.38-.21-.85-.19-1.42.1-1.58.48-2.98,1.13-4.21.56-1.05,1.4-2.16,2.57-3.38-.48.21-1.03.31-1.64.31-1.51,0-2.42-.67-2.92-1.22-.67-.75-1-1.72-1-2.91,0-1.36.34-2.62,1.01-3.76.68-1.16,1.72-2.09,3.06-2.77,1.27-.64,2.82-.96,4.58-.96,2.43,0,4.39.57,5.83,1.7,1.57,1.23,2.41,3.04,2.41,5.25,0,1.64-.43,3.14-1.27,4.48-.75,1.19-1.85,2.41-3.27,3.63-1.03.88-1.81,1.59-2.32,2.12-.55.57-.81.93-.93,1.13-.17.28-.31.63-.42,1.03-.21.76-.56,1.41-1.05,1.9.56.59,1.16,1.6,1.16,3.22,0,1.42-.46,2.66-1.33,3.58-.63.66-1.76,1.45-3.58,1.45ZM212.79,14.61c-.52,0-.76.1-.8.14v1.21c.01.44-.06.85-.21,1.23.38-.43.68-.82.89-1.15.29-.45.43-.9.43-1.35,0-.02,0-.04,0-.05-.07-.01-.17-.02-.31-.02Z"/>
  </g>
  <text class="cls-3" transform="translate(9.53 34.99)"><tspan x="0" y="0">Why Ch</tspan><tspan class="cls-5" x="108.64" y="0">o</tspan><tspan x="122.08" y="0">se U</tspan><tspan class="cls-4" x="181.87" y="0">s</tspan><tspan x="194.29" y="0">?</tspan></text>
</svg>